ISO-10303-21;
HEADER;
FILE_DESCRIPTION(('FreeCAD Model'),'2;1');
FILE_NAME('Open CASCADE Shape Model','2025-05-14T11:23:37',(''),(''),
  'Open CASCADE STEP processor 7.8','FreeCAD','Unknown');
FILE_SCHEMA(('AUTOMOTIVE_DESIGN { 1 0 10303 214 1 1 1 1 }'));
ENDSEC;
DATA;
#1 = APPLICATION_PROTOCOL_DEFINITION('international standard',
  'automotive_design',2000,#2);
#2 = APPLICATION_CONTEXT(
  'core data for automotive mechanical design processes');
#3 = SHAPE_DEFINITION_REPRESENTATION(#4,#10);
#4 = PRODUCT_DEFINITION_SHAPE('','',#5);
#5 = PRODUCT_DEFINITION('design','',#6,#9);
#6 = PRODUCT_DEFINITION_FORMATION('','',#7);
#7 = PRODUCT('Body','Body','',(#8));
#8 = PRODUCT_CONTEXT('',#2,'mechanical');
#9 = PRODUCT_DEFINITION_CONTEXT('part definition',#2,'design');
#10 = ADVANCED_BREP_SHAPE_REPRESENTATION('',(#11,#15),#1075);
#11 = AXIS2_PLACEMENT_3D('',#12,#13,#14);
#12 = CARTESIAN_POINT('',(0.,0.,0.));
#13 = DIRECTION('',(0.,0.,1.));
#14 = DIRECTION('',(1.,0.,-0.));
#15 = MANIFOLD_SOLID_BREP('',#16);
#16 = CLOSED_SHELL('',(#17,#319,#350,#375,#400,#424,#473,#498,#522,#550,
    #575,#592,#700,#711,#732,#744,#769,#799,#824,#849,#874,#894,#947,
    #967,#987,#1007,#1024,#1041,#1058));
#17 = ADVANCED_FACE('',(#18),#314,.T.);
#18 = FACE_BOUND('',#19,.T.);
#19 = EDGE_LOOP('',(#20,#31,#74,#82,#90,#99,#108,#116,#125,#134,#181,
    #189,#197,#240,#249,#280,#288));
#20 = ORIENTED_EDGE('',*,*,#21,.T.);
#21 = EDGE_CURVE('',#22,#24,#26,.T.);
#22 = VERTEX_POINT('',#23);
#23 = CARTESIAN_POINT('',(-19.97799500002,43.857850733651,
    51.793820754421));
#24 = VERTEX_POINT('',#25);
#25 = CARTESIAN_POINT('',(-37.19697787149,13.62880148603,64.769255035871
    ));
#26 = CIRCLE('',#27,43.5);
#27 = AXIS2_PLACEMENT_3D('',#28,#29,#30);
#28 = CARTESIAN_POINT('',(-3.00907511576,5.9,39.006822449764));
#29 = DIRECTION('',(0.601815023152,1.336297790537E-16,0.798635510047));
#30 = DIRECTION('',(-2.22044604925E-16,1.,0.));
#31 = ORIENTED_EDGE('',*,*,#32,.T.);
#32 = EDGE_CURVE('',#24,#33,#35,.T.);
#33 = VERTEX_POINT('',#34);
#34 = CARTESIAN_POINT('',(-40.75879491857,5.9,61.192598406641));
#35 = B_SPLINE_CURVE_WITH_KNOTS('',7,(#36,#37,#38,#39,#40,#41,#42,#43,
    #44,#45,#46,#47,#48,#49,#50,#51,#52,#53,#54,#55,#56,#57,#58,#59,#60,
    #61,#62,#63,#64,#65,#66,#67,#68,#69,#70,#71,#72,#73),.UNSPECIFIED.,
  .F.,.F.,(8,6,6,6,6,6,8),(0.,0.297433959941,0.565068583356,
    0.654193002644,0.76772474143,0.856301261321,1.),.UNSPECIFIED.);
#36 = CARTESIAN_POINT('',(-37.19697787149,13.62880148603,64.769255035871
    ));
#37 = CARTESIAN_POINT('',(-37.26204495256,13.177544021454,
    64.818286598338));
#38 = CARTESIAN_POINT('',(-37.33728887172,12.727194932483,
    64.844018392388));
#39 = CARTESIAN_POINT('',(-37.42161933915,12.279684061275,
    64.847462793017));
#40 = CARTESIAN_POINT('',(-37.51421492033,11.836735712507,
    64.829573008778));
#41 = CARTESIAN_POINT('',(-37.6144883144,11.399874674229,64.791228172801
    ));
#42 = CARTESIAN_POINT('',(-37.72210703149,10.9704531634,64.7331500621));
#43 = CARTESIAN_POINT('',(-37.94051404105,10.171098809911,
    64.586107246808));
#44 = CARTESIAN_POINT('',(-38.04984426539,9.799737742747,64.500860480506
    ));
#45 = CARTESIAN_POINT('',(-38.16506871555,9.436424444826,64.400328370506
    ));
#46 = CARTESIAN_POINT('',(-38.28631425834,9.082283235275,64.28467658924)
  );
#47 = CARTESIAN_POINT('',(-38.41383377859,8.738742687746,64.153959580559
    ));
#48 = CARTESIAN_POINT('',(-38.54802040129,8.407534514793,64.00812748671)
  );
#49 = CARTESIAN_POINT('',(-38.73669447225,7.985397997773,63.793121037407
    ));
#50 = CARTESIAN_POINT('',(-38.78463783077,7.881566100412,63.73770116072)
  );
#51 = CARTESIAN_POINT('',(-38.83341257734,7.779445846643,63.680564725664
    ));
#52 = CARTESIAN_POINT('',(-38.88304146515,7.679135257226,63.621703047841
    ));
#53 = CARTESIAN_POINT('',(-38.93354800941,7.580743646525,63.561107673446
    ));
#54 = CARTESIAN_POINT('',(-38.9849564874,7.484391622518,63.498770379271)
  );
#55 = CARTESIAN_POINT('',(-39.10395980343,7.270238580187,63.353045255123
    ));
#56 = CARTESIAN_POINT('',(-39.17212814475,7.153797062625,63.268572568142
    ));
#57 = CARTESIAN_POINT('',(-39.24185141674,7.041153113898,63.181245547164
    ));
#58 = CARTESIAN_POINT('',(-39.31317812726,6.932622725074,63.091056162086
    ));
#59 = CARTESIAN_POINT('',(-39.38614862642,6.828566270051,62.998011023831
    ));
#60 = CARTESIAN_POINT('',(-39.46079289551,6.729383477122,62.902134490894
    ));
#61 = CARTESIAN_POINT('',(-39.59668461249,6.562267845274,62.726495944859
    ));
#62 = CARTESIAN_POINT('',(-39.65726723266,6.49226197737,62.647828112598)
  );
#63 = CARTESIAN_POINT('',(-39.71888153775,6.425698278083,62.567493208852
    ));
#64 = CARTESIAN_POINT('',(-39.7815230849,6.362803314324,62.485530604653)
  );
#65 = CARTESIAN_POINT('',(-39.84517511781,6.303815469067,62.401996658124
    ));
#66 = CARTESIAN_POINT('',(-39.90980603768,6.248977671755,62.316967260294
    ));
#67 = CARTESIAN_POINT('',(-40.0817269965,6.116688481354,62.090329029548)
  );
#68 = CARTESIAN_POINT('',(-40.19058397447,6.046362830407,61.946374544282
    ));
#69 = CARTESIAN_POINT('',(-40.30165344343,5.988655316042,61.799192138937
    ));
#70 = CARTESIAN_POINT('',(-40.41456230128,5.944553521179,61.649410939883
    ));
#71 = CARTESIAN_POINT('',(-40.52882613137,5.9148460656,61.497777132262)
  );
#72 = CARTESIAN_POINT('',(-40.64382747005,5.9,61.345165363863));
#73 = CARTESIAN_POINT('',(-40.75879491857,5.9,61.192598406641));
#74 = ORIENTED_EDGE('',*,*,#75,.F.);
#75 = EDGE_CURVE('',#76,#33,#78,.T.);
#76 = VERTEX_POINT('',#77);
#77 = CARTESIAN_POINT('',(-37.74971980281,5.9,65.185775956878));
#78 = LINE('',#79,#80);
#79 = CARTESIAN_POINT('',(-34.74064468705,5.9,69.178953507114));
#80 = VECTOR('',#81,1.);
#81 = DIRECTION('',(-0.601815023152,-0.,-0.798635510047));
#82 = ORIENTED_EDGE('',*,*,#83,.F.);
#83 = EDGE_CURVE('',#84,#76,#86,.T.);
#84 = VERTEX_POINT('',#85);
#85 = CARTESIAN_POINT('',(-34.74064468705,5.9,69.178953507114));
#86 = LINE('',#87,#88);
#87 = CARTESIAN_POINT('',(-34.74064468705,5.9,69.178953507114));
#88 = VECTOR('',#89,1.);
#89 = DIRECTION('',(-0.601815023152,-0.,-0.798635510047));
#90 = ORIENTED_EDGE('',*,*,#91,.F.);
#91 = EDGE_CURVE('',#92,#84,#94,.T.);
#92 = VERTEX_POINT('',#93);
#93 = CARTESIAN_POINT('',(-1.09690034833E-14,49.4,43.));
#94 = CIRCLE('',#95,43.5);
#95 = AXIS2_PLACEMENT_3D('',#96,#97,#98);
#96 = CARTESIAN_POINT('',(-1.310063169058E-15,5.9,43.));
#97 = DIRECTION('',(0.601815023152,1.336297790537E-16,0.798635510047));
#98 = DIRECTION('',(-2.22044604925E-16,1.,-2.465190328816E-32));
#99 = ORIENTED_EDGE('',*,*,#100,.F.);
#100 = EDGE_CURVE('',#101,#92,#103,.T.);
#101 = VERTEX_POINT('',#102);
#102 = CARTESIAN_POINT('',(27.911596979473,-20.,21.967103051281));
#103 = CIRCLE('',#104,43.5);
#104 = AXIS2_PLACEMENT_3D('',#105,#106,#107);
#105 = CARTESIAN_POINT('',(-1.310063169058E-15,5.9,43.));
#106 = DIRECTION('',(0.601815023152,1.336297790537E-16,0.798635510047));
#107 = DIRECTION('',(-2.22044604925E-16,1.,-2.465190328816E-32));
#108 = ORIENTED_EDGE('',*,*,#109,.F.);
#109 = EDGE_CURVE('',#110,#101,#112,.T.);
#110 = VERTEX_POINT('',#111);
#111 = CARTESIAN_POINT('',(22.661508257698,-20.,15.));
#112 = LINE('',#113,#114);
#113 = CARTESIAN_POINT('',(27.911596979474,-20.,21.967103051281));
#114 = VECTOR('',#115,1.);
#115 = DIRECTION('',(0.601815023152,1.336297790537E-16,0.798635510047));
#116 = ORIENTED_EDGE('',*,*,#117,.T.);
#117 = EDGE_CURVE('',#110,#118,#120,.T.);
#118 = VERTEX_POINT('',#119);
#119 = CARTESIAN_POINT('',(-21.09951340287,49.4,15.));
#120 = ELLIPSE('',#121,54.467901129796,43.5);
#121 = AXIS2_PLACEMENT_3D('',#122,#123,#124);
#122 = CARTESIAN_POINT('',(-21.09951340287,5.9,15.));
#123 = DIRECTION('',(0.,-0.,1.));
#124 = DIRECTION('',(1.,2.22044604925E-16,0.));
#125 = ORIENTED_EDGE('',*,*,#126,.T.);
#126 = EDGE_CURVE('',#118,#127,#129,.T.);
#127 = VERTEX_POINT('',#128);
#128 = CARTESIAN_POINT('',(-35.30341102499,47.894876239531,15.));
#129 = ELLIPSE('',#130,54.467901129796,43.5);
#130 = AXIS2_PLACEMENT_3D('',#131,#132,#133);
#131 = CARTESIAN_POINT('',(-21.09951340287,5.9,15.));
#132 = DIRECTION('',(0.,-0.,1.));
#133 = DIRECTION('',(1.,2.22044604925E-16,0.));
#134 = ORIENTED_EDGE('',*,*,#135,.T.);
#135 = EDGE_CURVE('',#127,#136,#138,.T.);
#136 = VERTEX_POINT('',#137);
#137 = CARTESIAN_POINT('',(-59.20675637121,5.9,36.711326691471));
#138 = B_SPLINE_CURVE_WITH_KNOTS('',6,(#139,#140,#141,#142,#143,#144,
    #145,#146,#147,#148,#149,#150,#151,#152,#153,#154,#155,#156,#157,
    #158,#159,#160,#161,#162,#163,#164,#165,#166,#167,#168,#169,#170,
    #171,#172,#173,#174,#175,#176,#177,#178,#179,#180),.UNSPECIFIED.,.F.
  ,.F.,(7,5,5,5,5,5,5,5,7),(0.,0.142481404454,0.216045439151,
    0.263821497888,0.380347556596,0.50983933939,0.605038292444,
    0.781142255189,1.),.UNSPECIFIED.);
#139 = CARTESIAN_POINT('',(-35.30303572684,47.895152870295,
    14.998796276162));
#140 = CARTESIAN_POINT('',(-35.60959371233,47.669192060791,
    15.982100195166));
#141 = CARTESIAN_POINT('',(-35.95005338376,47.414608760177,
    16.964489648896));
#142 = CARTESIAN_POINT('',(-36.32644000484,47.128326444838,
    17.943315348427));
#143 = CARTESIAN_POINT('',(-36.74061456445,46.806859871183,
    18.916135126945));
#144 = CARTESIAN_POINT('',(-37.19417506146,46.446217430122,
    19.880659567894));
#145 = CARTESIAN_POINT('',(-37.94343131899,45.832899978084,
    21.327260329761));
#146 = CARTESIAN_POINT('',(-38.20928264977,45.612449225119,
    21.816864877587));
#147 = CARTESIAN_POINT('',(-38.48586054021,45.379880776925,
    22.302911611621));
#148 = CARTESIAN_POINT('',(-38.773100263,45.134683596181,22.784848324055
    ));
#149 = CARTESIAN_POINT('',(-39.07087342753,44.876338740252,
    23.26216163396));
#150 = CARTESIAN_POINT('',(-39.57909254212,44.427656758522,
    24.041056583497));
#151 = CARTESIAN_POINT('',(-39.78354311906,44.245240610282,
    24.34556153245));
#152 = CARTESIAN_POINT('',(-39.99225513074,44.056954611201,
    24.647715804198));
#153 = CARTESIAN_POINT('',(-40.2051286456,43.862687737674,
    24.947352150888));
#154 = CARTESIAN_POINT('',(-40.42204838057,43.662334247754,
    25.24431210676));
#155 = CARTESIAN_POINT('',(-41.1815022101,42.952040152192,
    26.255840072897));
#156 = CARTESIAN_POINT('',(-41.74346227268,42.411437195344,
    26.956486569088));
#157 = CARTESIAN_POINT('',(-42.32655265513,41.83282876138,
    27.637768071186));
#158 = CARTESIAN_POINT('',(-42.92793673227,41.215427312785,
    28.297432176298));
#159 = CARTESIAN_POINT('',(-43.54420440636,40.558956211722,
    28.93353439075));
#160 = CARTESIAN_POINT('',(-44.86861652273,39.091429532226,
    30.223203415991));
#161 = CARTESIAN_POINT('',(-45.57899031622,38.271704145068,
    30.870484292364));
#162 = CARTESIAN_POINT('',(-46.29784583979,37.404824099846,
    31.484471200367));
#163 = CARTESIAN_POINT('',(-47.01985057542,36.491765404789,
    32.063692068834));
#164 = CARTESIAN_POINT('',(-47.73944224867,35.534477590719,
    32.606964121201));
#165 = CARTESIAN_POINT('',(-48.97437086634,33.801975979791,
    33.485716982285));
#166 = CARTESIAN_POINT('',(-49.49347976559,33.045475351032,
    33.838229466438));
#167 = CARTESIAN_POINT('',(-50.00661314715,32.267256167271,
    34.170793858853));
#168 = CARTESIAN_POINT('',(-50.51196865409,31.468217668965,
    34.483306376893));
#169 = CARTESIAN_POINT('',(-51.00782718161,30.64943051064,
    34.775696488117));
#170 = CARTESIAN_POINT('',(-52.38929954648,28.263303480803,
    35.551496400458));
#171 = CARTESIAN_POINT('',(-53.24800495943,26.651189404268,
    35.986061825457));
#172 = CARTESIAN_POINT('',(-54.05951802017,24.982011474126,
    36.351926055382));
#173 = CARTESIAN_POINT('',(-54.81599621329,23.263092757609,
    36.649435811762));
#174 = CARTESIAN_POINT('',(-55.51126313425,21.502611186307,
    36.878975044912));
#175 = CARTESIAN_POINT('',(-56.92331217151,17.480451855547,
    37.24251723465));
#176 = CARTESIAN_POINT('',(-57.60462472147,15.200043609111,
    37.339870028348));
#177 = CARTESIAN_POINT('',(-58.17613782893,12.884471368098,
    37.334003786214));
#178 = CARTESIAN_POINT('',(-58.63334942545,10.551085801941,
    37.22610533867));
#179 = CARTESIAN_POINT('',(-58.975829749,8.217358688205,37.01777666964)
  );
#180 = CARTESIAN_POINT('',(-59.20675637121,5.9,36.711326691471));
#181 = ORIENTED_EDGE('',*,*,#182,.F.);
#182 = EDGE_CURVE('',#183,#136,#185,.T.);
#183 = VERTEX_POINT('',#184);
#184 = CARTESIAN_POINT('',(-52.79509538161,5.9,45.219888205695));
#185 = LINE('',#186,#187);
#186 = CARTESIAN_POINT('',(-34.74064468705,5.9,69.178953507114));
#187 = VECTOR('',#188,1.);
#188 = DIRECTION('',(-0.601815023152,-0.,-0.798635510047));
#189 = ORIENTED_EDGE('',*,*,#190,.F.);
#190 = EDGE_CURVE('',#191,#183,#193,.T.);
#191 = VERTEX_POINT('',#192);
#192 = CARTESIAN_POINT('',(-49.78602026585,5.9,49.213065755932));
#193 = LINE('',#194,#195);
#194 = CARTESIAN_POINT('',(-34.74064468705,5.9,69.178953507114));
#195 = VECTOR('',#196,1.);
#196 = DIRECTION('',(-0.601815023152,-0.,-0.798635510047));
#197 = ORIENTED_EDGE('',*,*,#198,.F.);
#198 = EDGE_CURVE('',#199,#191,#201,.T.);
#199 = VERTEX_POINT('',#200);
#200 = CARTESIAN_POINT('',(-52.2423534503,13.62880148603,44.803367284688
    ));
#201 = B_SPLINE_CURVE_WITH_KNOTS('',7,(#202,#203,#204,#205,#206,#207,
    #208,#209,#210,#211,#212,#213,#214,#215,#216,#217,#218,#219,#220,
    #221,#222,#223,#224,#225,#226,#227,#228,#229,#230,#231,#232,#233,
    #234,#235,#236,#237,#238,#239),.UNSPECIFIED.,.F.,.F.,(8,6,6,6,6,6,8)
  ,(0.,0.297433959941,0.565068583357,0.654193002644,0.76772474143,
    0.856301261321,1.),.UNSPECIFIED.);
#202 = CARTESIAN_POINT('',(-52.2423534503,13.62880148603,44.803367284688
    ));
#203 = CARTESIAN_POINT('',(-52.30742053136,13.177544021454,
    44.852398847155));
#204 = CARTESIAN_POINT('',(-52.35289555427,12.727194932482,
    44.917635300827));
#205 = CARTESIAN_POINT('',(-52.37945115172,12.279684061275,
    44.997749543481));
#206 = CARTESIAN_POINT('',(-52.38777718854,11.836735712508,
    45.091689221706));
#207 = CARTESIAN_POINT('',(-52.37855685968,11.399874674228,
    45.198647463749));
#208 = CARTESIAN_POINT('',(-52.3523923351,10.9704531634,45.318105711115)
  );
#209 = CARTESIAN_POINT('',(-52.2712468397,10.171098809911,
    45.568582496327));
#210 = CARTESIAN_POINT('',(-52.2194378825,9.799737742746,45.697174646449
    ));
#211 = CARTESIAN_POINT('',(-52.15456037872,9.436424444829,
    45.835645901794));
#212 = CARTESIAN_POINT('',(-52.07680855214,9.082283235273,
    45.984072549068));
#213 = CARTESIAN_POINT('',(-51.98630444206,8.738742687747,
    46.142682670005));
#214 = CARTESIAN_POINT('',(-51.88310848207,8.407534514793,
    46.311867903253));
#215 = CARTESIAN_POINT('',(-51.72843664001,7.985397997773,
    46.552496869859));
#216 = CARTESIAN_POINT('',(-51.68837861593,7.881566100412,46.61385877224
    ));
#217 = CARTESIAN_POINT('',(-51.64689969164,7.779445846643,46.67649300373
    ));
#218 = CARTESIAN_POINT('',(-51.6039977908,7.679135257226,46.740423829828
    ));
#219 = CARTESIAN_POINT('',(-51.55967126875,7.580743646525,
    46.805676184997));
#220 = CARTESIAN_POINT('',(-51.51391891257,7.484391622518,
    46.872275672666));
#221 = CARTESIAN_POINT('',(-51.40664069196,7.270238580187,
    47.026836289954));
#222 = CARTESIAN_POINT('',(-51.34423007496,7.153797062625,
    47.115647733414));
#223 = CARTESIAN_POINT('',(-51.27950429301,7.041153113898,
    47.206740633254));
#224 = CARTESIAN_POINT('',(-51.21246899764,6.932622725074,
    47.300163831592));
#225 = CARTESIAN_POINT('',(-51.14314166568,6.828566270051,
    47.395954293249));
#226 = CARTESIAN_POINT('',(-51.07155397599,6.729383477122,
    47.494134123975));
#227 = CARTESIAN_POINT('',(-50.9401762029,6.562267845274,47.673174170713
    ));
#228 = CARTESIAN_POINT('',(-50.88125466228,6.49226197737,47.753093716189
    ));
#229 = CARTESIAN_POINT('',(-50.8210150006,6.425698278083,47.834464488045
    ));
#230 = CARTESIAN_POINT('',(-50.7594938391,6.362803314324,47.917271363389
    ));
#231 = CARTESIAN_POINT('',(-50.69674073403,6.303815469067,
    48.001482700638));
#232 = CARTESIAN_POINT('',(-50.63281992673,6.248977671755,
    48.087047206668));
#233 = CARTESIAN_POINT('',(-50.46234911518,6.116688481354,
    48.314778201763));
#234 = CARTESIAN_POINT('',(-50.3539762321,6.046362830407,48.459097478694
    ));
#235 = CARTESIAN_POINT('',(-50.24311031826,5.988655316042,
    48.606433273829));
#236 = CARTESIAN_POINT('',(-50.13025328787,5.944553521179,
    48.756253527664));
#237 = CARTESIAN_POINT('',(-50.01598889678,5.9148460656,48.907886912547)
  );
#238 = CARTESIAN_POINT('',(-49.90098771438,5.9,49.06049879871));
#239 = CARTESIAN_POINT('',(-49.78602026585,5.9,49.213065755932));
#240 = ORIENTED_EDGE('',*,*,#241,.F.);
#241 = EDGE_CURVE('',#242,#199,#244,.T.);
#242 = VERTEX_POINT('',#243);
#243 = CARTESIAN_POINT('',(-35.02337057882,43.857850733651,
    31.827933003238));
#244 = CIRCLE('',#245,43.5);
#245 = AXIS2_PLACEMENT_3D('',#246,#247,#248);
#246 = CARTESIAN_POINT('',(-18.05445069456,5.9,19.040934698581));
#247 = DIRECTION('',(0.601815023152,1.336297790537E-16,0.798635510047));
#248 = DIRECTION('',(-2.22044604925E-16,1.,0.));
#249 = ORIENTED_EDGE('',*,*,#250,.F.);
#250 = EDGE_CURVE('',#251,#242,#253,.T.);
#251 = VERTEX_POINT('',#252);
#252 = CARTESIAN_POINT('',(-28.37648714154,46.069828386533,
    33.079825359298));
#253 = B_SPLINE_CURVE_WITH_KNOTS('',7,(#254,#255,#256,#257,#258,#259,
    #260,#261,#262,#263,#264,#265,#266,#267,#268,#269,#270,#271,#272,
    #273,#274,#275,#276,#277,#278,#279),.UNSPECIFIED.,.F.,.F.,(8,6,6,6,8
    ),(0.,0.255002177619,0.510004714898,0.769043145291,1.),
  .UNSPECIFIED.);
#254 = CARTESIAN_POINT('',(-28.37648714154,46.069828386533,
    33.079825359298));
#255 = CARTESIAN_POINT('',(-28.53854138692,46.069828386533,
    32.864772112152));
#256 = CARTESIAN_POINT('',(-28.71337947144,46.063180103702,
    32.659338636118));
#257 = CARTESIAN_POINT('',(-28.90022401726,46.049882585514,
    32.464560436786));
#258 = CARTESIAN_POINT('',(-29.09819465538,46.029948424127,
    32.28136697305));
#259 = CARTESIAN_POINT('',(-29.30631806551,46.003398439224,
    32.11059044954));
#260 = CARTESIAN_POINT('',(-29.5235306626,45.970266190609,
    31.952967373443));
#261 = CARTESIAN_POINT('',(-29.9738175143,45.890958394611,
    31.665298175082));
#262 = CARTESIAN_POINT('',(-30.20691093783,45.844779471806,
    31.535239789941));
#263 = CARTESIAN_POINT('',(-30.44679904582,45.792134031427,
    31.419596500048));
#264 = CARTESIAN_POINT('',(-30.69227125563,45.733100711489,
    31.318879579258));
#265 = CARTESIAN_POINT('',(-30.9420735193,45.667781024606,
    31.233489012927));
#266 = CARTESIAN_POINT('',(-31.19491335668,45.596310192188,
    31.163718002776));
#267 = CARTESIAN_POINT('',(-31.70803120589,45.440216462114,
    31.054919303731));
#268 = CARTESIAN_POINT('',(-31.97322212178,45.353925302365,
    31.01536551165));
#269 = CARTESIAN_POINT('',(-32.2444848989,45.259560889884,
    30.992218856247));
#270 = CARTESIAN_POINT('',(-32.52085205557,45.156707377065,
    30.986870690515));
#271 = CARTESIAN_POINT('',(-32.80089568913,45.045037143012,
    31.000811645617));
#272 = CARTESIAN_POINT('',(-33.0827026429,44.924367701364,
    31.035533067548));
#273 = CARTESIAN_POINT('',(-33.61450253207,44.679297776709,
    31.142912643456));
#274 = CARTESIAN_POINT('',(-33.86476009283,44.556661087199,
    31.211075957344));
#275 = CARTESIAN_POINT('',(-34.11238014114,44.42720132648,
    31.297613944393));
#276 = CARTESIAN_POINT('',(-34.35483294771,44.291476413349,
    31.403006599787));
#277 = CARTESIAN_POINT('',(-34.58937630245,44.150372851813,
    31.527215827303));
#278 = CARTESIAN_POINT('',(-34.81314004359,44.005201075788,
    31.66951293196));
#279 = CARTESIAN_POINT('',(-35.02337057882,43.857850733651,
    31.827933003238));
#280 = ORIENTED_EDGE('',*,*,#281,.T.);
#281 = EDGE_CURVE('',#251,#282,#284,.T.);
#282 = VERTEX_POINT('',#283);
#283 = CARTESIAN_POINT('',(-19.34926179426,46.069828386533,
    45.059358010008));
#284 = LINE('',#285,#286);
#285 = CARTESIAN_POINT('',(-13.33111156274,46.069828386533,
    53.045713110481));
#286 = VECTOR('',#287,1.);
#287 = DIRECTION('',(0.601815023152,1.336297790537E-16,0.798635510047));
#288 = ORIENTED_EDGE('',*,*,#289,.F.);
#289 = EDGE_CURVE('',#22,#282,#290,.T.);
#290 = B_SPLINE_CURVE_WITH_KNOTS('',8,(#291,#292,#293,#294,#295,#296,
    #297,#298,#299,#300,#301,#302,#303,#304,#305,#306,#307,#308,#309,
    #310,#311,#312,#313),.UNSPECIFIED.,.F.,.F.,(9,7,7,9),(0.,
    0.210564191391,0.577935630603,1.),.UNSPECIFIED.);
#291 = CARTESIAN_POINT('',(-19.97799500002,43.857850733651,
    51.793820754421));
#292 = CARTESIAN_POINT('',(-19.81296394183,43.973520813929,
    51.669460932132));
#293 = CARTESIAN_POINT('',(-19.65488519272,44.087981966192,
    51.534451493105));
#294 = CARTESIAN_POINT('',(-19.50432525318,44.200833851315,
    51.389217469907));
#295 = CARTESIAN_POINT('',(-19.36181679962,44.311705141568,
    51.234238003273));
#296 = CARTESIAN_POINT('',(-19.2278623963,44.420252619675,
    51.070042868312));
#297 = CARTESIAN_POINT('',(-19.102935175,44.526160109877,50.897210863764
    ));
#298 = CARTESIAN_POINT('',(-18.98747648255,44.629137240997,
    50.716370064293));
#299 = CARTESIAN_POINT('',(-18.69767457805,44.903005648959,
    50.199899428244));
#300 = CARTESIAN_POINT('',(-18.54902831627,45.062149892522,
    49.859120450109));
#301 = CARTESIAN_POINT('',(-18.43467398089,45.206215790637,
    49.511327121539));
#302 = CARTESIAN_POINT('',(-18.35272459752,45.335631333813,
    49.161058446712));
#303 = CARTESIAN_POINT('',(-18.30102666603,45.45110900948,
    48.811899217223));
#304 = CARTESIAN_POINT('',(-18.27737615696,45.553502051935,
    48.466479944308));
#305 = CARTESIAN_POINT('',(-18.27974516795,45.643711420319,
    48.126494214345));
#306 = CARTESIAN_POINT('',(-18.33757455856,45.813146212782,
    47.409258690007));
#307 = CARTESIAN_POINT('',(-18.40082517838,45.888558964825,
    47.034751326613));
#308 = CARTESIAN_POINT('',(-18.49390708797,45.950035483297,
    46.67080359758));
#309 = CARTESIAN_POINT('',(-18.61494323833,45.998378272263,
    46.319003965194));
#310 = CARTESIAN_POINT('',(-18.76226247923,46.0342100755,45.980759928988
    ));
#311 = CARTESIAN_POINT('',(-18.93445998919,46.057946327292,
    45.657331330331));
#312 = CARTESIAN_POINT('',(-19.13037094615,46.069828386533,
    45.349835976496));
#313 = CARTESIAN_POINT('',(-19.34926179426,46.069828386533,
    45.059358010008));
#314 = CYLINDRICAL_SURFACE('',#315,43.5);
#315 = AXIS2_PLACEMENT_3D('',#316,#317,#318);
#316 = CARTESIAN_POINT('',(-1.310063169058E-15,5.9,43.));
#317 = DIRECTION('',(0.601815023152,1.336297790537E-16,0.798635510047));
#318 = DIRECTION('',(-2.22044604925E-16,1.,-1.232595164408E-32));
#319 = ADVANCED_FACE('',(#320),#345,.T.);
#320 = FACE_BOUND('',#321,.T.);
#321 = EDGE_LOOP('',(#322,#332,#338,#339));
#322 = ORIENTED_EDGE('',*,*,#323,.F.);
#323 = EDGE_CURVE('',#324,#326,#328,.T.);
#324 = VERTEX_POINT('',#325);
#325 = CARTESIAN_POINT('',(-44.65556846106,26.966514559879,
    70.389706182698));
#326 = VERTEX_POINT('',#327);
#327 = CARTESIAN_POINT('',(-21.75843158667,47.041689832165,
    53.135475955239));
#328 = LINE('',#329,#330);
#329 = CARTESIAN_POINT('',(-47.92658801455,24.098632378123,
    72.854596215192));
#330 = VECTOR('',#331,1.);
#331 = DIRECTION('',(0.654203910697,0.573576436351,-0.492978006499));
#332 = ORIENTED_EDGE('',*,*,#333,.F.);
#333 = EDGE_CURVE('',#24,#324,#334,.T.);
#334 = LINE('',#335,#336);
#335 = CARTESIAN_POINT('',(-34.47870024933,8.767882181755,
    62.720885924384));
#336 = VECTOR('',#337,1.);
#337 = DIRECTION('',(-0.458078509796,0.819152044289,0.345186916322));
#338 = ORIENTED_EDGE('',*,*,#21,.F.);
#339 = ORIENTED_EDGE('',*,*,#340,.F.);
#340 = EDGE_CURVE('',#326,#22,#341,.T.);
#341 = LINE('',#342,#343);
#342 = CARTESIAN_POINT('',(-21.75843158667,47.041689832165,
    53.135475955239));
#343 = VECTOR('',#344,1.);
#344 = DIRECTION('',(0.458078509796,-0.819152044289,-0.345186916322));
#345 = PLANE('',#346);
#346 = AXIS2_PLACEMENT_3D('',#347,#348,#349);
#347 = CARTESIAN_POINT('',(-28.118565918,27.90478600696,57.928180939811)
  );
#348 = DIRECTION('',(0.601815023152,0.,0.798635510047));
#349 = DIRECTION('',(0.798635510047,0.,-0.601815023152));
#350 = ADVANCED_FACE('',(#351),#370,.T.);
#351 = FACE_BOUND('',#352,.F.);
#352 = EDGE_LOOP('',(#353,#362,#368,#369));
#353 = ORIENTED_EDGE('',*,*,#354,.T.);
#354 = EDGE_CURVE('',#326,#355,#357,.T.);
#355 = VERTEX_POINT('',#356);
#356 = CARTESIAN_POINT('',(-21.49648714894,49.90957201392,
    46.677408372509));
#357 = CIRCLE('',#358,5.);
#358 = AXIS2_PLACEMENT_3D('',#359,#360,#361);
#359 = CARTESIAN_POINT('',(-24.76750670243,47.041689832165,
    49.142298405003));
#360 = DIRECTION('',(-0.458078509796,0.819152044289,0.345186916322));
#361 = DIRECTION('',(0.872799578697,0.488078779938,0.));
#362 = ORIENTED_EDGE('',*,*,#363,.T.);
#363 = EDGE_CURVE('',#355,#282,#364,.T.);
#364 = LINE('',#365,#366);
#365 = CARTESIAN_POINT('',(-21.49648714894,49.90957201392,
    46.677408372509));
#366 = VECTOR('',#367,1.);
#367 = DIRECTION('',(0.458078509796,-0.819152044289,-0.345186916322));
#368 = ORIENTED_EDGE('',*,*,#289,.F.);
#369 = ORIENTED_EDGE('',*,*,#340,.F.);
#370 = CYLINDRICAL_SURFACE('',#371,5.);
#371 = AXIS2_PLACEMENT_3D('',#372,#373,#374);
#372 = CARTESIAN_POINT('',(-24.76750670243,47.041689832165,
    49.142298405003));
#373 = DIRECTION('',(0.458078509796,-0.819152044289,-0.345186916322));
#374 = DIRECTION('',(0.601815023152,2.775557561563E-17,0.798635510047));
#375 = ADVANCED_FACE('',(#376),#395,.T.);
#376 = FACE_BOUND('',#377,.F.);
#377 = EDGE_LOOP('',(#378,#379,#387,#394));
#378 = ORIENTED_EDGE('',*,*,#32,.T.);
#379 = ORIENTED_EDGE('',*,*,#380,.T.);
#380 = EDGE_CURVE('',#33,#381,#383,.T.);
#381 = VERTEX_POINT('',#382);
#382 = CARTESIAN_POINT('',(-50.93566313031,24.098632378123,
    68.861418664956));
#383 = LINE('',#384,#385);
#384 = CARTESIAN_POINT('',(-40.75879491857,5.9,61.192598406641));
#385 = VECTOR('',#386,1.);
#386 = DIRECTION('',(-0.458078509796,0.819152044289,0.345186916322));
#387 = ORIENTED_EDGE('',*,*,#388,.F.);
#388 = EDGE_CURVE('',#324,#381,#389,.T.);
#389 = CIRCLE('',#390,5.);
#390 = AXIS2_PLACEMENT_3D('',#391,#392,#393);
#391 = CARTESIAN_POINT('',(-47.66464357682,26.966514559879,
    66.396528632462));
#392 = DIRECTION('',(0.458078509796,-0.819152044289,-0.345186916322));
#393 = DIRECTION('',(-0.872799578697,-0.488078779938,0.));
#394 = ORIENTED_EDGE('',*,*,#333,.F.);
#395 = CYLINDRICAL_SURFACE('',#396,5.);
#396 = AXIS2_PLACEMENT_3D('',#397,#398,#399);
#397 = CARTESIAN_POINT('',(-37.48777536509,8.767882181755,
    58.727708374147));
#398 = DIRECTION('',(-0.458078509796,0.819152044289,0.345186916322));
#399 = DIRECTION('',(0.601815023152,0.,0.798635510047));
#400 = ADVANCED_FACE('',(#401),#419,.T.);
#401 = FACE_BOUND('',#402,.T.);
#402 = EDGE_LOOP('',(#403,#404,#412,#418));
#403 = ORIENTED_EDGE('',*,*,#281,.F.);
#404 = ORIENTED_EDGE('',*,*,#405,.F.);
#405 = EDGE_CURVE('',#406,#251,#408,.T.);
#406 = VERTEX_POINT('',#407);
#407 = CARTESIAN_POINT('',(-30.52371249622,49.90957201392,
    34.697875721799));
#408 = LINE('',#409,#410);
#409 = CARTESIAN_POINT('',(-30.52371249622,49.90957201392,
    34.697875721799));
#410 = VECTOR('',#411,1.);
#411 = DIRECTION('',(0.458078509796,-0.819152044289,-0.345186916322));
#412 = ORIENTED_EDGE('',*,*,#413,.T.);
#413 = EDGE_CURVE('',#406,#355,#414,.T.);
#414 = LINE('',#415,#416);
#415 = CARTESIAN_POINT('',(-33.53278761198,49.90957201392,
    30.704698171563));
#416 = VECTOR('',#417,1.);
#417 = DIRECTION('',(0.601815023152,0.,0.798635510047));
#418 = ORIENTED_EDGE('',*,*,#363,.T.);
#419 = PLANE('',#420);
#420 = AXIS2_PLACEMENT_3D('',#421,#422,#423);
#421 = CARTESIAN_POINT('',(-33.53278761198,49.90957201392,
    30.704698171563));
#422 = DIRECTION('',(0.654203910697,0.573576436351,-0.492978006499));
#423 = DIRECTION('',(0.458078509796,-0.819152044289,-0.345186916322));
#424 = ADVANCED_FACE('',(#425),#468,.F.);
#425 = FACE_BOUND('',#426,.F.);
#426 = EDGE_LOOP('',(#427,#433,#434,#435,#443,#451,#459,#466,#467));
#427 = ORIENTED_EDGE('',*,*,#428,.F.);
#428 = EDGE_CURVE('',#33,#191,#429,.T.);
#429 = LINE('',#430,#431);
#430 = CARTESIAN_POINT('',(-34.74064468705,5.9,69.178953507114));
#431 = VECTOR('',#432,1.);
#432 = DIRECTION('',(-0.601815023152,-0.,-0.798635510047));
#433 = ORIENTED_EDGE('',*,*,#75,.F.);
#434 = ORIENTED_EDGE('',*,*,#83,.F.);
#435 = ORIENTED_EDGE('',*,*,#436,.F.);
#436 = EDGE_CURVE('',#437,#84,#439,.T.);
#437 = VERTEX_POINT('',#438);
#438 = CARTESIAN_POINT('',(-11.9795326507,-20.,52.027225347281));
#439 = LINE('',#440,#441);
#440 = CARTESIAN_POINT('',(-11.9795326507,-20.,52.027225347281));
#441 = VECTOR('',#442,1.);
#442 = DIRECTION('',(-0.591036246526,0.672543536562,0.445377757327));
#443 = ORIENTED_EDGE('',*,*,#444,.T.);
#444 = EDGE_CURVE('',#437,#445,#447,.T.);
#445 = VERTEX_POINT('',#446);
#446 = CARTESIAN_POINT('',(-39.88154827522,-20.,15.));
#447 = LINE('',#448,#449);
#448 = CARTESIAN_POINT('',(-11.9795326507,-20.,52.027225347281));
#449 = VECTOR('',#450,1.);
#450 = DIRECTION('',(-0.601815023152,-0.,-0.798635510047));
#451 = ORIENTED_EDGE('',*,*,#452,.F.);
#452 = EDGE_CURVE('',#453,#445,#455,.T.);
#453 = VERTEX_POINT('',#454);
#454 = CARTESIAN_POINT('',(-59.19872713305,-5.980025570669,15.));
#455 = LINE('',#456,#457);
#456 = CARTESIAN_POINT('',(-20.8428283923,-33.81787516128,15.));
#457 = VECTOR('',#458,1.);
#458 = DIRECTION('',(0.809311301255,-0.587379960214,0.));
#459 = ORIENTED_EDGE('',*,*,#460,.T.);
#460 = EDGE_CURVE('',#453,#136,#461,.T.);
#461 = ELLIPSE('',#462,147.00548443625,59.5);
#462 = AXIS2_PLACEMENT_3D('',#463,#464,#465);
#463 = CARTESIAN_POINT('',(0.,0.,104.49351641953));
#464 = DIRECTION('',(0.537117150351,0.740057559537,-0.404746804027));
#465 = DIRECTION('',(-0.237740161646,-0.327566162646,-0.914428796916));
#466 = ORIENTED_EDGE('',*,*,#182,.F.);
#467 = ORIENTED_EDGE('',*,*,#190,.F.);
#468 = PLANE('',#469);
#469 = AXIS2_PLACEMENT_3D('',#470,#471,#472);
#470 = CARTESIAN_POINT('',(-11.9795326507,-20.,52.027225347281));
#471 = DIRECTION('',(0.537117150351,0.740057559537,-0.404746804027));
#472 = DIRECTION('',(-0.591036246526,0.672543536562,0.445377757327));
#473 = ADVANCED_FACE('',(#474),#493,.T.);
#474 = FACE_BOUND('',#475,.F.);
#475 = EDGE_LOOP('',(#476,#485,#491,#492));
#476 = ORIENTED_EDGE('',*,*,#477,.T.);
#477 = EDGE_CURVE('',#406,#478,#480,.T.);
#478 = VERTEX_POINT('',#479);
#479 = CARTESIAN_POINT('',(-36.80380716547,47.041689832165,
    33.169588204057));
#480 = CIRCLE('',#481,5.);
#481 = AXIS2_PLACEMENT_3D('',#482,#483,#484);
#482 = CARTESIAN_POINT('',(-33.79473204971,47.041689832165,
    37.162765754294));
#483 = DIRECTION('',(-0.458078509796,0.819152044289,0.345186916322));
#484 = DIRECTION('',(0.872799578697,0.488078779938,0.));
#485 = ORIENTED_EDGE('',*,*,#486,.T.);
#486 = EDGE_CURVE('',#478,#242,#487,.T.);
#487 = LINE('',#488,#489);
#488 = CARTESIAN_POINT('',(-36.80380716547,47.041689832165,
    33.169588204057));
#489 = VECTOR('',#490,1.);
#490 = DIRECTION('',(0.458078509796,-0.819152044289,-0.345186916322));
#491 = ORIENTED_EDGE('',*,*,#250,.F.);
#492 = ORIENTED_EDGE('',*,*,#405,.F.);
#493 = CYLINDRICAL_SURFACE('',#494,5.);
#494 = AXIS2_PLACEMENT_3D('',#495,#496,#497);
#495 = CARTESIAN_POINT('',(-33.79473204971,47.041689832165,
    37.162765754294));
#496 = DIRECTION('',(0.458078509796,-0.819152044289,-0.345186916322));
#497 = DIRECTION('',(0.654203910697,0.573576436351,-0.492978006499));
#498 = ADVANCED_FACE('',(#499),#517,.F.);
#499 = FACE_BOUND('',#500,.F.);
#500 = EDGE_LOOP('',(#501,#509,#515,#516));
#501 = ORIENTED_EDGE('',*,*,#502,.F.);
#502 = EDGE_CURVE('',#503,#478,#505,.T.);
#503 = VERTEX_POINT('',#504);
#504 = CARTESIAN_POINT('',(-59.70094403986,26.966514559879,
    50.423818431516));
#505 = LINE('',#506,#507);
#506 = CARTESIAN_POINT('',(-62.97196359335,24.098632378123,
    52.88870846401));
#507 = VECTOR('',#508,1.);
#508 = DIRECTION('',(0.654203910697,0.573576436351,-0.492978006499));
#509 = ORIENTED_EDGE('',*,*,#510,.F.);
#510 = EDGE_CURVE('',#199,#503,#511,.T.);
#511 = LINE('',#512,#513);
#512 = CARTESIAN_POINT('',(-49.52407582813,8.767882181755,
    42.754998173201));
#513 = VECTOR('',#514,1.);
#514 = DIRECTION('',(-0.458078509796,0.819152044289,0.345186916322));
#515 = ORIENTED_EDGE('',*,*,#241,.F.);
#516 = ORIENTED_EDGE('',*,*,#486,.F.);
#517 = PLANE('',#518);
#518 = AXIS2_PLACEMENT_3D('',#519,#520,#521);
#519 = CARTESIAN_POINT('',(-43.1639414968,27.90478600696,37.962293188629
    ));
#520 = DIRECTION('',(0.601815023152,0.,0.798635510047));
#521 = DIRECTION('',(0.798635510047,0.,-0.601815023152));
#522 = ADVANCED_FACE('',(#523,#534),#545,.T.);
#523 = FACE_BOUND('',#524,.T.);
#524 = EDGE_LOOP('',(#525,#531,#532,#533));
#525 = ORIENTED_EDGE('',*,*,#526,.F.);
#526 = EDGE_CURVE('',#101,#437,#527,.T.);
#527 = LINE('',#528,#529);
#528 = CARTESIAN_POINT('',(90.629157680167,-20.,-25.29396882729));
#529 = VECTOR('',#530,1.);
#530 = DIRECTION('',(-0.798635510047,-1.773327063076E-16,0.601815023152)
  );
#531 = ORIENTED_EDGE('',*,*,#100,.T.);
#532 = ORIENTED_EDGE('',*,*,#91,.T.);
#533 = ORIENTED_EDGE('',*,*,#436,.F.);
#534 = FACE_BOUND('',#535,.T.);
#535 = EDGE_LOOP('',(#536));
#536 = ORIENTED_EDGE('',*,*,#537,.F.);
#537 = EDGE_CURVE('',#538,#538,#540,.T.);
#538 = VERTEX_POINT('',#539);
#539 = CARTESIAN_POINT('',(-5.750955267558E-15,25.9,43.));
#540 = CIRCLE('',#541,20.);
#541 = AXIS2_PLACEMENT_3D('',#542,#543,#544);
#542 = CARTESIAN_POINT('',(-1.310063169058E-15,5.9,43.));
#543 = DIRECTION('',(0.601815023152,1.336297790537E-16,0.798635510047));
#544 = DIRECTION('',(-2.22044604925E-16,1.,-2.465190328816E-32));
#545 = PLANE('',#546);
#546 = AXIS2_PLACEMENT_3D('',#547,#548,#549);
#547 = CARTESIAN_POINT('',(-2.421865878799E-15,5.9,43.));
#548 = DIRECTION('',(0.601815023152,1.919008992008E-16,0.798635510047));
#549 = DIRECTION('',(0.798635510047,0.,-0.601815023152));
#550 = ADVANCED_FACE('',(#551),#570,.T.);
#551 = FACE_BOUND('',#552,.T.);
#552 = EDGE_LOOP('',(#553,#554,#562,#569));
#553 = ORIENTED_EDGE('',*,*,#198,.T.);
#554 = ORIENTED_EDGE('',*,*,#555,.T.);
#555 = EDGE_CURVE('',#191,#556,#558,.T.);
#556 = VERTEX_POINT('',#557);
#557 = CARTESIAN_POINT('',(-59.96288847759,24.098632378123,
    56.881886014247));
#558 = LINE('',#559,#560);
#559 = CARTESIAN_POINT('',(-49.78602026585,5.9,49.213065755932));
#560 = VECTOR('',#561,1.);
#561 = DIRECTION('',(-0.458078509796,0.819152044289,0.345186916322));
#562 = ORIENTED_EDGE('',*,*,#563,.F.);
#563 = EDGE_CURVE('',#503,#556,#564,.T.);
#564 = CIRCLE('',#565,5.);
#565 = AXIS2_PLACEMENT_3D('',#566,#567,#568);
#566 = CARTESIAN_POINT('',(-56.6918689241,26.966514559879,
    54.416995981753));
#567 = DIRECTION('',(-0.458078509796,0.819152044289,0.345186916322));
#568 = DIRECTION('',(-0.872799578697,-0.488078779938,-2.775557561563E-17
    ));
#569 = ORIENTED_EDGE('',*,*,#510,.F.);
#570 = CYLINDRICAL_SURFACE('',#571,5.);
#571 = AXIS2_PLACEMENT_3D('',#572,#573,#574);
#572 = CARTESIAN_POINT('',(-46.51500071237,8.767882181755,
    46.748175723438));
#573 = DIRECTION('',(-0.458078509796,0.819152044289,0.345186916322));
#574 = DIRECTION('',(-0.601815023152,0.,-0.798635510047));
#575 = ADVANCED_FACE('',(#576),#587,.F.);
#576 = FACE_BOUND('',#577,.F.);
#577 = EDGE_LOOP('',(#578,#579,#580,#586));
#578 = ORIENTED_EDGE('',*,*,#526,.F.);
#579 = ORIENTED_EDGE('',*,*,#109,.F.);
#580 = ORIENTED_EDGE('',*,*,#581,.F.);
#581 = EDGE_CURVE('',#445,#110,#582,.T.);
#582 = LINE('',#583,#584);
#583 = CARTESIAN_POINT('',(45.314578840083,-20.,15.));
#584 = VECTOR('',#585,1.);
#585 = DIRECTION('',(1.,1.4162419635E-16,0.));
#586 = ORIENTED_EDGE('',*,*,#444,.F.);
#587 = PLANE('',#588);
#588 = AXIS2_PLACEMENT_3D('',#589,#590,#591);
#589 = CARTESIAN_POINT('',(90.629157680167,-20.,-25.29396882729));
#590 = DIRECTION('',(-1.4162419635E-16,1.,1.067214867521E-16));
#591 = DIRECTION('',(-0.798635510047,-1.773327063076E-16,0.601815023152)
  );
#592 = ADVANCED_FACE('',(#593,#649,#660,#671,#684),#695,.T.);
#593 = FACE_BOUND('',#594,.T.);
#594 = EDGE_LOOP('',(#595,#606,#615,#624,#633,#642));
#595 = ORIENTED_EDGE('',*,*,#596,.T.);
#596 = EDGE_CURVE('',#597,#599,#601,.T.);
#597 = VERTEX_POINT('',#598);
#598 = CARTESIAN_POINT('',(64.,0.,15.));
#599 = VERTEX_POINT('',#600);
#600 = CARTESIAN_POINT('',(-45.85346140981,44.648181113445,15.));
#601 = CIRCLE('',#602,64.);
#602 = AXIS2_PLACEMENT_3D('',#603,#604,#605);
#603 = CARTESIAN_POINT('',(0.,0.,15.));
#604 = DIRECTION('',(0.,0.,1.));
#605 = DIRECTION('',(1.,0.,0.));
#606 = ORIENTED_EDGE('',*,*,#607,.T.);
#607 = EDGE_CURVE('',#599,#608,#610,.T.);
#608 = VERTEX_POINT('',#609);
#609 = CARTESIAN_POINT('',(-63.94990505458,-2.531727376651,15.));
#610 = CIRCLE('',#611,64.);
#611 = AXIS2_PLACEMENT_3D('',#612,#613,#614);
#612 = CARTESIAN_POINT('',(0.,0.,15.));
#613 = DIRECTION('',(0.,0.,1.));
#614 = DIRECTION('',(1.,0.,0.));
#615 = ORIENTED_EDGE('',*,*,#616,.T.);
#616 = EDGE_CURVE('',#608,#617,#619,.T.);
#617 = VERTEX_POINT('',#618);
#618 = CARTESIAN_POINT('',(-60.79473661428,-20.,15.));
#619 = CIRCLE('',#620,64.);
#620 = AXIS2_PLACEMENT_3D('',#621,#622,#623);
#621 = CARTESIAN_POINT('',(0.,0.,15.));
#622 = DIRECTION('',(0.,0.,1.));
#623 = DIRECTION('',(1.,0.,0.));
#624 = ORIENTED_EDGE('',*,*,#625,.T.);
#625 = EDGE_CURVE('',#617,#626,#628,.T.);
#626 = VERTEX_POINT('',#627);
#627 = CARTESIAN_POINT('',(-58.65368260944,-25.60752850922,15.));
#628 = CIRCLE('',#629,64.);
#629 = AXIS2_PLACEMENT_3D('',#630,#631,#632);
#630 = CARTESIAN_POINT('',(0.,0.,15.));
#631 = DIRECTION('',(0.,0.,1.));
#632 = DIRECTION('',(1.,0.,0.));
#633 = ORIENTED_EDGE('',*,*,#634,.T.);
#634 = EDGE_CURVE('',#626,#635,#637,.T.);
#635 = VERTEX_POINT('',#636);
#636 = CARTESIAN_POINT('',(37.157255005371,-52.10890903162,15.));
#637 = CIRCLE('',#638,64.);
#638 = AXIS2_PLACEMENT_3D('',#639,#640,#641);
#639 = CARTESIAN_POINT('',(0.,0.,15.));
#640 = DIRECTION('',(0.,0.,1.));
#641 = DIRECTION('',(1.,0.,0.));
#642 = ORIENTED_EDGE('',*,*,#643,.T.);
#643 = EDGE_CURVE('',#635,#597,#644,.T.);
#644 = CIRCLE('',#645,64.);
#645 = AXIS2_PLACEMENT_3D('',#646,#647,#648);
#646 = CARTESIAN_POINT('',(0.,0.,15.));
#647 = DIRECTION('',(0.,0.,1.));
#648 = DIRECTION('',(1.,0.,0.));
#649 = FACE_BOUND('',#650,.T.);
#650 = EDGE_LOOP('',(#651));
#651 = ORIENTED_EDGE('',*,*,#652,.F.);
#652 = EDGE_CURVE('',#653,#653,#655,.T.);
#653 = VERTEX_POINT('',#654);
#654 = CARTESIAN_POINT('',(-23.,-40.,15.));
#655 = CIRCLE('',#656,7.);
#656 = AXIS2_PLACEMENT_3D('',#657,#658,#659);
#657 = CARTESIAN_POINT('',(-30.,-40.,15.));
#658 = DIRECTION('',(0.,0.,1.));
#659 = DIRECTION('',(1.,0.,0.));
#660 = FACE_BOUND('',#661,.T.);
#661 = EDGE_LOOP('',(#662));
#662 = ORIENTED_EDGE('',*,*,#663,.F.);
#663 = EDGE_CURVE('',#664,#664,#666,.T.);
#664 = VERTEX_POINT('',#665);
#665 = CARTESIAN_POINT('',(42.,-40.,15.));
#666 = CIRCLE('',#667,7.);
#667 = AXIS2_PLACEMENT_3D('',#668,#669,#670);
#668 = CARTESIAN_POINT('',(35.,-40.,15.));
#669 = DIRECTION('',(0.,0.,1.));
#670 = DIRECTION('',(1.,0.,0.));
#671 = FACE_BOUND('',#672,.T.);
#672 = EDGE_LOOP('',(#673,#680,#681,#682,#683));
#673 = ORIENTED_EDGE('',*,*,#674,.F.);
#674 = EDGE_CURVE('',#127,#453,#675,.T.);
#675 = CIRCLE('',#676,59.5);
#676 = AXIS2_PLACEMENT_3D('',#677,#678,#679);
#677 = CARTESIAN_POINT('',(0.,0.,15.));
#678 = DIRECTION('',(0.,0.,1.));
#679 = DIRECTION('',(1.,0.,0.));
#680 = ORIENTED_EDGE('',*,*,#126,.F.);
#681 = ORIENTED_EDGE('',*,*,#117,.F.);
#682 = ORIENTED_EDGE('',*,*,#581,.F.);
#683 = ORIENTED_EDGE('',*,*,#452,.F.);
#684 = FACE_BOUND('',#685,.T.);
#685 = EDGE_LOOP('',(#686));
#686 = ORIENTED_EDGE('',*,*,#687,.F.);
#687 = EDGE_CURVE('',#688,#688,#690,.T.);
#688 = VERTEX_POINT('',#689);
#689 = CARTESIAN_POINT('',(42.,40.,15.));
#690 = CIRCLE('',#691,7.);
#691 = AXIS2_PLACEMENT_3D('',#692,#693,#694);
#692 = CARTESIAN_POINT('',(35.,40.,15.));
#693 = DIRECTION('',(0.,0.,1.));
#694 = DIRECTION('',(1.,0.,0.));
#695 = PLANE('',#696);
#696 = AXIS2_PLACEMENT_3D('',#697,#698,#699);
#697 = CARTESIAN_POINT('',(-0.401314953983,-0.662691177304,15.));
#698 = DIRECTION('',(0.,0.,1.));
#699 = DIRECTION('',(1.,0.,0.));
#700 = ADVANCED_FACE('',(#701),#706,.T.);
#701 = FACE_BOUND('',#702,.F.);
#702 = EDGE_LOOP('',(#703,#704,#705));
#703 = ORIENTED_EDGE('',*,*,#674,.F.);
#704 = ORIENTED_EDGE('',*,*,#135,.T.);
#705 = ORIENTED_EDGE('',*,*,#460,.F.);
#706 = CYLINDRICAL_SURFACE('',#707,59.5);
#707 = AXIS2_PLACEMENT_3D('',#708,#709,#710);
#708 = CARTESIAN_POINT('',(0.,0.,15.));
#709 = DIRECTION('',(-0.,-0.,-1.));
#710 = DIRECTION('',(1.,0.,0.));
#711 = ADVANCED_FACE('',(#712),#727,.T.);
#712 = FACE_BOUND('',#713,.T.);
#713 = EDGE_LOOP('',(#714,#720,#721,#722,#723,#724,#725,#726));
#714 = ORIENTED_EDGE('',*,*,#715,.T.);
#715 = EDGE_CURVE('',#556,#381,#716,.T.);
#716 = LINE('',#717,#718);
#717 = CARTESIAN_POINT('',(-62.97196359335,24.098632378123,
    52.88870846401));
#718 = VECTOR('',#719,1.);
#719 = DIRECTION('',(0.601815023152,0.,0.798635510047));
#720 = ORIENTED_EDGE('',*,*,#388,.F.);
#721 = ORIENTED_EDGE('',*,*,#323,.T.);
#722 = ORIENTED_EDGE('',*,*,#354,.T.);
#723 = ORIENTED_EDGE('',*,*,#413,.F.);
#724 = ORIENTED_EDGE('',*,*,#477,.T.);
#725 = ORIENTED_EDGE('',*,*,#502,.F.);
#726 = ORIENTED_EDGE('',*,*,#563,.T.);
#727 = PLANE('',#728);
#728 = AXIS2_PLACEMENT_3D('',#729,#730,#731);
#729 = CARTESIAN_POINT('',(-62.97196359335,24.098632378123,
    52.88870846401));
#730 = DIRECTION('',(-0.458078509796,0.819152044289,0.345186916322));
#731 = DIRECTION('',(0.654203910697,0.573576436351,-0.492978006499));
#732 = ADVANCED_FACE('',(#733),#739,.T.);
#733 = FACE_BOUND('',#734,.T.);
#734 = EDGE_LOOP('',(#735,#736,#737,#738));
#735 = ORIENTED_EDGE('',*,*,#428,.F.);
#736 = ORIENTED_EDGE('',*,*,#380,.T.);
#737 = ORIENTED_EDGE('',*,*,#715,.F.);
#738 = ORIENTED_EDGE('',*,*,#555,.F.);
#739 = PLANE('',#740);
#740 = AXIS2_PLACEMENT_3D('',#741,#742,#743);
#741 = CARTESIAN_POINT('',(-52.79509538161,5.9,45.219888205695));
#742 = DIRECTION('',(-0.654203910697,-0.573576436351,0.492978006499));
#743 = DIRECTION('',(-0.458078509796,0.819152044289,0.345186916322));
#744 = ADVANCED_FACE('',(#745),#764,.F.);
#745 = FACE_BOUND('',#746,.F.);
#746 = EDGE_LOOP('',(#747,#755,#762,#763));
#747 = ORIENTED_EDGE('',*,*,#748,.T.);
#748 = EDGE_CURVE('',#538,#749,#751,.T.);
#749 = VERTEX_POINT('',#750);
#750 = CARTESIAN_POINT('',(-18.05445069456,25.9,19.040934698581));
#751 = LINE('',#752,#753);
#752 = CARTESIAN_POINT('',(-5.750955267558E-15,25.9,43.));
#753 = VECTOR('',#754,1.);
#754 = DIRECTION('',(-0.601815023152,-0.,-0.798635510047));
#755 = ORIENTED_EDGE('',*,*,#756,.T.);
#756 = EDGE_CURVE('',#749,#749,#757,.T.);
#757 = CIRCLE('',#758,20.);
#758 = AXIS2_PLACEMENT_3D('',#759,#760,#761);
#759 = CARTESIAN_POINT('',(-18.05445069456,5.9,19.040934698581));
#760 = DIRECTION('',(0.601815023152,1.336297790537E-16,0.798635510047));
#761 = DIRECTION('',(-2.22044604925E-16,1.,-2.465190328816E-32));
#762 = ORIENTED_EDGE('',*,*,#748,.F.);
#763 = ORIENTED_EDGE('',*,*,#537,.F.);
#764 = CYLINDRICAL_SURFACE('',#765,20.);
#765 = AXIS2_PLACEMENT_3D('',#766,#767,#768);
#766 = CARTESIAN_POINT('',(-1.310063169058E-15,5.9,43.));
#767 = DIRECTION('',(0.601815023152,1.336297790537E-16,0.798635510047));
#768 = DIRECTION('',(-2.22044604925E-16,1.,-1.232595164408E-32));
#769 = ADVANCED_FACE('',(#770),#794,.T.);
#770 = FACE_BOUND('',#771,.F.);
#771 = EDGE_LOOP('',(#772,#780,#787,#788,#789,#790,#791,#792,#793));
#772 = ORIENTED_EDGE('',*,*,#773,.F.);
#773 = EDGE_CURVE('',#774,#597,#776,.T.);
#774 = VERTEX_POINT('',#775);
#775 = CARTESIAN_POINT('',(64.,0.,0.));
#776 = LINE('',#777,#778);
#777 = CARTESIAN_POINT('',(64.,0.,0.));
#778 = VECTOR('',#779,1.);
#779 = DIRECTION('',(0.,0.,1.));
#780 = ORIENTED_EDGE('',*,*,#781,.F.);
#781 = EDGE_CURVE('',#774,#774,#782,.T.);
#782 = CIRCLE('',#783,64.);
#783 = AXIS2_PLACEMENT_3D('',#784,#785,#786);
#784 = CARTESIAN_POINT('',(0.,0.,0.));
#785 = DIRECTION('',(0.,0.,1.));
#786 = DIRECTION('',(1.,0.,0.));
#787 = ORIENTED_EDGE('',*,*,#773,.T.);
#788 = ORIENTED_EDGE('',*,*,#596,.T.);
#789 = ORIENTED_EDGE('',*,*,#607,.T.);
#790 = ORIENTED_EDGE('',*,*,#616,.T.);
#791 = ORIENTED_EDGE('',*,*,#625,.T.);
#792 = ORIENTED_EDGE('',*,*,#634,.T.);
#793 = ORIENTED_EDGE('',*,*,#643,.T.);
#794 = CYLINDRICAL_SURFACE('',#795,64.);
#795 = AXIS2_PLACEMENT_3D('',#796,#797,#798);
#796 = CARTESIAN_POINT('',(0.,0.,0.));
#797 = DIRECTION('',(-0.,-0.,-1.));
#798 = DIRECTION('',(1.,0.,0.));
#799 = ADVANCED_FACE('',(#800),#819,.F.);
#800 = FACE_BOUND('',#801,.T.);
#801 = EDGE_LOOP('',(#802,#810,#811,#812));
#802 = ORIENTED_EDGE('',*,*,#803,.F.);
#803 = EDGE_CURVE('',#653,#804,#806,.T.);
#804 = VERTEX_POINT('',#805);
#805 = CARTESIAN_POINT('',(-23.,-40.,7.));
#806 = LINE('',#807,#808);
#807 = CARTESIAN_POINT('',(-23.,-40.,15.));
#808 = VECTOR('',#809,1.);
#809 = DIRECTION('',(0.,0.,-1.));
#810 = ORIENTED_EDGE('',*,*,#652,.T.);
#811 = ORIENTED_EDGE('',*,*,#803,.T.);
#812 = ORIENTED_EDGE('',*,*,#813,.F.);
#813 = EDGE_CURVE('',#804,#804,#814,.T.);
#814 = CIRCLE('',#815,7.);
#815 = AXIS2_PLACEMENT_3D('',#816,#817,#818);
#816 = CARTESIAN_POINT('',(-30.,-40.,7.));
#817 = DIRECTION('',(0.,0.,1.));
#818 = DIRECTION('',(1.,0.,0.));
#819 = CYLINDRICAL_SURFACE('',#820,7.);
#820 = AXIS2_PLACEMENT_3D('',#821,#822,#823);
#821 = CARTESIAN_POINT('',(-30.,-40.,15.));
#822 = DIRECTION('',(-0.,-0.,-1.));
#823 = DIRECTION('',(1.,0.,0.));
#824 = ADVANCED_FACE('',(#825),#844,.F.);
#825 = FACE_BOUND('',#826,.T.);
#826 = EDGE_LOOP('',(#827,#835,#836,#837));
#827 = ORIENTED_EDGE('',*,*,#828,.F.);
#828 = EDGE_CURVE('',#664,#829,#831,.T.);
#829 = VERTEX_POINT('',#830);
#830 = CARTESIAN_POINT('',(42.,-40.,7.));
#831 = LINE('',#832,#833);
#832 = CARTESIAN_POINT('',(42.,-40.,15.));
#833 = VECTOR('',#834,1.);
#834 = DIRECTION('',(0.,0.,-1.));
#835 = ORIENTED_EDGE('',*,*,#663,.T.);
#836 = ORIENTED_EDGE('',*,*,#828,.T.);
#837 = ORIENTED_EDGE('',*,*,#838,.F.);
#838 = EDGE_CURVE('',#829,#829,#839,.T.);
#839 = CIRCLE('',#840,7.);
#840 = AXIS2_PLACEMENT_3D('',#841,#842,#843);
#841 = CARTESIAN_POINT('',(35.,-40.,7.));
#842 = DIRECTION('',(0.,0.,1.));
#843 = DIRECTION('',(1.,0.,0.));
#844 = CYLINDRICAL_SURFACE('',#845,7.);
#845 = AXIS2_PLACEMENT_3D('',#846,#847,#848);
#846 = CARTESIAN_POINT('',(35.,-40.,15.));
#847 = DIRECTION('',(-0.,-0.,-1.));
#848 = DIRECTION('',(1.,0.,0.));
#849 = ADVANCED_FACE('',(#850),#869,.F.);
#850 = FACE_BOUND('',#851,.T.);
#851 = EDGE_LOOP('',(#852,#860,#861,#862));
#852 = ORIENTED_EDGE('',*,*,#853,.F.);
#853 = EDGE_CURVE('',#688,#854,#856,.T.);
#854 = VERTEX_POINT('',#855);
#855 = CARTESIAN_POINT('',(42.,40.,7.));
#856 = LINE('',#857,#858);
#857 = CARTESIAN_POINT('',(42.,40.,15.));
#858 = VECTOR('',#859,1.);
#859 = DIRECTION('',(0.,0.,-1.));
#860 = ORIENTED_EDGE('',*,*,#687,.T.);
#861 = ORIENTED_EDGE('',*,*,#853,.T.);
#862 = ORIENTED_EDGE('',*,*,#863,.F.);
#863 = EDGE_CURVE('',#854,#854,#864,.T.);
#864 = CIRCLE('',#865,7.);
#865 = AXIS2_PLACEMENT_3D('',#866,#867,#868);
#866 = CARTESIAN_POINT('',(35.,40.,7.));
#867 = DIRECTION('',(0.,0.,1.));
#868 = DIRECTION('',(1.,0.,0.));
#869 = CYLINDRICAL_SURFACE('',#870,7.);
#870 = AXIS2_PLACEMENT_3D('',#871,#872,#873);
#871 = CARTESIAN_POINT('',(35.,40.,15.));
#872 = DIRECTION('',(-0.,-0.,-1.));
#873 = DIRECTION('',(1.,0.,0.));
#874 = ADVANCED_FACE('',(#875,#886),#889,.F.);
#875 = FACE_BOUND('',#876,.F.);
#876 = EDGE_LOOP('',(#877));
#877 = ORIENTED_EDGE('',*,*,#878,.T.);
#878 = EDGE_CURVE('',#879,#879,#881,.T.);
#879 = VERTEX_POINT('',#880);
#880 = CARTESIAN_POINT('',(-8.515171849736E-02,5.9,5.50009667766));
#881 = CIRCLE('',#882,22.5);
#882 = AXIS2_PLACEMENT_3D('',#883,#884,#885);
#883 = CARTESIAN_POINT('',(-18.05445069456,5.9,19.040934698581));
#884 = DIRECTION('',(0.601815023152,-0.,0.798635510047));
#885 = DIRECTION('',(0.798635510047,0.,-0.601815023152));
#886 = FACE_BOUND('',#887,.F.);
#887 = EDGE_LOOP('',(#888));
#888 = ORIENTED_EDGE('',*,*,#756,.F.);
#889 = PLANE('',#890);
#890 = AXIS2_PLACEMENT_3D('',#891,#892,#893);
#891 = CARTESIAN_POINT('',(-18.05445069456,5.9,19.040934698581));
#892 = DIRECTION('',(0.601815023152,0.,0.798635510047));
#893 = DIRECTION('',(0.798635510047,0.,-0.601815023152));
#894 = ADVANCED_FACE('',(#895,#898,#909,#920,#931),#942,.F.);
#895 = FACE_BOUND('',#896,.F.);
#896 = EDGE_LOOP('',(#897));
#897 = ORIENTED_EDGE('',*,*,#781,.T.);
#898 = FACE_BOUND('',#899,.F.);
#899 = EDGE_LOOP('',(#900));
#900 = ORIENTED_EDGE('',*,*,#901,.T.);
#901 = EDGE_CURVE('',#902,#902,#904,.T.);
#902 = VERTEX_POINT('',#903);
#903 = CARTESIAN_POINT('',(-25.5,-40.,0.));
#904 = CIRCLE('',#905,4.5);
#905 = AXIS2_PLACEMENT_3D('',#906,#907,#908);
#906 = CARTESIAN_POINT('',(-30.,-40.,0.));
#907 = DIRECTION('',(0.,0.,-1.));
#908 = DIRECTION('',(1.,0.,0.));
#909 = FACE_BOUND('',#910,.F.);
#910 = EDGE_LOOP('',(#911));
#911 = ORIENTED_EDGE('',*,*,#912,.T.);
#912 = EDGE_CURVE('',#913,#913,#915,.T.);
#913 = VERTEX_POINT('',#914);
#914 = CARTESIAN_POINT('',(39.5,-40.,0.));
#915 = CIRCLE('',#916,4.5);
#916 = AXIS2_PLACEMENT_3D('',#917,#918,#919);
#917 = CARTESIAN_POINT('',(35.,-40.,0.));
#918 = DIRECTION('',(0.,0.,-1.));
#919 = DIRECTION('',(1.,0.,0.));
#920 = FACE_BOUND('',#921,.F.);
#921 = EDGE_LOOP('',(#922));
#922 = ORIENTED_EDGE('',*,*,#923,.F.);
#923 = EDGE_CURVE('',#924,#924,#926,.T.);
#924 = VERTEX_POINT('',#925);
#925 = CARTESIAN_POINT('',(-4.229771845905,5.9,0.));
#926 = ELLIPSE('',#927,28.173052308515,22.5);
#927 = AXIS2_PLACEMENT_3D('',#928,#929,#930);
#928 = CARTESIAN_POINT('',(-32.40282415442,5.9,0.));
#929 = DIRECTION('',(0.,0.,1.));
#930 = DIRECTION('',(1.,0.,0.));
#931 = FACE_BOUND('',#932,.F.);
#932 = EDGE_LOOP('',(#933));
#933 = ORIENTED_EDGE('',*,*,#934,.T.);
#934 = EDGE_CURVE('',#935,#935,#937,.T.);
#935 = VERTEX_POINT('',#936);
#936 = CARTESIAN_POINT('',(39.5,40.,0.));
#937 = CIRCLE('',#938,4.5);
#938 = AXIS2_PLACEMENT_3D('',#939,#940,#941);
#939 = CARTESIAN_POINT('',(35.,40.,0.));
#940 = DIRECTION('',(0.,0.,-1.));
#941 = DIRECTION('',(1.,0.,0.));
#942 = PLANE('',#943);
#943 = AXIS2_PLACEMENT_3D('',#944,#945,#946);
#944 = CARTESIAN_POINT('',(-4.102320397618E-15,5.592060957056E-15,0.));
#945 = DIRECTION('',(0.,0.,1.));
#946 = DIRECTION('',(1.,0.,0.));
#947 = ADVANCED_FACE('',(#948,#951),#962,.T.);
#948 = FACE_BOUND('',#949,.T.);
#949 = EDGE_LOOP('',(#950));
#950 = ORIENTED_EDGE('',*,*,#813,.T.);
#951 = FACE_BOUND('',#952,.T.);
#952 = EDGE_LOOP('',(#953));
#953 = ORIENTED_EDGE('',*,*,#954,.F.);
#954 = EDGE_CURVE('',#955,#955,#957,.T.);
#955 = VERTEX_POINT('',#956);
#956 = CARTESIAN_POINT('',(-25.5,-40.,7.));
#957 = CIRCLE('',#958,4.5);
#958 = AXIS2_PLACEMENT_3D('',#959,#960,#961);
#959 = CARTESIAN_POINT('',(-30.,-40.,7.));
#960 = DIRECTION('',(0.,0.,1.));
#961 = DIRECTION('',(1.,0.,0.));
#962 = PLANE('',#963);
#963 = AXIS2_PLACEMENT_3D('',#964,#965,#966);
#964 = CARTESIAN_POINT('',(-30.,-40.,7.));
#965 = DIRECTION('',(0.,0.,1.));
#966 = DIRECTION('',(1.,0.,0.));
#967 = ADVANCED_FACE('',(#968,#971),#982,.T.);
#968 = FACE_BOUND('',#969,.T.);
#969 = EDGE_LOOP('',(#970));
#970 = ORIENTED_EDGE('',*,*,#838,.T.);
#971 = FACE_BOUND('',#972,.T.);
#972 = EDGE_LOOP('',(#973));
#973 = ORIENTED_EDGE('',*,*,#974,.F.);
#974 = EDGE_CURVE('',#975,#975,#977,.T.);
#975 = VERTEX_POINT('',#976);
#976 = CARTESIAN_POINT('',(39.5,-40.,7.));
#977 = CIRCLE('',#978,4.5);
#978 = AXIS2_PLACEMENT_3D('',#979,#980,#981);
#979 = CARTESIAN_POINT('',(35.,-40.,7.));
#980 = DIRECTION('',(0.,0.,1.));
#981 = DIRECTION('',(1.,0.,0.));
#982 = PLANE('',#983);
#983 = AXIS2_PLACEMENT_3D('',#984,#985,#986);
#984 = CARTESIAN_POINT('',(35.,-40.,7.));
#985 = DIRECTION('',(0.,0.,1.));
#986 = DIRECTION('',(1.,0.,0.));
#987 = ADVANCED_FACE('',(#988,#991),#1002,.T.);
#988 = FACE_BOUND('',#989,.T.);
#989 = EDGE_LOOP('',(#990));
#990 = ORIENTED_EDGE('',*,*,#863,.T.);
#991 = FACE_BOUND('',#992,.T.);
#992 = EDGE_LOOP('',(#993));
#993 = ORIENTED_EDGE('',*,*,#994,.F.);
#994 = EDGE_CURVE('',#995,#995,#997,.T.);
#995 = VERTEX_POINT('',#996);
#996 = CARTESIAN_POINT('',(39.5,40.,7.));
#997 = CIRCLE('',#998,4.5);
#998 = AXIS2_PLACEMENT_3D('',#999,#1000,#1001);
#999 = CARTESIAN_POINT('',(35.,40.,7.));
#1000 = DIRECTION('',(0.,0.,1.));
#1001 = DIRECTION('',(1.,0.,0.));
#1002 = PLANE('',#1003);
#1003 = AXIS2_PLACEMENT_3D('',#1004,#1005,#1006);
#1004 = CARTESIAN_POINT('',(35.,40.,7.));
#1005 = DIRECTION('',(0.,0.,1.));
#1006 = DIRECTION('',(1.,0.,0.));
#1007 = ADVANCED_FACE('',(#1008),#1019,.F.);
#1008 = FACE_BOUND('',#1009,.F.);
#1009 = EDGE_LOOP('',(#1010,#1016,#1017,#1018));
#1010 = ORIENTED_EDGE('',*,*,#1011,.F.);
#1011 = EDGE_CURVE('',#879,#924,#1012,.T.);
#1012 = LINE('',#1013,#1014);
#1013 = CARTESIAN_POINT('',(-8.515171849736E-02,5.9,5.50009667766));
#1014 = VECTOR('',#1015,1.);
#1015 = DIRECTION('',(-0.601815023152,-0.,-0.798635510047));
#1016 = ORIENTED_EDGE('',*,*,#878,.F.);
#1017 = ORIENTED_EDGE('',*,*,#1011,.T.);
#1018 = ORIENTED_EDGE('',*,*,#923,.T.);
#1019 = CYLINDRICAL_SURFACE('',#1020,22.5);
#1020 = AXIS2_PLACEMENT_3D('',#1021,#1022,#1023);
#1021 = CARTESIAN_POINT('',(-18.05445069456,5.9,19.040934698581));
#1022 = DIRECTION('',(0.601815023152,0.,0.798635510047));
#1023 = DIRECTION('',(0.798635510047,0.,-0.601815023152));
#1024 = ADVANCED_FACE('',(#1025),#1036,.F.);
#1025 = FACE_BOUND('',#1026,.T.);
#1026 = EDGE_LOOP('',(#1027,#1033,#1034,#1035));
#1027 = ORIENTED_EDGE('',*,*,#1028,.F.);
#1028 = EDGE_CURVE('',#955,#902,#1029,.T.);
#1029 = LINE('',#1030,#1031);
#1030 = CARTESIAN_POINT('',(-25.5,-40.,7.));
#1031 = VECTOR('',#1032,1.);
#1032 = DIRECTION('',(-6.235444772458E-17,0.,-1.));
#1033 = ORIENTED_EDGE('',*,*,#954,.T.);
#1034 = ORIENTED_EDGE('',*,*,#1028,.T.);
#1035 = ORIENTED_EDGE('',*,*,#901,.T.);
#1036 = CYLINDRICAL_SURFACE('',#1037,4.5);
#1037 = AXIS2_PLACEMENT_3D('',#1038,#1039,#1040);
#1038 = CARTESIAN_POINT('',(-30.,-40.,7.));
#1039 = DIRECTION('',(-0.,-0.,-1.));
#1040 = DIRECTION('',(1.,0.,0.));
#1041 = ADVANCED_FACE('',(#1042),#1053,.F.);
#1042 = FACE_BOUND('',#1043,.T.);
#1043 = EDGE_LOOP('',(#1044,#1050,#1051,#1052));
#1044 = ORIENTED_EDGE('',*,*,#1045,.F.);
#1045 = EDGE_CURVE('',#975,#913,#1046,.T.);
#1046 = LINE('',#1047,#1048);
#1047 = CARTESIAN_POINT('',(39.5,-40.,7.));
#1048 = VECTOR('',#1049,1.);
#1049 = DIRECTION('',(-6.235444772458E-17,0.,-1.));
#1050 = ORIENTED_EDGE('',*,*,#974,.T.);
#1051 = ORIENTED_EDGE('',*,*,#1045,.T.);
#1052 = ORIENTED_EDGE('',*,*,#912,.T.);
#1053 = CYLINDRICAL_SURFACE('',#1054,4.5);
#1054 = AXIS2_PLACEMENT_3D('',#1055,#1056,#1057);
#1055 = CARTESIAN_POINT('',(35.,-40.,7.));
#1056 = DIRECTION('',(-0.,-0.,-1.));
#1057 = DIRECTION('',(1.,0.,0.));
#1058 = ADVANCED_FACE('',(#1059),#1070,.F.);
#1059 = FACE_BOUND('',#1060,.T.);
#1060 = EDGE_LOOP('',(#1061,#1067,#1068,#1069));
#1061 = ORIENTED_EDGE('',*,*,#1062,.F.);
#1062 = EDGE_CURVE('',#995,#935,#1063,.T.);
#1063 = LINE('',#1064,#1065);
#1064 = CARTESIAN_POINT('',(39.5,40.,7.));
#1065 = VECTOR('',#1066,1.);
#1066 = DIRECTION('',(-6.235444772458E-17,0.,-1.));
#1067 = ORIENTED_EDGE('',*,*,#994,.T.);
#1068 = ORIENTED_EDGE('',*,*,#1062,.T.);
#1069 = ORIENTED_EDGE('',*,*,#934,.T.);
#1070 = CYLINDRICAL_SURFACE('',#1071,4.5);
#1071 = AXIS2_PLACEMENT_3D('',#1072,#1073,#1074);
#1072 = CARTESIAN_POINT('',(35.,40.,7.));
#1073 = DIRECTION('',(-0.,-0.,-1.));
#1074 = DIRECTION('',(1.,0.,0.));
#1075 = ( GEOMETRIC_REPRESENTATION_CONTEXT(3) 
GLOBAL_UNCERTAINTY_ASSIGNED_CONTEXT((#1079)) 
GLOBAL_UNIT_ASSIGNED_CONTEXT((#1076,#1077,#1078)) REPRESENTATION_CONTEXT
('Context #1','3D Context with UNIT and UNCERTAINTY') );
#1076 = ( LENGTH_UNIT() NAMED_UNIT(*) SI_UNIT(.MILLI.,.METRE.) );
#1077 = ( NAMED_UNIT(*) PLANE_ANGLE_UNIT() SI_UNIT($,.RADIAN.) );
#1078 = ( NAMED_UNIT(*) SI_UNIT($,.STERADIAN.) SOLID_ANGLE_UNIT() );
#1079 = UNCERTAINTY_MEASURE_WITH_UNIT(LENGTH_MEASURE(2.E-05),#1076,
  'distance_accuracy_value','confusion accuracy');
#1080 = PRODUCT_RELATED_PRODUCT_CATEGORY('part',$,(#7));
#1081 = MECHANICAL_DESIGN_GEOMETRIC_PRESENTATION_REPRESENTATION('',(
    #1082),#1075);
#1082 = STYLED_ITEM('color',(#1083),#15);
#1083 = PRESENTATION_STYLE_ASSIGNMENT((#1084,#1090));
#1084 = SURFACE_STYLE_USAGE(.BOTH.,#1085);
#1085 = SURFACE_SIDE_STYLE('',(#1086));
#1086 = SURFACE_STYLE_FILL_AREA(#1087);
#1087 = FILL_AREA_STYLE('',(#1088));
#1088 = FILL_AREA_STYLE_COLOUR('',#1089);
#1089 = COLOUR_RGB('',0.800000010877,0.800000010877,0.800000010877);
#1090 = CURVE_STYLE('',#1091,POSITIVE_LENGTH_MEASURE(0.1),#1092);
#1091 = DRAUGHTING_PRE_DEFINED_CURVE_FONT('continuous');
#1092 = COLOUR_RGB('',9.803921802644E-02,9.803921802644E-02,
  9.803921802644E-02);
ENDSEC;
END-ISO-10303-21;
