999
FreeCAD v1.0 39109 (Git)
  0
SECTION
  2
HEADER
  9
$ACADVER
  1
AC1014
  9
$ACADMAINTVER
 70
     9
  9
$DWGCODEPAGE
  3
ANSI_1252
  9
$TEXTSTYLE
  7
STANDARD
  9
$DIMSTYLE
  2
STANDARD
  9
$DIMTXSTY
  7
STANDARD
  9
$CMLSTYLE
  2
STANDARD
  9
$LUNITS
 70
2
  9
$INSUNITS
 70
4
  9
$PEXTMAX
 10
50
 20
50
 30
50
  9
$PEXTMIN
 10
0
 20
0
 30
0
  9
$HANDSEED
  5
FFFF
  0
ENDSEC
  0
SECTION
  2
CLASSES
  0
CLASS
  1
ACDBDICTIONARYWDFLT
  2
AcDbDictionaryWithDefault
  3
ObjectDBX Classes
 90
        0
280
     0
281
     0
  0
CLASS
  1
XRECORD
  2
AcDbXrecord
  3
ObjectDBX Classes
 90
        0
280
     0
281
     0
  0
CLASS
  1
LWPOLYLINE
  2
AcDbPolyline
  3
ObjectDBX Classes
 90
        0
280
     0
281
     1
  0
ENDSEC
  0
SECTION
  2
TABLES
  0
TABLE
  2
VPORT
  5
20
330
0
100
AcDbSymbolTable
 70
     1
  0
VPORT
  5
21
330
20
100
AcDbSymbolTableRecord
100
AcDbViewportTableRecord
  2
*ACTIVE
 70
     0
  0
ENDTAB
  0
TABLE
  2
LTYPE
  5
22
330
0
100
AcDbSymbolTable
 70
     1
  0
LTYPE
  5
23
330
21
100
AcDbSymbolTableRecord
100
AcDbLinetypeTableRecord
  2
BYBLOCK
 70
     0
  3

 72
    65
 73
     0
 40
0.0
  0
LTYPE
  5
24
330
21
100
AcDbSymbolTableRecord
100
AcDbLinetypeTableRecord
  2
BYLAYER
 70
     0
  3

 72
    65
 73
     0
 40
0.0
  0
LTYPE
  5
25
330
21
100
AcDbSymbolTableRecord
100
AcDbLinetypeTableRecord
  2
CONTINUOUS
 70
     0
  3
Solid line
 72
    65
 73
     0
 40
0.0
  0
ENDTAB
  0
TABLE
  2
LAYER
  5
A6E
330
0
100
AcDbSymbolTable
 70
3
  0
LAYER
  5
A6F
330
A6E
100
AcDbSymbolTableRecord
100
AcDbLayerTableRecord
  2
0
 70
   0
 62
   7
  6
CONTINUOUS
  0
LAYER
  5
A70
330
A6E
100
AcDbSymbolTableRecord
100
AcDbLayerTableRecord
  2
none
 70
    0
 62
    7
  6
CONTINUOUS
  0
LAYER
  5
A71
330
A6E
100
AcDbSymbolTableRecord
100
AcDbLayerTableRecord
  2
Body
 70
    0
 62
    7
  6
CONTINUOUS
  0
ENDTAB
  0
TABLE
  2
STYLE
  5
70
330
0
100
AcDbSymbolTable
 70
     2
  0
STYLE
  5
71
330
70
100
AcDbSymbolTableRecord
100
AcDbTextStyleTableRecord
  2
STANDARD
 70
     0
 40
0.0
 41
1.0
 50
0.0
 71
     0
 42
2.5
  3
arial.ttf
  4

  0
STYLE
  5
72
330
70
100
AcDbSymbolTableRecord
100
AcDbTextStyleTableRecord
  2
ANNOTATIVE
 70
     0
 40
0.0
 41
1.0
 50
0.0
 71
     0
 42
2.5
  3
arial.ttf
  4

  0
ENDTAB
  0
TABLE
  2
VIEW
  5
73
330
0
100
AcDbSymbolTable
 70
     0
  0
ENDTAB
  0
TABLE
  2
UCS
  5
74
330
0
100
AcDbSymbolTable
 70
     0
  0
ENDTAB
  0
TABLE
  2
APPID
  5
75
330
0
100
AcDbSymbolTable
 70
     2
  0
APPID
  5
76
330
75
100
AcDbSymbolTableRecord
100
AcDbRegAppTableRecord
  2
ACAD
 70
     0
  0
APPID
  5
77
330
75
100
AcDbSymbolTableRecord
100
AcDbRegAppTableRecord
  2
ACADANNOTATIVE
 70
     0
  0
ENDTAB
  0
TABLE
  2
DIMSTYLE
  5
78
330
0
100
AcDbSymbolTable
 70
     2
  0
DIMSTYLE
105
79
330
78
100
AcDbSymbolTableRecord
100
AcDbDimStyleTableRecord
  2
STANDARD
 70
     0
  3

  4

  5

  6

  7

 40
0.0
 41
2.5
 42
0.625
 43
3.75
 44
1.25
 45
0.0
 46
0.0
 47
0.0
 48
0.0
140
2.5
141
2.5
142
0.0
143
0.03937007874016
144
1.0
145
0.0
146
1.0
147
0.625
 71
     0
 72
     0
 73
     0
 74
     0
 75
     0
 76
     0
 77
     1
 78
     8
170
     0
171
     3
172
     1
173
     0
174
     0
175
     0
176
     0
177
     0
178
     0
270
     2
271
     2
272
     2
273
     2
274
     3
340
71
275
     0
280
     0
281
     0
282
     0
283
     0
284
     8
285
     0
286
     0
287
     3
288
     0
  0
ENDTAB
  0
TABLE
  2
BLOCK_RECORD
  5
A01
330
0
100
AcDbSymbolTable
  70
5
  0
BLOCK_RECORD
  5
A02
330
A01
100
AcDbSymbolTableRecord
100
AcDbBlockTableRecord
  2
*MODEL_SPACE
  0
BLOCK_RECORD
  5
A03
330
A01
100
AcDbSymbolTableRecord
100
AcDbBlockTableRecord
  2
*PAPER_SPACE
  0
ENDTAB
  0
ENDSEC
  0
SECTION
  2
BLOCKS
  0
BLOCK
  5
A04
330
A02
100
AcDbEntity
  8
0
100
AcDbBlockBegin
  2
*MODEL_SPACE
 70
   0
 10
0
 20
0
 30
0
  3
*MODEL_SPACE
  1
 
  0
ENDBLK
  5
A05
330
A02
100
AcDbEntity
  8
0
100
AcDbBlockEnd
  0
BLOCK
  5
A06
330
A03
100
AcDbEntity
 67
1
  8
0
100
AcDbBlockBegin
  2
*PAPER_SPACE
 70
   0
 10
0
 20
0
 30
0
  3
*PAPER_SPACE
  1
 
  0
ENDBLK
  5
A07
330
A03
100
AcDbEntity
 67
    1
  8
0
100
AcDbBlockEnd
  0
ENDSEC
  0
SECTION
  2
ENTITIES
  0
ARC
  5
A08
330
A02
100
AcDbEntity
  8
Body
100
AcDbCircle
 10
0.000000000
 20
-0.000000000
 30
-14.524149651
 40
8.485281374
100
AcDbArc
 50
0.000000000
 51
180.000000000
  0
LINE
  5
A09
330
A02
100
AcDbEntity
  8
Body
100
AcDbLine
 10
-8.485281374
 20
0.000000000
 30
8.485281374
 11
-8.485281374
 21
68.321012126
 31
8.485281374
  0
ELLIPSE
  5
A0A
330
A02
100
AcDbEntity
  8
Body
100
AcDbEllipse
 10
0.000000000
 20
99.990776990
 30
-14.524149651
 11
24.524149651
 21
-33.754596195
 31
0.000000000
 40
0.587785252
 41
-0.353301174
 42
-5.929884133
  0
LINE
  5
A0B
330
A02
100
AcDbEntity
  8
Body
100
AcDbLine
 10
8.485281374
 20
0.000000000
 30
8.485281374
 11
8.485281374
 21
68.321012126
 31
8.485281374
  0
SPLINE
  5
A0C
330
A02
100
AcDbEntity
  8
Body
100
AcDbSpline
210
0
220
0
230
1
 70
9
 71
3
 72
35
 73
31
 74
0
 40
0.000000000
 40
0.000000000
 40
0.000000000
 40
0.000000000
 40
0.153637599
 40
0.153637599
 40
0.153637599
 40
0.219691852
 40
0.219691852
 40
0.219691852
 40
0.285746106
 40
0.285746106
 40
0.285746106
 40
0.421729099
 40
0.421729099
 40
0.421729099
 40
0.589504905
 40
0.589504905
 40
0.589504905
 40
0.714899844
 40
0.714899844
 40
0.714899844
 40
0.776082986
 40
0.776082986
 40
0.776082986
 40
0.837266129
 40
0.837266129
 40
0.837266129
 40
0.918633064
 40
0.918633064
 40
0.918633064
 40
1.000000000
 40
1.000000000
 40
1.000000000
 40
1.000000000
 10
-2.000000000
 20
50.000000000
 30
9.918311684
 10
-1.998606917
 20
50.553139514
 30
9.917544089
 10
-1.773695870
 20
51.123177507
 30
9.939918431
 10
-1.274847979
 20
51.541026486
 30
9.966842136
 10
-1.060614485
 20
51.719559198
 30
9.978046206
 10
-0.778950059
 20
51.870755336
 30
9.989672388
 10
-0.466999664
 20
51.944713683
 30
9.995553190
 10
-0.155649460
 20
52.020383526
 30
10.001634594
 10
0.183857206
 20
52.018556486
 30
10.001467107
 10
0.497379774
 20
51.937166322
 30
9.994955746
 10
1.146497881
 20
51.768276903
 30
9.981255453
 10
1.590321383
 20
51.321323039
 30
9.948848582
 10
1.809654105
 20
50.851558583
 30
9.933141044
 10
2.080856635
 20
50.268428486
 30
9.911958244
 10
2.063670958
 20
49.609000095
 30
9.913883151
 10
1.752613360
 20
49.036492652
 30
9.937294757
 10
1.520518177
 20
48.611482469
 30
9.953583282
 10
1.093858352
 20
48.217228984
 30
9.982515060
 10
0.497379774
 20
48.062833678
 30
9.994955746
 10
0.207797136
 20
47.987743438
 30
10.000947795
 10
-0.106040655
 20
47.979873814
 30
10.001635831
 10
-0.398697947
 20
48.040142873
 30
9.996758871
 10
-0.691762926
 20
48.098997259
 30
9.992053172
 10
-0.962010532
 20
48.225815326
 30
9.982109957
 10
-1.175570505
 20
48.381966011
 30
9.971808181
 10
-1.460204463
 20
48.589260792
 30
9.958056924
 10
-1.665504708
 20
48.850745844
 30
9.943666229
 10
-1.800261154
 20
49.128759654
 30
9.933834224
 10
-1.934068777
 20
49.410537969
 30
9.923649808
 10
-2.000648393
 20
49.700951417
 30
9.918475628
 10
-2.000000000
 20
50.000000000
 30
9.918311684
  0
ARC
  5
A0D
330
A02
100
AcDbEntity
  8
Body
100
AcDbCircle
 10
0.000000000
 20
-0.000000000
 30
-14.524149651
 40
8.485281374
100
AcDbArc
 50
0.000000000
 51
180.000000000
  0
ARC
  5
A0E
330
A02
100
AcDbEntity
  8
Body
100
AcDbCircle
 10
-14.524149651
 20
0.000000000
 30
0.000000000
 40
23.009431025
100
AcDbArc
 50
-0.000000000
 51
0.000000000
  0
ARC
  5
A0F
330
A02
100
AcDbEntity
  8
Body
100
AcDbCircle
 10
14.524149651
 20
0.000000000
 30
0.000000000
 40
23.009431025
100
AcDbArc
 50
180.000000000
 51
-180.000000000
  0
ARC
  5
A10
330
A02
100
AcDbEntity
  8
Body
100
AcDbCircle
 10
0.000000000
 20
0.000000000
 30
14.524149651
 40
8.485281374
100
AcDbArc
 50
-180.000000000
 51
-0.000000000
  0
CIRCLE
  5
A11
330
A02
100
AcDbEntity
  8
Body
100
AcDbCircle
 10
0.000000000
 20
0.000000000
 30
0.000000000
 40
5.000000000
  0
ARC
  5
A12
330
A02
100
AcDbEntity
  8
Body
100
AcDbCircle
 10
14.524149651
 20
0.000000000
 30
0.000000000
 40
23.009431025
100
AcDbArc
 50
180.000000000
 51
-180.000000000
  0
LINE
  5
A13
330
A02
100
AcDbEntity
  8
Body
100
AcDbLine
 10
-8.485281374
 20
-0.000000000
 30
-8.485281374
 11
-8.485281374
 21
9.514718626
 31
-8.485281374
  0
ELLIPSE
  5
A14
330
A02
100
AcDbEntity
  8
Body
100
AcDbEllipse
 10
14.524149651
 20
18.000000000
 30
-0.000000000
 11
24.524149651
 21
-24.524149651
 31
0.000000000
 40
0.707106781
 41
4.589753415
 42
5.065690154
  0
LINE
  5
A15
330
A02
100
AcDbEntity
  8
Body
100
AcDbLine
 10
-9.815815758
 20
61.000000000
 30
3.000000000
 11
-9.815815758
 21
21.000000000
 31
3.000000000
  0
SPLINE
  5
A16
330
A02
100
AcDbEntity
  8
Body
100
AcDbSpline
210
0
220
0
230
1
 70
8
 71
3
 72
14
 73
10
 74
0
 40
0.000000000
 40
0.000000000
 40
0.000000000
 40
0.000000000
 40
0.318691505
 40
0.318691505
 40
0.318691505
 40
0.659345752
 40
0.659345752
 40
0.659345752
 40
1.000000000
 40
1.000000000
 40
1.000000000
 40
1.000000000
 10
-10.000000000
 20
64.000000000
 30
-0.000000000
 10
-10.000487444
 20
64.002462664
 30
0.606715019
 10
-9.975587968
 20
63.807580983
 30
1.190143970
 10
-9.945509746
 20
63.516011704
 30
1.633917105
 10
-9.913444635
 20
63.205760951
 30
2.110044183
 10
-9.878087189
 20
62.798066160
 30
2.449918548
 10
-9.854013582
 20
62.364157790
 30
2.671904468
 10
-9.829536807
 20
61.928711088
 30
2.893621947
 10
-9.815696811
 20
61.464357717
 30
2.999586492
 10
-9.815815758
 20
61.000000000
 30
3.000000000
  0
SPLINE
  5
A17
330
A02
100
AcDbEntity
  8
Body
100
AcDbSpline
210
0
220
0
230
1
 70
8
 71
3
 72
14
 73
10
 74
0
 40
0.000000000
 40
0.000000000
 40
0.000000000
 40
0.000000000
 40
0.519704923
 40
0.519704923
 40
0.519704923
 40
0.759852461
 40
0.759852461
 40
0.759852461
 40
1.000000000
 40
1.000000000
 40
1.000000000
 40
1.000000000
 10
-9.815815758
 20
61.000000000
 30
-3.000000000
 10
-9.815027691
 20
61.702770082
 30
-2.998331478
 10
-9.849136294
 20
62.415673550
 30
-2.758001010
 10
-9.898453364
 20
63.007391819
 30
-2.229434476
 10
-9.920742040
 20
63.279587069
 30
-1.985059740
 10
-9.946391756
 20
63.531571457
 30
-1.664737341
 10
-9.966382325
 20
63.711501552
 30
-1.283650858
 10
-9.986429845
 20
63.891981115
 30
-0.903381492
 10
-10.000121907
 20
64.000289541
 30
-0.462846324
 10
-10.000000000
 20
64.000000000
 30
-0.000000000
  0
LINE
  5
A18
330
A02
100
AcDbEntity
  8
Body
100
AcDbLine
 10
-9.815815758
 20
61.000000000
 30
-3.000000000
 11
-9.815815758
 21
24.000000000
 31
-3.000000000
  0
ELLIPSE
  5
A19
330
A02
100
AcDbEntity
  8
Body
100
AcDbEllipse
 10
14.524149651
 20
27.000000000
 30
-0.000000000
 11
24.524149651
 21
-24.524149651
 31
0.000000000
 40
0.707106781
 41
4.835024546
 42
5.065690154
  0
LINE
  5
A1A
330
A02
100
AcDbEntity
  8
Body
100
AcDbLine
 10
-8.485281374
 20
18.514718626
 30
-8.485281374
 11
-8.485281374
 21
68.321012126
 31
-8.485281374
  0
ELLIPSE
  5
A1B
330
A02
100
AcDbEntity
  8
Body
100
AcDbEllipse
 10
14.524149651
 20
80.000000000
 30
-0.000000000
 11
24.524149651
 21
-33.754596195
 31
0.000000000
 40
0.587785252
 41
4.712388980
 42
5.065690154
  0
ELLIPSE
  5
A1C
330
A02
100
AcDbEntity
  8
Body
100
AcDbEllipse
 10
14.524149651
 20
80.000000000
 30
-0.000000000
 11
24.524149651
 21
-33.754596195
 31
0.000000000
 40
0.587785252
 41
-1.570796327
 42
-1.217495153
  0
LINE
  5
A1D
330
A02
100
AcDbEntity
  8
Body
100
AcDbLine
 10
-8.485281374
 20
0.000000000
 30
8.485281374
 11
-8.485281374
 21
68.321012126
 31
8.485281374
  0
LINE
  5
A1E
330
A02
100
AcDbEntity
  8
Body
100
AcDbLine
 10
10.000000000
 20
80.000000000
 30
-0.000000000
 11
-10.000000000
 21
80.000000000
 31
-0.000000000
  0
ELLIPSE
  5
A1F
330
A02
100
AcDbEntity
  8
Body
100
AcDbEllipse
 10
14.524149651
 20
80.000000000
 30
-0.000000000
 11
24.524149651
 21
-33.754596195
 31
0.000000000
 40
0.587785252
 41
-1.570796327
 42
-1.217495153
  0
ELLIPSE
  5
A20
330
A02
100
AcDbEntity
  8
Body
100
AcDbEllipse
 10
0.000000000
 20
99.990776990
 30
-14.524149651
 11
24.524149651
 21
-33.754596195
 31
0.000000000
 40
0.587785252
 41
-0.353301174
 42
-5.929884133
  0
ELLIPSE
  5
A21
330
A02
100
AcDbEntity
  8
Body
100
AcDbEllipse
 10
-14.524149651
 20
80.000000000
 30
-0.000000000
 11
24.524149651
 21
-33.754596195
 31
0.000000000
 40
0.587785252
 41
-5.065690154
 42
-4.712388980
  0
ARC
  5
A22
330
A02
100
AcDbEntity
  8
Body
100
AcDbCircle
 10
-14.524149651
 20
0.000000000
 30
0.000000000
 40
23.009431025
100
AcDbArc
 50
-0.000000000
 51
0.000000000
  0
LINE
  5
A23
330
A02
100
AcDbEntity
  8
Body
100
AcDbLine
 10
8.485281374
 20
0.000000000
 30
8.485281374
 11
8.485281374
 21
68.321012126
 31
8.485281374
  0
ELLIPSE
  5
A24
330
A02
100
AcDbEntity
  8
Body
100
AcDbEllipse
 10
-14.524149651
 20
80.000000000
 30
-0.000000000
 11
24.524149651
 21
-33.754596195
 31
0.000000000
 40
0.587785252
 41
-5.065690154
 42
-4.712388980
  0
ELLIPSE
  5
A25
330
A02
100
AcDbEntity
  8
Body
100
AcDbEllipse
 10
-14.524149651
 20
80.000000000
 30
-0.000000000
 11
24.524149651
 21
-33.754596195
 31
0.000000000
 40
0.587785252
 41
1.217495153
 42
1.570796327
  0
LINE
  5
A26
330
A02
100
AcDbEntity
  8
Body
100
AcDbLine
 10
8.485281374
 20
18.514718626
 30
-8.485281374
 11
8.485281374
 21
68.321012126
 31
-8.485281374
  0
ELLIPSE
  5
A27
330
A02
100
AcDbEntity
  8
Body
100
AcDbEllipse
 10
-14.524149651
 20
27.000000000
 30
-0.000000000
 11
24.524149651
 21
-24.524149651
 31
0.000000000
 40
0.707106781
 41
1.217495153
 42
1.448160761
  0
LINE
  5
A28
330
A02
100
AcDbEntity
  8
Body
100
AcDbLine
 10
9.815815758
 20
61.000000000
 30
-3.000000000
 11
9.815815758
 21
24.000000000
 31
-3.000000000
  0
SPLINE
  5
A29
330
A02
100
AcDbEntity
  8
Body
100
AcDbSpline
210
0
220
0
230
1
 70
8
 71
3
 72
14
 73
10
 74
0
 40
0.000000000
 40
0.000000000
 40
0.000000000
 40
0.000000000
 40
0.519704923
 40
0.519704923
 40
0.519704923
 40
0.759852461
 40
0.759852461
 40
0.759852461
 40
1.000000000
 40
1.000000000
 40
1.000000000
 40
1.000000000
 10
9.815815758
 20
61.000000000
 30
-3.000000000
 10
9.815027691
 20
61.702770082
 30
-2.998331478
 10
9.849136294
 20
62.415673550
 30
-2.758001010
 10
9.898453364
 20
63.007391819
 30
-2.229434476
 10
9.920742040
 20
63.279587069
 30
-1.985059740
 10
9.946391756
 20
63.531571457
 30
-1.664737341
 10
9.966382325
 20
63.711501552
 30
-1.283650858
 10
9.986429845
 20
63.891981115
 30
-0.903381492
 10
10.000121907
 20
64.000289541
 30
-0.462846324
 10
10.000000000
 20
64.000000000
 30
-0.000000000
  0
SPLINE
  5
A2A
330
A02
100
AcDbEntity
  8
Body
100
AcDbSpline
210
0
220
0
230
1
 70
8
 71
3
 72
14
 73
10
 74
0
 40
0.000000000
 40
0.000000000
 40
0.000000000
 40
0.000000000
 40
0.318691504
 40
0.318691504
 40
0.318691504
 40
0.659345752
 40
0.659345752
 40
0.659345752
 40
1.000000000
 40
1.000000000
 40
1.000000000
 40
1.000000000
 10
10.000000000
 20
64.000000000
 30
-0.000000000
 10
10.000487444
 20
64.002462664
 30
0.606715019
 10
9.975587968
 20
63.807580983
 30
1.190143970
 10
9.945509746
 20
63.516011704
 30
1.633917105
 10
9.913444635
 20
63.205760951
 30
2.110044183
 10
9.878087189
 20
62.798066160
 30
2.449918548
 10
9.854013582
 20
62.364157790
 30
2.671904468
 10
9.829536807
 20
61.928711088
 30
2.893621947
 10
9.815696811
 20
61.464357717
 30
2.999586492
 10
9.815815758
 20
61.000000000
 30
3.000000000
  0
LINE
  5
A2B
330
A02
100
AcDbEntity
  8
Body
100
AcDbLine
 10
9.815815758
 20
61.000000000
 30
3.000000000
 11
9.815815758
 21
21.000000000
 31
3.000000000
  0
ELLIPSE
  5
A2C
330
A02
100
AcDbEntity
  8
Body
100
AcDbEllipse
 10
-14.524149651
 20
18.000000000
 30
-0.000000000
 11
24.524149651
 21
-24.524149651
 31
0.000000000
 40
0.707106781
 41
1.217495153
 42
1.693431892
  0
LINE
  5
A2D
330
A02
100
AcDbEntity
  8
Body
100
AcDbLine
 10
8.485281374
 20
-0.000000000
 30
-8.485281374
 11
8.485281374
 21
9.514718626
 31
-8.485281374
  0
CIRCLE
  5
A2E
330
A02
100
AcDbEntity
  8
Body
100
AcDbCircle
 10
0.000000000
 20
50.000000000
 30
3.000000000
 40
2.000000000
  0
LINE
  5
A2F
330
A02
100
AcDbEntity
  8
Body
100
AcDbLine
 10
-2.000000000
 20
50.000000000
 30
3.000000000
 11
-2.000000000
 21
50.000000000
 31
9.918311684
  0
SPLINE
  5
A30
330
A02
100
AcDbEntity
  8
Body
100
AcDbSpline
210
0
220
0
230
1
 70
9
 71
3
 72
35
 73
31
 74
0
 40
0.000000000
 40
0.000000000
 40
0.000000000
 40
0.000000000
 40
0.153637599
 40
0.153637599
 40
0.153637599
 40
0.219691852
 40
0.219691852
 40
0.219691852
 40
0.285746106
 40
0.285746106
 40
0.285746106
 40
0.421729099
 40
0.421729099
 40
0.421729099
 40
0.589504905
 40
0.589504905
 40
0.589504905
 40
0.714899844
 40
0.714899844
 40
0.714899844
 40
0.776082986
 40
0.776082986
 40
0.776082986
 40
0.837266129
 40
0.837266129
 40
0.837266129
 40
0.918633064
 40
0.918633064
 40
0.918633064
 40
1.000000000
 40
1.000000000
 40
1.000000000
 40
1.000000000
 10
-2.000000000
 20
50.000000000
 30
9.918311684
 10
-1.998606917
 20
50.553139514
 30
9.917544089
 10
-1.773695870
 20
51.123177507
 30
9.939918431
 10
-1.274847979
 20
51.541026486
 30
9.966842136
 10
-1.060614485
 20
51.719559198
 30
9.978046206
 10
-0.778950059
 20
51.870755336
 30
9.989672388
 10
-0.466999664
 20
51.944713683
 30
9.995553190
 10
-0.155649460
 20
52.020383526
 30
10.001634594
 10
0.183857206
 20
52.018556486
 30
10.001467107
 10
0.497379774
 20
51.937166322
 30
9.994955746
 10
1.146497881
 20
51.768276903
 30
9.981255453
 10
1.590321383
 20
51.321323039
 30
9.948848582
 10
1.809654105
 20
50.851558583
 30
9.933141044
 10
2.080856635
 20
50.268428486
 30
9.911958244
 10
2.063670958
 20
49.609000095
 30
9.913883151
 10
1.752613360
 20
49.036492652
 30
9.937294757
 10
1.520518177
 20
48.611482469
 30
9.953583282
 10
1.093858352
 20
48.217228984
 30
9.982515060
 10
0.497379774
 20
48.062833678
 30
9.994955746
 10
0.207797136
 20
47.987743438
 30
10.000947795
 10
-0.106040655
 20
47.979873814
 30
10.001635831
 10
-0.398697947
 20
48.040142873
 30
9.996758871
 10
-0.691762926
 20
48.098997259
 30
9.992053172
 10
-0.962010532
 20
48.225815326
 30
9.982109957
 10
-1.175570505
 20
48.381966011
 30
9.971808181
 10
-1.460204463
 20
48.589260792
 30
9.958056924
 10
-1.665504708
 20
48.850745844
 30
9.943666229
 10
-1.800261154
 20
49.128759654
 30
9.933834224
 10
-1.934068777
 20
49.410537969
 30
9.923649808
 10
-2.000648393
 20
49.700951417
 30
9.918475628
 10
-2.000000000
 20
50.000000000
 30
9.918311684
  0
LINE
  5
A31
330
A02
100
AcDbEntity
  8
Body
100
AcDbLine
 10
-2.000000000
 20
50.000000000
 30
3.000000000
 11
-2.000000000
 21
50.000000000
 31
9.918311684
  0
ARC
  5
A32
330
A02
100
AcDbEntity
  8
Body
100
AcDbCircle
 10
0.000000000
 20
0.000000000
 30
14.524149651
 40
8.485281374
100
AcDbArc
 50
-180.000000000
 51
-0.000000000
  0
LINE
  5
A33
330
A02
100
AcDbEntity
  8
Body
100
AcDbLine
 10
8.485281374
 20
-0.000000000
 30
-8.485281374
 11
8.485281374
 21
9.514718626
 31
-8.485281374
  0
ELLIPSE
  5
A34
330
A02
100
AcDbEntity
  8
Body
100
AcDbEllipse
 10
0.000000000
 20
32.524149651
 30
14.524149651
 11
24.524149651
 21
-24.524149651
 31
0.000000000
 40
0.707106781
 41
0.000000000
 42
0.353301174
  0
ELLIPSE
  5
A35
330
A02
100
AcDbEntity
  8
Body
100
AcDbEllipse
 10
0.000000000
 20
32.524149651
 30
14.524149651
 11
24.524149651
 21
-24.524149651
 31
0.000000000
 40
0.707106781
 41
5.929884133
 42
0.000000000
  0
LINE
  5
A36
330
A02
100
AcDbEntity
  8
Body
100
AcDbLine
 10
-8.485281374
 20
-0.000000000
 30
-8.485281374
 11
-8.485281374
 21
9.514718626
 31
-8.485281374
  0
LINE
  5
A37
330
A02
100
AcDbEntity
  8
Body
100
AcDbLine
 10
5.000000000
 20
0.000000000
 30
0.000000000
 11
5.000000000
 21
-12.000000000
 31
0.000000000
  0
LINE
  5
A38
330
A02
100
AcDbEntity
  8
Body
100
AcDbLine
 10
5.000000000
 20
0.000000000
 30
0.000000000
 11
5.000000000
 21
-12.000000000
 31
0.000000000
  0
CIRCLE
  5
A39
330
A02
100
AcDbEntity
  8
Body
100
AcDbCircle
 10
0.000000000
 20
0.000000000
 30
0.000000000
 40
5.000000000
  0
CIRCLE
  5
A3A
330
A02
100
AcDbEntity
  8
Body
100
AcDbCircle
 10
0.000000000
 20
-12.000000000
 30
0.000000000
 40
5.000000000
  0
ELLIPSE
  5
A3B
330
A02
100
AcDbEntity
  8
Body
100
AcDbEllipse
 10
-14.524149651
 20
18.000000000
 30
-0.000000000
 11
24.524149651
 21
-24.524149651
 31
0.000000000
 40
0.707106781
 41
1.217495153
 42
1.693431892
  0
ELLIPSE
  5
A3C
330
A02
100
AcDbEntity
  8
Body
100
AcDbEllipse
 10
0.000000000
 20
32.524149651
 30
14.524149651
 11
24.524149651
 21
-24.524149651
 31
0.000000000
 40
0.707106781
 41
0.000000000
 42
0.353301174
  0
ELLIPSE
  5
A3D
330
A02
100
AcDbEntity
  8
Body
100
AcDbEllipse
 10
0.000000000
 20
32.524149651
 30
14.524149651
 11
24.524149651
 21
-24.524149651
 31
0.000000000
 40
0.707106781
 41
5.929884133
 42
0.000000000
  0
ELLIPSE
  5
A3E
330
A02
100
AcDbEntity
  8
Body
100
AcDbEllipse
 10
14.524149651
 20
18.000000000
 30
-0.000000000
 11
24.524149651
 21
-24.524149651
 31
0.000000000
 40
0.707106781
 41
4.589753415
 42
5.065690154
  0
LINE
  5
A3F
330
A02
100
AcDbEntity
  8
Body
100
AcDbLine
 10
9.815815758
 20
21.000000000
 30
3.000000000
 11
-9.815815758
 21
21.000000000
 31
3.000000000
  0
LINE
  5
A40
330
A02
100
AcDbEntity
  8
Body
100
AcDbLine
 10
9.815815758
 20
61.000000000
 30
3.000000000
 11
9.815815758
 21
21.000000000
 31
3.000000000
  0
LINE
  5
A41
330
A02
100
AcDbEntity
  8
Body
100
AcDbLine
 10
9.815815758
 20
61.000000000
 30
3.000000000
 11
-9.815815758
 21
61.000000000
 31
3.000000000
  0
LINE
  5
A42
330
A02
100
AcDbEntity
  8
Body
100
AcDbLine
 10
-9.815815758
 20
61.000000000
 30
3.000000000
 11
-9.815815758
 21
21.000000000
 31
3.000000000
  0
LINE
  5
A43
330
A02
100
AcDbEntity
  8
Body
100
AcDbLine
 10
9.815815758
 20
21.000000000
 30
3.000000000
 11
-9.815815758
 21
21.000000000
 31
3.000000000
  0
CIRCLE
  5
A44
330
A02
100
AcDbEntity
  8
Body
100
AcDbCircle
 10
0.000000000
 20
50.000000000
 30
3.000000000
 40
2.000000000
  0
SPLINE
  5
A45
330
A02
100
AcDbEntity
  8
Body
100
AcDbSpline
210
0
220
0
230
1
 70
8
 71
3
 72
14
 73
10
 74
0
 40
0.000000000
 40
0.000000000
 40
0.000000000
 40
0.000000000
 40
0.519704923
 40
0.519704923
 40
0.519704923
 40
0.759852461
 40
0.759852461
 40
0.759852461
 40
1.000000000
 40
1.000000000
 40
1.000000000
 40
1.000000000
 10
9.815815758
 20
61.000000000
 30
-3.000000000
 10
9.815027691
 20
61.702770082
 30
-2.998331478
 10
9.849136294
 20
62.415673550
 30
-2.758001010
 10
9.898453364
 20
63.007391819
 30
-2.229434476
 10
9.920742040
 20
63.279587069
 30
-1.985059740
 10
9.946391756
 20
63.531571457
 30
-1.664737341
 10
9.966382325
 20
63.711501552
 30
-1.283650858
 10
9.986429845
 20
63.891981115
 30
-0.903381492
 10
10.000121907
 20
64.000289541
 30
-0.462846324
 10
10.000000000
 20
64.000000000
 30
-0.000000000
  0
SPLINE
  5
A46
330
A02
100
AcDbEntity
  8
Body
100
AcDbSpline
210
0
220
0
230
1
 70
8
 71
3
 72
14
 73
10
 74
0
 40
0.000000000
 40
0.000000000
 40
0.000000000
 40
0.000000000
 40
0.318691504
 40
0.318691504
 40
0.318691504
 40
0.659345752
 40
0.659345752
 40
0.659345752
 40
1.000000000
 40
1.000000000
 40
1.000000000
 40
1.000000000
 10
10.000000000
 20
64.000000000
 30
-0.000000000
 10
10.000487444
 20
64.002462664
 30
0.606715019
 10
9.975587968
 20
63.807580983
 30
1.190143970
 10
9.945509746
 20
63.516011704
 30
1.633917105
 10
9.913444635
 20
63.205760951
 30
2.110044183
 10
9.878087189
 20
62.798066160
 30
2.449918548
 10
9.854013582
 20
62.364157790
 30
2.671904468
 10
9.829536807
 20
61.928711088
 30
2.893621947
 10
9.815696811
 20
61.464357717
 30
2.999586492
 10
9.815815758
 20
61.000000000
 30
3.000000000
  0
LINE
  5
A47
330
A02
100
AcDbEntity
  8
Body
100
AcDbLine
 10
9.815815758
 20
61.000000000
 30
3.000000000
 11
-9.815815758
 21
61.000000000
 31
3.000000000
  0
SPLINE
  5
A48
330
A02
100
AcDbEntity
  8
Body
100
AcDbSpline
210
0
220
0
230
1
 70
8
 71
3
 72
14
 73
10
 74
0
 40
0.000000000
 40
0.000000000
 40
0.000000000
 40
0.000000000
 40
0.318691505
 40
0.318691505
 40
0.318691505
 40
0.659345752
 40
0.659345752
 40
0.659345752
 40
1.000000000
 40
1.000000000
 40
1.000000000
 40
1.000000000
 10
-10.000000000
 20
64.000000000
 30
-0.000000000
 10
-10.000487444
 20
64.002462664
 30
0.606715019
 10
-9.975587968
 20
63.807580983
 30
1.190143970
 10
-9.945509746
 20
63.516011704
 30
1.633917105
 10
-9.913444635
 20
63.205760951
 30
2.110044183
 10
-9.878087189
 20
62.798066160
 30
2.449918548
 10
-9.854013582
 20
62.364157790
 30
2.671904468
 10
-9.829536807
 20
61.928711088
 30
2.893621947
 10
-9.815696811
 20
61.464357717
 30
2.999586492
 10
-9.815815758
 20
61.000000000
 30
3.000000000
  0
SPLINE
  5
A49
330
A02
100
AcDbEntity
  8
Body
100
AcDbSpline
210
0
220
0
230
1
 70
8
 71
3
 72
14
 73
10
 74
0
 40
0.000000000
 40
0.000000000
 40
0.000000000
 40
0.000000000
 40
0.519704923
 40
0.519704923
 40
0.519704923
 40
0.759852461
 40
0.759852461
 40
0.759852461
 40
1.000000000
 40
1.000000000
 40
1.000000000
 40
1.000000000
 10
-9.815815758
 20
61.000000000
 30
-3.000000000
 10
-9.815027691
 20
61.702770082
 30
-2.998331478
 10
-9.849136294
 20
62.415673550
 30
-2.758001010
 10
-9.898453364
 20
63.007391819
 30
-2.229434476
 10
-9.920742040
 20
63.279587069
 30
-1.985059740
 10
-9.946391756
 20
63.531571457
 30
-1.664737341
 10
-9.966382325
 20
63.711501552
 30
-1.283650858
 10
-9.986429845
 20
63.891981115
 30
-0.903381492
 10
-10.000121907
 20
64.000289541
 30
-0.462846324
 10
-10.000000000
 20
64.000000000
 30
-0.000000000
  0
LINE
  5
A4A
330
A02
100
AcDbEntity
  8
Body
100
AcDbLine
 10
9.815815758
 20
61.000000000
 30
-3.000000000
 11
-9.815815758
 21
61.000000000
 31
-3.000000000
  0
LINE
  5
A4B
330
A02
100
AcDbEntity
  8
Body
100
AcDbLine
 10
9.815815758
 20
61.000000000
 30
-3.000000000
 11
9.815815758
 21
24.000000000
 31
-3.000000000
  0
LINE
  5
A4C
330
A02
100
AcDbEntity
  8
Body
100
AcDbLine
 10
9.815815758
 20
61.000000000
 30
-3.000000000
 11
-9.815815758
 21
61.000000000
 31
-3.000000000
  0
LINE
  5
A4D
330
A02
100
AcDbEntity
  8
Body
100
AcDbLine
 10
-9.815815758
 20
61.000000000
 30
-3.000000000
 11
-9.815815758
 21
24.000000000
 31
-3.000000000
  0
LINE
  5
A4E
330
A02
100
AcDbEntity
  8
Body
100
AcDbLine
 10
9.815815758
 20
24.000000000
 30
-3.000000000
 11
-9.815815758
 21
24.000000000
 31
-3.000000000
  0
CIRCLE
  5
A4F
330
A02
100
AcDbEntity
  8
Body
100
AcDbCircle
 10
0.000000000
 20
50.000000000
 30
-3.000000000
 40
2.000000000
  0
ELLIPSE
  5
A50
330
A02
100
AcDbEntity
  8
Body
100
AcDbEllipse
 10
-14.524149651
 20
27.000000000
 30
-0.000000000
 11
24.524149651
 21
-24.524149651
 31
0.000000000
 40
0.707106781
 41
1.217495153
 42
1.448160761
  0
ELLIPSE
  5
A51
330
A02
100
AcDbEntity
  8
Body
100
AcDbEllipse
 10
0.000000000
 20
41.524149651
 30
14.524149651
 11
24.524149651
 21
-24.524149651
 31
0.000000000
 40
0.707106781
 41
0.000000000
 42
0.353301174
  0
ELLIPSE
  5
A52
330
A02
100
AcDbEntity
  8
Body
100
AcDbEllipse
 10
0.000000000
 20
41.524149651
 30
14.524149651
 11
24.524149651
 21
-24.524149651
 31
0.000000000
 40
0.707106781
 41
5.929884133
 42
0.000000000
  0
ELLIPSE
  5
A53
330
A02
100
AcDbEntity
  8
Body
100
AcDbEllipse
 10
14.524149651
 20
27.000000000
 30
-0.000000000
 11
24.524149651
 21
-24.524149651
 31
0.000000000
 40
0.707106781
 41
4.835024546
 42
5.065690154
  0
LINE
  5
A54
330
A02
100
AcDbEntity
  8
Body
100
AcDbLine
 10
9.815815758
 20
24.000000000
 30
-3.000000000
 11
-9.815815758
 21
24.000000000
 31
-3.000000000
  0
ELLIPSE
  5
A55
330
A02
100
AcDbEntity
  8
Body
100
AcDbEllipse
 10
0.000000000
 20
41.524149651
 30
14.524149651
 11
24.524149651
 21
-24.524149651
 31
0.000000000
 40
0.707106781
 41
5.929884133
 42
0.000000000
  0
ELLIPSE
  5
A56
330
A02
100
AcDbEntity
  8
Body
100
AcDbEllipse
 10
0.000000000
 20
41.524149651
 30
14.524149651
 11
24.524149651
 21
-24.524149651
 31
0.000000000
 40
0.707106781
 41
0.000000000
 42
0.353301174
  0
LINE
  5
A57
330
A02
100
AcDbEntity
  8
Body
100
AcDbLine
 10
8.485281374
 20
18.514718626
 30
-8.485281374
 11
8.485281374
 21
68.321012126
 31
-8.485281374
  0
ELLIPSE
  5
A58
330
A02
100
AcDbEntity
  8
Body
100
AcDbEllipse
 10
0.000000000
 20
99.990776990
 30
14.524149651
 11
24.524149651
 21
-33.754596195
 31
0.000000000
 40
0.587785252
 41
5.929884133
 42
0.353301174
  0
LINE
  5
A59
330
A02
100
AcDbEntity
  8
Body
100
AcDbLine
 10
-8.485281374
 20
18.514718626
 30
-8.485281374
 11
-8.485281374
 21
68.321012126
 31
-8.485281374
  0
SPLINE
  5
A5A
330
A02
100
AcDbEntity
  8
Body
100
AcDbSpline
210
0
220
0
230
1
 70
8
 71
3
 72
32
 73
28
 74
0
 40
0.249999977
 40
0.249999977
 40
0.249999977
 40
0.249999977
 40
0.250000000
 40
0.250000000
 40
0.250000000
 40
0.305563517
 40
0.305563517
 40
0.305563517
 40
0.361127035
 40
0.361127035
 40
0.361127035
 40
0.430563518
 40
0.430563518
 40
0.430563518
 40
0.500000001
 40
0.500000001
 40
0.500000001
 40
0.569436483
 40
0.569436483
 40
0.569436483
 40
0.638872965
 40
0.638872965
 40
0.638872965
 40
0.694436472
 40
0.694436472
 40
0.694436472
 40
0.749999980
 40
0.749999980
 40
0.749999980
 40
0.749999980
 10
-0.000000858
 20
55.000000000
 30
-10.000000000
 10
-0.000000572
 20
55.000000000
 30
-10.000000000
 10
-0.000000286
 20
55.000000000
 30
-10.000000000
 10
-0.000000000
 20
55.000000000
 30
-10.000000000
 10
0.722301813
 20
55.000403780
 30
-10.000267421
 10
1.411194342
 20
54.842198894
 30
-9.967070734
 10
2.013153535
 20
54.576812524
 30
-9.917231814
 10
2.616176415
 20
54.312228981
 30
-9.867552820
 10
3.131598160
 20
53.940491066
 30
-9.802642069
 10
3.535533906
 20
53.535533906
 30
-9.743811040
 10
4.041001830
 20
53.029307161
 30
-9.669874997
 10
4.404325852
 20
52.452720020
 30
-9.602220981
 10
4.644031089
 20
51.852828972
 30
-9.556275819
 10
4.883325791
 20
51.252105699
 30
-9.509920465
 10
4.999702699
 20
50.626434473
 30
-9.484747781
 10
5.000000000
 20
50.000000000
 30
-9.484888566
 10
4.999702698
 20
49.373565526
 30
-9.484747781
 10
4.883325792
 20
48.747894302
 30
-9.509920465
 10
4.644031089
 20
48.147171028
 30
-9.556275819
 10
4.404325852
 20
47.547279979
 30
-9.602220981
 10
4.041001829
 20
46.970692839
 30
-9.669874997
 10
3.535533906
 20
46.464466094
 30
-9.743811040
 10
3.131598233
 20
46.059509008
 30
-9.802642059
 10
2.616176604
 20
45.687771155
 30
-9.867552796
 10
2.013153866
 20
45.423187622
 30
-9.917231787
 10
1.411194813
 20
45.157801262
 30
-9.967070703
 10
0.722302451
 20
44.999596335
 30
-10.000267398
 10
0.000000792
 20
45.000000000
 30
-10.000000000
  0
SPLINE
  5
A5B
330
A02
100
AcDbEntity
  8
Body
100
AcDbSpline
210
0
220
0
230
1
 70
8
 71
3
 72
17
 73
13
 74
0
 40
0.000000000
 40
0.000000000
 40
0.000000000
 40
0.000000000
 40
0.069436482
 40
0.069436482
 40
0.069436482
 40
0.138872964
 40
0.138872964
 40
0.138872964
 40
0.194436471
 40
0.194436471
 40
0.194436471
 40
0.249999977
 40
0.249999977
 40
0.249999977
 40
0.249999977
 10
-5.000000000
 20
50.000000000
 30
-9.484888566
 10
-4.999702698
 20
50.626434474
 30
-9.484747781
 10
-4.883325792
 20
51.252105698
 30
-9.509920465
 10
-4.644031089
 20
51.852828972
 30
-9.556275819
 10
-4.404325852
 20
52.452720021
 30
-9.602220981
 10
-4.041001829
 20
53.029307161
 30
-9.669874997
 10
-3.535533906
 20
53.535533906
 30
-9.743811040
 10
-3.131598239
 20
53.940490985
 30
-9.802642058
 10
-2.616176620
 20
54.312228834
 30
-9.867552794
 10
-2.013153894
 20
54.576812366
 30
-9.917231784
 10
-1.411194853
 20
54.842198726
 30
-9.967070700
 10
-0.722302504
 20
55.000403656
 30
-10.000267396
 10
-0.000000858
 20
55.000000000
 30
-10.000000000
  0
SPLINE
  5
A5C
330
A02
100
AcDbEntity
  8
Body
100
AcDbSpline
210
0
220
0
230
1
 70
8
 71
3
 72
20
 73
16
 74
0
 40
0.749999980
 40
0.749999980
 40
0.749999980
 40
0.749999980
 40
0.750000000
 40
0.750000000
 40
0.750000000
 40
0.805563518
 40
0.805563518
 40
0.805563518
 40
0.861127036
 40
0.861127036
 40
0.861127036
 40
0.930563518
 40
0.930563518
 40
0.930563518
 40
1.000000000
 40
1.000000000
 40
1.000000000
 40
1.000000000
 10
0.000000792
 20
45.000000000
 30
-10.000000000
 10
0.000000528
 20
45.000000000
 30
-10.000000000
 10
0.000000264
 20
45.000000000
 30
-10.000000000
 10
0.000000000
 20
45.000000000
 30
-10.000000000
 10
-0.722301813
 20
44.999596220
 30
-10.000267421
 10
-1.411194342
 20
45.157801106
 30
-9.967070734
 10
-2.013153535
 20
45.423187476
 30
-9.917231814
 10
-2.616176415
 20
45.687771019
 30
-9.867552820
 10
-3.131598160
 20
46.059508934
 30
-9.802642069
 10
-3.535533906
 20
46.464466094
 30
-9.743811040
 10
-4.041001829
 20
46.970692839
 30
-9.669874997
 10
-4.404325852
 20
47.547279979
 30
-9.602220981
 10
-4.644031089
 20
48.147171028
 30
-9.556275819
 10
-4.883325792
 20
48.747894302
 30
-9.509920465
 10
-4.999702698
 20
49.373565526
 30
-9.484747781
 10
-5.000000000
 20
50.000000000
 30
-9.484888566
  0
ELLIPSE
  5
A5D
330
A02
100
AcDbEntity
  8
Body
100
AcDbEllipse
 10
-14.524149651
 20
80.000000000
 30
-0.000000000
 11
24.524149651
 21
-33.754596195
 31
0.000000000
 40
0.587785252
 41
1.217495153
 42
1.570796327
  0
ELLIPSE
  5
A5E
330
A02
100
AcDbEntity
  8
Body
100
AcDbEllipse
 10
0.000000000
 20
99.990776990
 30
14.524149651
 11
24.524149651
 21
-33.754596195
 31
0.000000000
 40
0.587785252
 41
5.929884133
 42
0.353301174
  0
ELLIPSE
  5
A5F
330
A02
100
AcDbEntity
  8
Body
100
AcDbEllipse
 10
14.524149651
 20
80.000000000
 30
-0.000000000
 11
24.524149651
 21
-33.754596195
 31
0.000000000
 40
0.587785252
 41
4.712388980
 42
5.065690154
  0
LINE
  5
A60
330
A02
100
AcDbEntity
  8
Body
100
AcDbLine
 10
10.000000000
 20
80.000000000
 30
-0.000000000
 11
-10.000000000
 21
80.000000000
 31
-0.000000000
  0
CIRCLE
  5
A61
330
A02
100
AcDbEntity
  8
Body
100
AcDbCircle
 10
0.000000000
 20
-12.000000000
 30
0.000000000
 40
5.000000000
  0
CIRCLE
  5
A62
330
A02
100
AcDbEntity
  8
Body
100
AcDbCircle
 10
0.000000000
 20
50.000000000
 30
-6.000000000
 40
2.000000000
  0
LINE
  5
A63
330
A02
100
AcDbEntity
  8
Body
100
AcDbLine
 10
-2.000000000
 20
50.000000000
 30
-6.000000000
 11
-2.000000000
 21
50.000000000
 31
-3.000000000
  0
CIRCLE
  5
A64
330
A02
100
AcDbEntity
  8
Body
100
AcDbCircle
 10
0.000000000
 20
50.000000000
 30
-3.000000000
 40
2.000000000
  0
LINE
  5
A65
330
A02
100
AcDbEntity
  8
Body
100
AcDbLine
 10
-2.000000000
 20
50.000000000
 30
-6.000000000
 11
-2.000000000
 21
50.000000000
 31
-3.000000000
  0
SPLINE
  5
A66
330
A02
100
AcDbEntity
  8
Body
100
AcDbSpline
210
0
220
0
230
1
 70
8
 71
3
 72
17
 73
13
 74
0
 40
0.000000000
 40
0.000000000
 40
0.000000000
 40
0.000000000
 40
0.069436482
 40
0.069436482
 40
0.069436482
 40
0.138872964
 40
0.138872964
 40
0.138872964
 40
0.194436471
 40
0.194436471
 40
0.194436471
 40
0.249999977
 40
0.249999977
 40
0.249999977
 40
0.249999977
 10
-5.000000000
 20
50.000000000
 30
-9.484888566
 10
-4.999702698
 20
50.626434474
 30
-9.484747781
 10
-4.883325792
 20
51.252105698
 30
-9.509920465
 10
-4.644031089
 20
51.852828972
 30
-9.556275819
 10
-4.404325852
 20
52.452720021
 30
-9.602220981
 10
-4.041001829
 20
53.029307161
 30
-9.669874997
 10
-3.535533906
 20
53.535533906
 30
-9.743811040
 10
-3.131598239
 20
53.940490985
 30
-9.802642058
 10
-2.616176620
 20
54.312228834
 30
-9.867552794
 10
-2.013153894
 20
54.576812366
 30
-9.917231784
 10
-1.411194853
 20
54.842198726
 30
-9.967070700
 10
-0.722302504
 20
55.000403656
 30
-10.000267396
 10
-0.000000858
 20
55.000000000
 30
-10.000000000
  0
LINE
  5
A67
330
A02
100
AcDbEntity
  8
Body
100
AcDbLine
 10
-5.000000000
 20
50.000000000
 30
-9.484888566
 11
-5.000000000
 21
50.000000000
 31
-6.000000000
  0
CIRCLE
  5
A68
330
A02
100
AcDbEntity
  8
Body
100
AcDbCircle
 10
0.000000000
 20
50.000000000
 30
-6.000000000
 40
5.000000000
  0
LINE
  5
A69
330
A02
100
AcDbEntity
  8
Body
100
AcDbLine
 10
-5.000000000
 20
50.000000000
 30
-9.484888566
 11
-5.000000000
 21
50.000000000
 31
-6.000000000
  0
SPLINE
  5
A6A
330
A02
100
AcDbEntity
  8
Body
100
AcDbSpline
210
0
220
0
230
1
 70
8
 71
3
 72
20
 73
16
 74
0
 40
0.749999980
 40
0.749999980
 40
0.749999980
 40
0.749999980
 40
0.750000000
 40
0.750000000
 40
0.750000000
 40
0.805563518
 40
0.805563518
 40
0.805563518
 40
0.861127036
 40
0.861127036
 40
0.861127036
 40
0.930563518
 40
0.930563518
 40
0.930563518
 40
1.000000000
 40
1.000000000
 40
1.000000000
 40
1.000000000
 10
0.000000792
 20
45.000000000
 30
-10.000000000
 10
0.000000528
 20
45.000000000
 30
-10.000000000
 10
0.000000264
 20
45.000000000
 30
-10.000000000
 10
0.000000000
 20
45.000000000
 30
-10.000000000
 10
-0.722301813
 20
44.999596220
 30
-10.000267421
 10
-1.411194342
 20
45.157801106
 30
-9.967070734
 10
-2.013153535
 20
45.423187476
 30
-9.917231814
 10
-2.616176415
 20
45.687771019
 30
-9.867552820
 10
-3.131598160
 20
46.059508934
 30
-9.802642069
 10
-3.535533906
 20
46.464466094
 30
-9.743811040
 10
-4.041001829
 20
46.970692839
 30
-9.669874997
 10
-4.404325852
 20
47.547279979
 30
-9.602220981
 10
-4.644031089
 20
48.147171028
 30
-9.556275819
 10
-4.883325792
 20
48.747894302
 30
-9.509920465
 10
-4.999702698
 20
49.373565526
 30
-9.484747781
 10
-5.000000000
 20
50.000000000
 30
-9.484888566
  0
SPLINE
  5
A6B
330
A02
100
AcDbEntity
  8
Body
100
AcDbSpline
210
0
220
0
230
1
 70
8
 71
3
 72
32
 73
28
 74
0
 40
0.249999977
 40
0.249999977
 40
0.249999977
 40
0.249999977
 40
0.250000000
 40
0.250000000
 40
0.250000000
 40
0.305563517
 40
0.305563517
 40
0.305563517
 40
0.361127035
 40
0.361127035
 40
0.361127035
 40
0.430563518
 40
0.430563518
 40
0.430563518
 40
0.500000001
 40
0.500000001
 40
0.500000001
 40
0.569436483
 40
0.569436483
 40
0.569436483
 40
0.638872965
 40
0.638872965
 40
0.638872965
 40
0.694436472
 40
0.694436472
 40
0.694436472
 40
0.749999980
 40
0.749999980
 40
0.749999980
 40
0.749999980
 10
-0.000000858
 20
55.000000000
 30
-10.000000000
 10
-0.000000572
 20
55.000000000
 30
-10.000000000
 10
-0.000000286
 20
55.000000000
 30
-10.000000000
 10
-0.000000000
 20
55.000000000
 30
-10.000000000
 10
0.722301813
 20
55.000403780
 30
-10.000267421
 10
1.411194342
 20
54.842198894
 30
-9.967070734
 10
2.013153535
 20
54.576812524
 30
-9.917231814
 10
2.616176415
 20
54.312228981
 30
-9.867552820
 10
3.131598160
 20
53.940491066
 30
-9.802642069
 10
3.535533906
 20
53.535533906
 30
-9.743811040
 10
4.041001830
 20
53.029307161
 30
-9.669874997
 10
4.404325852
 20
52.452720020
 30
-9.602220981
 10
4.644031089
 20
51.852828972
 30
-9.556275819
 10
4.883325791
 20
51.252105699
 30
-9.509920465
 10
4.999702699
 20
50.626434473
 30
-9.484747781
 10
5.000000000
 20
50.000000000
 30
-9.484888566
 10
4.999702698
 20
49.373565526
 30
-9.484747781
 10
4.883325792
 20
48.747894302
 30
-9.509920465
 10
4.644031089
 20
48.147171028
 30
-9.556275819
 10
4.404325852
 20
47.547279979
 30
-9.602220981
 10
4.041001829
 20
46.970692839
 30
-9.669874997
 10
3.535533906
 20
46.464466094
 30
-9.743811040
 10
3.131598233
 20
46.059509008
 30
-9.802642059
 10
2.616176604
 20
45.687771155
 30
-9.867552796
 10
2.013153866
 20
45.423187622
 30
-9.917231787
 10
1.411194813
 20
45.157801262
 30
-9.967070703
 10
0.722302451
 20
44.999596335
 30
-10.000267398
 10
0.000000792
 20
45.000000000
 30
-10.000000000
  0
CIRCLE
  5
A6C
330
A02
100
AcDbEntity
  8
Body
100
AcDbCircle
 10
0.000000000
 20
50.000000000
 30
-6.000000000
 40
5.000000000
  0
CIRCLE
  5
A6D
330
A02
100
AcDbEntity
  8
Body
100
AcDbCircle
 10
0.000000000
 20
50.000000000
 30
-6.000000000
 40
2.000000000
  0
ENDSEC
  0
SECTION
  2
OBJECTS
  0
DICTIONARY
  5
F000
330
0
100
AcDbDictionary
  3
ACAD_GROUP
350
F001
  0
DICTIONARY
  5
F001
330
F000
100
AcDbDictionary
  0
ENDSEC
  0
EOF