ISO-10303-21;
HEADER;
FILE_DESCRIPTION(('FreeCAD Model'),'2;1');
FILE_NAME('Open CASCADE Shape Model','2025-05-14T17:24:56',(''),(''),
  'Open CASCADE STEP processor 7.8','FreeCAD','Unknown');
FILE_SCHEMA(('AUTOMOTIVE_DESIGN { 1 0 10303 214 1 1 1 1 }'));
ENDSEC;
DATA;
#1 = APPLICATION_PROTOCOL_DEFINITION('international standard',
  'automotive_design',2000,#2);
#2 = APPLICATION_CONTEXT(
  'core data for automotive mechanical design processes');
#3 = SHAPE_DEFINITION_REPRESENTATION(#4,#10);
#4 = PRODUCT_DEFINITION_SHAPE('','',#5);
#5 = PRODUCT_DEFINITION('design','',#6,#9);
#6 = PRODUCT_DEFINITION_FORMATION('','',#7);
#7 = PRODUCT('Body','Body','',(#8));
#8 = PRODUCT_CONTEXT('',#2,'mechanical');
#9 = PRODUCT_DEFINITION_CONTEXT('part definition',#2,'design');
#10 = ADVANCED_BREP_SHAPE_REPRESENTATION('',(#11,#15),#1912);
#11 = AXIS2_PLACEMENT_3D('',#12,#13,#14);
#12 = CARTESIAN_POINT('',(0.,0.,0.));
#13 = DIRECTION('',(0.,0.,1.));
#14 = DIRECTION('',(1.,0.,-0.));
#15 = MANIFOLD_SOLID_BREP('',#16);
#16 = CLOSED_SHELL('',(#17,#45,#106,#131,#151,#182,#218,#242,#260,#383,
    #408,#420,#445,#508,#533,#558,#582,#606,#631,#656,#705,#730,#755,
    #780,#805,#831,#851,#892,#909,#937,#954,#990,#1010,#1030,#1050,#1070
    ,#1095,#1120,#1137,#1154,#1179,#1196,#1213,#1272,#1317,#1337,#1368,
    #1392,#1416,#1440,#1464,#1481,#1512,#1556,#1580,#1598,#1623,#1635,
    #1655,#1680,#1705,#1725,#1829,#1854,#1874,#1894));
#17 = ADVANCED_FACE('',(#18,#29),#40,.T.);
#18 = FACE_BOUND('',#19,.F.);
#19 = EDGE_LOOP('',(#20));
#20 = ORIENTED_EDGE('',*,*,#21,.F.);
#21 = EDGE_CURVE('',#22,#22,#24,.T.);
#22 = VERTEX_POINT('',#23);
#23 = CARTESIAN_POINT('',(33.,1.110223024625E-14,50.));
#24 = CIRCLE('',#25,33.);
#25 = AXIS2_PLACEMENT_3D('',#26,#27,#28);
#26 = CARTESIAN_POINT('',(0.,1.110223024625E-14,50.));
#27 = DIRECTION('',(0.,-2.22044604925E-16,-1.));
#28 = DIRECTION('',(1.,0.,0.));
#29 = FACE_BOUND('',#30,.F.);
#30 = EDGE_LOOP('',(#31));
#31 = ORIENTED_EDGE('',*,*,#32,.F.);
#32 = EDGE_CURVE('',#33,#33,#35,.T.);
#33 = VERTEX_POINT('',#34);
#34 = CARTESIAN_POINT('',(22.5,1.110223024625E-14,50.));
#35 = CIRCLE('',#36,22.5);
#36 = AXIS2_PLACEMENT_3D('',#37,#38,#39);
#37 = CARTESIAN_POINT('',(8.907892405992E-14,1.110223024625E-14,50.));
#38 = DIRECTION('',(1.781578481198E-15,2.22044604925E-16,1.));
#39 = DIRECTION('',(1.,-3.955898900006E-31,-1.781578481198E-15));
#40 = PLANE('',#41);
#41 = AXIS2_PLACEMENT_3D('',#42,#43,#44);
#42 = CARTESIAN_POINT('',(0.,1.110223024625E-14,50.));
#43 = DIRECTION('',(-0.,-2.22044604925E-16,-1.));
#44 = DIRECTION('',(1.,0.,0.));
#45 = ADVANCED_FACE('',(#46,#65),#101,.T.);
#46 = FACE_BOUND('',#47,.F.);
#47 = EDGE_LOOP('',(#48,#56,#57,#58));
#48 = ORIENTED_EDGE('',*,*,#49,.F.);
#49 = EDGE_CURVE('',#22,#50,#52,.T.);
#50 = VERTEX_POINT('',#51);
#51 = CARTESIAN_POINT('',(33.,1.998401444325E-14,90.));
#52 = LINE('',#53,#54);
#53 = CARTESIAN_POINT('',(33.,1.110223024625E-14,50.));
#54 = VECTOR('',#55,1.);
#55 = DIRECTION('',(0.,2.22044604925E-16,1.));
#56 = ORIENTED_EDGE('',*,*,#21,.T.);
#57 = ORIENTED_EDGE('',*,*,#49,.T.);
#58 = ORIENTED_EDGE('',*,*,#59,.F.);
#59 = EDGE_CURVE('',#50,#50,#60,.T.);
#60 = CIRCLE('',#61,33.);
#61 = AXIS2_PLACEMENT_3D('',#62,#63,#64);
#62 = CARTESIAN_POINT('',(0.,1.998401444325E-14,90.));
#63 = DIRECTION('',(0.,-2.22044604925E-16,-1.));
#64 = DIRECTION('',(1.,0.,0.));
#65 = FACE_BOUND('',#66,.F.);
#66 = EDGE_LOOP('',(#67,#77,#86,#94));
#67 = ORIENTED_EDGE('',*,*,#68,.F.);
#68 = EDGE_CURVE('',#69,#71,#73,.T.);
#69 = VERTEX_POINT('',#70);
#70 = CARTESIAN_POINT('',(-7.243902439024,32.19512195122,60.));
#71 = VERTEX_POINT('',#72);
#72 = CARTESIAN_POINT('',(-7.243902439024,32.19512195122,80.));
#73 = LINE('',#74,#75);
#74 = CARTESIAN_POINT('',(-7.243902439024,32.19512195122,60.));
#75 = VECTOR('',#76,1.);
#76 = DIRECTION('',(0.,0.,1.));
#77 = ORIENTED_EDGE('',*,*,#78,.T.);
#78 = EDGE_CURVE('',#69,#79,#81,.T.);
#79 = VERTEX_POINT('',#80);
#80 = CARTESIAN_POINT('',(-7.243849820302,-32.19513379043,60.));
#81 = CIRCLE('',#82,33.);
#82 = AXIS2_PLACEMENT_3D('',#83,#84,#85);
#83 = CARTESIAN_POINT('',(0.,1.33226762955E-14,60.));
#84 = DIRECTION('',(-0.,2.22044604925E-16,1.));
#85 = DIRECTION('',(1.,0.,0.));
#86 = ORIENTED_EDGE('',*,*,#87,.T.);
#87 = EDGE_CURVE('',#79,#88,#90,.T.);
#88 = VERTEX_POINT('',#89);
#89 = CARTESIAN_POINT('',(-7.243849820302,-32.19513379043,80.));
#90 = LINE('',#91,#92);
#91 = CARTESIAN_POINT('',(-7.243849820302,-32.19513379043,60.));
#92 = VECTOR('',#93,1.);
#93 = DIRECTION('',(0.,0.,1.));
#94 = ORIENTED_EDGE('',*,*,#95,.F.);
#95 = EDGE_CURVE('',#71,#88,#96,.T.);
#96 = CIRCLE('',#97,33.);
#97 = AXIS2_PLACEMENT_3D('',#98,#99,#100);
#98 = CARTESIAN_POINT('',(0.,1.7763568394E-14,80.));
#99 = DIRECTION('',(-0.,2.22044604925E-16,1.));
#100 = DIRECTION('',(1.,0.,0.));
#101 = CYLINDRICAL_SURFACE('',#102,33.);
#102 = AXIS2_PLACEMENT_3D('',#103,#104,#105);
#103 = CARTESIAN_POINT('',(0.,1.110223024625E-14,50.));
#104 = DIRECTION('',(0.,2.22044604925E-16,1.));
#105 = DIRECTION('',(1.,0.,0.));
#106 = ADVANCED_FACE('',(#107),#126,.T.);
#107 = FACE_BOUND('',#108,.T.);
#108 = EDGE_LOOP('',(#109,#117,#124,#125));
#109 = ORIENTED_EDGE('',*,*,#110,.F.);
#110 = EDGE_CURVE('',#111,#33,#113,.T.);
#111 = VERTEX_POINT('',#112);
#112 = CARTESIAN_POINT('',(22.5,3.552713678801E-15,16.));
#113 = LINE('',#114,#115);
#114 = CARTESIAN_POINT('',(22.5,-8.900772525014E-30,-4.008551582696E-14)
  );
#115 = VECTOR('',#116,1.);
#116 = DIRECTION('',(1.781578481198E-15,2.22044604925E-16,1.));
#117 = ORIENTED_EDGE('',*,*,#118,.T.);
#118 = EDGE_CURVE('',#111,#111,#119,.T.);
#119 = CIRCLE('',#120,22.5);
#120 = AXIS2_PLACEMENT_3D('',#121,#122,#123);
#121 = CARTESIAN_POINT('',(2.850525569917E-14,3.552713678801E-15,16.));
#122 = DIRECTION('',(1.781578481198E-15,2.22044604925E-16,1.));
#123 = DIRECTION('',(1.,-3.955898900006E-31,-1.781578481198E-15));
#124 = ORIENTED_EDGE('',*,*,#110,.T.);
#125 = ORIENTED_EDGE('',*,*,#32,.F.);
#126 = CYLINDRICAL_SURFACE('',#127,22.5);
#127 = AXIS2_PLACEMENT_3D('',#128,#129,#130);
#128 = CARTESIAN_POINT('',(0.,0.,0.));
#129 = DIRECTION('',(1.781578481198E-15,2.22044604925E-16,1.));
#130 = DIRECTION('',(1.,-3.955898900006E-31,-1.781578481198E-15));
#131 = ADVANCED_FACE('',(#132,#135),#146,.F.);
#132 = FACE_BOUND('',#133,.F.);
#133 = EDGE_LOOP('',(#134));
#134 = ORIENTED_EDGE('',*,*,#59,.T.);
#135 = FACE_BOUND('',#136,.F.);
#136 = EDGE_LOOP('',(#137));
#137 = ORIENTED_EDGE('',*,*,#138,.T.);
#138 = EDGE_CURVE('',#139,#139,#141,.T.);
#139 = VERTEX_POINT('',#140);
#140 = CARTESIAN_POINT('',(22.5,1.998401444325E-14,90.));
#141 = CIRCLE('',#142,22.5);
#142 = AXIS2_PLACEMENT_3D('',#143,#144,#145);
#143 = CARTESIAN_POINT('',(1.603420633079E-13,1.998401444325E-14,90.));
#144 = DIRECTION('',(1.781578481198E-15,2.22044604925E-16,1.));
#145 = DIRECTION('',(1.,-3.955898900006E-31,-1.781578481198E-15));
#146 = PLANE('',#147);
#147 = AXIS2_PLACEMENT_3D('',#148,#149,#150);
#148 = CARTESIAN_POINT('',(0.,1.998401444325E-14,90.));
#149 = DIRECTION('',(-0.,-2.22044604925E-16,-1.));
#150 = DIRECTION('',(1.,0.,0.));
#151 = ADVANCED_FACE('',(#152),#177,.T.);
#152 = FACE_BOUND('',#153,.T.);
#153 = EDGE_LOOP('',(#154,#164,#170,#171));
#154 = ORIENTED_EDGE('',*,*,#155,.T.);
#155 = EDGE_CURVE('',#156,#158,#160,.T.);
#156 = VERTEX_POINT('',#157);
#157 = CARTESIAN_POINT('',(-85.29268292682,14.634146341463,60.));
#158 = VERTEX_POINT('',#159);
#159 = CARTESIAN_POINT('',(-85.29268292682,14.634146341463,80.));
#160 = LINE('',#161,#162);
#161 = CARTESIAN_POINT('',(-85.29268292682,14.634146341463,60.));
#162 = VECTOR('',#163,1.);
#163 = DIRECTION('',(0.,0.,1.));
#164 = ORIENTED_EDGE('',*,*,#165,.T.);
#165 = EDGE_CURVE('',#158,#71,#166,.T.);
#166 = LINE('',#167,#168);
#167 = CARTESIAN_POINT('',(-85.29268292682,14.634146341463,80.));
#168 = VECTOR('',#169,1.);
#169 = DIRECTION('',(0.975609756098,0.219512195122,0.));
#170 = ORIENTED_EDGE('',*,*,#68,.F.);
#171 = ORIENTED_EDGE('',*,*,#172,.F.);
#172 = EDGE_CURVE('',#156,#69,#173,.T.);
#173 = LINE('',#174,#175);
#174 = CARTESIAN_POINT('',(-85.29268292682,14.634146341463,60.));
#175 = VECTOR('',#176,1.);
#176 = DIRECTION('',(0.975609756098,0.219512195122,0.));
#177 = PLANE('',#178);
#178 = AXIS2_PLACEMENT_3D('',#179,#180,#181);
#179 = CARTESIAN_POINT('',(-85.29268292682,14.634146341463,60.));
#180 = DIRECTION('',(-0.219512195122,0.975609756098,0.));
#181 = DIRECTION('',(0.975609756098,0.219512195122,0.));
#182 = ADVANCED_FACE('',(#183,#202),#213,.T.);
#183 = FACE_BOUND('',#184,.T.);
#184 = EDGE_LOOP('',(#185,#186,#195,#201));
#185 = ORIENTED_EDGE('',*,*,#165,.F.);
#186 = ORIENTED_EDGE('',*,*,#187,.T.);
#187 = EDGE_CURVE('',#158,#188,#190,.T.);
#188 = VERTEX_POINT('',#189);
#189 = CARTESIAN_POINT('',(-85.29268292682,-14.63414634146,80.));
#190 = CIRCLE('',#191,15.);
#191 = AXIS2_PLACEMENT_3D('',#192,#193,#194);
#192 = CARTESIAN_POINT('',(-82.,1.998401444325E-14,80.));
#193 = DIRECTION('',(0.,0.,1.));
#194 = DIRECTION('',(1.,0.,0.));
#195 = ORIENTED_EDGE('',*,*,#196,.F.);
#196 = EDGE_CURVE('',#88,#188,#197,.T.);
#197 = LINE('',#198,#199);
#198 = CARTESIAN_POINT('',(-7.243849820302,-32.19513379043,80.));
#199 = VECTOR('',#200,1.);
#200 = DIRECTION('',(-0.975609756098,0.219512195122,0.));
#201 = ORIENTED_EDGE('',*,*,#95,.F.);
#202 = FACE_BOUND('',#203,.T.);
#203 = EDGE_LOOP('',(#204));
#204 = ORIENTED_EDGE('',*,*,#205,.F.);
#205 = EDGE_CURVE('',#206,#206,#208,.T.);
#206 = VERTEX_POINT('',#207);
#207 = CARTESIAN_POINT('',(-70.,0.,80.));
#208 = CIRCLE('',#209,12.);
#209 = AXIS2_PLACEMENT_3D('',#210,#211,#212);
#210 = CARTESIAN_POINT('',(-82.,0.,80.));
#211 = DIRECTION('',(0.,0.,1.));
#212 = DIRECTION('',(1.,0.,0.));
#213 = PLANE('',#214);
#214 = AXIS2_PLACEMENT_3D('',#215,#216,#217);
#215 = CARTESIAN_POINT('',(-43.53928194462,-8.035660727128E-06,80.));
#216 = DIRECTION('',(0.,0.,1.));
#217 = DIRECTION('',(1.,0.,0.));
#218 = ADVANCED_FACE('',(#219),#237,.T.);
#219 = FACE_BOUND('',#220,.T.);
#220 = EDGE_LOOP('',(#221,#222,#223,#231));
#221 = ORIENTED_EDGE('',*,*,#87,.T.);
#222 = ORIENTED_EDGE('',*,*,#196,.T.);
#223 = ORIENTED_EDGE('',*,*,#224,.F.);
#224 = EDGE_CURVE('',#225,#188,#227,.T.);
#225 = VERTEX_POINT('',#226);
#226 = CARTESIAN_POINT('',(-85.29268292682,-14.63414634146,60.));
#227 = LINE('',#228,#229);
#228 = CARTESIAN_POINT('',(-85.29268292682,-14.63414634146,60.));
#229 = VECTOR('',#230,1.);
#230 = DIRECTION('',(0.,0.,1.));
#231 = ORIENTED_EDGE('',*,*,#232,.F.);
#232 = EDGE_CURVE('',#79,#225,#233,.T.);
#233 = LINE('',#234,#235);
#234 = CARTESIAN_POINT('',(-7.243849820302,-32.19513379043,60.));
#235 = VECTOR('',#236,1.);
#236 = DIRECTION('',(-0.975609756098,0.219512195122,0.));
#237 = PLANE('',#238);
#238 = AXIS2_PLACEMENT_3D('',#239,#240,#241);
#239 = CARTESIAN_POINT('',(-7.243849820302,-32.19513379043,60.));
#240 = DIRECTION('',(-0.219512195122,-0.975609756098,0.));
#241 = DIRECTION('',(-0.975609756098,0.219512195122,0.));
#242 = ADVANCED_FACE('',(#243),#255,.F.);
#243 = FACE_BOUND('',#244,.F.);
#244 = EDGE_LOOP('',(#245,#246,#253,#254));
#245 = ORIENTED_EDGE('',*,*,#172,.F.);
#246 = ORIENTED_EDGE('',*,*,#247,.T.);
#247 = EDGE_CURVE('',#156,#225,#248,.T.);
#248 = CIRCLE('',#249,15.);
#249 = AXIS2_PLACEMENT_3D('',#250,#251,#252);
#250 = CARTESIAN_POINT('',(-82.,1.998401444325E-14,60.));
#251 = DIRECTION('',(0.,0.,1.));
#252 = DIRECTION('',(1.,0.,0.));
#253 = ORIENTED_EDGE('',*,*,#232,.F.);
#254 = ORIENTED_EDGE('',*,*,#78,.F.);
#255 = PLANE('',#256);
#256 = AXIS2_PLACEMENT_3D('',#257,#258,#259);
#257 = CARTESIAN_POINT('',(-43.53928194462,-8.035660727128E-06,60.));
#258 = DIRECTION('',(0.,0.,1.));
#259 = DIRECTION('',(1.,0.,0.));
#260 = ADVANCED_FACE('',(#261,#331,#342,#353,#364,#367),#378,.T.);
#261 = FACE_BOUND('',#262,.T.);
#262 = EDGE_LOOP('',(#263,#273,#282,#290,#299,#307,#316,#324));
#263 = ORIENTED_EDGE('',*,*,#264,.T.);
#264 = EDGE_CURVE('',#265,#267,#269,.T.);
#265 = VERTEX_POINT('',#266);
#266 = CARTESIAN_POINT('',(-33.,55.,16.));
#267 = VERTEX_POINT('',#268);
#268 = CARTESIAN_POINT('',(-33.,-55.,16.));
#269 = LINE('',#270,#271);
#270 = CARTESIAN_POINT('',(-33.,70.,16.));
#271 = VECTOR('',#272,1.);
#272 = DIRECTION('',(0.,-1.,0.));
#273 = ORIENTED_EDGE('',*,*,#274,.T.);
#274 = EDGE_CURVE('',#267,#275,#277,.T.);
#275 = VERTEX_POINT('',#276);
#276 = CARTESIAN_POINT('',(-18.,-70.,16.));
#277 = CIRCLE('',#278,15.);
#278 = AXIS2_PLACEMENT_3D('',#279,#280,#281);
#279 = CARTESIAN_POINT('',(-18.,-55.,16.));
#280 = DIRECTION('',(-0.,0.,1.));
#281 = DIRECTION('',(0.,-1.,0.));
#282 = ORIENTED_EDGE('',*,*,#283,.T.);
#283 = EDGE_CURVE('',#275,#284,#286,.T.);
#284 = VERTEX_POINT('',#285);
#285 = CARTESIAN_POINT('',(18.,-70.,16.));
#286 = LINE('',#287,#288);
#287 = CARTESIAN_POINT('',(-33.,-70.,16.));
#288 = VECTOR('',#289,1.);
#289 = DIRECTION('',(1.,0.,0.));
#290 = ORIENTED_EDGE('',*,*,#291,.T.);
#291 = EDGE_CURVE('',#284,#292,#294,.T.);
#292 = VERTEX_POINT('',#293);
#293 = CARTESIAN_POINT('',(33.,-55.,16.));
#294 = CIRCLE('',#295,15.);
#295 = AXIS2_PLACEMENT_3D('',#296,#297,#298);
#296 = CARTESIAN_POINT('',(18.,-55.,16.));
#297 = DIRECTION('',(-0.,0.,1.));
#298 = DIRECTION('',(0.,-1.,0.));
#299 = ORIENTED_EDGE('',*,*,#300,.T.);
#300 = EDGE_CURVE('',#292,#301,#303,.T.);
#301 = VERTEX_POINT('',#302);
#302 = CARTESIAN_POINT('',(33.,55.,16.));
#303 = LINE('',#304,#305);
#304 = CARTESIAN_POINT('',(33.,-70.,16.));
#305 = VECTOR('',#306,1.);
#306 = DIRECTION('',(0.,1.,0.));
#307 = ORIENTED_EDGE('',*,*,#308,.F.);
#308 = EDGE_CURVE('',#309,#301,#311,.T.);
#309 = VERTEX_POINT('',#310);
#310 = CARTESIAN_POINT('',(18.,70.,16.));
#311 = CIRCLE('',#312,15.);
#312 = AXIS2_PLACEMENT_3D('',#313,#314,#315);
#313 = CARTESIAN_POINT('',(18.,55.,16.));
#314 = DIRECTION('',(-0.,-0.,-1.));
#315 = DIRECTION('',(0.,-1.,0.));
#316 = ORIENTED_EDGE('',*,*,#317,.T.);
#317 = EDGE_CURVE('',#309,#318,#320,.T.);
#318 = VERTEX_POINT('',#319);
#319 = CARTESIAN_POINT('',(-18.,70.,16.));
#320 = LINE('',#321,#322);
#321 = CARTESIAN_POINT('',(33.,70.,16.));
#322 = VECTOR('',#323,1.);
#323 = DIRECTION('',(-1.,0.,0.));
#324 = ORIENTED_EDGE('',*,*,#325,.F.);
#325 = EDGE_CURVE('',#265,#318,#326,.T.);
#326 = CIRCLE('',#327,15.);
#327 = AXIS2_PLACEMENT_3D('',#328,#329,#330);
#328 = CARTESIAN_POINT('',(-18.,55.,16.));
#329 = DIRECTION('',(-0.,-0.,-1.));
#330 = DIRECTION('',(0.,-1.,0.));
#331 = FACE_BOUND('',#332,.T.);
#332 = EDGE_LOOP('',(#333));
#333 = ORIENTED_EDGE('',*,*,#334,.F.);
#334 = EDGE_CURVE('',#335,#335,#337,.T.);
#335 = VERTEX_POINT('',#336);
#336 = CARTESIAN_POINT('',(-10.5,-55.,16.));
#337 = CIRCLE('',#338,7.5);
#338 = AXIS2_PLACEMENT_3D('',#339,#340,#341);
#339 = CARTESIAN_POINT('',(-18.,-55.,16.));
#340 = DIRECTION('',(0.,0.,1.));
#341 = DIRECTION('',(1.,0.,0.));
#342 = FACE_BOUND('',#343,.T.);
#343 = EDGE_LOOP('',(#344));
#344 = ORIENTED_EDGE('',*,*,#345,.F.);
#345 = EDGE_CURVE('',#346,#346,#348,.T.);
#346 = VERTEX_POINT('',#347);
#347 = CARTESIAN_POINT('',(25.5,-55.,16.));
#348 = CIRCLE('',#349,7.5);
#349 = AXIS2_PLACEMENT_3D('',#350,#351,#352);
#350 = CARTESIAN_POINT('',(18.,-55.,16.));
#351 = DIRECTION('',(0.,0.,1.));
#352 = DIRECTION('',(1.,0.,0.));
#353 = FACE_BOUND('',#354,.T.);
#354 = EDGE_LOOP('',(#355));
#355 = ORIENTED_EDGE('',*,*,#356,.F.);
#356 = EDGE_CURVE('',#357,#357,#359,.T.);
#357 = VERTEX_POINT('',#358);
#358 = CARTESIAN_POINT('',(-10.5,55.,16.));
#359 = CIRCLE('',#360,7.5);
#360 = AXIS2_PLACEMENT_3D('',#361,#362,#363);
#361 = CARTESIAN_POINT('',(-18.,55.,16.));
#362 = DIRECTION('',(0.,0.,1.));
#363 = DIRECTION('',(1.,0.,0.));
#364 = FACE_BOUND('',#365,.T.);
#365 = EDGE_LOOP('',(#366));
#366 = ORIENTED_EDGE('',*,*,#118,.F.);
#367 = FACE_BOUND('',#368,.T.);
#368 = EDGE_LOOP('',(#369));
#369 = ORIENTED_EDGE('',*,*,#370,.F.);
#370 = EDGE_CURVE('',#371,#371,#373,.T.);
#371 = VERTEX_POINT('',#372);
#372 = CARTESIAN_POINT('',(25.5,55.,16.));
#373 = CIRCLE('',#374,7.5);
#374 = AXIS2_PLACEMENT_3D('',#375,#376,#377);
#375 = CARTESIAN_POINT('',(18.,55.,16.));
#376 = DIRECTION('',(0.,0.,1.));
#377 = DIRECTION('',(1.,0.,0.));
#378 = PLANE('',#379);
#379 = AXIS2_PLACEMENT_3D('',#380,#381,#382);
#380 = CARTESIAN_POINT('',(0.,0.,16.));
#381 = DIRECTION('',(0.,0.,1.));
#382 = DIRECTION('',(1.,0.,0.));
#383 = ADVANCED_FACE('',(#384),#403,.T.);
#384 = FACE_BOUND('',#385,.T.);
#385 = EDGE_LOOP('',(#386,#387,#395,#402));
#386 = ORIENTED_EDGE('',*,*,#138,.T.);
#387 = ORIENTED_EDGE('',*,*,#388,.T.);
#388 = EDGE_CURVE('',#139,#389,#391,.T.);
#389 = VERTEX_POINT('',#390);
#390 = CARTESIAN_POINT('',(22.5,2.302495652277E-14,103.69518561616));
#391 = LINE('',#392,#393);
#392 = CARTESIAN_POINT('',(22.5,-8.900772525014E-30,-4.008551582696E-14)
  );
#393 = VECTOR('',#394,1.);
#394 = DIRECTION('',(1.781578481198E-15,2.22044604925E-16,1.));
#395 = ORIENTED_EDGE('',*,*,#396,.F.);
#396 = EDGE_CURVE('',#389,#389,#397,.T.);
#397 = CIRCLE('',#398,22.5);
#398 = AXIS2_PLACEMENT_3D('',#399,#400,#401);
#399 = CARTESIAN_POINT('',(1.847411112976E-13,2.302495652277E-14,
    103.69518561616));
#400 = DIRECTION('',(1.781578481198E-15,2.22044604925E-16,1.));
#401 = DIRECTION('',(1.,-3.955898900006E-31,-1.781578481198E-15));
#402 = ORIENTED_EDGE('',*,*,#388,.F.);
#403 = CYLINDRICAL_SURFACE('',#404,22.5);
#404 = AXIS2_PLACEMENT_3D('',#405,#406,#407);
#405 = CARTESIAN_POINT('',(0.,0.,0.));
#406 = DIRECTION('',(1.781578481198E-15,2.22044604925E-16,1.));
#407 = DIRECTION('',(1.,-3.955898900006E-31,-1.781578481198E-15));
#408 = ADVANCED_FACE('',(#409),#415,.T.);
#409 = FACE_BOUND('',#410,.F.);
#410 = EDGE_LOOP('',(#411,#412,#413,#414));
#411 = ORIENTED_EDGE('',*,*,#155,.T.);
#412 = ORIENTED_EDGE('',*,*,#187,.T.);
#413 = ORIENTED_EDGE('',*,*,#224,.F.);
#414 = ORIENTED_EDGE('',*,*,#247,.F.);
#415 = CYLINDRICAL_SURFACE('',#416,15.);
#416 = AXIS2_PLACEMENT_3D('',#417,#418,#419);
#417 = CARTESIAN_POINT('',(-82.,1.998401444325E-14,60.));
#418 = DIRECTION('',(-0.,-0.,-1.));
#419 = DIRECTION('',(1.,0.,0.));
#420 = ADVANCED_FACE('',(#421),#440,.T.);
#421 = FACE_BOUND('',#422,.F.);
#422 = EDGE_LOOP('',(#423,#431,#438,#439));
#423 = ORIENTED_EDGE('',*,*,#424,.T.);
#424 = EDGE_CURVE('',#206,#425,#427,.T.);
#425 = VERTEX_POINT('',#426);
#426 = CARTESIAN_POINT('',(-70.,0.,96.));
#427 = LINE('',#428,#429);
#428 = CARTESIAN_POINT('',(-70.,0.,80.));
#429 = VECTOR('',#430,1.);
#430 = DIRECTION('',(0.,0.,1.));
#431 = ORIENTED_EDGE('',*,*,#432,.T.);
#432 = EDGE_CURVE('',#425,#425,#433,.T.);
#433 = CIRCLE('',#434,12.);
#434 = AXIS2_PLACEMENT_3D('',#435,#436,#437);
#435 = CARTESIAN_POINT('',(-82.,0.,96.));
#436 = DIRECTION('',(0.,0.,1.));
#437 = DIRECTION('',(1.,0.,0.));
#438 = ORIENTED_EDGE('',*,*,#424,.F.);
#439 = ORIENTED_EDGE('',*,*,#205,.F.);
#440 = CYLINDRICAL_SURFACE('',#441,12.);
#441 = AXIS2_PLACEMENT_3D('',#442,#443,#444);
#442 = CARTESIAN_POINT('',(-82.,0.,80.));
#443 = DIRECTION('',(-0.,-0.,-1.));
#444 = DIRECTION('',(1.,0.,0.));
#445 = ADVANCED_FACE('',(#446),#503,.F.);
#446 = FACE_BOUND('',#447,.F.);
#447 = EDGE_LOOP('',(#448,#458,#464,#465,#473,#481,#489,#497));
#448 = ORIENTED_EDGE('',*,*,#449,.F.);
#449 = EDGE_CURVE('',#450,#452,#454,.T.);
#450 = VERTEX_POINT('',#451);
#451 = CARTESIAN_POINT('',(-33.,55.,0.));
#452 = VERTEX_POINT('',#453);
#453 = CARTESIAN_POINT('',(-33.,35.,0.));
#454 = LINE('',#455,#456);
#455 = CARTESIAN_POINT('',(-33.,70.,0.));
#456 = VECTOR('',#457,1.);
#457 = DIRECTION('',(0.,-1.,0.));
#458 = ORIENTED_EDGE('',*,*,#459,.T.);
#459 = EDGE_CURVE('',#450,#265,#460,.T.);
#460 = LINE('',#461,#462);
#461 = CARTESIAN_POINT('',(-33.,55.,0.));
#462 = VECTOR('',#463,1.);
#463 = DIRECTION('',(0.,0.,1.));
#464 = ORIENTED_EDGE('',*,*,#264,.T.);
#465 = ORIENTED_EDGE('',*,*,#466,.F.);
#466 = EDGE_CURVE('',#467,#267,#469,.T.);
#467 = VERTEX_POINT('',#468);
#468 = CARTESIAN_POINT('',(-33.,-55.,0.));
#469 = LINE('',#470,#471);
#470 = CARTESIAN_POINT('',(-33.,-55.,0.));
#471 = VECTOR('',#472,1.);
#472 = DIRECTION('',(0.,0.,1.));
#473 = ORIENTED_EDGE('',*,*,#474,.F.);
#474 = EDGE_CURVE('',#475,#467,#477,.T.);
#475 = VERTEX_POINT('',#476);
#476 = CARTESIAN_POINT('',(-33.,-35.,0.));
#477 = LINE('',#478,#479);
#478 = CARTESIAN_POINT('',(-33.,70.,0.));
#479 = VECTOR('',#480,1.);
#480 = DIRECTION('',(0.,-1.,0.));
#481 = ORIENTED_EDGE('',*,*,#482,.F.);
#482 = EDGE_CURVE('',#483,#475,#485,.T.);
#483 = VERTEX_POINT('',#484);
#484 = CARTESIAN_POINT('',(-33.,-32.,3.));
#485 = LINE('',#486,#487);
#486 = CARTESIAN_POINT('',(-33.,-32.,3.));
#487 = VECTOR('',#488,1.);
#488 = DIRECTION('',(0.,-0.707106781187,-0.707106781187));
#489 = ORIENTED_EDGE('',*,*,#490,.T.);
#490 = EDGE_CURVE('',#483,#491,#493,.T.);
#491 = VERTEX_POINT('',#492);
#492 = CARTESIAN_POINT('',(-33.,32.,3.));
#493 = LINE('',#494,#495);
#494 = CARTESIAN_POINT('',(-33.,-32.,3.));
#495 = VECTOR('',#496,1.);
#496 = DIRECTION('',(0.,1.,0.));
#497 = ORIENTED_EDGE('',*,*,#498,.T.);
#498 = EDGE_CURVE('',#491,#452,#499,.T.);
#499 = LINE('',#500,#501);
#500 = CARTESIAN_POINT('',(-33.,32.,3.));
#501 = VECTOR('',#502,1.);
#502 = DIRECTION('',(-0.,0.707106781187,-0.707106781187));
#503 = PLANE('',#504);
#504 = AXIS2_PLACEMENT_3D('',#505,#506,#507);
#505 = CARTESIAN_POINT('',(-33.,70.,0.));
#506 = DIRECTION('',(1.,0.,0.));
#507 = DIRECTION('',(0.,-1.,0.));
#508 = ADVANCED_FACE('',(#509),#528,.T.);
#509 = FACE_BOUND('',#510,.F.);
#510 = EDGE_LOOP('',(#511,#520,#526,#527));
#511 = ORIENTED_EDGE('',*,*,#512,.T.);
#512 = EDGE_CURVE('',#450,#513,#515,.T.);
#513 = VERTEX_POINT('',#514);
#514 = CARTESIAN_POINT('',(-18.,70.,0.));
#515 = CIRCLE('',#516,15.);
#516 = AXIS2_PLACEMENT_3D('',#517,#518,#519);
#517 = CARTESIAN_POINT('',(-18.,55.,0.));
#518 = DIRECTION('',(-0.,-0.,-1.));
#519 = DIRECTION('',(0.,-1.,0.));
#520 = ORIENTED_EDGE('',*,*,#521,.T.);
#521 = EDGE_CURVE('',#513,#318,#522,.T.);
#522 = LINE('',#523,#524);
#523 = CARTESIAN_POINT('',(-18.,70.,0.));
#524 = VECTOR('',#525,1.);
#525 = DIRECTION('',(0.,0.,1.));
#526 = ORIENTED_EDGE('',*,*,#325,.F.);
#527 = ORIENTED_EDGE('',*,*,#459,.F.);
#528 = CYLINDRICAL_SURFACE('',#529,15.);
#529 = AXIS2_PLACEMENT_3D('',#530,#531,#532);
#530 = CARTESIAN_POINT('',(-18.,55.,0.));
#531 = DIRECTION('',(0.,0.,1.));
#532 = DIRECTION('',(-1.,0.,0.));
#533 = ADVANCED_FACE('',(#534),#553,.T.);
#534 = FACE_BOUND('',#535,.T.);
#535 = EDGE_LOOP('',(#536,#545,#551,#552));
#536 = ORIENTED_EDGE('',*,*,#537,.T.);
#537 = EDGE_CURVE('',#467,#538,#540,.T.);
#538 = VERTEX_POINT('',#539);
#539 = CARTESIAN_POINT('',(-18.,-70.,0.));
#540 = CIRCLE('',#541,15.);
#541 = AXIS2_PLACEMENT_3D('',#542,#543,#544);
#542 = CARTESIAN_POINT('',(-18.,-55.,0.));
#543 = DIRECTION('',(-0.,0.,1.));
#544 = DIRECTION('',(0.,-1.,0.));
#545 = ORIENTED_EDGE('',*,*,#546,.T.);
#546 = EDGE_CURVE('',#538,#275,#547,.T.);
#547 = LINE('',#548,#549);
#548 = CARTESIAN_POINT('',(-18.,-70.,0.));
#549 = VECTOR('',#550,1.);
#550 = DIRECTION('',(0.,0.,1.));
#551 = ORIENTED_EDGE('',*,*,#274,.F.);
#552 = ORIENTED_EDGE('',*,*,#466,.F.);
#553 = CYLINDRICAL_SURFACE('',#554,15.);
#554 = AXIS2_PLACEMENT_3D('',#555,#556,#557);
#555 = CARTESIAN_POINT('',(-18.,-55.,0.));
#556 = DIRECTION('',(0.,0.,1.));
#557 = DIRECTION('',(-1.,0.,0.));
#558 = ADVANCED_FACE('',(#559),#577,.F.);
#559 = FACE_BOUND('',#560,.F.);
#560 = EDGE_LOOP('',(#561,#569,#575,#576));
#561 = ORIENTED_EDGE('',*,*,#562,.F.);
#562 = EDGE_CURVE('',#563,#513,#565,.T.);
#563 = VERTEX_POINT('',#564);
#564 = CARTESIAN_POINT('',(18.,70.,0.));
#565 = LINE('',#566,#567);
#566 = CARTESIAN_POINT('',(33.,70.,0.));
#567 = VECTOR('',#568,1.);
#568 = DIRECTION('',(-1.,0.,0.));
#569 = ORIENTED_EDGE('',*,*,#570,.T.);
#570 = EDGE_CURVE('',#563,#309,#571,.T.);
#571 = LINE('',#572,#573);
#572 = CARTESIAN_POINT('',(18.,70.,0.));
#573 = VECTOR('',#574,1.);
#574 = DIRECTION('',(0.,0.,1.));
#575 = ORIENTED_EDGE('',*,*,#317,.T.);
#576 = ORIENTED_EDGE('',*,*,#521,.F.);
#577 = PLANE('',#578);
#578 = AXIS2_PLACEMENT_3D('',#579,#580,#581);
#579 = CARTESIAN_POINT('',(33.,70.,0.));
#580 = DIRECTION('',(0.,-1.,0.));
#581 = DIRECTION('',(-1.,0.,0.));
#582 = ADVANCED_FACE('',(#583),#601,.F.);
#583 = FACE_BOUND('',#584,.F.);
#584 = EDGE_LOOP('',(#585,#593,#594,#595));
#585 = ORIENTED_EDGE('',*,*,#586,.F.);
#586 = EDGE_CURVE('',#538,#587,#589,.T.);
#587 = VERTEX_POINT('',#588);
#588 = CARTESIAN_POINT('',(18.,-70.,0.));
#589 = LINE('',#590,#591);
#590 = CARTESIAN_POINT('',(-33.,-70.,0.));
#591 = VECTOR('',#592,1.);
#592 = DIRECTION('',(1.,0.,0.));
#593 = ORIENTED_EDGE('',*,*,#546,.T.);
#594 = ORIENTED_EDGE('',*,*,#283,.T.);
#595 = ORIENTED_EDGE('',*,*,#596,.F.);
#596 = EDGE_CURVE('',#587,#284,#597,.T.);
#597 = LINE('',#598,#599);
#598 = CARTESIAN_POINT('',(18.,-70.,0.));
#599 = VECTOR('',#600,1.);
#600 = DIRECTION('',(0.,0.,1.));
#601 = PLANE('',#602);
#602 = AXIS2_PLACEMENT_3D('',#603,#604,#605);
#603 = CARTESIAN_POINT('',(-33.,-70.,0.));
#604 = DIRECTION('',(0.,1.,0.));
#605 = DIRECTION('',(1.,0.,0.));
#606 = ADVANCED_FACE('',(#607),#626,.T.);
#607 = FACE_BOUND('',#608,.F.);
#608 = EDGE_LOOP('',(#609,#618,#624,#625));
#609 = ORIENTED_EDGE('',*,*,#610,.T.);
#610 = EDGE_CURVE('',#563,#611,#613,.T.);
#611 = VERTEX_POINT('',#612);
#612 = CARTESIAN_POINT('',(33.,55.,0.));
#613 = CIRCLE('',#614,15.);
#614 = AXIS2_PLACEMENT_3D('',#615,#616,#617);
#615 = CARTESIAN_POINT('',(18.,55.,0.));
#616 = DIRECTION('',(-0.,-0.,-1.));
#617 = DIRECTION('',(0.,-1.,0.));
#618 = ORIENTED_EDGE('',*,*,#619,.T.);
#619 = EDGE_CURVE('',#611,#301,#620,.T.);
#620 = LINE('',#621,#622);
#621 = CARTESIAN_POINT('',(33.,55.,0.));
#622 = VECTOR('',#623,1.);
#623 = DIRECTION('',(0.,0.,1.));
#624 = ORIENTED_EDGE('',*,*,#308,.F.);
#625 = ORIENTED_EDGE('',*,*,#570,.F.);
#626 = CYLINDRICAL_SURFACE('',#627,15.);
#627 = AXIS2_PLACEMENT_3D('',#628,#629,#630);
#628 = CARTESIAN_POINT('',(18.,55.,0.));
#629 = DIRECTION('',(0.,0.,1.));
#630 = DIRECTION('',(0.,1.,0.));
#631 = ADVANCED_FACE('',(#632),#651,.T.);
#632 = FACE_BOUND('',#633,.T.);
#633 = EDGE_LOOP('',(#634,#643,#649,#650));
#634 = ORIENTED_EDGE('',*,*,#635,.T.);
#635 = EDGE_CURVE('',#587,#636,#638,.T.);
#636 = VERTEX_POINT('',#637);
#637 = CARTESIAN_POINT('',(33.,-55.,0.));
#638 = CIRCLE('',#639,15.);
#639 = AXIS2_PLACEMENT_3D('',#640,#641,#642);
#640 = CARTESIAN_POINT('',(18.,-55.,0.));
#641 = DIRECTION('',(-0.,0.,1.));
#642 = DIRECTION('',(0.,-1.,0.));
#643 = ORIENTED_EDGE('',*,*,#644,.T.);
#644 = EDGE_CURVE('',#636,#292,#645,.T.);
#645 = LINE('',#646,#647);
#646 = CARTESIAN_POINT('',(33.,-55.,0.));
#647 = VECTOR('',#648,1.);
#648 = DIRECTION('',(0.,0.,1.));
#649 = ORIENTED_EDGE('',*,*,#291,.F.);
#650 = ORIENTED_EDGE('',*,*,#596,.F.);
#651 = CYLINDRICAL_SURFACE('',#652,15.);
#652 = AXIS2_PLACEMENT_3D('',#653,#654,#655);
#653 = CARTESIAN_POINT('',(18.,-55.,0.));
#654 = DIRECTION('',(0.,0.,1.));
#655 = DIRECTION('',(0.,-1.,0.));
#656 = ADVANCED_FACE('',(#657),#700,.F.);
#657 = FACE_BOUND('',#658,.F.);
#658 = EDGE_LOOP('',(#659,#667,#668,#669,#670,#678,#686,#694));
#659 = ORIENTED_EDGE('',*,*,#660,.F.);
#660 = EDGE_CURVE('',#636,#661,#663,.T.);
#661 = VERTEX_POINT('',#662);
#662 = CARTESIAN_POINT('',(33.,-35.,0.));
#663 = LINE('',#664,#665);
#664 = CARTESIAN_POINT('',(33.,-70.,0.));
#665 = VECTOR('',#666,1.);
#666 = DIRECTION('',(0.,1.,0.));
#667 = ORIENTED_EDGE('',*,*,#644,.T.);
#668 = ORIENTED_EDGE('',*,*,#300,.T.);
#669 = ORIENTED_EDGE('',*,*,#619,.F.);
#670 = ORIENTED_EDGE('',*,*,#671,.F.);
#671 = EDGE_CURVE('',#672,#611,#674,.T.);
#672 = VERTEX_POINT('',#673);
#673 = CARTESIAN_POINT('',(33.,35.,0.));
#674 = LINE('',#675,#676);
#675 = CARTESIAN_POINT('',(33.,-70.,0.));
#676 = VECTOR('',#677,1.);
#677 = DIRECTION('',(0.,1.,0.));
#678 = ORIENTED_EDGE('',*,*,#679,.F.);
#679 = EDGE_CURVE('',#680,#672,#682,.T.);
#680 = VERTEX_POINT('',#681);
#681 = CARTESIAN_POINT('',(33.,32.,3.));
#682 = LINE('',#683,#684);
#683 = CARTESIAN_POINT('',(33.,7.25,27.75));
#684 = VECTOR('',#685,1.);
#685 = DIRECTION('',(0.,0.707106781187,-0.707106781187));
#686 = ORIENTED_EDGE('',*,*,#687,.F.);
#687 = EDGE_CURVE('',#688,#680,#690,.T.);
#688 = VERTEX_POINT('',#689);
#689 = CARTESIAN_POINT('',(33.,-32.,3.));
#690 = LINE('',#691,#692);
#691 = CARTESIAN_POINT('',(33.,-51.,3.));
#692 = VECTOR('',#693,1.);
#693 = DIRECTION('',(0.,1.,0.));
#694 = ORIENTED_EDGE('',*,*,#695,.T.);
#695 = EDGE_CURVE('',#688,#661,#696,.T.);
#696 = LINE('',#697,#698);
#697 = CARTESIAN_POINT('',(33.,-42.25,-7.25));
#698 = VECTOR('',#699,1.);
#699 = DIRECTION('',(-0.,-0.707106781187,-0.707106781187));
#700 = PLANE('',#701);
#701 = AXIS2_PLACEMENT_3D('',#702,#703,#704);
#702 = CARTESIAN_POINT('',(33.,-70.,0.));
#703 = DIRECTION('',(-1.,0.,0.));
#704 = DIRECTION('',(0.,1.,0.));
#705 = ADVANCED_FACE('',(#706),#725,.F.);
#706 = FACE_BOUND('',#707,.T.);
#707 = EDGE_LOOP('',(#708,#716,#717,#718));
#708 = ORIENTED_EDGE('',*,*,#709,.F.);
#709 = EDGE_CURVE('',#335,#710,#712,.T.);
#710 = VERTEX_POINT('',#711);
#711 = CARTESIAN_POINT('',(-10.5,-55.,11.));
#712 = LINE('',#713,#714);
#713 = CARTESIAN_POINT('',(-10.5,-55.,16.));
#714 = VECTOR('',#715,1.);
#715 = DIRECTION('',(0.,0.,-1.));
#716 = ORIENTED_EDGE('',*,*,#334,.T.);
#717 = ORIENTED_EDGE('',*,*,#709,.T.);
#718 = ORIENTED_EDGE('',*,*,#719,.F.);
#719 = EDGE_CURVE('',#710,#710,#720,.T.);
#720 = CIRCLE('',#721,7.5);
#721 = AXIS2_PLACEMENT_3D('',#722,#723,#724);
#722 = CARTESIAN_POINT('',(-18.,-55.,11.));
#723 = DIRECTION('',(0.,0.,1.));
#724 = DIRECTION('',(1.,0.,0.));
#725 = CYLINDRICAL_SURFACE('',#726,7.5);
#726 = AXIS2_PLACEMENT_3D('',#727,#728,#729);
#727 = CARTESIAN_POINT('',(-18.,-55.,16.));
#728 = DIRECTION('',(-0.,-0.,-1.));
#729 = DIRECTION('',(1.,0.,0.));
#730 = ADVANCED_FACE('',(#731),#750,.F.);
#731 = FACE_BOUND('',#732,.T.);
#732 = EDGE_LOOP('',(#733,#741,#742,#743));
#733 = ORIENTED_EDGE('',*,*,#734,.F.);
#734 = EDGE_CURVE('',#346,#735,#737,.T.);
#735 = VERTEX_POINT('',#736);
#736 = CARTESIAN_POINT('',(25.5,-55.,11.));
#737 = LINE('',#738,#739);
#738 = CARTESIAN_POINT('',(25.5,-55.,16.));
#739 = VECTOR('',#740,1.);
#740 = DIRECTION('',(0.,0.,-1.));
#741 = ORIENTED_EDGE('',*,*,#345,.T.);
#742 = ORIENTED_EDGE('',*,*,#734,.T.);
#743 = ORIENTED_EDGE('',*,*,#744,.F.);
#744 = EDGE_CURVE('',#735,#735,#745,.T.);
#745 = CIRCLE('',#746,7.5);
#746 = AXIS2_PLACEMENT_3D('',#747,#748,#749);
#747 = CARTESIAN_POINT('',(18.,-55.,11.));
#748 = DIRECTION('',(0.,0.,1.));
#749 = DIRECTION('',(1.,0.,0.));
#750 = CYLINDRICAL_SURFACE('',#751,7.5);
#751 = AXIS2_PLACEMENT_3D('',#752,#753,#754);
#752 = CARTESIAN_POINT('',(18.,-55.,16.));
#753 = DIRECTION('',(-0.,-0.,-1.));
#754 = DIRECTION('',(1.,0.,0.));
#755 = ADVANCED_FACE('',(#756),#775,.F.);
#756 = FACE_BOUND('',#757,.T.);
#757 = EDGE_LOOP('',(#758,#766,#767,#768));
#758 = ORIENTED_EDGE('',*,*,#759,.F.);
#759 = EDGE_CURVE('',#357,#760,#762,.T.);
#760 = VERTEX_POINT('',#761);
#761 = CARTESIAN_POINT('',(-10.5,55.,11.));
#762 = LINE('',#763,#764);
#763 = CARTESIAN_POINT('',(-10.5,55.,16.));
#764 = VECTOR('',#765,1.);
#765 = DIRECTION('',(0.,0.,-1.));
#766 = ORIENTED_EDGE('',*,*,#356,.T.);
#767 = ORIENTED_EDGE('',*,*,#759,.T.);
#768 = ORIENTED_EDGE('',*,*,#769,.F.);
#769 = EDGE_CURVE('',#760,#760,#770,.T.);
#770 = CIRCLE('',#771,7.5);
#771 = AXIS2_PLACEMENT_3D('',#772,#773,#774);
#772 = CARTESIAN_POINT('',(-18.,55.,11.));
#773 = DIRECTION('',(0.,0.,1.));
#774 = DIRECTION('',(1.,0.,0.));
#775 = CYLINDRICAL_SURFACE('',#776,7.5);
#776 = AXIS2_PLACEMENT_3D('',#777,#778,#779);
#777 = CARTESIAN_POINT('',(-18.,55.,16.));
#778 = DIRECTION('',(-0.,-0.,-1.));
#779 = DIRECTION('',(1.,0.,0.));
#780 = ADVANCED_FACE('',(#781),#800,.F.);
#781 = FACE_BOUND('',#782,.T.);
#782 = EDGE_LOOP('',(#783,#791,#792,#793));
#783 = ORIENTED_EDGE('',*,*,#784,.F.);
#784 = EDGE_CURVE('',#371,#785,#787,.T.);
#785 = VERTEX_POINT('',#786);
#786 = CARTESIAN_POINT('',(25.5,55.,11.));
#787 = LINE('',#788,#789);
#788 = CARTESIAN_POINT('',(25.5,55.,16.));
#789 = VECTOR('',#790,1.);
#790 = DIRECTION('',(0.,0.,-1.));
#791 = ORIENTED_EDGE('',*,*,#370,.T.);
#792 = ORIENTED_EDGE('',*,*,#784,.T.);
#793 = ORIENTED_EDGE('',*,*,#794,.F.);
#794 = EDGE_CURVE('',#785,#785,#795,.T.);
#795 = CIRCLE('',#796,7.5);
#796 = AXIS2_PLACEMENT_3D('',#797,#798,#799);
#797 = CARTESIAN_POINT('',(18.,55.,11.));
#798 = DIRECTION('',(0.,0.,1.));
#799 = DIRECTION('',(1.,0.,0.));
#800 = CYLINDRICAL_SURFACE('',#801,7.5);
#801 = AXIS2_PLACEMENT_3D('',#802,#803,#804);
#802 = CARTESIAN_POINT('',(18.,55.,16.));
#803 = DIRECTION('',(-0.,-0.,-1.));
#804 = DIRECTION('',(1.,0.,0.));
#805 = ADVANCED_FACE('',(#806),#826,.T.);
#806 = FACE_BOUND('',#807,.T.);
#807 = EDGE_LOOP('',(#808,#817,#824,#825));
#808 = ORIENTED_EDGE('',*,*,#809,.T.);
#809 = EDGE_CURVE('',#389,#810,#812,.T.);
#810 = VERTEX_POINT('',#811);
#811 = CARTESIAN_POINT('',(26.416040103223,2.473151618226E-14,
    111.38084706272));
#812 = CIRCLE('',#813,9.5);
#813 = AXIS2_PLACEMENT_3D('',#814,#815,#816);
#814 = CARTESIAN_POINT('',(32.,-4.483250242211E-13,103.69518561616));
#815 = DIRECTION('',(0.,1.,-2.22044604925E-16));
#816 = DIRECTION('',(1.,0.,0.));
#817 = ORIENTED_EDGE('',*,*,#818,.T.);
#818 = EDGE_CURVE('',#810,#810,#819,.T.);
#819 = CIRCLE('',#820,22.5);
#820 = AXIS2_PLACEMENT_3D('',#821,#822,#823);
#821 = CARTESIAN_POINT('',(13.190871926659,2.877336800737E-14,
    129.58372943617));
#822 = DIRECTION('',(-0.809016994375,-1.305145441259E-16,-0.587785252292
    ));
#823 = DIRECTION('',(-0.587785252292,1.796378588937E-16,0.809016994375)
  );
#824 = ORIENTED_EDGE('',*,*,#809,.F.);
#825 = ORIENTED_EDGE('',*,*,#396,.T.);
#826 = TOROIDAL_SURFACE('',#827,32.,22.5);
#827 = AXIS2_PLACEMENT_3D('',#828,#829,#830);
#828 = CARTESIAN_POINT('',(32.,2.302495652277E-14,103.69518561616));
#829 = DIRECTION('',(0.,1.,-2.22044604925E-16));
#830 = DIRECTION('',(1.,0.,0.));
#831 = ADVANCED_FACE('',(#832,#835),#846,.T.);
#832 = FACE_BOUND('',#833,.T.);
#833 = EDGE_LOOP('',(#834));
#834 = ORIENTED_EDGE('',*,*,#432,.T.);
#835 = FACE_BOUND('',#836,.T.);
#836 = EDGE_LOOP('',(#837));
#837 = ORIENTED_EDGE('',*,*,#838,.F.);
#838 = EDGE_CURVE('',#839,#839,#841,.T.);
#839 = VERTEX_POINT('',#840);
#840 = CARTESIAN_POINT('',(-75.,0.,96.));
#841 = CIRCLE('',#842,7.);
#842 = AXIS2_PLACEMENT_3D('',#843,#844,#845);
#843 = CARTESIAN_POINT('',(-82.,0.,96.));
#844 = DIRECTION('',(0.,0.,1.));
#845 = DIRECTION('',(1.,0.,0.));
#846 = PLANE('',#847);
#847 = AXIS2_PLACEMENT_3D('',#848,#849,#850);
#848 = CARTESIAN_POINT('',(-82.,8.775814128805E-16,96.));
#849 = DIRECTION('',(0.,0.,1.));
#850 = DIRECTION('',(1.,0.,0.));
#851 = ADVANCED_FACE('',(#852,#865,#876),#887,.T.);
#852 = FACE_BOUND('',#853,.T.);
#853 = EDGE_LOOP('',(#854,#855,#856,#857,#858,#859));
#854 = ORIENTED_EDGE('',*,*,#449,.F.);
#855 = ORIENTED_EDGE('',*,*,#512,.T.);
#856 = ORIENTED_EDGE('',*,*,#562,.F.);
#857 = ORIENTED_EDGE('',*,*,#610,.T.);
#858 = ORIENTED_EDGE('',*,*,#671,.F.);
#859 = ORIENTED_EDGE('',*,*,#860,.F.);
#860 = EDGE_CURVE('',#452,#672,#861,.T.);
#861 = LINE('',#862,#863);
#862 = CARTESIAN_POINT('',(-33.,35.,0.));
#863 = VECTOR('',#864,1.);
#864 = DIRECTION('',(1.,0.,0.));
#865 = FACE_BOUND('',#866,.T.);
#866 = EDGE_LOOP('',(#867));
#867 = ORIENTED_EDGE('',*,*,#868,.F.);
#868 = EDGE_CURVE('',#869,#869,#871,.T.);
#869 = VERTEX_POINT('',#870);
#870 = CARTESIAN_POINT('',(22.5,55.,0.));
#871 = CIRCLE('',#872,4.5);
#872 = AXIS2_PLACEMENT_3D('',#873,#874,#875);
#873 = CARTESIAN_POINT('',(18.,55.,0.));
#874 = DIRECTION('',(0.,0.,-1.));
#875 = DIRECTION('',(1.,0.,0.));
#876 = FACE_BOUND('',#877,.T.);
#877 = EDGE_LOOP('',(#878));
#878 = ORIENTED_EDGE('',*,*,#879,.F.);
#879 = EDGE_CURVE('',#880,#880,#882,.T.);
#880 = VERTEX_POINT('',#881);
#881 = CARTESIAN_POINT('',(-13.5,55.,0.));
#882 = CIRCLE('',#883,4.5);
#883 = AXIS2_PLACEMENT_3D('',#884,#885,#886);
#884 = CARTESIAN_POINT('',(-18.,55.,0.));
#885 = DIRECTION('',(0.,0.,-1.));
#886 = DIRECTION('',(1.,0.,0.));
#887 = PLANE('',#888);
#888 = AXIS2_PLACEMENT_3D('',#889,#890,#891);
#889 = CARTESIAN_POINT('',(0.,0.,0.));
#890 = DIRECTION('',(-0.,-0.,-1.));
#891 = DIRECTION('',(-1.,0.,0.));
#892 = ADVANCED_FACE('',(#893),#904,.F.);
#893 = FACE_BOUND('',#894,.F.);
#894 = EDGE_LOOP('',(#895,#896,#902,#903));
#895 = ORIENTED_EDGE('',*,*,#498,.F.);
#896 = ORIENTED_EDGE('',*,*,#897,.T.);
#897 = EDGE_CURVE('',#491,#680,#898,.T.);
#898 = LINE('',#899,#900);
#899 = CARTESIAN_POINT('',(-33.,32.,3.));
#900 = VECTOR('',#901,1.);
#901 = DIRECTION('',(1.,0.,0.));
#902 = ORIENTED_EDGE('',*,*,#679,.T.);
#903 = ORIENTED_EDGE('',*,*,#860,.F.);
#904 = PLANE('',#905);
#905 = AXIS2_PLACEMENT_3D('',#906,#907,#908);
#906 = CARTESIAN_POINT('',(-33.,32.,3.));
#907 = DIRECTION('',(0.,0.707106781187,0.707106781187));
#908 = DIRECTION('',(0.,0.707106781187,-0.707106781187));
#909 = ADVANCED_FACE('',(#910,#921),#932,.F.);
#910 = FACE_BOUND('',#911,.F.);
#911 = EDGE_LOOP('',(#912,#913,#919,#920));
#912 = ORIENTED_EDGE('',*,*,#490,.F.);
#913 = ORIENTED_EDGE('',*,*,#914,.T.);
#914 = EDGE_CURVE('',#483,#688,#915,.T.);
#915 = LINE('',#916,#917);
#916 = CARTESIAN_POINT('',(-33.,-32.,3.));
#917 = VECTOR('',#918,1.);
#918 = DIRECTION('',(1.,0.,0.));
#919 = ORIENTED_EDGE('',*,*,#687,.T.);
#920 = ORIENTED_EDGE('',*,*,#897,.F.);
#921 = FACE_BOUND('',#922,.F.);
#922 = EDGE_LOOP('',(#923));
#923 = ORIENTED_EDGE('',*,*,#924,.T.);
#924 = EDGE_CURVE('',#925,#925,#927,.T.);
#925 = VERTEX_POINT('',#926);
#926 = CARTESIAN_POINT('',(18.5,0.,3.));
#927 = CIRCLE('',#928,18.5);
#928 = AXIS2_PLACEMENT_3D('',#929,#930,#931);
#929 = CARTESIAN_POINT('',(0.,0.,3.));
#930 = DIRECTION('',(0.,0.,-1.));
#931 = DIRECTION('',(1.,0.,0.));
#932 = PLANE('',#933);
#933 = AXIS2_PLACEMENT_3D('',#934,#935,#936);
#934 = CARTESIAN_POINT('',(-33.,-32.,3.));
#935 = DIRECTION('',(0.,0.,1.));
#936 = DIRECTION('',(0.,1.,0.));
#937 = ADVANCED_FACE('',(#938),#949,.T.);
#938 = FACE_BOUND('',#939,.T.);
#939 = EDGE_LOOP('',(#940,#941,#942,#943));
#940 = ORIENTED_EDGE('',*,*,#482,.F.);
#941 = ORIENTED_EDGE('',*,*,#914,.T.);
#942 = ORIENTED_EDGE('',*,*,#695,.T.);
#943 = ORIENTED_EDGE('',*,*,#944,.F.);
#944 = EDGE_CURVE('',#475,#661,#945,.T.);
#945 = LINE('',#946,#947);
#946 = CARTESIAN_POINT('',(-33.,-35.,0.));
#947 = VECTOR('',#948,1.);
#948 = DIRECTION('',(1.,0.,0.));
#949 = PLANE('',#950);
#950 = AXIS2_PLACEMENT_3D('',#951,#952,#953);
#951 = CARTESIAN_POINT('',(-33.,-32.,3.));
#952 = DIRECTION('',(0.,0.707106781187,-0.707106781187));
#953 = DIRECTION('',(0.,-0.707106781187,-0.707106781187));
#954 = ADVANCED_FACE('',(#955,#963,#974),#985,.T.);
#955 = FACE_BOUND('',#956,.T.);
#956 = EDGE_LOOP('',(#957,#958,#959,#960,#961,#962));
#957 = ORIENTED_EDGE('',*,*,#474,.F.);
#958 = ORIENTED_EDGE('',*,*,#944,.T.);
#959 = ORIENTED_EDGE('',*,*,#660,.F.);
#960 = ORIENTED_EDGE('',*,*,#635,.F.);
#961 = ORIENTED_EDGE('',*,*,#586,.F.);
#962 = ORIENTED_EDGE('',*,*,#537,.F.);
#963 = FACE_BOUND('',#964,.T.);
#964 = EDGE_LOOP('',(#965));
#965 = ORIENTED_EDGE('',*,*,#966,.F.);
#966 = EDGE_CURVE('',#967,#967,#969,.T.);
#967 = VERTEX_POINT('',#968);
#968 = CARTESIAN_POINT('',(22.5,-55.,0.));
#969 = CIRCLE('',#970,4.5);
#970 = AXIS2_PLACEMENT_3D('',#971,#972,#973);
#971 = CARTESIAN_POINT('',(18.,-55.,0.));
#972 = DIRECTION('',(0.,0.,-1.));
#973 = DIRECTION('',(1.,0.,0.));
#974 = FACE_BOUND('',#975,.T.);
#975 = EDGE_LOOP('',(#976));
#976 = ORIENTED_EDGE('',*,*,#977,.F.);
#977 = EDGE_CURVE('',#978,#978,#980,.T.);
#978 = VERTEX_POINT('',#979);
#979 = CARTESIAN_POINT('',(-13.5,-55.,0.));
#980 = CIRCLE('',#981,4.5);
#981 = AXIS2_PLACEMENT_3D('',#982,#983,#984);
#982 = CARTESIAN_POINT('',(-18.,-55.,0.));
#983 = DIRECTION('',(0.,0.,-1.));
#984 = DIRECTION('',(1.,0.,0.));
#985 = PLANE('',#986);
#986 = AXIS2_PLACEMENT_3D('',#987,#988,#989);
#987 = CARTESIAN_POINT('',(0.,0.,0.));
#988 = DIRECTION('',(-0.,-0.,-1.));
#989 = DIRECTION('',(-1.,0.,0.));
#990 = ADVANCED_FACE('',(#991,#994),#1005,.T.);
#991 = FACE_BOUND('',#992,.T.);
#992 = EDGE_LOOP('',(#993));
#993 = ORIENTED_EDGE('',*,*,#719,.T.);
#994 = FACE_BOUND('',#995,.T.);
#995 = EDGE_LOOP('',(#996));
#996 = ORIENTED_EDGE('',*,*,#997,.F.);
#997 = EDGE_CURVE('',#998,#998,#1000,.T.);
#998 = VERTEX_POINT('',#999);
#999 = CARTESIAN_POINT('',(-13.5,-55.,11.));
#1000 = CIRCLE('',#1001,4.5);
#1001 = AXIS2_PLACEMENT_3D('',#1002,#1003,#1004);
#1002 = CARTESIAN_POINT('',(-18.,-55.,11.));
#1003 = DIRECTION('',(0.,0.,1.));
#1004 = DIRECTION('',(1.,0.,0.));
#1005 = PLANE('',#1006);
#1006 = AXIS2_PLACEMENT_3D('',#1007,#1008,#1009);
#1007 = CARTESIAN_POINT('',(-18.,-55.,11.));
#1008 = DIRECTION('',(0.,0.,1.));
#1009 = DIRECTION('',(1.,0.,0.));
#1010 = ADVANCED_FACE('',(#1011,#1014),#1025,.T.);
#1011 = FACE_BOUND('',#1012,.T.);
#1012 = EDGE_LOOP('',(#1013));
#1013 = ORIENTED_EDGE('',*,*,#744,.T.);
#1014 = FACE_BOUND('',#1015,.T.);
#1015 = EDGE_LOOP('',(#1016));
#1016 = ORIENTED_EDGE('',*,*,#1017,.F.);
#1017 = EDGE_CURVE('',#1018,#1018,#1020,.T.);
#1018 = VERTEX_POINT('',#1019);
#1019 = CARTESIAN_POINT('',(22.5,-55.,11.));
#1020 = CIRCLE('',#1021,4.5);
#1021 = AXIS2_PLACEMENT_3D('',#1022,#1023,#1024);
#1022 = CARTESIAN_POINT('',(18.,-55.,11.));
#1023 = DIRECTION('',(0.,0.,1.));
#1024 = DIRECTION('',(1.,0.,0.));
#1025 = PLANE('',#1026);
#1026 = AXIS2_PLACEMENT_3D('',#1027,#1028,#1029);
#1027 = CARTESIAN_POINT('',(18.,-55.,11.));
#1028 = DIRECTION('',(0.,0.,1.));
#1029 = DIRECTION('',(1.,0.,0.));
#1030 = ADVANCED_FACE('',(#1031,#1034),#1045,.T.);
#1031 = FACE_BOUND('',#1032,.T.);
#1032 = EDGE_LOOP('',(#1033));
#1033 = ORIENTED_EDGE('',*,*,#769,.T.);
#1034 = FACE_BOUND('',#1035,.T.);
#1035 = EDGE_LOOP('',(#1036));
#1036 = ORIENTED_EDGE('',*,*,#1037,.F.);
#1037 = EDGE_CURVE('',#1038,#1038,#1040,.T.);
#1038 = VERTEX_POINT('',#1039);
#1039 = CARTESIAN_POINT('',(-13.5,55.,11.));
#1040 = CIRCLE('',#1041,4.5);
#1041 = AXIS2_PLACEMENT_3D('',#1042,#1043,#1044);
#1042 = CARTESIAN_POINT('',(-18.,55.,11.));
#1043 = DIRECTION('',(0.,0.,1.));
#1044 = DIRECTION('',(1.,0.,0.));
#1045 = PLANE('',#1046);
#1046 = AXIS2_PLACEMENT_3D('',#1047,#1048,#1049);
#1047 = CARTESIAN_POINT('',(-18.,55.,11.));
#1048 = DIRECTION('',(0.,0.,1.));
#1049 = DIRECTION('',(1.,0.,0.));
#1050 = ADVANCED_FACE('',(#1051,#1054),#1065,.T.);
#1051 = FACE_BOUND('',#1052,.T.);
#1052 = EDGE_LOOP('',(#1053));
#1053 = ORIENTED_EDGE('',*,*,#794,.T.);
#1054 = FACE_BOUND('',#1055,.T.);
#1055 = EDGE_LOOP('',(#1056));
#1056 = ORIENTED_EDGE('',*,*,#1057,.F.);
#1057 = EDGE_CURVE('',#1058,#1058,#1060,.T.);
#1058 = VERTEX_POINT('',#1059);
#1059 = CARTESIAN_POINT('',(22.5,55.,11.));
#1060 = CIRCLE('',#1061,4.5);
#1061 = AXIS2_PLACEMENT_3D('',#1062,#1063,#1064);
#1062 = CARTESIAN_POINT('',(18.,55.,11.));
#1063 = DIRECTION('',(0.,0.,1.));
#1064 = DIRECTION('',(1.,0.,0.));
#1065 = PLANE('',#1066);
#1066 = AXIS2_PLACEMENT_3D('',#1067,#1068,#1069);
#1067 = CARTESIAN_POINT('',(18.,55.,11.));
#1068 = DIRECTION('',(0.,0.,1.));
#1069 = DIRECTION('',(1.,0.,0.));
#1070 = ADVANCED_FACE('',(#1071),#1090,.T.);
#1071 = FACE_BOUND('',#1072,.T.);
#1072 = EDGE_LOOP('',(#1073,#1074,#1082,#1089));
#1073 = ORIENTED_EDGE('',*,*,#818,.F.);
#1074 = ORIENTED_EDGE('',*,*,#1075,.T.);
#1075 = EDGE_CURVE('',#810,#1076,#1078,.T.);
#1076 = VERTEX_POINT('',#1077);
#1077 = CARTESIAN_POINT('',(55.294051884067,2.939025706045E-14,
    132.36195074576));
#1078 = LINE('',#1079,#1080);
#1079 = CARTESIAN_POINT('',(26.416040103235,2.473151618226E-14,
    111.38084706274));
#1080 = VECTOR('',#1081,1.);
#1081 = DIRECTION('',(0.809016994375,1.305145441261E-16,0.587785252293)
  );
#1082 = ORIENTED_EDGE('',*,*,#1083,.F.);
#1083 = EDGE_CURVE('',#1076,#1076,#1084,.T.);
#1084 = CIRCLE('',#1085,22.5);
#1085 = AXIS2_PLACEMENT_3D('',#1086,#1087,#1088);
#1086 = CARTESIAN_POINT('',(42.068883707499,3.343210888556E-14,
    150.5648331192));
#1087 = DIRECTION('',(0.809016994375,1.305145441261E-16,0.587785252293)
  );
#1088 = DIRECTION('',(0.587785252293,-1.796378588936E-16,-0.809016994375
    ));
#1089 = ORIENTED_EDGE('',*,*,#1075,.F.);
#1090 = CYLINDRICAL_SURFACE('',#1091,22.5);
#1091 = AXIS2_PLACEMENT_3D('',#1092,#1093,#1094);
#1092 = CARTESIAN_POINT('',(13.190871926652,2.877336800737E-14,
    129.58372943617));
#1093 = DIRECTION('',(0.809016994375,1.305145441261E-16,0.587785252293)
  );
#1094 = DIRECTION('',(0.587785252293,-1.796378588936E-16,-0.809016994375
    ));
#1095 = ADVANCED_FACE('',(#1096),#1115,.F.);
#1096 = FACE_BOUND('',#1097,.F.);
#1097 = EDGE_LOOP('',(#1098,#1106,#1113,#1114));
#1098 = ORIENTED_EDGE('',*,*,#1099,.T.);
#1099 = EDGE_CURVE('',#839,#1100,#1102,.T.);
#1100 = VERTEX_POINT('',#1101);
#1101 = CARTESIAN_POINT('',(-75.,0.,76.));
#1102 = LINE('',#1103,#1104);
#1103 = CARTESIAN_POINT('',(-75.,0.,96.));
#1104 = VECTOR('',#1105,1.);
#1105 = DIRECTION('',(-0.,-0.,-1.));
#1106 = ORIENTED_EDGE('',*,*,#1107,.T.);
#1107 = EDGE_CURVE('',#1100,#1100,#1108,.T.);
#1108 = CIRCLE('',#1109,7.);
#1109 = AXIS2_PLACEMENT_3D('',#1110,#1111,#1112);
#1110 = CARTESIAN_POINT('',(-82.,0.,76.));
#1111 = DIRECTION('',(0.,0.,1.));
#1112 = DIRECTION('',(1.,0.,0.));
#1113 = ORIENTED_EDGE('',*,*,#1099,.F.);
#1114 = ORIENTED_EDGE('',*,*,#838,.F.);
#1115 = CYLINDRICAL_SURFACE('',#1116,7.);
#1116 = AXIS2_PLACEMENT_3D('',#1117,#1118,#1119);
#1117 = CARTESIAN_POINT('',(-82.,0.,96.));
#1118 = DIRECTION('',(0.,0.,1.));
#1119 = DIRECTION('',(1.,0.,0.));
#1120 = ADVANCED_FACE('',(#1121),#1132,.F.);
#1121 = FACE_BOUND('',#1122,.T.);
#1122 = EDGE_LOOP('',(#1123,#1129,#1130,#1131));
#1123 = ORIENTED_EDGE('',*,*,#1124,.F.);
#1124 = EDGE_CURVE('',#1058,#869,#1125,.T.);
#1125 = LINE('',#1126,#1127);
#1126 = CARTESIAN_POINT('',(22.5,55.,11.));
#1127 = VECTOR('',#1128,1.);
#1128 = DIRECTION('',(-6.18714599388E-17,0.,-1.));
#1129 = ORIENTED_EDGE('',*,*,#1057,.T.);
#1130 = ORIENTED_EDGE('',*,*,#1124,.T.);
#1131 = ORIENTED_EDGE('',*,*,#868,.T.);
#1132 = CYLINDRICAL_SURFACE('',#1133,4.5);
#1133 = AXIS2_PLACEMENT_3D('',#1134,#1135,#1136);
#1134 = CARTESIAN_POINT('',(18.,55.,11.));
#1135 = DIRECTION('',(-0.,-0.,-1.));
#1136 = DIRECTION('',(1.,0.,0.));
#1137 = ADVANCED_FACE('',(#1138),#1149,.F.);
#1138 = FACE_BOUND('',#1139,.T.);
#1139 = EDGE_LOOP('',(#1140,#1146,#1147,#1148));
#1140 = ORIENTED_EDGE('',*,*,#1141,.F.);
#1141 = EDGE_CURVE('',#1038,#880,#1142,.T.);
#1142 = LINE('',#1143,#1144);
#1143 = CARTESIAN_POINT('',(-13.5,55.,11.));
#1144 = VECTOR('',#1145,1.);
#1145 = DIRECTION('',(-6.18714599388E-17,0.,-1.));
#1146 = ORIENTED_EDGE('',*,*,#1037,.T.);
#1147 = ORIENTED_EDGE('',*,*,#1141,.T.);
#1148 = ORIENTED_EDGE('',*,*,#879,.T.);
#1149 = CYLINDRICAL_SURFACE('',#1150,4.5);
#1150 = AXIS2_PLACEMENT_3D('',#1151,#1152,#1153);
#1151 = CARTESIAN_POINT('',(-18.,55.,11.));
#1152 = DIRECTION('',(-0.,-0.,-1.));
#1153 = DIRECTION('',(1.,0.,0.));
#1154 = ADVANCED_FACE('',(#1155),#1174,.F.);
#1155 = FACE_BOUND('',#1156,.T.);
#1156 = EDGE_LOOP('',(#1157,#1165,#1166,#1167));
#1157 = ORIENTED_EDGE('',*,*,#1158,.F.);
#1158 = EDGE_CURVE('',#925,#1159,#1161,.T.);
#1159 = VERTEX_POINT('',#1160);
#1160 = CARTESIAN_POINT('',(18.5,0.,54.));
#1161 = LINE('',#1162,#1163);
#1162 = CARTESIAN_POINT('',(18.5,0.,0.));
#1163 = VECTOR('',#1164,1.);
#1164 = DIRECTION('',(0.,0.,1.));
#1165 = ORIENTED_EDGE('',*,*,#924,.T.);
#1166 = ORIENTED_EDGE('',*,*,#1158,.T.);
#1167 = ORIENTED_EDGE('',*,*,#1168,.T.);
#1168 = EDGE_CURVE('',#1159,#1159,#1169,.T.);
#1169 = CIRCLE('',#1170,18.5);
#1170 = AXIS2_PLACEMENT_3D('',#1171,#1172,#1173);
#1171 = CARTESIAN_POINT('',(0.,0.,54.));
#1172 = DIRECTION('',(0.,0.,1.));
#1173 = DIRECTION('',(1.,0.,0.));
#1174 = CYLINDRICAL_SURFACE('',#1175,18.5);
#1175 = AXIS2_PLACEMENT_3D('',#1176,#1177,#1178);
#1176 = CARTESIAN_POINT('',(0.,0.,0.));
#1177 = DIRECTION('',(-0.,-0.,-1.));
#1178 = DIRECTION('',(1.,0.,0.));
#1179 = ADVANCED_FACE('',(#1180),#1191,.F.);
#1180 = FACE_BOUND('',#1181,.T.);
#1181 = EDGE_LOOP('',(#1182,#1188,#1189,#1190));
#1182 = ORIENTED_EDGE('',*,*,#1183,.F.);
#1183 = EDGE_CURVE('',#1018,#967,#1184,.T.);
#1184 = LINE('',#1185,#1186);
#1185 = CARTESIAN_POINT('',(22.5,-55.,11.));
#1186 = VECTOR('',#1187,1.);
#1187 = DIRECTION('',(-6.18714599388E-17,0.,-1.));
#1188 = ORIENTED_EDGE('',*,*,#1017,.T.);
#1189 = ORIENTED_EDGE('',*,*,#1183,.T.);
#1190 = ORIENTED_EDGE('',*,*,#966,.T.);
#1191 = CYLINDRICAL_SURFACE('',#1192,4.5);
#1192 = AXIS2_PLACEMENT_3D('',#1193,#1194,#1195);
#1193 = CARTESIAN_POINT('',(18.,-55.,11.));
#1194 = DIRECTION('',(-0.,-0.,-1.));
#1195 = DIRECTION('',(1.,0.,0.));
#1196 = ADVANCED_FACE('',(#1197),#1208,.F.);
#1197 = FACE_BOUND('',#1198,.T.);
#1198 = EDGE_LOOP('',(#1199,#1205,#1206,#1207));
#1199 = ORIENTED_EDGE('',*,*,#1200,.F.);
#1200 = EDGE_CURVE('',#998,#978,#1201,.T.);
#1201 = LINE('',#1202,#1203);
#1202 = CARTESIAN_POINT('',(-13.5,-55.,11.));
#1203 = VECTOR('',#1204,1.);
#1204 = DIRECTION('',(-6.18714599388E-17,0.,-1.));
#1205 = ORIENTED_EDGE('',*,*,#997,.T.);
#1206 = ORIENTED_EDGE('',*,*,#1200,.T.);
#1207 = ORIENTED_EDGE('',*,*,#977,.T.);
#1208 = CYLINDRICAL_SURFACE('',#1209,4.5);
#1209 = AXIS2_PLACEMENT_3D('',#1210,#1211,#1212);
#1210 = CARTESIAN_POINT('',(-18.,-55.,11.));
#1211 = DIRECTION('',(-0.,-0.,-1.));
#1212 = DIRECTION('',(1.,0.,0.));
#1213 = ADVANCED_FACE('',(#1214,#1264),#1267,.F.);
#1214 = FACE_BOUND('',#1215,.F.);
#1215 = EDGE_LOOP('',(#1216,#1226,#1234,#1242,#1250,#1258));
#1216 = ORIENTED_EDGE('',*,*,#1217,.T.);
#1217 = EDGE_CURVE('',#1218,#1220,#1222,.T.);
#1218 = VERTEX_POINT('',#1219);
#1219 = CARTESIAN_POINT('',(42.068883707547,38.682468035705,
    150.56483311914));
#1220 = VERTEX_POINT('',#1221);
#1221 = CARTESIAN_POINT('',(22.378077755768,19.341234017852,
    177.66690243071));
#1222 = LINE('',#1223,#1224);
#1223 = CARTESIAN_POINT('',(42.068883707547,38.682468035705,
    150.56483311914));
#1224 = VECTOR('',#1225,1.);
#1225 = DIRECTION('',(-0.509036960455,-0.5,0.700629269222));
#1226 = ORIENTED_EDGE('',*,*,#1227,.T.);
#1227 = EDGE_CURVE('',#1220,#1228,#1230,.T.);
#1228 = VERTEX_POINT('',#1229);
#1229 = CARTESIAN_POINT('',(22.378077755768,-19.34123401785,
    177.66690243071));
#1230 = LINE('',#1231,#1232);
#1231 = CARTESIAN_POINT('',(22.378077755768,19.341234017852,
    177.66690243071));
#1232 = VECTOR('',#1233,1.);
#1233 = DIRECTION('',(2.22044604925E-16,-1.,0.));
#1234 = ORIENTED_EDGE('',*,*,#1235,.T.);
#1235 = EDGE_CURVE('',#1228,#1236,#1238,.T.);
#1236 = VERTEX_POINT('',#1237);
#1237 = CARTESIAN_POINT('',(42.068883707547,-38.6824680357,
    150.56483311914));
#1238 = LINE('',#1239,#1240);
#1239 = CARTESIAN_POINT('',(22.378077755768,-19.34123401785,
    177.66690243071));
#1240 = VECTOR('',#1241,1.);
#1241 = DIRECTION('',(0.509036960455,-0.5,-0.700629269222));
#1242 = ORIENTED_EDGE('',*,*,#1243,.T.);
#1243 = EDGE_CURVE('',#1236,#1244,#1246,.T.);
#1244 = VERTEX_POINT('',#1245);
#1245 = CARTESIAN_POINT('',(61.759689659326,-19.34123401785,
    123.46276380756));
#1246 = LINE('',#1247,#1248);
#1247 = CARTESIAN_POINT('',(42.068883707547,-38.6824680357,
    150.56483311914));
#1248 = VECTOR('',#1249,1.);
#1249 = DIRECTION('',(0.509036960455,0.5,-0.700629269222));
#1250 = ORIENTED_EDGE('',*,*,#1251,.T.);
#1251 = EDGE_CURVE('',#1244,#1252,#1254,.T.);
#1252 = VERTEX_POINT('',#1253);
#1253 = CARTESIAN_POINT('',(61.759689659326,19.341234017852,
    123.46276380756));
#1254 = LINE('',#1255,#1256);
#1255 = CARTESIAN_POINT('',(61.759689659326,-19.34123401785,
    123.46276380756));
#1256 = VECTOR('',#1257,1.);
#1257 = DIRECTION('',(-1.140766901536E-16,1.,-1.486050858826E-16));
#1258 = ORIENTED_EDGE('',*,*,#1259,.T.);
#1259 = EDGE_CURVE('',#1252,#1218,#1260,.T.);
#1260 = LINE('',#1261,#1262);
#1261 = CARTESIAN_POINT('',(61.759689659326,19.341234017852,
    123.46276380756));
#1262 = VECTOR('',#1263,1.);
#1263 = DIRECTION('',(-0.509036960455,0.5,0.700629269222));
#1264 = FACE_BOUND('',#1265,.F.);
#1265 = EDGE_LOOP('',(#1266));
#1266 = ORIENTED_EDGE('',*,*,#1083,.F.);
#1267 = PLANE('',#1268);
#1268 = AXIS2_PLACEMENT_3D('',#1269,#1270,#1271);
#1269 = CARTESIAN_POINT('',(42.068883707547,1.479301507083E-14,
    150.56483311914));
#1270 = DIRECTION('',(0.809016994375,2.24754704125E-16,0.587785252292));
#1271 = DIRECTION('',(-0.587785252292,0.,0.809016994375));
#1272 = ADVANCED_FACE('',(#1273,#1309),#1312,.F.);
#1273 = FACE_BOUND('',#1274,.F.);
#1274 = EDGE_LOOP('',(#1275,#1285,#1294,#1302));
#1275 = ORIENTED_EDGE('',*,*,#1276,.F.);
#1276 = EDGE_CURVE('',#1277,#1279,#1281,.T.);
#1277 = VERTEX_POINT('',#1278);
#1278 = CARTESIAN_POINT('',(-84.48780487804,11.739285620887,76.));
#1279 = VERTEX_POINT('',#1280);
#1280 = CARTESIAN_POINT('',(-6.012195121951,28.369940250476,76.));
#1281 = LINE('',#1282,#1283);
#1282 = CARTESIAN_POINT('',(-84.48780487804,11.739285620887,76.));
#1283 = VECTOR('',#1284,1.);
#1284 = DIRECTION('',(0.978273801741,0.207317073171,0.));
#1285 = ORIENTED_EDGE('',*,*,#1286,.T.);
#1286 = EDGE_CURVE('',#1277,#1287,#1289,.T.);
#1287 = VERTEX_POINT('',#1288);
#1288 = CARTESIAN_POINT('',(-84.48780487804,-11.73928562088,76.));
#1289 = CIRCLE('',#1290,12.);
#1290 = AXIS2_PLACEMENT_3D('',#1291,#1292,#1293);
#1291 = CARTESIAN_POINT('',(-82.,1.649196317633E-16,76.));
#1292 = DIRECTION('',(0.,0.,1.));
#1293 = DIRECTION('',(1.,0.,0.));
#1294 = ORIENTED_EDGE('',*,*,#1295,.T.);
#1295 = EDGE_CURVE('',#1287,#1296,#1298,.T.);
#1296 = VERTEX_POINT('',#1297);
#1297 = CARTESIAN_POINT('',(-6.012195121951,-28.36994025047,76.));
#1298 = LINE('',#1299,#1300);
#1299 = CARTESIAN_POINT('',(-84.48780487804,-11.73928562088,76.));
#1300 = VECTOR('',#1301,1.);
#1301 = DIRECTION('',(0.978273801741,-0.207317073171,0.));
#1302 = ORIENTED_EDGE('',*,*,#1303,.T.);
#1303 = EDGE_CURVE('',#1296,#1279,#1304,.T.);
#1304 = CIRCLE('',#1305,29.);
#1305 = AXIS2_PLACEMENT_3D('',#1306,#1307,#1308);
#1306 = CARTESIAN_POINT('',(0.,0.,76.));
#1307 = DIRECTION('',(0.,0.,-1.));
#1308 = DIRECTION('',(1.,0.,0.));
#1309 = FACE_BOUND('',#1310,.F.);
#1310 = EDGE_LOOP('',(#1311));
#1311 = ORIENTED_EDGE('',*,*,#1107,.F.);
#1312 = PLANE('',#1313);
#1313 = AXIS2_PLACEMENT_3D('',#1314,#1315,#1316);
#1314 = CARTESIAN_POINT('',(-41.98276731493,-3.656221625151E-15,76.));
#1315 = DIRECTION('',(0.,0.,1.));
#1316 = DIRECTION('',(1.,0.,0.));
#1317 = ADVANCED_FACE('',(#1318,#1329),#1332,.T.);
#1318 = FACE_BOUND('',#1319,.T.);
#1319 = EDGE_LOOP('',(#1320));
#1320 = ORIENTED_EDGE('',*,*,#1321,.F.);
#1321 = EDGE_CURVE('',#1322,#1322,#1324,.T.);
#1322 = VERTEX_POINT('',#1323);
#1323 = CARTESIAN_POINT('',(29.,0.,54.));
#1324 = CIRCLE('',#1325,29.);
#1325 = AXIS2_PLACEMENT_3D('',#1326,#1327,#1328);
#1326 = CARTESIAN_POINT('',(0.,0.,54.));
#1327 = DIRECTION('',(0.,0.,-1.));
#1328 = DIRECTION('',(1.,0.,0.));
#1329 = FACE_BOUND('',#1330,.T.);
#1330 = EDGE_LOOP('',(#1331));
#1331 = ORIENTED_EDGE('',*,*,#1168,.F.);
#1332 = PLANE('',#1333);
#1333 = AXIS2_PLACEMENT_3D('',#1334,#1335,#1336);
#1334 = CARTESIAN_POINT('',(-7.544497282976E-16,-1.833973674015E-15,54.)
  );
#1335 = DIRECTION('',(0.,0.,1.));
#1336 = DIRECTION('',(1.,0.,0.));
#1337 = ADVANCED_FACE('',(#1338),#1363,.F.);
#1338 = FACE_BOUND('',#1339,.F.);
#1339 = EDGE_LOOP('',(#1340,#1348,#1356,#1362));
#1340 = ORIENTED_EDGE('',*,*,#1341,.T.);
#1341 = EDGE_CURVE('',#1218,#1342,#1344,.T.);
#1342 = VERTEX_POINT('',#1343);
#1343 = CARTESIAN_POINT('',(54.204138623178,38.682468035705,
    159.38161190351));
#1344 = LINE('',#1345,#1346);
#1345 = CARTESIAN_POINT('',(42.068883707547,38.682468035705,
    150.56483311914));
#1346 = VECTOR('',#1347,1.);
#1347 = DIRECTION('',(0.809016994375,1.665334536938E-16,0.587785252292)
  );
#1348 = ORIENTED_EDGE('',*,*,#1349,.T.);
#1349 = EDGE_CURVE('',#1342,#1350,#1352,.T.);
#1350 = VERTEX_POINT('',#1351);
#1351 = CARTESIAN_POINT('',(34.513332671399,19.341234017852,
    186.48368121509));
#1352 = LINE('',#1353,#1354);
#1353 = CARTESIAN_POINT('',(54.204138623178,38.682468035705,
    159.38161190351));
#1354 = VECTOR('',#1355,1.);
#1355 = DIRECTION('',(-0.509036960455,-0.5,0.700629269222));
#1356 = ORIENTED_EDGE('',*,*,#1357,.F.);
#1357 = EDGE_CURVE('',#1220,#1350,#1358,.T.);
#1358 = LINE('',#1359,#1360);
#1359 = CARTESIAN_POINT('',(22.378077755768,19.341234017852,
    177.66690243071));
#1360 = VECTOR('',#1361,1.);
#1361 = DIRECTION('',(0.809016994375,1.665334536938E-16,0.587785252292)
  );
#1362 = ORIENTED_EDGE('',*,*,#1217,.F.);
#1363 = PLANE('',#1364);
#1364 = AXIS2_PLACEMENT_3D('',#1365,#1366,#1367);
#1365 = CARTESIAN_POINT('',(42.068883707547,38.682468035705,
    150.56483311914));
#1366 = DIRECTION('',(0.293892626146,-0.866025403784,-0.404508497188));
#1367 = DIRECTION('',(-0.509036960455,-0.5,0.700629269222));
#1368 = ADVANCED_FACE('',(#1369),#1387,.F.);
#1369 = FACE_BOUND('',#1370,.F.);
#1370 = EDGE_LOOP('',(#1371,#1379,#1385,#1386));
#1371 = ORIENTED_EDGE('',*,*,#1372,.T.);
#1372 = EDGE_CURVE('',#1252,#1373,#1375,.T.);
#1373 = VERTEX_POINT('',#1374);
#1374 = CARTESIAN_POINT('',(73.894944574957,19.341234017852,
    132.27954259194));
#1375 = LINE('',#1376,#1377);
#1376 = CARTESIAN_POINT('',(61.759689659326,19.341234017852,
    123.46276380756));
#1377 = VECTOR('',#1378,1.);
#1378 = DIRECTION('',(0.809016994375,1.665334536938E-16,0.587785252292)
  );
#1379 = ORIENTED_EDGE('',*,*,#1380,.T.);
#1380 = EDGE_CURVE('',#1373,#1342,#1381,.T.);
#1381 = LINE('',#1382,#1383);
#1382 = CARTESIAN_POINT('',(73.894944574957,19.341234017852,
    132.27954259194));
#1383 = VECTOR('',#1384,1.);
#1384 = DIRECTION('',(-0.509036960455,0.5,0.700629269222));
#1385 = ORIENTED_EDGE('',*,*,#1341,.F.);
#1386 = ORIENTED_EDGE('',*,*,#1259,.F.);
#1387 = PLANE('',#1388);
#1388 = AXIS2_PLACEMENT_3D('',#1389,#1390,#1391);
#1389 = CARTESIAN_POINT('',(61.759689659326,19.341234017852,
    123.46276380756));
#1390 = DIRECTION('',(-0.293892626146,-0.866025403784,0.404508497188));
#1391 = DIRECTION('',(-0.509036960455,0.5,0.700629269222));
#1392 = ADVANCED_FACE('',(#1393),#1411,.F.);
#1393 = FACE_BOUND('',#1394,.F.);
#1394 = EDGE_LOOP('',(#1395,#1396,#1404,#1410));
#1395 = ORIENTED_EDGE('',*,*,#1357,.T.);
#1396 = ORIENTED_EDGE('',*,*,#1397,.T.);
#1397 = EDGE_CURVE('',#1350,#1398,#1400,.T.);
#1398 = VERTEX_POINT('',#1399);
#1399 = CARTESIAN_POINT('',(34.513332671399,-19.34123401785,
    186.48368121509));
#1400 = LINE('',#1401,#1402);
#1401 = CARTESIAN_POINT('',(34.513332671399,19.341234017852,
    186.48368121509));
#1402 = VECTOR('',#1403,1.);
#1403 = DIRECTION('',(2.22044604925E-16,-1.,0.));
#1404 = ORIENTED_EDGE('',*,*,#1405,.F.);
#1405 = EDGE_CURVE('',#1228,#1398,#1406,.T.);
#1406 = LINE('',#1407,#1408);
#1407 = CARTESIAN_POINT('',(22.378077755768,-19.34123401785,
    177.66690243071));
#1408 = VECTOR('',#1409,1.);
#1409 = DIRECTION('',(0.809016994375,1.665334536938E-16,0.587785252292)
  );
#1410 = ORIENTED_EDGE('',*,*,#1227,.F.);
#1411 = PLANE('',#1412);
#1412 = AXIS2_PLACEMENT_3D('',#1413,#1414,#1415);
#1413 = CARTESIAN_POINT('',(22.378077755768,19.341234017852,
    177.66690243071));
#1414 = DIRECTION('',(0.587785252292,1.305145441259E-16,-0.809016994375)
  );
#1415 = DIRECTION('',(2.22044604925E-16,-1.,0.));
#1416 = ADVANCED_FACE('',(#1417),#1435,.F.);
#1417 = FACE_BOUND('',#1418,.F.);
#1418 = EDGE_LOOP('',(#1419,#1427,#1433,#1434));
#1419 = ORIENTED_EDGE('',*,*,#1420,.T.);
#1420 = EDGE_CURVE('',#1244,#1421,#1423,.T.);
#1421 = VERTEX_POINT('',#1422);
#1422 = CARTESIAN_POINT('',(73.894944574957,-19.34123401785,
    132.27954259194));
#1423 = LINE('',#1424,#1425);
#1424 = CARTESIAN_POINT('',(61.759689659326,-19.34123401785,
    123.46276380756));
#1425 = VECTOR('',#1426,1.);
#1426 = DIRECTION('',(0.809016994375,1.665334536938E-16,0.587785252292)
  );
#1427 = ORIENTED_EDGE('',*,*,#1428,.T.);
#1428 = EDGE_CURVE('',#1421,#1373,#1429,.T.);
#1429 = LINE('',#1430,#1431);
#1430 = CARTESIAN_POINT('',(73.894944574957,-19.34123401785,
    132.27954259194));
#1431 = VECTOR('',#1432,1.);
#1432 = DIRECTION('',(-1.140766901536E-16,1.,-1.486050858826E-16));
#1433 = ORIENTED_EDGE('',*,*,#1372,.F.);
#1434 = ORIENTED_EDGE('',*,*,#1251,.F.);
#1435 = PLANE('',#1436);
#1436 = AXIS2_PLACEMENT_3D('',#1437,#1438,#1439);
#1437 = CARTESIAN_POINT('',(61.759689659326,-19.34123401785,
    123.46276380756));
#1438 = DIRECTION('',(-0.587785252292,5.317144382714E-17,0.809016994375)
  );
#1439 = DIRECTION('',(-1.140766901536E-16,1.,-1.486050858826E-16));
#1440 = ADVANCED_FACE('',(#1441),#1459,.F.);
#1441 = FACE_BOUND('',#1442,.F.);
#1442 = EDGE_LOOP('',(#1443,#1444,#1452,#1458));
#1443 = ORIENTED_EDGE('',*,*,#1405,.T.);
#1444 = ORIENTED_EDGE('',*,*,#1445,.T.);
#1445 = EDGE_CURVE('',#1398,#1446,#1448,.T.);
#1446 = VERTEX_POINT('',#1447);
#1447 = CARTESIAN_POINT('',(54.204138623178,-38.6824680357,
    159.38161190351));
#1448 = LINE('',#1449,#1450);
#1449 = CARTESIAN_POINT('',(34.513332671399,-19.34123401785,
    186.48368121509));
#1450 = VECTOR('',#1451,1.);
#1451 = DIRECTION('',(0.509036960455,-0.5,-0.700629269222));
#1452 = ORIENTED_EDGE('',*,*,#1453,.F.);
#1453 = EDGE_CURVE('',#1236,#1446,#1454,.T.);
#1454 = LINE('',#1455,#1456);
#1455 = CARTESIAN_POINT('',(42.068883707547,-38.6824680357,
    150.56483311914));
#1456 = VECTOR('',#1457,1.);
#1457 = DIRECTION('',(0.809016994375,1.665334536938E-16,0.587785252292)
  );
#1458 = ORIENTED_EDGE('',*,*,#1235,.F.);
#1459 = PLANE('',#1460);
#1460 = AXIS2_PLACEMENT_3D('',#1461,#1462,#1463);
#1461 = CARTESIAN_POINT('',(22.378077755768,-19.34123401785,
    177.66690243071));
#1462 = DIRECTION('',(0.293892626146,0.866025403784,-0.404508497188));
#1463 = DIRECTION('',(0.509036960455,-0.5,-0.700629269222));
#1464 = ADVANCED_FACE('',(#1465),#1476,.F.);
#1465 = FACE_BOUND('',#1466,.F.);
#1466 = EDGE_LOOP('',(#1467,#1468,#1474,#1475));
#1467 = ORIENTED_EDGE('',*,*,#1453,.T.);
#1468 = ORIENTED_EDGE('',*,*,#1469,.T.);
#1469 = EDGE_CURVE('',#1446,#1421,#1470,.T.);
#1470 = LINE('',#1471,#1472);
#1471 = CARTESIAN_POINT('',(54.204138623178,-38.6824680357,
    159.38161190351));
#1472 = VECTOR('',#1473,1.);
#1473 = DIRECTION('',(0.509036960455,0.5,-0.700629269222));
#1474 = ORIENTED_EDGE('',*,*,#1420,.F.);
#1475 = ORIENTED_EDGE('',*,*,#1243,.F.);
#1476 = PLANE('',#1477);
#1477 = AXIS2_PLACEMENT_3D('',#1478,#1479,#1480);
#1478 = CARTESIAN_POINT('',(42.068883707547,-38.6824680357,
    150.56483311914));
#1479 = DIRECTION('',(-0.293892626146,0.866025403784,0.404508497188));
#1480 = DIRECTION('',(0.509036960455,0.5,-0.700629269222));
#1481 = ADVANCED_FACE('',(#1482),#1507,.T.);
#1482 = FACE_BOUND('',#1483,.T.);
#1483 = EDGE_LOOP('',(#1484,#1492,#1500,#1506));
#1484 = ORIENTED_EDGE('',*,*,#1485,.T.);
#1485 = EDGE_CURVE('',#1277,#1486,#1488,.T.);
#1486 = VERTEX_POINT('',#1487);
#1487 = CARTESIAN_POINT('',(-84.48780487804,11.739285620887,64.));
#1488 = LINE('',#1489,#1490);
#1489 = CARTESIAN_POINT('',(-84.48780487804,11.739285620887,76.));
#1490 = VECTOR('',#1491,1.);
#1491 = DIRECTION('',(-0.,-0.,-1.));
#1492 = ORIENTED_EDGE('',*,*,#1493,.T.);
#1493 = EDGE_CURVE('',#1486,#1494,#1496,.T.);
#1494 = VERTEX_POINT('',#1495);
#1495 = CARTESIAN_POINT('',(-6.012195121951,28.369940250476,64.));
#1496 = LINE('',#1497,#1498);
#1497 = CARTESIAN_POINT('',(-84.48780487804,11.739285620887,64.));
#1498 = VECTOR('',#1499,1.);
#1499 = DIRECTION('',(0.978273801741,0.207317073171,0.));
#1500 = ORIENTED_EDGE('',*,*,#1501,.F.);
#1501 = EDGE_CURVE('',#1279,#1494,#1502,.T.);
#1502 = LINE('',#1503,#1504);
#1503 = CARTESIAN_POINT('',(-6.012195121951,28.369940250476,76.));
#1504 = VECTOR('',#1505,1.);
#1505 = DIRECTION('',(-0.,-0.,-1.));
#1506 = ORIENTED_EDGE('',*,*,#1276,.F.);
#1507 = PLANE('',#1508);
#1508 = AXIS2_PLACEMENT_3D('',#1509,#1510,#1511);
#1509 = CARTESIAN_POINT('',(-84.48780487804,11.739285620887,76.));
#1510 = DIRECTION('',(0.207317073171,-0.978273801741,0.));
#1511 = DIRECTION('',(0.978273801741,0.207317073171,0.));
#1512 = ADVANCED_FACE('',(#1513,#1532),#1551,.F.);
#1513 = FACE_BOUND('',#1514,.F.);
#1514 = EDGE_LOOP('',(#1515,#1516,#1524,#1531));
#1515 = ORIENTED_EDGE('',*,*,#1321,.F.);
#1516 = ORIENTED_EDGE('',*,*,#1517,.T.);
#1517 = EDGE_CURVE('',#1322,#1518,#1520,.T.);
#1518 = VERTEX_POINT('',#1519);
#1519 = CARTESIAN_POINT('',(29.,0.,86.));
#1520 = LINE('',#1521,#1522);
#1521 = CARTESIAN_POINT('',(29.,0.,54.));
#1522 = VECTOR('',#1523,1.);
#1523 = DIRECTION('',(0.,0.,1.));
#1524 = ORIENTED_EDGE('',*,*,#1525,.T.);
#1525 = EDGE_CURVE('',#1518,#1518,#1526,.T.);
#1526 = CIRCLE('',#1527,29.);
#1527 = AXIS2_PLACEMENT_3D('',#1528,#1529,#1530);
#1528 = CARTESIAN_POINT('',(0.,0.,86.));
#1529 = DIRECTION('',(0.,0.,-1.));
#1530 = DIRECTION('',(1.,0.,0.));
#1531 = ORIENTED_EDGE('',*,*,#1517,.F.);
#1532 = FACE_BOUND('',#1533,.F.);
#1533 = EDGE_LOOP('',(#1534,#1535,#1543,#1550));
#1534 = ORIENTED_EDGE('',*,*,#1303,.F.);
#1535 = ORIENTED_EDGE('',*,*,#1536,.T.);
#1536 = EDGE_CURVE('',#1296,#1537,#1539,.T.);
#1537 = VERTEX_POINT('',#1538);
#1538 = CARTESIAN_POINT('',(-6.012195121951,-28.36994025047,64.));
#1539 = LINE('',#1540,#1541);
#1540 = CARTESIAN_POINT('',(-6.012195121951,-28.36994025047,76.));
#1541 = VECTOR('',#1542,1.);
#1542 = DIRECTION('',(-0.,-0.,-1.));
#1543 = ORIENTED_EDGE('',*,*,#1544,.T.);
#1544 = EDGE_CURVE('',#1537,#1494,#1545,.T.);
#1545 = CIRCLE('',#1546,29.);
#1546 = AXIS2_PLACEMENT_3D('',#1547,#1548,#1549);
#1547 = CARTESIAN_POINT('',(0.,0.,64.));
#1548 = DIRECTION('',(0.,0.,-1.));
#1549 = DIRECTION('',(1.,0.,0.));
#1550 = ORIENTED_EDGE('',*,*,#1501,.F.);
#1551 = CYLINDRICAL_SURFACE('',#1552,29.);
#1552 = AXIS2_PLACEMENT_3D('',#1553,#1554,#1555);
#1553 = CARTESIAN_POINT('',(0.,0.,54.));
#1554 = DIRECTION('',(0.,0.,-1.));
#1555 = DIRECTION('',(1.,0.,0.));
#1556 = ADVANCED_FACE('',(#1557),#1575,.F.);
#1557 = FACE_BOUND('',#1558,.F.);
#1558 = EDGE_LOOP('',(#1559,#1567,#1573,#1574));
#1559 = ORIENTED_EDGE('',*,*,#1560,.T.);
#1560 = EDGE_CURVE('',#1287,#1561,#1563,.T.);
#1561 = VERTEX_POINT('',#1562);
#1562 = CARTESIAN_POINT('',(-84.48780487804,-11.73928562088,64.));
#1563 = LINE('',#1564,#1565);
#1564 = CARTESIAN_POINT('',(-84.48780487804,-11.73928562088,76.));
#1565 = VECTOR('',#1566,1.);
#1566 = DIRECTION('',(-0.,-0.,-1.));
#1567 = ORIENTED_EDGE('',*,*,#1568,.T.);
#1568 = EDGE_CURVE('',#1561,#1537,#1569,.T.);
#1569 = LINE('',#1570,#1571);
#1570 = CARTESIAN_POINT('',(-84.48780487804,-11.73928562088,64.));
#1571 = VECTOR('',#1572,1.);
#1572 = DIRECTION('',(0.978273801741,-0.207317073171,0.));
#1573 = ORIENTED_EDGE('',*,*,#1536,.F.);
#1574 = ORIENTED_EDGE('',*,*,#1295,.F.);
#1575 = PLANE('',#1576);
#1576 = AXIS2_PLACEMENT_3D('',#1577,#1578,#1579);
#1577 = CARTESIAN_POINT('',(-84.48780487804,-11.73928562088,76.));
#1578 = DIRECTION('',(-0.207317073171,-0.978273801741,0.));
#1579 = DIRECTION('',(0.978273801741,-0.207317073171,0.));
#1580 = ADVANCED_FACE('',(#1581),#1593,.F.);
#1581 = FACE_BOUND('',#1582,.F.);
#1582 = EDGE_LOOP('',(#1583,#1584,#1591,#1592));
#1583 = ORIENTED_EDGE('',*,*,#1485,.T.);
#1584 = ORIENTED_EDGE('',*,*,#1585,.T.);
#1585 = EDGE_CURVE('',#1486,#1561,#1586,.T.);
#1586 = CIRCLE('',#1587,12.);
#1587 = AXIS2_PLACEMENT_3D('',#1588,#1589,#1590);
#1588 = CARTESIAN_POINT('',(-82.,1.649196317633E-16,64.));
#1589 = DIRECTION('',(0.,0.,1.));
#1590 = DIRECTION('',(1.,0.,0.));
#1591 = ORIENTED_EDGE('',*,*,#1560,.F.);
#1592 = ORIENTED_EDGE('',*,*,#1286,.F.);
#1593 = CYLINDRICAL_SURFACE('',#1594,12.);
#1594 = AXIS2_PLACEMENT_3D('',#1595,#1596,#1597);
#1595 = CARTESIAN_POINT('',(-82.,1.649196317633E-16,76.));
#1596 = DIRECTION('',(0.,0.,1.));
#1597 = DIRECTION('',(1.,0.,0.));
#1598 = ADVANCED_FACE('',(#1599,#1607),#1618,.T.);
#1599 = FACE_BOUND('',#1600,.T.);
#1600 = EDGE_LOOP('',(#1601,#1602,#1603,#1604,#1605,#1606));
#1601 = ORIENTED_EDGE('',*,*,#1349,.T.);
#1602 = ORIENTED_EDGE('',*,*,#1397,.T.);
#1603 = ORIENTED_EDGE('',*,*,#1445,.T.);
#1604 = ORIENTED_EDGE('',*,*,#1469,.T.);
#1605 = ORIENTED_EDGE('',*,*,#1428,.T.);
#1606 = ORIENTED_EDGE('',*,*,#1380,.T.);
#1607 = FACE_BOUND('',#1608,.T.);
#1608 = EDGE_LOOP('',(#1609));
#1609 = ORIENTED_EDGE('',*,*,#1610,.F.);
#1610 = EDGE_CURVE('',#1611,#1611,#1613,.T.);
#1611 = VERTEX_POINT('',#1612);
#1612 = CARTESIAN_POINT('',(67.42930679969,3.134797522234E-14,
    141.17872953014));
#1613 = CIRCLE('',#1614,22.5);
#1614 = AXIS2_PLACEMENT_3D('',#1615,#1616,#1617);
#1615 = CARTESIAN_POINT('',(54.204138623122,3.538982704745E-14,
    159.38161190359));
#1616 = DIRECTION('',(0.809016994375,1.305145441261E-16,0.587785252293)
  );
#1617 = DIRECTION('',(0.587785252293,-1.796378588936E-16,-0.809016994375
    ));
#1618 = PLANE('',#1619);
#1619 = AXIS2_PLACEMENT_3D('',#1620,#1621,#1622);
#1620 = CARTESIAN_POINT('',(54.204138623178,1.729101687623E-14,
    159.38161190351));
#1621 = DIRECTION('',(0.809016994375,2.24754704125E-16,0.587785252292));
#1622 = DIRECTION('',(-0.587785252292,0.,0.809016994375));
#1623 = ADVANCED_FACE('',(#1624),#1630,.T.);
#1624 = FACE_BOUND('',#1625,.T.);
#1625 = EDGE_LOOP('',(#1626,#1627,#1628,#1629));
#1626 = ORIENTED_EDGE('',*,*,#1493,.F.);
#1627 = ORIENTED_EDGE('',*,*,#1585,.T.);
#1628 = ORIENTED_EDGE('',*,*,#1568,.T.);
#1629 = ORIENTED_EDGE('',*,*,#1544,.T.);
#1630 = PLANE('',#1631);
#1631 = AXIS2_PLACEMENT_3D('',#1632,#1633,#1634);
#1632 = CARTESIAN_POINT('',(-41.98276731493,-3.656221625151E-15,64.));
#1633 = DIRECTION('',(0.,0.,1.));
#1634 = DIRECTION('',(1.,0.,0.));
#1635 = ADVANCED_FACE('',(#1636,#1639),#1650,.F.);
#1636 = FACE_BOUND('',#1637,.F.);
#1637 = EDGE_LOOP('',(#1638));
#1638 = ORIENTED_EDGE('',*,*,#1525,.F.);
#1639 = FACE_BOUND('',#1640,.F.);
#1640 = EDGE_LOOP('',(#1641));
#1641 = ORIENTED_EDGE('',*,*,#1642,.F.);
#1642 = EDGE_CURVE('',#1643,#1643,#1645,.T.);
#1643 = VERTEX_POINT('',#1644);
#1644 = CARTESIAN_POINT('',(6.,1.909583602355E-14,86.));
#1645 = CIRCLE('',#1646,6.);
#1646 = AXIS2_PLACEMENT_3D('',#1647,#1648,#1649);
#1647 = CARTESIAN_POINT('',(1.532157493831E-13,1.909583602355E-14,86.));
#1648 = DIRECTION('',(1.781578481198E-15,2.22044604925E-16,1.));
#1649 = DIRECTION('',(1.,-3.955898900006E-31,-1.781578481198E-15));
#1650 = PLANE('',#1651);
#1651 = AXIS2_PLACEMENT_3D('',#1652,#1653,#1654);
#1652 = CARTESIAN_POINT('',(-7.544497282976E-16,-1.833973674015E-15,86.)
  );
#1653 = DIRECTION('',(0.,0.,1.));
#1654 = DIRECTION('',(1.,0.,0.));
#1655 = ADVANCED_FACE('',(#1656),#1675,.T.);
#1656 = FACE_BOUND('',#1657,.T.);
#1657 = EDGE_LOOP('',(#1658,#1659,#1667,#1674));
#1658 = ORIENTED_EDGE('',*,*,#1610,.T.);
#1659 = ORIENTED_EDGE('',*,*,#1660,.T.);
#1660 = EDGE_CURVE('',#1611,#1661,#1663,.T.);
#1661 = VERTEX_POINT('',#1662);
#1662 = CARTESIAN_POINT('',(71.47439177158,2.648963734681E-14,
    144.11765579162));
#1663 = LINE('',#1664,#1665);
#1664 = CARTESIAN_POINT('',(26.416040103235,2.473151618226E-14,
    111.38084706274));
#1665 = VECTOR('',#1666,1.);
#1666 = DIRECTION('',(0.809016994375,1.305145441261E-16,0.587785252293)
  );
#1667 = ORIENTED_EDGE('',*,*,#1668,.F.);
#1668 = EDGE_CURVE('',#1661,#1661,#1669,.T.);
#1669 = CIRCLE('',#1670,22.5);
#1670 = AXIS2_PLACEMENT_3D('',#1671,#1672,#1673);
#1671 = CARTESIAN_POINT('',(58.249223594996,3.604239976808E-14,
    162.32053816505));
#1672 = DIRECTION('',(0.809016994375,-9.153006079911E-17,0.587785252292)
  );
#1673 = DIRECTION('',(0.587785252292,-1.796378588937E-16,-0.809016994375
    ));
#1674 = ORIENTED_EDGE('',*,*,#1660,.F.);
#1675 = CYLINDRICAL_SURFACE('',#1676,22.5);
#1676 = AXIS2_PLACEMENT_3D('',#1677,#1678,#1679);
#1677 = CARTESIAN_POINT('',(13.190871926652,2.877336800737E-14,
    129.58372943617));
#1678 = DIRECTION('',(0.809016994375,1.305145441261E-16,0.587785252293)
  );
#1679 = DIRECTION('',(0.587785252293,-1.796378588936E-16,-0.809016994375
    ));
#1680 = ADVANCED_FACE('',(#1681),#1700,.F.);
#1681 = FACE_BOUND('',#1682,.F.);
#1682 = EDGE_LOOP('',(#1683,#1684,#1692,#1699));
#1683 = ORIENTED_EDGE('',*,*,#1642,.T.);
#1684 = ORIENTED_EDGE('',*,*,#1685,.T.);
#1685 = EDGE_CURVE('',#1643,#1686,#1688,.T.);
#1686 = VERTEX_POINT('',#1687);
#1687 = CARTESIAN_POINT('',(6.,2.302495652277E-14,103.69518561616));
#1688 = LINE('',#1689,#1690);
#1689 = CARTESIAN_POINT('',(6.,-2.373539340004E-30,-1.068947088719E-14)
  );
#1690 = VECTOR('',#1691,1.);
#1691 = DIRECTION('',(1.781578481198E-15,2.22044604925E-16,1.));
#1692 = ORIENTED_EDGE('',*,*,#1693,.F.);
#1693 = EDGE_CURVE('',#1686,#1686,#1694,.T.);
#1694 = CIRCLE('',#1695,6.);
#1695 = AXIS2_PLACEMENT_3D('',#1696,#1697,#1698);
#1696 = CARTESIAN_POINT('',(1.847411112976E-13,2.302495652277E-14,
    103.69518561616));
#1697 = DIRECTION('',(1.781578481198E-15,2.22044604925E-16,1.));
#1698 = DIRECTION('',(1.,-3.955898900006E-31,-1.781578481198E-15));
#1699 = ORIENTED_EDGE('',*,*,#1685,.F.);
#1700 = CYLINDRICAL_SURFACE('',#1701,6.);
#1701 = AXIS2_PLACEMENT_3D('',#1702,#1703,#1704);
#1702 = CARTESIAN_POINT('',(0.,0.,0.));
#1703 = DIRECTION('',(1.781578481198E-15,2.22044604925E-16,1.));
#1704 = DIRECTION('',(1.,-3.955898900006E-31,-1.781578481198E-15));
#1705 = ADVANCED_FACE('',(#1706,#1709),#1720,.T.);
#1706 = FACE_BOUND('',#1707,.T.);
#1707 = EDGE_LOOP('',(#1708));
#1708 = ORIENTED_EDGE('',*,*,#1668,.T.);
#1709 = FACE_BOUND('',#1710,.T.);
#1710 = EDGE_LOOP('',(#1711));
#1711 = ORIENTED_EDGE('',*,*,#1712,.F.);
#1712 = EDGE_CURVE('',#1713,#1713,#1715,.T.);
#1713 = VERTEX_POINT('',#1714);
#1714 = CARTESIAN_POINT('',(58.249223595054,17.5,162.32053816497));
#1715 = CIRCLE('',#1716,17.5);
#1716 = AXIS2_PLACEMENT_3D('',#1717,#1718,#1719);
#1717 = CARTESIAN_POINT('',(58.249223595054,4.153329998208E-15,
    162.32053816497));
#1718 = DIRECTION('',(0.809016994375,1.796378588937E-16,0.587785252292)
  );
#1719 = DIRECTION('',(-2.22044604925E-16,1.,0.));
#1720 = PLANE('',#1721);
#1721 = AXIS2_PLACEMENT_3D('',#1722,#1723,#1724);
#1722 = CARTESIAN_POINT('',(58.249223594996,3.650420133473E-14,
    162.32053816505));
#1723 = DIRECTION('',(0.809016994375,1.180344403661E-16,0.587785252292)
  );
#1724 = DIRECTION('',(-0.587785252292,0.,0.809016994375));
#1725 = ADVANCED_FACE('',(#1726),#1824,.F.);
#1726 = FACE_BOUND('',#1727,.F.);
#1727 = EDGE_LOOP('',(#1728,#1729,#1738,#1823));
#1728 = ORIENTED_EDGE('',*,*,#1693,.T.);
#1729 = ORIENTED_EDGE('',*,*,#1730,.T.);
#1730 = EDGE_CURVE('',#1686,#1731,#1733,.T.);
#1731 = VERTEX_POINT('',#1732);
#1732 = CARTESIAN_POINT('',(7.272530576331,-1.008843672084E-13,
    111.72962746992));
#1733 = CIRCLE('',#1734,26.);
#1734 = AXIS2_PLACEMENT_3D('',#1735,#1736,#1737);
#1735 = CARTESIAN_POINT('',(32.,-1.026683716756E-13,103.69518561616));
#1736 = DIRECTION('',(0.,1.,-2.22044604925E-16));
#1737 = DIRECTION('',(1.,0.,0.));
#1738 = ORIENTED_EDGE('',*,*,#1739,.F.);
#1739 = EDGE_CURVE('',#1731,#1731,#1740,.T.);
#1740 = B_SPLINE_CURVE_WITH_KNOTS('',6,(#1741,#1742,#1743,#1744,#1745,
    #1746,#1747,#1748,#1749,#1750,#1751,#1752,#1753,#1754,#1755,#1756,
    #1757,#1758,#1759,#1760,#1761,#1762,#1763,#1764,#1765,#1766,#1767,
    #1768,#1769,#1770,#1771,#1772,#1773,#1774,#1775,#1776,#1777,#1778,
    #1779,#1780,#1781,#1782,#1783,#1784,#1785,#1786,#1787,#1788,#1789,
    #1790,#1791,#1792,#1793,#1794,#1795,#1796,#1797,#1798,#1799,#1800,
    #1801,#1802,#1803,#1804,#1805,#1806,#1807,#1808,#1809,#1810,#1811,
    #1812,#1813,#1814,#1815,#1816,#1817,#1818,#1819,#1820,#1821,#1822),
  .UNSPECIFIED.,.T.,.F.,(7,5,5,5,5,5,5,5,5,5,5,5,5,5,5,5,7),(0.,
    6.21619992921E-02,0.125361958996,0.18856179955,0.250320635993,
    0.312070462585,0.375270261758,0.438470221443,0.500239865895,
    0.561985575286,0.625185369544,0.688385329117,0.750159063397,
    0.811900677878,0.875100467855,0.938300427318,1.),.UNSPECIFIED.);
#1741 = CARTESIAN_POINT('',(7.272530576331,-1.004818900265E-13,
    111.72962746992));
#1742 = CARTESIAN_POINT('',(7.272530580913,0.390569190036,
    111.72962746844));
#1743 = CARTESIAN_POINT('',(7.243514895281,0.781160428588,111.7390552362
    ));
#1744 = CARTESIAN_POINT('',(7.185477628473,1.168745941781,111.7579126873
    ));
#1745 = CARTESIAN_POINT('',(7.098804599256,1.550375618062,
    111.78607446162));
#1746 = CARTESIAN_POINT('',(6.98420720378,1.923166977989,111.82330941255
    ));
#1747 = CARTESIAN_POINT('',(6.6990061335,2.651508276187,111.91597685767)
  );
#1748 = CARTESIAN_POINT('',(6.527482188615,3.006709908655,
    111.97170836574));
#1749 = CARTESIAN_POINT('',(6.329362330728,3.346980564534,
    112.03608140978));
#1750 = CARTESIAN_POINT('',(6.106150542596,3.669619645683,
    112.10860731618));
#1751 = CARTESIAN_POINT('',(5.859644544113,3.972132956886,
    112.18870197032));
#1752 = CARTESIAN_POINT('',(5.324345912778,4.532424786163,
    112.36263103901));
#1753 = CARTESIAN_POINT('',(5.035520919487,4.790237343373,112.4564759681
    ));
#1754 = CARTESIAN_POINT('',(4.727661407233,5.023465721312,112.5565055873
    ));
#1755 = CARTESIAN_POINT('',(4.403147635519,5.230231060401,
    112.66194650343));
#1756 = CARTESIAN_POINT('',(4.064554825264,5.408964287963,
    112.77196197648));
#1757 = CARTESIAN_POINT('',(3.372803654193,5.704572804795,
    112.99672555686));
#1758 = CARTESIAN_POINT('',(3.020114198369,5.822782351038,
    113.11132130771));
#1759 = CARTESIAN_POINT('',(2.659235919964,5.911978249257,113.2285777683
    ));
#1760 = CARTESIAN_POINT('',(2.292859722273,5.971437072205,
    113.34762061116));
#1761 = CARTESIAN_POINT('',(1.923738224755,6.000769616232,
    113.46755545601));
#1762 = CARTESIAN_POINT('',(1.185705071304,5.999206152043,
    113.70735696404));
#1763 = CARTESIAN_POINT('',(0.816752816442,5.968318843876,
    113.82723681861));
#1764 = CARTESIAN_POINT('',(0.450660039452,5.907325921204,
    113.94618757251));
#1765 = CARTESIAN_POINT('',(9.017665074052E-02,5.816628009064,
    114.06331572566));
#1766 = CARTESIAN_POINT('',(-0.262010392073,5.696959509463,
    114.17774823263));
#1767 = CARTESIAN_POINT('',(-0.952589152243,5.398485297185,
    114.40213087361));
#1768 = CARTESIAN_POINT('',(-1.29050375107,5.218339214766,
    114.51192598241));
#1769 = CARTESIAN_POINT('',(-1.614233526364,5.010220090188,
    114.61711216266));
#1770 = CARTESIAN_POINT('',(-1.921209211023,4.775707737827,
    114.71685460887));
#1771 = CARTESIAN_POINT('',(-2.209057667763,4.516690941381,114.810382242
    ));
#1772 = CARTESIAN_POINT('',(-2.742235032713,3.954167762752,
    114.98362206946));
#1773 = CARTESIAN_POINT('',(-2.98759614464,3.650627177447,
    115.06334472741));
#1774 = CARTESIAN_POINT('',(-3.2095871918,3.327058281447,115.13547399102
    ));
#1775 = CARTESIAN_POINT('',(-3.406419891924,2.985962759409,
    115.19942881215));
#1776 = CARTESIAN_POINT('',(-3.576600477404,2.63004747033,
    115.25472383629));
#1777 = CARTESIAN_POINT('',(-3.858163517321,1.902803881413,
    115.34620921369));
#1778 = CARTESIAN_POINT('',(-3.970805481944,1.53196543718,
    115.38280880662));
#1779 = CARTESIAN_POINT('',(-4.055848694839,1.152497526562,
    115.41044102152));
#1780 = CARTESIAN_POINT('',(-4.112603295412,0.767230620052,
    115.4288817091));
#1781 = CARTESIAN_POINT('',(-4.14069746576,0.379060304071,115.4380100584
    ));
#1782 = CARTESIAN_POINT('',(-4.139585033973,-0.396996410773,
    115.4376486074));
#1783 = CARTESIAN_POINT('',(-4.110400569955,-0.784925526476,
    115.42816600021));
#1784 = CARTESIAN_POINT('',(-4.05258633679,-1.169863887843,
    115.40938101714));
#1785 = CARTESIAN_POINT('',(-3.966521852777,-1.548920439223,
    115.38141697113));
#1786 = CARTESIAN_POINT('',(-3.85290402961,-1.919270126997,
    115.34450030254));
#1787 = CARTESIAN_POINT('',(-3.569415929561,-2.645522749135,
    115.25238943519));
#1788 = CARTESIAN_POINT('',(-3.398267105788,-3.000923197376,
    115.19677981136));
#1789 = CARTESIAN_POINT('',(-3.200506779596,-3.341423764848,
    115.13252358625));
#1790 = CARTESIAN_POINT('',(-2.977636072736,-3.66432212254,
    115.06010850387));
#1791 = CARTESIAN_POINT('',(-2.731450058701,-3.967121999689,
    114.98011781898));
#1792 = CARTESIAN_POINT('',(-2.196743231308,-4.528037821287,
    114.80638103905));
#1793 = CARTESIAN_POINT('',(-1.908189902814,-4.786187641577,
    114.71262437921));
#1794 = CARTESIAN_POINT('',(-1.600576055423,-5.019775408699,
    114.61267458135));
#1795 = CARTESIAN_POINT('',(-1.276279978387,-5.226919477226,
    114.50730439851));
#1796 = CARTESIAN_POINT('',(-0.9378752504,-5.406047763238,
    114.39735003709));
#1797 = CARTESIAN_POINT('',(-0.246353156726,-5.702498253873,
    114.17266088848));
#1798 = CARTESIAN_POINT('',(0.10629909547,-5.821140832827,
    114.05807722582));
#1799 = CARTESIAN_POINT('',(0.467174092851,-5.910765055314,
    113.94082183129));
#1800 = CARTESIAN_POINT('',(0.83357972514,-5.970643932693,
    113.82176942455));
#1801 = CARTESIAN_POINT('',(1.202761771976,-6.000384936008,
    113.70181490604));
#1802 = CARTESIAN_POINT('',(1.940836008231,-5.999609281068,
    113.4620000494));
#1803 = CARTESIAN_POINT('',(2.309768820142,-5.969123903738,
    113.34212651222));
#1804 = CARTESIAN_POINT('',(2.675872356602,-5.90853788518,
    113.22317226236));
#1805 = CARTESIAN_POINT('',(3.036397411041,-5.818248699165,
    113.10603057119));
#1806 = CARTESIAN_POINT('',(3.388657367658,-5.698987497212,
    112.99157437309));
#1807 = CARTESIAN_POINT('',(4.079493122441,-5.40130770182,112.7671082295
    ));
#1808 = CARTESIAN_POINT('',(4.417590265473,-5.221540809075,
    112.65725380849));
#1809 = CARTESIAN_POINT('',(4.741530979965,-5.013784985974,
    112.55199908994));
#1810 = CARTESIAN_POINT('',(5.048744398382,-4.779617163162,
    112.45217939935));
#1811 = CARTESIAN_POINT('',(5.33685546933,-4.520923460303,112.3585664377
    ));
#1812 = CARTESIAN_POINT('',(5.870603280027,-3.958998767859,
    112.18514126118));
#1813 = CARTESIAN_POINT('',(6.116272252149,-3.655733604984,
    112.10531857338));
#1814 = CARTESIAN_POINT('',(6.338591495347,-3.33241392593,
    112.03308267242));
#1815 = CARTESIAN_POINT('',(6.535770189935,-2.991539407818,
    111.96901543087));
#1816 = CARTESIAN_POINT('',(6.706311822528,-2.635815232366,
    111.91360309541));
#1817 = CARTESIAN_POINT('',(6.98845434113,-1.909295513052,
    111.82192943397));
#1818 = CARTESIAN_POINT('',(7.10137434032,-1.539017173938,
    111.78523950214));
#1819 = CARTESIAN_POINT('',(7.186768166108,-1.160094914216,
    111.7574933662));
#1820 = CARTESIAN_POINT('',(7.243944989362,-0.775348690455,
    111.73891549016));
#1821 = CARTESIAN_POINT('',(7.272530580647,-0.387663724977,
    111.72962746852));
#1822 = CARTESIAN_POINT('',(7.272530576331,-9.692917634772E-14,
    111.72962746992));
#1823 = ORIENTED_EDGE('',*,*,#1730,.F.);
#1824 = TOROIDAL_SURFACE('',#1825,32.,6.);
#1825 = AXIS2_PLACEMENT_3D('',#1826,#1827,#1828);
#1826 = CARTESIAN_POINT('',(32.,2.302495652277E-14,103.69518561616));
#1827 = DIRECTION('',(0.,1.,-2.22044604925E-16));
#1828 = DIRECTION('',(1.,0.,0.));
#1829 = ADVANCED_FACE('',(#1830),#1849,.F.);
#1830 = FACE_BOUND('',#1831,.F.);
#1831 = EDGE_LOOP('',(#1832,#1840,#1841,#1842));
#1832 = ORIENTED_EDGE('',*,*,#1833,.F.);
#1833 = EDGE_CURVE('',#1713,#1834,#1836,.T.);
#1834 = VERTEX_POINT('',#1835);
#1835 = CARTESIAN_POINT('',(13.190871926682,17.5,129.58372943613));
#1836 = LINE('',#1837,#1838);
#1837 = CARTESIAN_POINT('',(58.249223595054,17.5,162.32053816497));
#1838 = VECTOR('',#1839,1.);
#1839 = DIRECTION('',(-0.809016994375,-1.665334536938E-16,
    -0.587785252292));
#1840 = ORIENTED_EDGE('',*,*,#1712,.F.);
#1841 = ORIENTED_EDGE('',*,*,#1833,.T.);
#1842 = ORIENTED_EDGE('',*,*,#1843,.T.);
#1843 = EDGE_CURVE('',#1834,#1834,#1844,.T.);
#1844 = CIRCLE('',#1845,17.5);
#1845 = AXIS2_PLACEMENT_3D('',#1846,#1847,#1848);
#1846 = CARTESIAN_POINT('',(13.190871926682,-5.851633896569E-15,
    129.58372943613));
#1847 = DIRECTION('',(0.809016994375,1.796378588937E-16,0.587785252292)
  );
#1848 = DIRECTION('',(-2.22044604925E-16,1.,0.));
#1849 = CYLINDRICAL_SURFACE('',#1850,17.5);
#1850 = AXIS2_PLACEMENT_3D('',#1851,#1852,#1853);
#1851 = CARTESIAN_POINT('',(58.249223595054,4.153329998208E-15,
    162.32053816497));
#1852 = DIRECTION('',(0.809016994375,1.796378588937E-16,0.587785252292)
  );
#1853 = DIRECTION('',(-2.22044604925E-16,1.,0.));
#1854 = ADVANCED_FACE('',(#1855,#1866),#1869,.T.);
#1855 = FACE_BOUND('',#1856,.T.);
#1856 = EDGE_LOOP('',(#1857));
#1857 = ORIENTED_EDGE('',*,*,#1858,.T.);
#1858 = EDGE_CURVE('',#1859,#1859,#1861,.T.);
#1859 = VERTEX_POINT('',#1860);
#1860 = CARTESIAN_POINT('',(1.56619147865,15.,113.58372943614));
#1861 = CIRCLE('',#1862,15.);
#1862 = AXIS2_PLACEMENT_3D('',#1863,#1864,#1865);
#1863 = CARTESIAN_POINT('',(1.56619147865,1.580032076883E-14,
    113.58372943614));
#1864 = DIRECTION('',(0.309016994375,1.459196963591E-16,0.951056516295)
  );
#1865 = DIRECTION('',(-6.525727206302E-17,1.,-1.322256754782E-16));
#1866 = FACE_BOUND('',#1867,.T.);
#1867 = EDGE_LOOP('',(#1868));
#1868 = ORIENTED_EDGE('',*,*,#1739,.F.);
#1869 = PLANE('',#1870);
#1870 = AXIS2_PLACEMENT_3D('',#1871,#1872,#1873);
#1871 = CARTESIAN_POINT('',(1.56619147865,1.431517071973E-14,
    113.58372943614));
#1872 = DIRECTION('',(0.309016994375,8.066242429608E-17,0.951056516295)
  );
#1873 = DIRECTION('',(-0.951056516295,-1.110223024625E-16,0.309016994375
    ));
#1874 = ADVANCED_FACE('',(#1875,#1878),#1889,.F.);
#1875 = FACE_BOUND('',#1876,.F.);
#1876 = EDGE_LOOP('',(#1877));
#1877 = ORIENTED_EDGE('',*,*,#1843,.F.);
#1878 = FACE_BOUND('',#1879,.F.);
#1879 = EDGE_LOOP('',(#1880));
#1880 = ORIENTED_EDGE('',*,*,#1881,.T.);
#1881 = EDGE_CURVE('',#1882,#1882,#1884,.T.);
#1882 = VERTEX_POINT('',#1883);
#1883 = CARTESIAN_POINT('',(13.19087192671,15.,129.58372943609));
#1884 = CIRCLE('',#1885,15.);
#1885 = AXIS2_PLACEMENT_3D('',#1886,#1887,#1888);
#1886 = CARTESIAN_POINT('',(13.19087192671,1.935303444762E-14,
    129.58372943609));
#1887 = DIRECTION('',(0.809016994375,6.525727206303E-17,0.587785252293)
  );
#1888 = DIRECTION('',(7.245012596861E-33,1.,-1.110223024625E-16));
#1889 = PLANE('',#1890);
#1890 = AXIS2_PLACEMENT_3D('',#1891,#1892,#1893);
#1891 = CARTESIAN_POINT('',(13.190871926652,2.877336800737E-14,
    129.58372943617));
#1892 = DIRECTION('',(-0.809016994375,-1.224475654783E-16,
    -0.587785252293));
#1893 = DIRECTION('',(1.110223024625E-16,-1.,5.551115123126E-17));
#1894 = ADVANCED_FACE('',(#1895),#1907,.F.);
#1895 = FACE_BOUND('',#1896,.F.);
#1896 = EDGE_LOOP('',(#1897,#1904,#1905,#1906));
#1897 = ORIENTED_EDGE('',*,*,#1898,.T.);
#1898 = EDGE_CURVE('',#1882,#1859,#1899,.T.);
#1899 = CIRCLE('',#1900,31.999999999905);
#1900 = AXIS2_PLACEMENT_3D('',#1901,#1902,#1903);
#1901 = CARTESIAN_POINT('',(32.,15.,103.69518561616));
#1902 = DIRECTION('',(0.,-1.,2.22044604925E-16));
#1903 = DIRECTION('',(-0.587785252292,1.796378588937E-16,0.809016994375)
  );
#1904 = ORIENTED_EDGE('',*,*,#1858,.T.);
#1905 = ORIENTED_EDGE('',*,*,#1898,.F.);
#1906 = ORIENTED_EDGE('',*,*,#1881,.F.);
#1907 = TOROIDAL_SURFACE('',#1908,31.999999999905,15.);
#1908 = AXIS2_PLACEMENT_3D('',#1909,#1910,#1911);
#1909 = CARTESIAN_POINT('',(32.,1.360462296304E-14,103.69518561616));
#1910 = DIRECTION('',(0.,-1.,2.22044604925E-16));
#1911 = DIRECTION('',(-0.587785252292,1.796378588937E-16,0.809016994375)
  );
#1912 = ( GEOMETRIC_REPRESENTATION_CONTEXT(3) 
GLOBAL_UNCERTAINTY_ASSIGNED_CONTEXT((#1916)) 
GLOBAL_UNIT_ASSIGNED_CONTEXT((#1913,#1914,#1915)) REPRESENTATION_CONTEXT
('Context #1','3D Context with UNIT and UNCERTAINTY') );
#1913 = ( LENGTH_UNIT() NAMED_UNIT(*) SI_UNIT(.MILLI.,.METRE.) );
#1914 = ( NAMED_UNIT(*) PLANE_ANGLE_UNIT() SI_UNIT($,.RADIAN.) );
#1915 = ( NAMED_UNIT(*) SI_UNIT($,.STERADIAN.) SOLID_ANGLE_UNIT() );
#1916 = UNCERTAINTY_MEASURE_WITH_UNIT(LENGTH_MEASURE(1.E-05),#1913,
  'distance_accuracy_value','confusion accuracy');
#1917 = PRODUCT_RELATED_PRODUCT_CATEGORY('part',$,(#7));
#1918 = MECHANICAL_DESIGN_GEOMETRIC_PRESENTATION_REPRESENTATION('',(
    #1919),#1912);
#1919 = STYLED_ITEM('color',(#1920),#15);
#1920 = PRESENTATION_STYLE_ASSIGNMENT((#1921,#1927));
#1921 = SURFACE_STYLE_USAGE(.BOTH.,#1922);
#1922 = SURFACE_SIDE_STYLE('',(#1923));
#1923 = SURFACE_STYLE_FILL_AREA(#1924);
#1924 = FILL_AREA_STYLE('',(#1925));
#1925 = FILL_AREA_STYLE_COLOUR('',#1926);
#1926 = COLOUR_RGB('',0.800000010877,0.800000010877,0.800000010877);
#1927 = CURVE_STYLE('',#1928,POSITIVE_LENGTH_MEASURE(0.1),#1929);
#1928 = DRAUGHTING_PRE_DEFINED_CURVE_FONT('continuous');
#1929 = COLOUR_RGB('',9.803921802644E-02,9.803921802644E-02,
  9.803921802644E-02);
ENDSEC;
END-ISO-10303-21;
