ISO-10303-21;
HEADER;
FILE_DESCRIPTION(('FreeCAD Model'),'2;1');
FILE_NAME('Open CASCADE Shape Model','2025-05-13T11:08:26',(''),(''),
  'Open CASCADE STEP processor 7.8','FreeCAD','Unknown');
FILE_SCHEMA(('AUTOMOTIVE_DESIGN { 1 0 10303 214 1 1 1 1 }'));
ENDSEC;
DATA;
#1 = APPLICATION_PROTOCOL_DEFINITION('international standard',
  'automotive_design',2000,#2);
#2 = APPLICATION_CONTEXT(
  'core data for automotive mechanical design processes');
#3 = SHAPE_DEFINITION_REPRESENTATION(#4,#10);
#4 = PRODUCT_DEFINITION_SHAPE('','',#5);
#5 = PRODUCT_DEFINITION('design','',#6,#9);
#6 = PRODUCT_DEFINITION_FORMATION('','',#7);
#7 = PRODUCT('Body','Body','',(#8));
#8 = PRODUCT_CONTEXT('',#2,'mechanical');
#9 = PRODUCT_DEFINITION_CONTEXT('part definition',#2,'design');
#10 = ADVANCED_BREP_SHAPE_REPRESENTATION('',(#11,#15),#2117);
#11 = AXIS2_PLACEMENT_3D('',#12,#13,#14);
#12 = CARTESIAN_POINT('',(0.,0.,0.));
#13 = DIRECTION('',(0.,0.,1.));
#14 = DIRECTION('',(1.,0.,-0.));
#15 = MANIFOLD_SOLID_BREP('',#16);
#16 = CLOSED_SHELL('',(#17,#371,#402,#427,#452,#476,#501,#526,#550,#574,
    #599,#624,#648,#673,#698,#722,#747,#772,#797,#814,#839,#871,#895,
    #920,#937,#969,#993,#1018,#1035,#1067,#1091,#1116,#1133,#1165,#1189,
    #1214,#1231,#1263,#1287,#1312,#1329,#1512,#1538,#1742,#1764,#1781,
    #1798,#1815,#1832,#1849,#1866,#1883,#1900,#1917,#1934,#1951,#1968,
    #1985,#2002,#2019,#2036,#2048,#2057,#2082,#2108));
#17 = ADVANCED_FACE('',(#18,#175,#186,#222,#258,#294,#330),#366,.F.);
#18 = FACE_BOUND('',#19,.F.);
#19 = EDGE_LOOP('',(#20,#30,#39,#47,#56,#64,#73,#82,#90,#99,#107,#116,
    #125,#134,#142,#151,#159,#168));
#20 = ORIENTED_EDGE('',*,*,#21,.T.);
#21 = EDGE_CURVE('',#22,#24,#26,.T.);
#22 = VERTEX_POINT('',#23);
#23 = CARTESIAN_POINT('',(36.000000000001,4.999999999999,0.));
#24 = VERTEX_POINT('',#25);
#25 = CARTESIAN_POINT('',(36.,47.,0.));
#26 = LINE('',#27,#28);
#27 = CARTESIAN_POINT('',(36.,-55.,0.));
#28 = VECTOR('',#29,1.);
#29 = DIRECTION('',(0.,1.,0.));
#30 = ORIENTED_EDGE('',*,*,#31,.T.);
#31 = EDGE_CURVE('',#24,#32,#34,.T.);
#32 = VERTEX_POINT('',#33);
#33 = CARTESIAN_POINT('',(28.,55.,0.));
#34 = CIRCLE('',#35,8.);
#35 = AXIS2_PLACEMENT_3D('',#36,#37,#38);
#36 = CARTESIAN_POINT('',(28.,47.,0.));
#37 = DIRECTION('',(-0.,0.,1.));
#38 = DIRECTION('',(0.,-1.,0.));
#39 = ORIENTED_EDGE('',*,*,#40,.T.);
#40 = EDGE_CURVE('',#32,#41,#43,.T.);
#41 = VERTEX_POINT('',#42);
#42 = CARTESIAN_POINT('',(-28.,55.,0.));
#43 = LINE('',#44,#45);
#44 = CARTESIAN_POINT('',(36.,55.,0.));
#45 = VECTOR('',#46,1.);
#46 = DIRECTION('',(-1.,0.,0.));
#47 = ORIENTED_EDGE('',*,*,#48,.T.);
#48 = EDGE_CURVE('',#41,#49,#51,.T.);
#49 = VERTEX_POINT('',#50);
#50 = CARTESIAN_POINT('',(-36.,47.,0.));
#51 = CIRCLE('',#52,8.);
#52 = AXIS2_PLACEMENT_3D('',#53,#54,#55);
#53 = CARTESIAN_POINT('',(-28.,47.,0.));
#54 = DIRECTION('',(-0.,0.,1.));
#55 = DIRECTION('',(0.,-1.,0.));
#56 = ORIENTED_EDGE('',*,*,#57,.T.);
#57 = EDGE_CURVE('',#49,#58,#60,.T.);
#58 = VERTEX_POINT('',#59);
#59 = CARTESIAN_POINT('',(-36.,4.999999999999,-7.993605777301E-15));
#60 = LINE('',#61,#62);
#61 = CARTESIAN_POINT('',(-36.,55.,0.));
#62 = VECTOR('',#63,1.);
#63 = DIRECTION('',(0.,-1.,0.));
#64 = ORIENTED_EDGE('',*,*,#65,.F.);
#65 = EDGE_CURVE('',#66,#58,#68,.T.);
#66 = VERTEX_POINT('',#67);
#67 = CARTESIAN_POINT('',(-30.62566406416,-13.92270331187,
    -6.800263477695E-15));
#68 = CIRCLE('',#69,36.);
#69 = AXIS2_PLACEMENT_3D('',#70,#71,#72);
#70 = CARTESIAN_POINT('',(2.778679605892E-16,5.,-6.156043491042E-32));
#71 = DIRECTION('',(2.22044604925E-16,-2.465190328816E-32,-1.));
#72 = DIRECTION('',(-1.,2.22044604925E-16,-2.22044604925E-16));
#73 = ORIENTED_EDGE('',*,*,#74,.T.);
#74 = EDGE_CURVE('',#66,#75,#77,.T.);
#75 = VERTEX_POINT('',#76);
#76 = CARTESIAN_POINT('',(-28.78225709428,-26.47389839435,
    -6.390944905352E-15));
#77 = CIRCLE('',#78,16.);
#78 = AXIS2_PLACEMENT_3D('',#79,#80,#81);
#79 = CARTESIAN_POINT('',(-44.23707031491,-22.33279367271,
    -9.822602801116E-15));
#80 = DIRECTION('',(2.22044604925E-16,-2.465190328816E-32,-1.));
#81 = DIRECTION('',(-1.,2.22044604925E-16,-2.22044604925E-16));
#82 = ORIENTED_EDGE('',*,*,#83,.T.);
#83 = EDGE_CURVE('',#75,#84,#86,.T.);
#84 = VERTEX_POINT('',#85);
#85 = CARTESIAN_POINT('',(-33.72740661031,-44.92944763917,
    -7.488988675933E-15));
#86 = LINE('',#87,#88);
#87 = CARTESIAN_POINT('',(-28.78225709428,-26.47389839435,
    -6.390944905352E-15));
#88 = VECTOR('',#89,1.);
#89 = DIRECTION('',(-0.258819045103,-0.965925826289,-5.74693726169E-17)
  );
#90 = ORIENTED_EDGE('',*,*,#91,.F.);
#91 = EDGE_CURVE('',#92,#84,#94,.T.);
#92 = VERTEX_POINT('',#93);
#93 = CARTESIAN_POINT('',(-26.,-54.99999999999,-5.773159728051E-15));
#94 = CIRCLE('',#95,8.);
#95 = AXIS2_PLACEMENT_3D('',#96,#97,#98);
#96 = CARTESIAN_POINT('',(-26.,-46.99999999999,-5.773159728051E-15));
#97 = DIRECTION('',(2.22044604925E-16,-2.465190328816E-32,-1.));
#98 = DIRECTION('',(-1.,2.22044604925E-16,-2.22044604925E-16));
#99 = ORIENTED_EDGE('',*,*,#100,.T.);
#100 = EDGE_CURVE('',#92,#101,#103,.T.);
#101 = VERTEX_POINT('',#102);
#102 = CARTESIAN_POINT('',(-10.56832327483,-54.99999999999,0.));
#103 = LINE('',#104,#105);
#104 = CARTESIAN_POINT('',(-36.,-55.,0.));
#105 = VECTOR('',#106,1.);
#106 = DIRECTION('',(1.,0.,0.));
#107 = ORIENTED_EDGE('',*,*,#108,.T.);
#108 = EDGE_CURVE('',#101,#109,#111,.T.);
#109 = VERTEX_POINT('',#110);
#110 = CARTESIAN_POINT('',(-6.109515314812,-43.60861730001,0.));
#111 = CIRCLE('',#112,6.568323274845);
#112 = AXIS2_PLACEMENT_3D('',#113,#114,#115);
#113 = CARTESIAN_POINT('',(-10.56832327484,-48.43167672515,0.));
#114 = DIRECTION('',(0.,0.,1.));
#115 = DIRECTION('',(1.,0.,0.));
#116 = ORIENTED_EDGE('',*,*,#117,.F.);
#117 = EDGE_CURVE('',#118,#109,#120,.T.);
#118 = VERTEX_POINT('',#119);
#119 = CARTESIAN_POINT('',(6.109515314812,-43.60861730001,0.));
#120 = CIRCLE('',#121,9.);
#121 = AXIS2_PLACEMENT_3D('',#122,#123,#124);
#122 = CARTESIAN_POINT('',(3.222203591928E-31,-37.,0.));
#123 = DIRECTION('',(0.,0.,1.));
#124 = DIRECTION('',(1.,0.,0.));
#125 = ORIENTED_EDGE('',*,*,#126,.T.);
#126 = EDGE_CURVE('',#118,#127,#129,.T.);
#127 = VERTEX_POINT('',#128);
#128 = CARTESIAN_POINT('',(10.568323198668,-54.99999999999,0.));
#129 = CIRCLE('',#130,6.568323274845);
#130 = AXIS2_PLACEMENT_3D('',#131,#132,#133);
#131 = CARTESIAN_POINT('',(10.568323274845,-48.43167672515,0.));
#132 = DIRECTION('',(0.,0.,1.));
#133 = DIRECTION('',(1.,0.,0.));
#134 = ORIENTED_EDGE('',*,*,#135,.T.);
#135 = EDGE_CURVE('',#127,#136,#138,.T.);
#136 = VERTEX_POINT('',#137);
#137 = CARTESIAN_POINT('',(26.000000000002,-54.99999999999,0.));
#138 = LINE('',#139,#140);
#139 = CARTESIAN_POINT('',(-36.,-55.,0.));
#140 = VECTOR('',#141,1.);
#141 = DIRECTION('',(1.,0.,0.));
#142 = ORIENTED_EDGE('',*,*,#143,.T.);
#143 = EDGE_CURVE('',#136,#144,#146,.T.);
#144 = VERTEX_POINT('',#145);
#145 = CARTESIAN_POINT('',(33.727406610313,-44.92944763917,0.));
#146 = CIRCLE('',#147,8.);
#147 = AXIS2_PLACEMENT_3D('',#148,#149,#150);
#148 = CARTESIAN_POINT('',(26.,-46.99999999999,0.));
#149 = DIRECTION('',(0.,0.,1.));
#150 = DIRECTION('',(1.,0.,0.));
#151 = ORIENTED_EDGE('',*,*,#152,.F.);
#152 = EDGE_CURVE('',#153,#144,#155,.T.);
#153 = VERTEX_POINT('',#154);
#154 = CARTESIAN_POINT('',(28.782257094288,-26.47389839435,0.));
#155 = LINE('',#156,#157);
#156 = CARTESIAN_POINT('',(28.782257094288,-26.47389839435,0.));
#157 = VECTOR('',#158,1.);
#158 = DIRECTION('',(0.258819045103,-0.965925826289,0.));
#159 = ORIENTED_EDGE('',*,*,#160,.F.);
#160 = EDGE_CURVE('',#161,#153,#163,.T.);
#161 = VERTEX_POINT('',#162);
#162 = CARTESIAN_POINT('',(30.625664064168,-13.92270331187,0.));
#163 = CIRCLE('',#164,16.);
#164 = AXIS2_PLACEMENT_3D('',#165,#166,#167);
#165 = CARTESIAN_POINT('',(44.237070314913,-22.33279367271,0.));
#166 = DIRECTION('',(0.,0.,1.));
#167 = DIRECTION('',(1.,0.,0.));
#168 = ORIENTED_EDGE('',*,*,#169,.T.);
#169 = EDGE_CURVE('',#161,#22,#170,.T.);
#170 = CIRCLE('',#171,36.);
#171 = AXIS2_PLACEMENT_3D('',#172,#173,#174);
#172 = CARTESIAN_POINT('',(8.323550640359E-16,5.,0.));
#173 = DIRECTION('',(0.,0.,1.));
#174 = DIRECTION('',(1.,0.,0.));
#175 = FACE_BOUND('',#176,.F.);
#176 = EDGE_LOOP('',(#177));
#177 = ORIENTED_EDGE('',*,*,#178,.F.);
#178 = EDGE_CURVE('',#179,#179,#181,.T.);
#179 = VERTEX_POINT('',#180);
#180 = CARTESIAN_POINT('',(12.5,-5.,0.));
#181 = CIRCLE('',#182,12.5);
#182 = AXIS2_PLACEMENT_3D('',#183,#184,#185);
#183 = CARTESIAN_POINT('',(0.,-5.,0.));
#184 = DIRECTION('',(0.,0.,1.));
#185 = DIRECTION('',(1.,0.,0.));
#186 = FACE_BOUND('',#187,.F.);
#187 = EDGE_LOOP('',(#188,#199,#207,#216));
#188 = ORIENTED_EDGE('',*,*,#189,.F.);
#189 = EDGE_CURVE('',#190,#192,#194,.T.);
#190 = VERTEX_POINT('',#191);
#191 = CARTESIAN_POINT('',(-30.,16.065996645686,0.));
#192 = VERTEX_POINT('',#193);
#193 = CARTESIAN_POINT('',(-26.,16.065996645686,0.));
#194 = CIRCLE('',#195,2.);
#195 = AXIS2_PLACEMENT_3D('',#196,#197,#198);
#196 = CARTESIAN_POINT('',(-28.,16.065996645686,0.));
#197 = DIRECTION('',(0.,0.,1.));
#198 = DIRECTION('',(1.,0.,0.));
#199 = ORIENTED_EDGE('',*,*,#200,.T.);
#200 = EDGE_CURVE('',#190,#201,#203,.T.);
#201 = VERTEX_POINT('',#202);
#202 = CARTESIAN_POINT('',(-30.,45.,0.));
#203 = LINE('',#204,#205);
#204 = CARTESIAN_POINT('',(-30.,16.065996645686,0.));
#205 = VECTOR('',#206,1.);
#206 = DIRECTION('',(0.,1.,0.));
#207 = ORIENTED_EDGE('',*,*,#208,.F.);
#208 = EDGE_CURVE('',#209,#201,#211,.T.);
#209 = VERTEX_POINT('',#210);
#210 = CARTESIAN_POINT('',(-26.,45.,0.));
#211 = CIRCLE('',#212,2.);
#212 = AXIS2_PLACEMENT_3D('',#213,#214,#215);
#213 = CARTESIAN_POINT('',(-28.,45.,0.));
#214 = DIRECTION('',(0.,0.,1.));
#215 = DIRECTION('',(1.,0.,0.));
#216 = ORIENTED_EDGE('',*,*,#217,.F.);
#217 = EDGE_CURVE('',#192,#209,#218,.T.);
#218 = LINE('',#219,#220);
#219 = CARTESIAN_POINT('',(-26.,16.065996645686,0.));
#220 = VECTOR('',#221,1.);
#221 = DIRECTION('',(0.,1.,0.));
#222 = FACE_BOUND('',#223,.F.);
#223 = EDGE_LOOP('',(#224,#235,#243,#252));
#224 = ORIENTED_EDGE('',*,*,#225,.F.);
#225 = EDGE_CURVE('',#226,#228,#230,.T.);
#226 = VERTEX_POINT('',#227);
#227 = CARTESIAN_POINT('',(-16.,21.343808583259,0.));
#228 = VERTEX_POINT('',#229);
#229 = CARTESIAN_POINT('',(-12.,21.343808583259,0.));
#230 = CIRCLE('',#231,2.);
#231 = AXIS2_PLACEMENT_3D('',#232,#233,#234);
#232 = CARTESIAN_POINT('',(-14.,21.343808583259,0.));
#233 = DIRECTION('',(0.,0.,1.));
#234 = DIRECTION('',(1.,0.,0.));
#235 = ORIENTED_EDGE('',*,*,#236,.T.);
#236 = EDGE_CURVE('',#226,#237,#239,.T.);
#237 = VERTEX_POINT('',#238);
#238 = CARTESIAN_POINT('',(-16.,45.,0.));
#239 = LINE('',#240,#241);
#240 = CARTESIAN_POINT('',(-16.,21.343808583259,0.));
#241 = VECTOR('',#242,1.);
#242 = DIRECTION('',(0.,1.,0.));
#243 = ORIENTED_EDGE('',*,*,#244,.F.);
#244 = EDGE_CURVE('',#245,#237,#247,.T.);
#245 = VERTEX_POINT('',#246);
#246 = CARTESIAN_POINT('',(-12.,45.,0.));
#247 = CIRCLE('',#248,2.);
#248 = AXIS2_PLACEMENT_3D('',#249,#250,#251);
#249 = CARTESIAN_POINT('',(-14.,45.,0.));
#250 = DIRECTION('',(0.,0.,1.));
#251 = DIRECTION('',(1.,0.,0.));
#252 = ORIENTED_EDGE('',*,*,#253,.F.);
#253 = EDGE_CURVE('',#228,#245,#254,.T.);
#254 = LINE('',#255,#256);
#255 = CARTESIAN_POINT('',(-12.,21.343808583259,0.));
#256 = VECTOR('',#257,1.);
#257 = DIRECTION('',(0.,1.,0.));
#258 = FACE_BOUND('',#259,.F.);
#259 = EDGE_LOOP('',(#260,#271,#279,#288));
#260 = ORIENTED_EDGE('',*,*,#261,.F.);
#261 = EDGE_CURVE('',#262,#264,#266,.T.);
#262 = VERTEX_POINT('',#263);
#263 = CARTESIAN_POINT('',(26.,16.065996645686,0.));
#264 = VERTEX_POINT('',#265);
#265 = CARTESIAN_POINT('',(30.,16.065996645686,0.));
#266 = CIRCLE('',#267,2.);
#267 = AXIS2_PLACEMENT_3D('',#268,#269,#270);
#268 = CARTESIAN_POINT('',(28.,16.065996645686,0.));
#269 = DIRECTION('',(0.,0.,1.));
#270 = DIRECTION('',(1.,0.,0.));
#271 = ORIENTED_EDGE('',*,*,#272,.T.);
#272 = EDGE_CURVE('',#262,#273,#275,.T.);
#273 = VERTEX_POINT('',#274);
#274 = CARTESIAN_POINT('',(26.,45.,0.));
#275 = LINE('',#276,#277);
#276 = CARTESIAN_POINT('',(26.,16.065996645686,0.));
#277 = VECTOR('',#278,1.);
#278 = DIRECTION('',(0.,1.,0.));
#279 = ORIENTED_EDGE('',*,*,#280,.F.);
#280 = EDGE_CURVE('',#281,#273,#283,.T.);
#281 = VERTEX_POINT('',#282);
#282 = CARTESIAN_POINT('',(30.,45.,0.));
#283 = CIRCLE('',#284,2.);
#284 = AXIS2_PLACEMENT_3D('',#285,#286,#287);
#285 = CARTESIAN_POINT('',(28.,45.,0.));
#286 = DIRECTION('',(0.,0.,1.));
#287 = DIRECTION('',(1.,0.,0.));
#288 = ORIENTED_EDGE('',*,*,#289,.F.);
#289 = EDGE_CURVE('',#264,#281,#290,.T.);
#290 = LINE('',#291,#292);
#291 = CARTESIAN_POINT('',(30.,16.065996645686,0.));
#292 = VECTOR('',#293,1.);
#293 = DIRECTION('',(0.,1.,0.));
#294 = FACE_BOUND('',#295,.F.);
#295 = EDGE_LOOP('',(#296,#307,#315,#324));
#296 = ORIENTED_EDGE('',*,*,#297,.F.);
#297 = EDGE_CURVE('',#298,#300,#302,.T.);
#298 = VERTEX_POINT('',#299);
#299 = CARTESIAN_POINT('',(-2.,23.,0.));
#300 = VERTEX_POINT('',#301);
#301 = CARTESIAN_POINT('',(2.,23.,0.));
#302 = CIRCLE('',#303,2.);
#303 = AXIS2_PLACEMENT_3D('',#304,#305,#306);
#304 = CARTESIAN_POINT('',(3.053906201678E-17,23.,0.));
#305 = DIRECTION('',(0.,0.,1.));
#306 = DIRECTION('',(1.,0.,0.));
#307 = ORIENTED_EDGE('',*,*,#308,.T.);
#308 = EDGE_CURVE('',#298,#309,#311,.T.);
#309 = VERTEX_POINT('',#310);
#310 = CARTESIAN_POINT('',(-2.,45.,0.));
#311 = LINE('',#312,#313);
#312 = CARTESIAN_POINT('',(-2.,23.,0.));
#313 = VECTOR('',#314,1.);
#314 = DIRECTION('',(0.,1.,0.));
#315 = ORIENTED_EDGE('',*,*,#316,.F.);
#316 = EDGE_CURVE('',#317,#309,#319,.T.);
#317 = VERTEX_POINT('',#318);
#318 = CARTESIAN_POINT('',(2.,45.,0.));
#319 = CIRCLE('',#320,2.);
#320 = AXIS2_PLACEMENT_3D('',#321,#322,#323);
#321 = CARTESIAN_POINT('',(0.,45.,0.));
#322 = DIRECTION('',(0.,0.,1.));
#323 = DIRECTION('',(1.,0.,0.));
#324 = ORIENTED_EDGE('',*,*,#325,.F.);
#325 = EDGE_CURVE('',#300,#317,#326,.T.);
#326 = LINE('',#327,#328);
#327 = CARTESIAN_POINT('',(2.,23.,0.));
#328 = VECTOR('',#329,1.);
#329 = DIRECTION('',(0.,1.,0.));
#330 = FACE_BOUND('',#331,.F.);
#331 = EDGE_LOOP('',(#332,#343,#351,#360));
#332 = ORIENTED_EDGE('',*,*,#333,.F.);
#333 = EDGE_CURVE('',#334,#336,#338,.T.);
#334 = VERTEX_POINT('',#335);
#335 = CARTESIAN_POINT('',(12.,21.343808583259,0.));
#336 = VERTEX_POINT('',#337);
#337 = CARTESIAN_POINT('',(16.,21.343808583259,0.));
#338 = CIRCLE('',#339,2.);
#339 = AXIS2_PLACEMENT_3D('',#340,#341,#342);
#340 = CARTESIAN_POINT('',(14.,21.343808583259,0.));
#341 = DIRECTION('',(0.,0.,1.));
#342 = DIRECTION('',(1.,0.,0.));
#343 = ORIENTED_EDGE('',*,*,#344,.T.);
#344 = EDGE_CURVE('',#334,#345,#347,.T.);
#345 = VERTEX_POINT('',#346);
#346 = CARTESIAN_POINT('',(12.,45.,0.));
#347 = LINE('',#348,#349);
#348 = CARTESIAN_POINT('',(12.,21.343808583259,0.));
#349 = VECTOR('',#350,1.);
#350 = DIRECTION('',(0.,1.,0.));
#351 = ORIENTED_EDGE('',*,*,#352,.F.);
#352 = EDGE_CURVE('',#353,#345,#355,.T.);
#353 = VERTEX_POINT('',#354);
#354 = CARTESIAN_POINT('',(16.,45.,0.));
#355 = CIRCLE('',#356,2.);
#356 = AXIS2_PLACEMENT_3D('',#357,#358,#359);
#357 = CARTESIAN_POINT('',(14.,45.,0.));
#358 = DIRECTION('',(0.,0.,1.));
#359 = DIRECTION('',(1.,0.,0.));
#360 = ORIENTED_EDGE('',*,*,#361,.F.);
#361 = EDGE_CURVE('',#336,#353,#362,.T.);
#362 = LINE('',#363,#364);
#363 = CARTESIAN_POINT('',(16.,21.343808583259,0.));
#364 = VECTOR('',#365,1.);
#365 = DIRECTION('',(0.,1.,0.));
#366 = PLANE('',#367);
#367 = AXIS2_PLACEMENT_3D('',#368,#369,#370);
#368 = CARTESIAN_POINT('',(0.,0.,0.));
#369 = DIRECTION('',(0.,0.,1.));
#370 = DIRECTION('',(1.,0.,0.));
#371 = ADVANCED_FACE('',(#372),#397,.F.);
#372 = FACE_BOUND('',#373,.F.);
#373 = EDGE_LOOP('',(#374,#375,#383,#391));
#374 = ORIENTED_EDGE('',*,*,#21,.F.);
#375 = ORIENTED_EDGE('',*,*,#376,.T.);
#376 = EDGE_CURVE('',#22,#377,#379,.T.);
#377 = VERTEX_POINT('',#378);
#378 = CARTESIAN_POINT('',(36.,4.999999999999,15.));
#379 = LINE('',#380,#381);
#380 = CARTESIAN_POINT('',(36.000000000001,4.999999999999,0.));
#381 = VECTOR('',#382,1.);
#382 = DIRECTION('',(0.,0.,1.));
#383 = ORIENTED_EDGE('',*,*,#384,.T.);
#384 = EDGE_CURVE('',#377,#385,#387,.T.);
#385 = VERTEX_POINT('',#386);
#386 = CARTESIAN_POINT('',(36.,47.,15.));
#387 = LINE('',#388,#389);
#388 = CARTESIAN_POINT('',(36.,-55.,15.));
#389 = VECTOR('',#390,1.);
#390 = DIRECTION('',(0.,1.,0.));
#391 = ORIENTED_EDGE('',*,*,#392,.F.);
#392 = EDGE_CURVE('',#24,#385,#393,.T.);
#393 = LINE('',#394,#395);
#394 = CARTESIAN_POINT('',(36.,47.,0.));
#395 = VECTOR('',#396,1.);
#396 = DIRECTION('',(0.,0.,1.));
#397 = PLANE('',#398);
#398 = AXIS2_PLACEMENT_3D('',#399,#400,#401);
#399 = CARTESIAN_POINT('',(36.,-55.,0.));
#400 = DIRECTION('',(-1.,0.,0.));
#401 = DIRECTION('',(0.,1.,0.));
#402 = ADVANCED_FACE('',(#403),#422,.T.);
#403 = FACE_BOUND('',#404,.T.);
#404 = EDGE_LOOP('',(#405,#406,#414,#421));
#405 = ORIENTED_EDGE('',*,*,#31,.T.);
#406 = ORIENTED_EDGE('',*,*,#407,.T.);
#407 = EDGE_CURVE('',#32,#408,#410,.T.);
#408 = VERTEX_POINT('',#409);
#409 = CARTESIAN_POINT('',(28.,55.,15.));
#410 = LINE('',#411,#412);
#411 = CARTESIAN_POINT('',(28.,55.,0.));
#412 = VECTOR('',#413,1.);
#413 = DIRECTION('',(0.,0.,1.));
#414 = ORIENTED_EDGE('',*,*,#415,.F.);
#415 = EDGE_CURVE('',#385,#408,#416,.T.);
#416 = CIRCLE('',#417,8.);
#417 = AXIS2_PLACEMENT_3D('',#418,#419,#420);
#418 = CARTESIAN_POINT('',(28.,47.,15.));
#419 = DIRECTION('',(-0.,0.,1.));
#420 = DIRECTION('',(0.,-1.,0.));
#421 = ORIENTED_EDGE('',*,*,#392,.F.);
#422 = CYLINDRICAL_SURFACE('',#423,8.);
#423 = AXIS2_PLACEMENT_3D('',#424,#425,#426);
#424 = CARTESIAN_POINT('',(28.,47.,0.));
#425 = DIRECTION('',(0.,0.,1.));
#426 = DIRECTION('',(1.,0.,0.));
#427 = ADVANCED_FACE('',(#428),#447,.T.);
#428 = FACE_BOUND('',#429,.F.);
#429 = EDGE_LOOP('',(#430,#431,#439,#446));
#430 = ORIENTED_EDGE('',*,*,#169,.F.);
#431 = ORIENTED_EDGE('',*,*,#432,.T.);
#432 = EDGE_CURVE('',#161,#433,#435,.T.);
#433 = VERTEX_POINT('',#434);
#434 = CARTESIAN_POINT('',(30.625664064168,-13.92270331187,15.));
#435 = LINE('',#436,#437);
#436 = CARTESIAN_POINT('',(30.625664064168,-13.92270331187,0.));
#437 = VECTOR('',#438,1.);
#438 = DIRECTION('',(0.,0.,1.));
#439 = ORIENTED_EDGE('',*,*,#440,.F.);
#440 = EDGE_CURVE('',#377,#433,#441,.T.);
#441 = CIRCLE('',#442,36.);
#442 = AXIS2_PLACEMENT_3D('',#443,#444,#445);
#443 = CARTESIAN_POINT('',(8.323550640359E-16,5.,15.));
#444 = DIRECTION('',(0.,0.,-1.));
#445 = DIRECTION('',(1.,0.,0.));
#446 = ORIENTED_EDGE('',*,*,#376,.F.);
#447 = CYLINDRICAL_SURFACE('',#448,36.);
#448 = AXIS2_PLACEMENT_3D('',#449,#450,#451);
#449 = CARTESIAN_POINT('',(8.323550640359E-16,5.,0.));
#450 = DIRECTION('',(-0.,-0.,-1.));
#451 = DIRECTION('',(1.,0.,0.));
#452 = ADVANCED_FACE('',(#453),#471,.F.);
#453 = FACE_BOUND('',#454,.F.);
#454 = EDGE_LOOP('',(#455,#456,#457,#465));
#455 = ORIENTED_EDGE('',*,*,#40,.F.);
#456 = ORIENTED_EDGE('',*,*,#407,.T.);
#457 = ORIENTED_EDGE('',*,*,#458,.T.);
#458 = EDGE_CURVE('',#408,#459,#461,.T.);
#459 = VERTEX_POINT('',#460);
#460 = CARTESIAN_POINT('',(-28.,55.,15.));
#461 = LINE('',#462,#463);
#462 = CARTESIAN_POINT('',(36.,55.,15.));
#463 = VECTOR('',#464,1.);
#464 = DIRECTION('',(-1.,0.,0.));
#465 = ORIENTED_EDGE('',*,*,#466,.F.);
#466 = EDGE_CURVE('',#41,#459,#467,.T.);
#467 = LINE('',#468,#469);
#468 = CARTESIAN_POINT('',(-28.,55.,0.));
#469 = VECTOR('',#470,1.);
#470 = DIRECTION('',(0.,0.,1.));
#471 = PLANE('',#472);
#472 = AXIS2_PLACEMENT_3D('',#473,#474,#475);
#473 = CARTESIAN_POINT('',(36.,55.,0.));
#474 = DIRECTION('',(0.,-1.,0.));
#475 = DIRECTION('',(-1.,0.,0.));
#476 = ADVANCED_FACE('',(#477),#496,.F.);
#477 = FACE_BOUND('',#478,.T.);
#478 = EDGE_LOOP('',(#479,#480,#481,#490));
#479 = ORIENTED_EDGE('',*,*,#160,.F.);
#480 = ORIENTED_EDGE('',*,*,#432,.T.);
#481 = ORIENTED_EDGE('',*,*,#482,.F.);
#482 = EDGE_CURVE('',#483,#433,#485,.T.);
#483 = VERTEX_POINT('',#484);
#484 = CARTESIAN_POINT('',(28.782257094288,-26.47389839435,15.));
#485 = CIRCLE('',#486,16.);
#486 = AXIS2_PLACEMENT_3D('',#487,#488,#489);
#487 = CARTESIAN_POINT('',(44.237070314913,-22.33279367271,15.));
#488 = DIRECTION('',(0.,0.,-1.));
#489 = DIRECTION('',(1.,0.,0.));
#490 = ORIENTED_EDGE('',*,*,#491,.F.);
#491 = EDGE_CURVE('',#153,#483,#492,.T.);
#492 = LINE('',#493,#494);
#493 = CARTESIAN_POINT('',(28.782257094288,-26.47389839435,0.));
#494 = VECTOR('',#495,1.);
#495 = DIRECTION('',(0.,0.,1.));
#496 = CYLINDRICAL_SURFACE('',#497,16.);
#497 = AXIS2_PLACEMENT_3D('',#498,#499,#500);
#498 = CARTESIAN_POINT('',(44.237070314913,-22.33279367271,0.));
#499 = DIRECTION('',(-0.,-0.,-1.));
#500 = DIRECTION('',(1.,0.,0.));
#501 = ADVANCED_FACE('',(#502),#521,.T.);
#502 = FACE_BOUND('',#503,.T.);
#503 = EDGE_LOOP('',(#504,#505,#513,#520));
#504 = ORIENTED_EDGE('',*,*,#48,.T.);
#505 = ORIENTED_EDGE('',*,*,#506,.T.);
#506 = EDGE_CURVE('',#49,#507,#509,.T.);
#507 = VERTEX_POINT('',#508);
#508 = CARTESIAN_POINT('',(-36.,47.,15.));
#509 = LINE('',#510,#511);
#510 = CARTESIAN_POINT('',(-36.,47.,0.));
#511 = VECTOR('',#512,1.);
#512 = DIRECTION('',(0.,0.,1.));
#513 = ORIENTED_EDGE('',*,*,#514,.F.);
#514 = EDGE_CURVE('',#459,#507,#515,.T.);
#515 = CIRCLE('',#516,8.);
#516 = AXIS2_PLACEMENT_3D('',#517,#518,#519);
#517 = CARTESIAN_POINT('',(-28.,47.,15.));
#518 = DIRECTION('',(-0.,0.,1.));
#519 = DIRECTION('',(0.,-1.,0.));
#520 = ORIENTED_EDGE('',*,*,#466,.F.);
#521 = CYLINDRICAL_SURFACE('',#522,8.);
#522 = AXIS2_PLACEMENT_3D('',#523,#524,#525);
#523 = CARTESIAN_POINT('',(-28.,47.,0.));
#524 = DIRECTION('',(0.,0.,1.));
#525 = DIRECTION('',(0.,1.,0.));
#526 = ADVANCED_FACE('',(#527),#545,.T.);
#527 = FACE_BOUND('',#528,.T.);
#528 = EDGE_LOOP('',(#529,#530,#531,#539));
#529 = ORIENTED_EDGE('',*,*,#152,.F.);
#530 = ORIENTED_EDGE('',*,*,#491,.T.);
#531 = ORIENTED_EDGE('',*,*,#532,.F.);
#532 = EDGE_CURVE('',#533,#483,#535,.T.);
#533 = VERTEX_POINT('',#534);
#534 = CARTESIAN_POINT('',(33.727406610313,-44.92944763917,15.));
#535 = LINE('',#536,#537);
#536 = CARTESIAN_POINT('',(24.508996976896,-10.52587452229,15.));
#537 = VECTOR('',#538,1.);
#538 = DIRECTION('',(-0.258819045103,0.965925826289,0.));
#539 = ORIENTED_EDGE('',*,*,#540,.F.);
#540 = EDGE_CURVE('',#144,#533,#541,.T.);
#541 = LINE('',#542,#543);
#542 = CARTESIAN_POINT('',(33.727406610313,-44.92944763917,0.));
#543 = VECTOR('',#544,1.);
#544 = DIRECTION('',(0.,0.,1.));
#545 = PLANE('',#546);
#546 = AXIS2_PLACEMENT_3D('',#547,#548,#549);
#547 = CARTESIAN_POINT('',(28.782257094288,-26.47389839435,0.));
#548 = DIRECTION('',(0.965925826289,0.258819045103,0.));
#549 = DIRECTION('',(0.258819045103,-0.965925826289,0.));
#550 = ADVANCED_FACE('',(#551),#569,.F.);
#551 = FACE_BOUND('',#552,.F.);
#552 = EDGE_LOOP('',(#553,#554,#555,#563));
#553 = ORIENTED_EDGE('',*,*,#57,.F.);
#554 = ORIENTED_EDGE('',*,*,#506,.T.);
#555 = ORIENTED_EDGE('',*,*,#556,.T.);
#556 = EDGE_CURVE('',#507,#557,#559,.T.);
#557 = VERTEX_POINT('',#558);
#558 = CARTESIAN_POINT('',(-36.,4.999999999999,15.));
#559 = LINE('',#560,#561);
#560 = CARTESIAN_POINT('',(-36.,55.,15.));
#561 = VECTOR('',#562,1.);
#562 = DIRECTION('',(0.,-1.,0.));
#563 = ORIENTED_EDGE('',*,*,#564,.F.);
#564 = EDGE_CURVE('',#58,#557,#565,.T.);
#565 = LINE('',#566,#567);
#566 = CARTESIAN_POINT('',(-36.,4.999999999999,-7.993605777301E-15));
#567 = VECTOR('',#568,1.);
#568 = DIRECTION('',(-2.22044604925E-16,2.465190328816E-32,1.));
#569 = PLANE('',#570);
#570 = AXIS2_PLACEMENT_3D('',#571,#572,#573);
#571 = CARTESIAN_POINT('',(-36.,55.,0.));
#572 = DIRECTION('',(1.,0.,0.));
#573 = DIRECTION('',(0.,-1.,0.));
#574 = ADVANCED_FACE('',(#575),#594,.T.);
#575 = FACE_BOUND('',#576,.F.);
#576 = EDGE_LOOP('',(#577,#578,#586,#593));
#577 = ORIENTED_EDGE('',*,*,#143,.F.);
#578 = ORIENTED_EDGE('',*,*,#579,.T.);
#579 = EDGE_CURVE('',#136,#580,#582,.T.);
#580 = VERTEX_POINT('',#581);
#581 = CARTESIAN_POINT('',(26.000000000002,-54.99999999999,15.));
#582 = LINE('',#583,#584);
#583 = CARTESIAN_POINT('',(26.000000000002,-54.99999999999,0.));
#584 = VECTOR('',#585,1.);
#585 = DIRECTION('',(0.,0.,1.));
#586 = ORIENTED_EDGE('',*,*,#587,.F.);
#587 = EDGE_CURVE('',#533,#580,#588,.T.);
#588 = CIRCLE('',#589,8.);
#589 = AXIS2_PLACEMENT_3D('',#590,#591,#592);
#590 = CARTESIAN_POINT('',(26.,-46.99999999999,15.));
#591 = DIRECTION('',(0.,0.,-1.));
#592 = DIRECTION('',(1.,0.,0.));
#593 = ORIENTED_EDGE('',*,*,#540,.F.);
#594 = CYLINDRICAL_SURFACE('',#595,8.);
#595 = AXIS2_PLACEMENT_3D('',#596,#597,#598);
#596 = CARTESIAN_POINT('',(26.,-46.99999999999,0.));
#597 = DIRECTION('',(-0.,-0.,-1.));
#598 = DIRECTION('',(1.,0.,0.));
#599 = ADVANCED_FACE('',(#600),#619,.T.);
#600 = FACE_BOUND('',#601,.T.);
#601 = EDGE_LOOP('',(#602,#603,#611,#618));
#602 = ORIENTED_EDGE('',*,*,#65,.F.);
#603 = ORIENTED_EDGE('',*,*,#604,.T.);
#604 = EDGE_CURVE('',#66,#605,#607,.T.);
#605 = VERTEX_POINT('',#606);
#606 = CARTESIAN_POINT('',(-30.62566406416,-13.92270331187,15.));
#607 = LINE('',#608,#609);
#608 = CARTESIAN_POINT('',(-30.62566406416,-13.92270331187,
    -6.800263477695E-15));
#609 = VECTOR('',#610,1.);
#610 = DIRECTION('',(-2.22044604925E-16,2.465190328816E-32,1.));
#611 = ORIENTED_EDGE('',*,*,#612,.T.);
#612 = EDGE_CURVE('',#605,#557,#613,.T.);
#613 = CIRCLE('',#614,36.);
#614 = AXIS2_PLACEMENT_3D('',#615,#616,#617);
#615 = CARTESIAN_POINT('',(-3.052801113286E-15,5.,15.));
#616 = DIRECTION('',(2.22044604925E-16,-2.465190328816E-32,-1.));
#617 = DIRECTION('',(-1.,2.22044604925E-16,-2.22044604925E-16));
#618 = ORIENTED_EDGE('',*,*,#564,.F.);
#619 = CYLINDRICAL_SURFACE('',#620,36.);
#620 = AXIS2_PLACEMENT_3D('',#621,#622,#623);
#621 = CARTESIAN_POINT('',(2.778679605892E-16,5.,-6.156043491042E-32));
#622 = DIRECTION('',(2.22044604925E-16,-2.465190328816E-32,-1.));
#623 = DIRECTION('',(-1.,2.22044604925E-16,-2.22044604925E-16));
#624 = ADVANCED_FACE('',(#625),#643,.F.);
#625 = FACE_BOUND('',#626,.F.);
#626 = EDGE_LOOP('',(#627,#628,#636,#642));
#627 = ORIENTED_EDGE('',*,*,#135,.F.);
#628 = ORIENTED_EDGE('',*,*,#629,.T.);
#629 = EDGE_CURVE('',#127,#630,#632,.T.);
#630 = VERTEX_POINT('',#631);
#631 = CARTESIAN_POINT('',(10.568323198668,-54.99999999999,15.));
#632 = LINE('',#633,#634);
#633 = CARTESIAN_POINT('',(10.568323198668,-54.99999999999,0.));
#634 = VECTOR('',#635,1.);
#635 = DIRECTION('',(0.,0.,1.));
#636 = ORIENTED_EDGE('',*,*,#637,.T.);
#637 = EDGE_CURVE('',#630,#580,#638,.T.);
#638 = LINE('',#639,#640);
#639 = CARTESIAN_POINT('',(-36.,-55.,15.));
#640 = VECTOR('',#641,1.);
#641 = DIRECTION('',(1.,0.,0.));
#642 = ORIENTED_EDGE('',*,*,#579,.F.);
#643 = PLANE('',#644);
#644 = AXIS2_PLACEMENT_3D('',#645,#646,#647);
#645 = CARTESIAN_POINT('',(-36.,-55.,0.));
#646 = DIRECTION('',(0.,1.,0.));
#647 = DIRECTION('',(1.,0.,0.));
#648 = ADVANCED_FACE('',(#649),#668,.F.);
#649 = FACE_BOUND('',#650,.F.);
#650 = EDGE_LOOP('',(#651,#652,#653,#662));
#651 = ORIENTED_EDGE('',*,*,#74,.F.);
#652 = ORIENTED_EDGE('',*,*,#604,.T.);
#653 = ORIENTED_EDGE('',*,*,#654,.T.);
#654 = EDGE_CURVE('',#605,#655,#657,.T.);
#655 = VERTEX_POINT('',#656);
#656 = CARTESIAN_POINT('',(-28.78225709428,-26.47389839435,15.));
#657 = CIRCLE('',#658,16.);
#658 = AXIS2_PLACEMENT_3D('',#659,#660,#661);
#659 = CARTESIAN_POINT('',(-44.23707031491,-22.33279367271,15.));
#660 = DIRECTION('',(2.22044604925E-16,-2.465190328816E-32,-1.));
#661 = DIRECTION('',(-1.,2.22044604925E-16,-2.22044604925E-16));
#662 = ORIENTED_EDGE('',*,*,#663,.F.);
#663 = EDGE_CURVE('',#75,#655,#664,.T.);
#664 = LINE('',#665,#666);
#665 = CARTESIAN_POINT('',(-28.78225709428,-26.47389839435,
    -6.390944905352E-15));
#666 = VECTOR('',#667,1.);
#667 = DIRECTION('',(-2.22044604925E-16,2.465190328816E-32,1.));
#668 = CYLINDRICAL_SURFACE('',#669,16.);
#669 = AXIS2_PLACEMENT_3D('',#670,#671,#672);
#670 = CARTESIAN_POINT('',(-44.23707031491,-22.33279367271,
    -9.822602801116E-15));
#671 = DIRECTION('',(2.22044604925E-16,-2.465190328816E-32,-1.));
#672 = DIRECTION('',(-1.,2.22044604925E-16,-2.22044604925E-16));
#673 = ADVANCED_FACE('',(#674),#693,.T.);
#674 = FACE_BOUND('',#675,.F.);
#675 = EDGE_LOOP('',(#676,#677,#685,#692));
#676 = ORIENTED_EDGE('',*,*,#126,.F.);
#677 = ORIENTED_EDGE('',*,*,#678,.T.);
#678 = EDGE_CURVE('',#118,#679,#681,.T.);
#679 = VERTEX_POINT('',#680);
#680 = CARTESIAN_POINT('',(6.109515314812,-43.60861730001,15.));
#681 = LINE('',#682,#683);
#682 = CARTESIAN_POINT('',(6.109515314812,-43.60861730001,0.));
#683 = VECTOR('',#684,1.);
#684 = DIRECTION('',(0.,0.,1.));
#685 = ORIENTED_EDGE('',*,*,#686,.F.);
#686 = EDGE_CURVE('',#630,#679,#687,.T.);
#687 = CIRCLE('',#688,6.568323274845);
#688 = AXIS2_PLACEMENT_3D('',#689,#690,#691);
#689 = CARTESIAN_POINT('',(10.568323274845,-48.43167672515,15.));
#690 = DIRECTION('',(0.,0.,-1.));
#691 = DIRECTION('',(1.,0.,0.));
#692 = ORIENTED_EDGE('',*,*,#629,.F.);
#693 = CYLINDRICAL_SURFACE('',#694,6.568323274845);
#694 = AXIS2_PLACEMENT_3D('',#695,#696,#697);
#695 = CARTESIAN_POINT('',(10.568323274845,-48.43167672515,0.));
#696 = DIRECTION('',(-0.,-0.,-1.));
#697 = DIRECTION('',(1.,0.,0.));
#698 = ADVANCED_FACE('',(#699),#717,.T.);
#699 = FACE_BOUND('',#700,.F.);
#700 = EDGE_LOOP('',(#701,#702,#703,#711));
#701 = ORIENTED_EDGE('',*,*,#83,.F.);
#702 = ORIENTED_EDGE('',*,*,#663,.T.);
#703 = ORIENTED_EDGE('',*,*,#704,.F.);
#704 = EDGE_CURVE('',#705,#655,#707,.T.);
#705 = VERTEX_POINT('',#706);
#706 = CARTESIAN_POINT('',(-33.72740661031,-44.92944763917,15.));
#707 = LINE('',#708,#709);
#708 = CARTESIAN_POINT('',(-24.50899697689,-10.52587452229,15.));
#709 = VECTOR('',#710,1.);
#710 = DIRECTION('',(0.258819045103,0.965925826289,0.));
#711 = ORIENTED_EDGE('',*,*,#712,.F.);
#712 = EDGE_CURVE('',#84,#705,#713,.T.);
#713 = LINE('',#714,#715);
#714 = CARTESIAN_POINT('',(-33.72740661031,-44.92944763917,
    -7.488988675933E-15));
#715 = VECTOR('',#716,1.);
#716 = DIRECTION('',(-2.22044604925E-16,2.465190328816E-32,1.));
#717 = PLANE('',#718);
#718 = AXIS2_PLACEMENT_3D('',#719,#720,#721);
#719 = CARTESIAN_POINT('',(-28.78225709428,-26.47389839435,
    -6.390944905352E-15));
#720 = DIRECTION('',(-0.965925826289,0.258819045103,-2.144786184852E-16)
  );
#721 = DIRECTION('',(0.258819045103,0.965925826289,5.74693726169E-17));
#722 = ADVANCED_FACE('',(#723),#742,.F.);
#723 = FACE_BOUND('',#724,.T.);
#724 = EDGE_LOOP('',(#725,#726,#727,#736));
#725 = ORIENTED_EDGE('',*,*,#117,.F.);
#726 = ORIENTED_EDGE('',*,*,#678,.T.);
#727 = ORIENTED_EDGE('',*,*,#728,.F.);
#728 = EDGE_CURVE('',#729,#679,#731,.T.);
#729 = VERTEX_POINT('',#730);
#730 = CARTESIAN_POINT('',(-6.109515314812,-43.60861730001,15.));
#731 = CIRCLE('',#732,9.);
#732 = AXIS2_PLACEMENT_3D('',#733,#734,#735);
#733 = CARTESIAN_POINT('',(3.222203591928E-31,-37.,15.));
#734 = DIRECTION('',(0.,0.,-1.));
#735 = DIRECTION('',(1.,0.,0.));
#736 = ORIENTED_EDGE('',*,*,#737,.F.);
#737 = EDGE_CURVE('',#109,#729,#738,.T.);
#738 = LINE('',#739,#740);
#739 = CARTESIAN_POINT('',(-6.109515314812,-43.60861730001,0.));
#740 = VECTOR('',#741,1.);
#741 = DIRECTION('',(0.,0.,1.));
#742 = CYLINDRICAL_SURFACE('',#743,9.);
#743 = AXIS2_PLACEMENT_3D('',#744,#745,#746);
#744 = CARTESIAN_POINT('',(3.222203591928E-31,-37.,0.));
#745 = DIRECTION('',(-0.,-0.,-1.));
#746 = DIRECTION('',(1.,0.,0.));
#747 = ADVANCED_FACE('',(#748),#767,.T.);
#748 = FACE_BOUND('',#749,.T.);
#749 = EDGE_LOOP('',(#750,#751,#759,#766));
#750 = ORIENTED_EDGE('',*,*,#91,.F.);
#751 = ORIENTED_EDGE('',*,*,#752,.T.);
#752 = EDGE_CURVE('',#92,#753,#755,.T.);
#753 = VERTEX_POINT('',#754);
#754 = CARTESIAN_POINT('',(-26.,-54.99999999999,15.));
#755 = LINE('',#756,#757);
#756 = CARTESIAN_POINT('',(-26.,-54.99999999999,-5.773159728051E-15));
#757 = VECTOR('',#758,1.);
#758 = DIRECTION('',(-2.22044604925E-16,2.465190328816E-32,1.));
#759 = ORIENTED_EDGE('',*,*,#760,.T.);
#760 = EDGE_CURVE('',#753,#705,#761,.T.);
#761 = CIRCLE('',#762,8.);
#762 = AXIS2_PLACEMENT_3D('',#763,#764,#765);
#763 = CARTESIAN_POINT('',(-26.,-46.99999999999,15.));
#764 = DIRECTION('',(2.22044604925E-16,-2.465190328816E-32,-1.));
#765 = DIRECTION('',(-1.,2.22044604925E-16,-2.22044604925E-16));
#766 = ORIENTED_EDGE('',*,*,#712,.F.);
#767 = CYLINDRICAL_SURFACE('',#768,8.);
#768 = AXIS2_PLACEMENT_3D('',#769,#770,#771);
#769 = CARTESIAN_POINT('',(-26.,-46.99999999999,-5.773159728051E-15));
#770 = DIRECTION('',(2.22044604925E-16,-2.465190328816E-32,-1.));
#771 = DIRECTION('',(-1.,2.22044604925E-16,-2.22044604925E-16));
#772 = ADVANCED_FACE('',(#773),#792,.T.);
#773 = FACE_BOUND('',#774,.F.);
#774 = EDGE_LOOP('',(#775,#776,#784,#791));
#775 = ORIENTED_EDGE('',*,*,#108,.F.);
#776 = ORIENTED_EDGE('',*,*,#777,.T.);
#777 = EDGE_CURVE('',#101,#778,#780,.T.);
#778 = VERTEX_POINT('',#779);
#779 = CARTESIAN_POINT('',(-10.56832327483,-54.99999999999,15.));
#780 = LINE('',#781,#782);
#781 = CARTESIAN_POINT('',(-10.56832327483,-54.99999999999,0.));
#782 = VECTOR('',#783,1.);
#783 = DIRECTION('',(0.,0.,1.));
#784 = ORIENTED_EDGE('',*,*,#785,.F.);
#785 = EDGE_CURVE('',#729,#778,#786,.T.);
#786 = CIRCLE('',#787,6.568323274845);
#787 = AXIS2_PLACEMENT_3D('',#788,#789,#790);
#788 = CARTESIAN_POINT('',(-10.56832327484,-48.43167672515,15.));
#789 = DIRECTION('',(0.,0.,-1.));
#790 = DIRECTION('',(1.,0.,0.));
#791 = ORIENTED_EDGE('',*,*,#737,.F.);
#792 = CYLINDRICAL_SURFACE('',#793,6.568323274845);
#793 = AXIS2_PLACEMENT_3D('',#794,#795,#796);
#794 = CARTESIAN_POINT('',(-10.56832327484,-48.43167672515,0.));
#795 = DIRECTION('',(-0.,-0.,-1.));
#796 = DIRECTION('',(1.,0.,0.));
#797 = ADVANCED_FACE('',(#798),#809,.F.);
#798 = FACE_BOUND('',#799,.F.);
#799 = EDGE_LOOP('',(#800,#801,#802,#808));
#800 = ORIENTED_EDGE('',*,*,#100,.F.);
#801 = ORIENTED_EDGE('',*,*,#752,.T.);
#802 = ORIENTED_EDGE('',*,*,#803,.T.);
#803 = EDGE_CURVE('',#753,#778,#804,.T.);
#804 = LINE('',#805,#806);
#805 = CARTESIAN_POINT('',(-36.,-55.,15.));
#806 = VECTOR('',#807,1.);
#807 = DIRECTION('',(1.,0.,0.));
#808 = ORIENTED_EDGE('',*,*,#777,.F.);
#809 = PLANE('',#810);
#810 = AXIS2_PLACEMENT_3D('',#811,#812,#813);
#811 = CARTESIAN_POINT('',(-36.,-55.,0.));
#812 = DIRECTION('',(0.,1.,0.));
#813 = DIRECTION('',(1.,0.,0.));
#814 = ADVANCED_FACE('',(#815),#834,.F.);
#815 = FACE_BOUND('',#816,.T.);
#816 = EDGE_LOOP('',(#817,#825,#832,#833));
#817 = ORIENTED_EDGE('',*,*,#818,.T.);
#818 = EDGE_CURVE('',#179,#819,#821,.T.);
#819 = VERTEX_POINT('',#820);
#820 = CARTESIAN_POINT('',(12.5,-5.,6.));
#821 = LINE('',#822,#823);
#822 = CARTESIAN_POINT('',(12.5,-5.,0.));
#823 = VECTOR('',#824,1.);
#824 = DIRECTION('',(0.,0.,1.));
#825 = ORIENTED_EDGE('',*,*,#826,.T.);
#826 = EDGE_CURVE('',#819,#819,#827,.T.);
#827 = CIRCLE('',#828,12.5);
#828 = AXIS2_PLACEMENT_3D('',#829,#830,#831);
#829 = CARTESIAN_POINT('',(0.,-5.,6.));
#830 = DIRECTION('',(0.,0.,1.));
#831 = DIRECTION('',(1.,0.,0.));
#832 = ORIENTED_EDGE('',*,*,#818,.F.);
#833 = ORIENTED_EDGE('',*,*,#178,.F.);
#834 = CYLINDRICAL_SURFACE('',#835,12.5);
#835 = AXIS2_PLACEMENT_3D('',#836,#837,#838);
#836 = CARTESIAN_POINT('',(0.,-5.,0.));
#837 = DIRECTION('',(-0.,-0.,-1.));
#838 = DIRECTION('',(1.,0.,0.));
#839 = ADVANCED_FACE('',(#840),#866,.F.);
#840 = FACE_BOUND('',#841,.T.);
#841 = EDGE_LOOP('',(#842,#843,#851,#860));
#842 = ORIENTED_EDGE('',*,*,#189,.F.);
#843 = ORIENTED_EDGE('',*,*,#844,.T.);
#844 = EDGE_CURVE('',#190,#845,#847,.T.);
#845 = VERTEX_POINT('',#846);
#846 = CARTESIAN_POINT('',(-30.,16.065996645686,1.5));
#847 = LINE('',#848,#849);
#848 = CARTESIAN_POINT('',(-30.,16.065996645686,0.));
#849 = VECTOR('',#850,1.);
#850 = DIRECTION('',(0.,0.,1.));
#851 = ORIENTED_EDGE('',*,*,#852,.F.);
#852 = EDGE_CURVE('',#853,#845,#855,.T.);
#853 = VERTEX_POINT('',#854);
#854 = CARTESIAN_POINT('',(-26.,16.065996645686,1.5));
#855 = CIRCLE('',#856,2.);
#856 = AXIS2_PLACEMENT_3D('',#857,#858,#859);
#857 = CARTESIAN_POINT('',(-28.,16.065996645686,1.5));
#858 = DIRECTION('',(0.,0.,-1.));
#859 = DIRECTION('',(1.,0.,0.));
#860 = ORIENTED_EDGE('',*,*,#861,.F.);
#861 = EDGE_CURVE('',#192,#853,#862,.T.);
#862 = LINE('',#863,#864);
#863 = CARTESIAN_POINT('',(-26.,16.065996645686,0.));
#864 = VECTOR('',#865,1.);
#865 = DIRECTION('',(0.,0.,1.));
#866 = CYLINDRICAL_SURFACE('',#867,2.);
#867 = AXIS2_PLACEMENT_3D('',#868,#869,#870);
#868 = CARTESIAN_POINT('',(-28.,16.065996645686,0.));
#869 = DIRECTION('',(-0.,-0.,-1.));
#870 = DIRECTION('',(1.,0.,0.));
#871 = ADVANCED_FACE('',(#872),#890,.T.);
#872 = FACE_BOUND('',#873,.T.);
#873 = EDGE_LOOP('',(#874,#875,#876,#884));
#874 = ORIENTED_EDGE('',*,*,#217,.F.);
#875 = ORIENTED_EDGE('',*,*,#861,.T.);
#876 = ORIENTED_EDGE('',*,*,#877,.F.);
#877 = EDGE_CURVE('',#878,#853,#880,.T.);
#878 = VERTEX_POINT('',#879);
#879 = CARTESIAN_POINT('',(-26.,45.,1.5));
#880 = LINE('',#881,#882);
#881 = CARTESIAN_POINT('',(-26.,8.032998322843,1.5));
#882 = VECTOR('',#883,1.);
#883 = DIRECTION('',(0.,-1.,0.));
#884 = ORIENTED_EDGE('',*,*,#885,.F.);
#885 = EDGE_CURVE('',#209,#878,#886,.T.);
#886 = LINE('',#887,#888);
#887 = CARTESIAN_POINT('',(-26.,45.,0.));
#888 = VECTOR('',#889,1.);
#889 = DIRECTION('',(0.,0.,1.));
#890 = PLANE('',#891);
#891 = AXIS2_PLACEMENT_3D('',#892,#893,#894);
#892 = CARTESIAN_POINT('',(-26.,16.065996645686,0.));
#893 = DIRECTION('',(-1.,0.,0.));
#894 = DIRECTION('',(0.,1.,0.));
#895 = ADVANCED_FACE('',(#896),#915,.F.);
#896 = FACE_BOUND('',#897,.T.);
#897 = EDGE_LOOP('',(#898,#899,#900,#909));
#898 = ORIENTED_EDGE('',*,*,#208,.F.);
#899 = ORIENTED_EDGE('',*,*,#885,.T.);
#900 = ORIENTED_EDGE('',*,*,#901,.F.);
#901 = EDGE_CURVE('',#902,#878,#904,.T.);
#902 = VERTEX_POINT('',#903);
#903 = CARTESIAN_POINT('',(-30.,45.,1.5));
#904 = CIRCLE('',#905,2.);
#905 = AXIS2_PLACEMENT_3D('',#906,#907,#908);
#906 = CARTESIAN_POINT('',(-28.,45.,1.5));
#907 = DIRECTION('',(0.,0.,-1.));
#908 = DIRECTION('',(1.,0.,0.));
#909 = ORIENTED_EDGE('',*,*,#910,.F.);
#910 = EDGE_CURVE('',#201,#902,#911,.T.);
#911 = LINE('',#912,#913);
#912 = CARTESIAN_POINT('',(-30.,45.,0.));
#913 = VECTOR('',#914,1.);
#914 = DIRECTION('',(0.,0.,1.));
#915 = CYLINDRICAL_SURFACE('',#916,2.);
#916 = AXIS2_PLACEMENT_3D('',#917,#918,#919);
#917 = CARTESIAN_POINT('',(-28.,45.,0.));
#918 = DIRECTION('',(-0.,-0.,-1.));
#919 = DIRECTION('',(1.,0.,0.));
#920 = ADVANCED_FACE('',(#921),#932,.F.);
#921 = FACE_BOUND('',#922,.F.);
#922 = EDGE_LOOP('',(#923,#924,#925,#931));
#923 = ORIENTED_EDGE('',*,*,#200,.F.);
#924 = ORIENTED_EDGE('',*,*,#844,.T.);
#925 = ORIENTED_EDGE('',*,*,#926,.F.);
#926 = EDGE_CURVE('',#902,#845,#927,.T.);
#927 = LINE('',#928,#929);
#928 = CARTESIAN_POINT('',(-30.,8.032998322843,1.5));
#929 = VECTOR('',#930,1.);
#930 = DIRECTION('',(0.,-1.,0.));
#931 = ORIENTED_EDGE('',*,*,#910,.F.);
#932 = PLANE('',#933);
#933 = AXIS2_PLACEMENT_3D('',#934,#935,#936);
#934 = CARTESIAN_POINT('',(-30.,16.065996645686,0.));
#935 = DIRECTION('',(-1.,0.,0.));
#936 = DIRECTION('',(0.,1.,0.));
#937 = ADVANCED_FACE('',(#938),#964,.F.);
#938 = FACE_BOUND('',#939,.T.);
#939 = EDGE_LOOP('',(#940,#941,#949,#958));
#940 = ORIENTED_EDGE('',*,*,#225,.F.);
#941 = ORIENTED_EDGE('',*,*,#942,.T.);
#942 = EDGE_CURVE('',#226,#943,#945,.T.);
#943 = VERTEX_POINT('',#944);
#944 = CARTESIAN_POINT('',(-16.,21.343808583259,1.5));
#945 = LINE('',#946,#947);
#946 = CARTESIAN_POINT('',(-16.,21.343808583259,0.));
#947 = VECTOR('',#948,1.);
#948 = DIRECTION('',(0.,0.,1.));
#949 = ORIENTED_EDGE('',*,*,#950,.F.);
#950 = EDGE_CURVE('',#951,#943,#953,.T.);
#951 = VERTEX_POINT('',#952);
#952 = CARTESIAN_POINT('',(-12.,21.343808583259,1.5));
#953 = CIRCLE('',#954,2.);
#954 = AXIS2_PLACEMENT_3D('',#955,#956,#957);
#955 = CARTESIAN_POINT('',(-14.,21.343808583259,1.5));
#956 = DIRECTION('',(0.,0.,-1.));
#957 = DIRECTION('',(1.,0.,0.));
#958 = ORIENTED_EDGE('',*,*,#959,.F.);
#959 = EDGE_CURVE('',#228,#951,#960,.T.);
#960 = LINE('',#961,#962);
#961 = CARTESIAN_POINT('',(-12.,21.343808583259,0.));
#962 = VECTOR('',#963,1.);
#963 = DIRECTION('',(0.,0.,1.));
#964 = CYLINDRICAL_SURFACE('',#965,2.);
#965 = AXIS2_PLACEMENT_3D('',#966,#967,#968);
#966 = CARTESIAN_POINT('',(-14.,21.343808583259,0.));
#967 = DIRECTION('',(-0.,-0.,-1.));
#968 = DIRECTION('',(1.,0.,0.));
#969 = ADVANCED_FACE('',(#970),#988,.T.);
#970 = FACE_BOUND('',#971,.T.);
#971 = EDGE_LOOP('',(#972,#973,#974,#982));
#972 = ORIENTED_EDGE('',*,*,#253,.F.);
#973 = ORIENTED_EDGE('',*,*,#959,.T.);
#974 = ORIENTED_EDGE('',*,*,#975,.F.);
#975 = EDGE_CURVE('',#976,#951,#978,.T.);
#976 = VERTEX_POINT('',#977);
#977 = CARTESIAN_POINT('',(-12.,45.,1.5));
#978 = LINE('',#979,#980);
#979 = CARTESIAN_POINT('',(-12.,10.67190429163,1.5));
#980 = VECTOR('',#981,1.);
#981 = DIRECTION('',(0.,-1.,0.));
#982 = ORIENTED_EDGE('',*,*,#983,.F.);
#983 = EDGE_CURVE('',#245,#976,#984,.T.);
#984 = LINE('',#985,#986);
#985 = CARTESIAN_POINT('',(-12.,45.,0.));
#986 = VECTOR('',#987,1.);
#987 = DIRECTION('',(0.,0.,1.));
#988 = PLANE('',#989);
#989 = AXIS2_PLACEMENT_3D('',#990,#991,#992);
#990 = CARTESIAN_POINT('',(-12.,21.343808583259,0.));
#991 = DIRECTION('',(-1.,0.,0.));
#992 = DIRECTION('',(0.,1.,0.));
#993 = ADVANCED_FACE('',(#994),#1013,.F.);
#994 = FACE_BOUND('',#995,.T.);
#995 = EDGE_LOOP('',(#996,#997,#998,#1007));
#996 = ORIENTED_EDGE('',*,*,#244,.F.);
#997 = ORIENTED_EDGE('',*,*,#983,.T.);
#998 = ORIENTED_EDGE('',*,*,#999,.F.);
#999 = EDGE_CURVE('',#1000,#976,#1002,.T.);
#1000 = VERTEX_POINT('',#1001);
#1001 = CARTESIAN_POINT('',(-16.,45.,1.5));
#1002 = CIRCLE('',#1003,2.);
#1003 = AXIS2_PLACEMENT_3D('',#1004,#1005,#1006);
#1004 = CARTESIAN_POINT('',(-14.,45.,1.5));
#1005 = DIRECTION('',(0.,0.,-1.));
#1006 = DIRECTION('',(1.,0.,0.));
#1007 = ORIENTED_EDGE('',*,*,#1008,.F.);
#1008 = EDGE_CURVE('',#237,#1000,#1009,.T.);
#1009 = LINE('',#1010,#1011);
#1010 = CARTESIAN_POINT('',(-16.,45.,0.));
#1011 = VECTOR('',#1012,1.);
#1012 = DIRECTION('',(0.,0.,1.));
#1013 = CYLINDRICAL_SURFACE('',#1014,2.);
#1014 = AXIS2_PLACEMENT_3D('',#1015,#1016,#1017);
#1015 = CARTESIAN_POINT('',(-14.,45.,0.));
#1016 = DIRECTION('',(-0.,-0.,-1.));
#1017 = DIRECTION('',(1.,0.,0.));
#1018 = ADVANCED_FACE('',(#1019),#1030,.F.);
#1019 = FACE_BOUND('',#1020,.F.);
#1020 = EDGE_LOOP('',(#1021,#1022,#1023,#1029));
#1021 = ORIENTED_EDGE('',*,*,#236,.F.);
#1022 = ORIENTED_EDGE('',*,*,#942,.T.);
#1023 = ORIENTED_EDGE('',*,*,#1024,.F.);
#1024 = EDGE_CURVE('',#1000,#943,#1025,.T.);
#1025 = LINE('',#1026,#1027);
#1026 = CARTESIAN_POINT('',(-16.,10.67190429163,1.5));
#1027 = VECTOR('',#1028,1.);
#1028 = DIRECTION('',(0.,-1.,0.));
#1029 = ORIENTED_EDGE('',*,*,#1008,.F.);
#1030 = PLANE('',#1031);
#1031 = AXIS2_PLACEMENT_3D('',#1032,#1033,#1034);
#1032 = CARTESIAN_POINT('',(-16.,21.343808583259,0.));
#1033 = DIRECTION('',(-1.,0.,0.));
#1034 = DIRECTION('',(0.,1.,0.));
#1035 = ADVANCED_FACE('',(#1036),#1062,.F.);
#1036 = FACE_BOUND('',#1037,.T.);
#1037 = EDGE_LOOP('',(#1038,#1039,#1047,#1056));
#1038 = ORIENTED_EDGE('',*,*,#261,.F.);
#1039 = ORIENTED_EDGE('',*,*,#1040,.T.);
#1040 = EDGE_CURVE('',#262,#1041,#1043,.T.);
#1041 = VERTEX_POINT('',#1042);
#1042 = CARTESIAN_POINT('',(26.,16.065996645686,1.5));
#1043 = LINE('',#1044,#1045);
#1044 = CARTESIAN_POINT('',(26.,16.065996645686,0.));
#1045 = VECTOR('',#1046,1.);
#1046 = DIRECTION('',(0.,0.,1.));
#1047 = ORIENTED_EDGE('',*,*,#1048,.F.);
#1048 = EDGE_CURVE('',#1049,#1041,#1051,.T.);
#1049 = VERTEX_POINT('',#1050);
#1050 = CARTESIAN_POINT('',(30.,16.065996645686,1.5));
#1051 = CIRCLE('',#1052,2.);
#1052 = AXIS2_PLACEMENT_3D('',#1053,#1054,#1055);
#1053 = CARTESIAN_POINT('',(28.,16.065996645686,1.5));
#1054 = DIRECTION('',(0.,0.,-1.));
#1055 = DIRECTION('',(1.,0.,0.));
#1056 = ORIENTED_EDGE('',*,*,#1057,.F.);
#1057 = EDGE_CURVE('',#264,#1049,#1058,.T.);
#1058 = LINE('',#1059,#1060);
#1059 = CARTESIAN_POINT('',(30.,16.065996645686,0.));
#1060 = VECTOR('',#1061,1.);
#1061 = DIRECTION('',(0.,0.,1.));
#1062 = CYLINDRICAL_SURFACE('',#1063,2.);
#1063 = AXIS2_PLACEMENT_3D('',#1064,#1065,#1066);
#1064 = CARTESIAN_POINT('',(28.,16.065996645686,0.));
#1065 = DIRECTION('',(-0.,-0.,-1.));
#1066 = DIRECTION('',(1.,0.,0.));
#1067 = ADVANCED_FACE('',(#1068),#1086,.T.);
#1068 = FACE_BOUND('',#1069,.T.);
#1069 = EDGE_LOOP('',(#1070,#1071,#1072,#1080));
#1070 = ORIENTED_EDGE('',*,*,#289,.F.);
#1071 = ORIENTED_EDGE('',*,*,#1057,.T.);
#1072 = ORIENTED_EDGE('',*,*,#1073,.F.);
#1073 = EDGE_CURVE('',#1074,#1049,#1076,.T.);
#1074 = VERTEX_POINT('',#1075);
#1075 = CARTESIAN_POINT('',(30.,45.,1.5));
#1076 = LINE('',#1077,#1078);
#1077 = CARTESIAN_POINT('',(30.,8.032998322843,1.5));
#1078 = VECTOR('',#1079,1.);
#1079 = DIRECTION('',(0.,-1.,0.));
#1080 = ORIENTED_EDGE('',*,*,#1081,.F.);
#1081 = EDGE_CURVE('',#281,#1074,#1082,.T.);
#1082 = LINE('',#1083,#1084);
#1083 = CARTESIAN_POINT('',(30.,45.,0.));
#1084 = VECTOR('',#1085,1.);
#1085 = DIRECTION('',(0.,0.,1.));
#1086 = PLANE('',#1087);
#1087 = AXIS2_PLACEMENT_3D('',#1088,#1089,#1090);
#1088 = CARTESIAN_POINT('',(30.,16.065996645686,0.));
#1089 = DIRECTION('',(-1.,0.,0.));
#1090 = DIRECTION('',(0.,1.,0.));
#1091 = ADVANCED_FACE('',(#1092),#1111,.F.);
#1092 = FACE_BOUND('',#1093,.T.);
#1093 = EDGE_LOOP('',(#1094,#1095,#1096,#1105));
#1094 = ORIENTED_EDGE('',*,*,#280,.F.);
#1095 = ORIENTED_EDGE('',*,*,#1081,.T.);
#1096 = ORIENTED_EDGE('',*,*,#1097,.F.);
#1097 = EDGE_CURVE('',#1098,#1074,#1100,.T.);
#1098 = VERTEX_POINT('',#1099);
#1099 = CARTESIAN_POINT('',(26.,45.,1.5));
#1100 = CIRCLE('',#1101,2.);
#1101 = AXIS2_PLACEMENT_3D('',#1102,#1103,#1104);
#1102 = CARTESIAN_POINT('',(28.,45.,1.5));
#1103 = DIRECTION('',(0.,0.,-1.));
#1104 = DIRECTION('',(1.,0.,0.));
#1105 = ORIENTED_EDGE('',*,*,#1106,.F.);
#1106 = EDGE_CURVE('',#273,#1098,#1107,.T.);
#1107 = LINE('',#1108,#1109);
#1108 = CARTESIAN_POINT('',(26.,45.,0.));
#1109 = VECTOR('',#1110,1.);
#1110 = DIRECTION('',(0.,0.,1.));
#1111 = CYLINDRICAL_SURFACE('',#1112,2.);
#1112 = AXIS2_PLACEMENT_3D('',#1113,#1114,#1115);
#1113 = CARTESIAN_POINT('',(28.,45.,0.));
#1114 = DIRECTION('',(-0.,-0.,-1.));
#1115 = DIRECTION('',(1.,0.,0.));
#1116 = ADVANCED_FACE('',(#1117),#1128,.F.);
#1117 = FACE_BOUND('',#1118,.F.);
#1118 = EDGE_LOOP('',(#1119,#1120,#1121,#1127));
#1119 = ORIENTED_EDGE('',*,*,#272,.F.);
#1120 = ORIENTED_EDGE('',*,*,#1040,.T.);
#1121 = ORIENTED_EDGE('',*,*,#1122,.F.);
#1122 = EDGE_CURVE('',#1098,#1041,#1123,.T.);
#1123 = LINE('',#1124,#1125);
#1124 = CARTESIAN_POINT('',(26.,8.032998322843,1.5));
#1125 = VECTOR('',#1126,1.);
#1126 = DIRECTION('',(0.,-1.,0.));
#1127 = ORIENTED_EDGE('',*,*,#1106,.F.);
#1128 = PLANE('',#1129);
#1129 = AXIS2_PLACEMENT_3D('',#1130,#1131,#1132);
#1130 = CARTESIAN_POINT('',(26.,16.065996645686,0.));
#1131 = DIRECTION('',(-1.,0.,0.));
#1132 = DIRECTION('',(0.,1.,0.));
#1133 = ADVANCED_FACE('',(#1134),#1160,.F.);
#1134 = FACE_BOUND('',#1135,.T.);
#1135 = EDGE_LOOP('',(#1136,#1137,#1145,#1154));
#1136 = ORIENTED_EDGE('',*,*,#297,.F.);
#1137 = ORIENTED_EDGE('',*,*,#1138,.T.);
#1138 = EDGE_CURVE('',#298,#1139,#1141,.T.);
#1139 = VERTEX_POINT('',#1140);
#1140 = CARTESIAN_POINT('',(-2.,23.,1.5));
#1141 = LINE('',#1142,#1143);
#1142 = CARTESIAN_POINT('',(-2.,23.,0.));
#1143 = VECTOR('',#1144,1.);
#1144 = DIRECTION('',(0.,0.,1.));
#1145 = ORIENTED_EDGE('',*,*,#1146,.F.);
#1146 = EDGE_CURVE('',#1147,#1139,#1149,.T.);
#1147 = VERTEX_POINT('',#1148);
#1148 = CARTESIAN_POINT('',(2.,23.,1.5));
#1149 = CIRCLE('',#1150,2.);
#1150 = AXIS2_PLACEMENT_3D('',#1151,#1152,#1153);
#1151 = CARTESIAN_POINT('',(3.053906201678E-17,23.,1.5));
#1152 = DIRECTION('',(0.,0.,-1.));
#1153 = DIRECTION('',(1.,0.,0.));
#1154 = ORIENTED_EDGE('',*,*,#1155,.F.);
#1155 = EDGE_CURVE('',#300,#1147,#1156,.T.);
#1156 = LINE('',#1157,#1158);
#1157 = CARTESIAN_POINT('',(2.,23.,0.));
#1158 = VECTOR('',#1159,1.);
#1159 = DIRECTION('',(0.,0.,1.));
#1160 = CYLINDRICAL_SURFACE('',#1161,2.);
#1161 = AXIS2_PLACEMENT_3D('',#1162,#1163,#1164);
#1162 = CARTESIAN_POINT('',(3.053906201678E-17,23.,0.));
#1163 = DIRECTION('',(-0.,-0.,-1.));
#1164 = DIRECTION('',(1.,0.,0.));
#1165 = ADVANCED_FACE('',(#1166),#1184,.T.);
#1166 = FACE_BOUND('',#1167,.T.);
#1167 = EDGE_LOOP('',(#1168,#1169,#1170,#1178));
#1168 = ORIENTED_EDGE('',*,*,#325,.F.);
#1169 = ORIENTED_EDGE('',*,*,#1155,.T.);
#1170 = ORIENTED_EDGE('',*,*,#1171,.F.);
#1171 = EDGE_CURVE('',#1172,#1147,#1174,.T.);
#1172 = VERTEX_POINT('',#1173);
#1173 = CARTESIAN_POINT('',(2.,45.,1.5));
#1174 = LINE('',#1175,#1176);
#1175 = CARTESIAN_POINT('',(2.,11.5,1.5));
#1176 = VECTOR('',#1177,1.);
#1177 = DIRECTION('',(0.,-1.,0.));
#1178 = ORIENTED_EDGE('',*,*,#1179,.F.);
#1179 = EDGE_CURVE('',#317,#1172,#1180,.T.);
#1180 = LINE('',#1181,#1182);
#1181 = CARTESIAN_POINT('',(2.,45.,0.));
#1182 = VECTOR('',#1183,1.);
#1183 = DIRECTION('',(0.,0.,1.));
#1184 = PLANE('',#1185);
#1185 = AXIS2_PLACEMENT_3D('',#1186,#1187,#1188);
#1186 = CARTESIAN_POINT('',(2.,23.,0.));
#1187 = DIRECTION('',(-1.,0.,0.));
#1188 = DIRECTION('',(0.,1.,0.));
#1189 = ADVANCED_FACE('',(#1190),#1209,.F.);
#1190 = FACE_BOUND('',#1191,.T.);
#1191 = EDGE_LOOP('',(#1192,#1193,#1194,#1203));
#1192 = ORIENTED_EDGE('',*,*,#316,.F.);
#1193 = ORIENTED_EDGE('',*,*,#1179,.T.);
#1194 = ORIENTED_EDGE('',*,*,#1195,.F.);
#1195 = EDGE_CURVE('',#1196,#1172,#1198,.T.);
#1196 = VERTEX_POINT('',#1197);
#1197 = CARTESIAN_POINT('',(-2.,45.,1.5));
#1198 = CIRCLE('',#1199,2.);
#1199 = AXIS2_PLACEMENT_3D('',#1200,#1201,#1202);
#1200 = CARTESIAN_POINT('',(0.,45.,1.5));
#1201 = DIRECTION('',(0.,0.,-1.));
#1202 = DIRECTION('',(1.,0.,0.));
#1203 = ORIENTED_EDGE('',*,*,#1204,.F.);
#1204 = EDGE_CURVE('',#309,#1196,#1205,.T.);
#1205 = LINE('',#1206,#1207);
#1206 = CARTESIAN_POINT('',(-2.,45.,0.));
#1207 = VECTOR('',#1208,1.);
#1208 = DIRECTION('',(0.,0.,1.));
#1209 = CYLINDRICAL_SURFACE('',#1210,2.);
#1210 = AXIS2_PLACEMENT_3D('',#1211,#1212,#1213);
#1211 = CARTESIAN_POINT('',(0.,45.,0.));
#1212 = DIRECTION('',(-0.,-0.,-1.));
#1213 = DIRECTION('',(1.,0.,0.));
#1214 = ADVANCED_FACE('',(#1215),#1226,.F.);
#1215 = FACE_BOUND('',#1216,.F.);
#1216 = EDGE_LOOP('',(#1217,#1218,#1219,#1225));
#1217 = ORIENTED_EDGE('',*,*,#308,.F.);
#1218 = ORIENTED_EDGE('',*,*,#1138,.T.);
#1219 = ORIENTED_EDGE('',*,*,#1220,.F.);
#1220 = EDGE_CURVE('',#1196,#1139,#1221,.T.);
#1221 = LINE('',#1222,#1223);
#1222 = CARTESIAN_POINT('',(-2.,11.5,1.5));
#1223 = VECTOR('',#1224,1.);
#1224 = DIRECTION('',(0.,-1.,0.));
#1225 = ORIENTED_EDGE('',*,*,#1204,.F.);
#1226 = PLANE('',#1227);
#1227 = AXIS2_PLACEMENT_3D('',#1228,#1229,#1230);
#1228 = CARTESIAN_POINT('',(-2.,23.,0.));
#1229 = DIRECTION('',(-1.,0.,0.));
#1230 = DIRECTION('',(0.,1.,0.));
#1231 = ADVANCED_FACE('',(#1232),#1258,.F.);
#1232 = FACE_BOUND('',#1233,.T.);
#1233 = EDGE_LOOP('',(#1234,#1235,#1243,#1252));
#1234 = ORIENTED_EDGE('',*,*,#333,.F.);
#1235 = ORIENTED_EDGE('',*,*,#1236,.T.);
#1236 = EDGE_CURVE('',#334,#1237,#1239,.T.);
#1237 = VERTEX_POINT('',#1238);
#1238 = CARTESIAN_POINT('',(12.,21.343808583259,1.5));
#1239 = LINE('',#1240,#1241);
#1240 = CARTESIAN_POINT('',(12.,21.343808583259,0.));
#1241 = VECTOR('',#1242,1.);
#1242 = DIRECTION('',(0.,0.,1.));
#1243 = ORIENTED_EDGE('',*,*,#1244,.F.);
#1244 = EDGE_CURVE('',#1245,#1237,#1247,.T.);
#1245 = VERTEX_POINT('',#1246);
#1246 = CARTESIAN_POINT('',(16.,21.343808583259,1.5));
#1247 = CIRCLE('',#1248,2.);
#1248 = AXIS2_PLACEMENT_3D('',#1249,#1250,#1251);
#1249 = CARTESIAN_POINT('',(14.,21.343808583259,1.5));
#1250 = DIRECTION('',(0.,0.,-1.));
#1251 = DIRECTION('',(1.,0.,0.));
#1252 = ORIENTED_EDGE('',*,*,#1253,.F.);
#1253 = EDGE_CURVE('',#336,#1245,#1254,.T.);
#1254 = LINE('',#1255,#1256);
#1255 = CARTESIAN_POINT('',(16.,21.343808583259,0.));
#1256 = VECTOR('',#1257,1.);
#1257 = DIRECTION('',(0.,0.,1.));
#1258 = CYLINDRICAL_SURFACE('',#1259,2.);
#1259 = AXIS2_PLACEMENT_3D('',#1260,#1261,#1262);
#1260 = CARTESIAN_POINT('',(14.,21.343808583259,0.));
#1261 = DIRECTION('',(-0.,-0.,-1.));
#1262 = DIRECTION('',(1.,0.,0.));
#1263 = ADVANCED_FACE('',(#1264),#1282,.T.);
#1264 = FACE_BOUND('',#1265,.T.);
#1265 = EDGE_LOOP('',(#1266,#1267,#1268,#1276));
#1266 = ORIENTED_EDGE('',*,*,#361,.F.);
#1267 = ORIENTED_EDGE('',*,*,#1253,.T.);
#1268 = ORIENTED_EDGE('',*,*,#1269,.F.);
#1269 = EDGE_CURVE('',#1270,#1245,#1272,.T.);
#1270 = VERTEX_POINT('',#1271);
#1271 = CARTESIAN_POINT('',(16.,45.,1.5));
#1272 = LINE('',#1273,#1274);
#1273 = CARTESIAN_POINT('',(16.,10.67190429163,1.5));
#1274 = VECTOR('',#1275,1.);
#1275 = DIRECTION('',(0.,-1.,0.));
#1276 = ORIENTED_EDGE('',*,*,#1277,.F.);
#1277 = EDGE_CURVE('',#353,#1270,#1278,.T.);
#1278 = LINE('',#1279,#1280);
#1279 = CARTESIAN_POINT('',(16.,45.,0.));
#1280 = VECTOR('',#1281,1.);
#1281 = DIRECTION('',(0.,0.,1.));
#1282 = PLANE('',#1283);
#1283 = AXIS2_PLACEMENT_3D('',#1284,#1285,#1286);
#1284 = CARTESIAN_POINT('',(16.,21.343808583259,0.));
#1285 = DIRECTION('',(-1.,0.,0.));
#1286 = DIRECTION('',(0.,1.,0.));
#1287 = ADVANCED_FACE('',(#1288),#1307,.F.);
#1288 = FACE_BOUND('',#1289,.T.);
#1289 = EDGE_LOOP('',(#1290,#1291,#1292,#1301));
#1290 = ORIENTED_EDGE('',*,*,#352,.F.);
#1291 = ORIENTED_EDGE('',*,*,#1277,.T.);
#1292 = ORIENTED_EDGE('',*,*,#1293,.F.);
#1293 = EDGE_CURVE('',#1294,#1270,#1296,.T.);
#1294 = VERTEX_POINT('',#1295);
#1295 = CARTESIAN_POINT('',(12.,45.,1.5));
#1296 = CIRCLE('',#1297,2.);
#1297 = AXIS2_PLACEMENT_3D('',#1298,#1299,#1300);
#1298 = CARTESIAN_POINT('',(14.,45.,1.5));
#1299 = DIRECTION('',(0.,0.,-1.));
#1300 = DIRECTION('',(1.,0.,0.));
#1301 = ORIENTED_EDGE('',*,*,#1302,.F.);
#1302 = EDGE_CURVE('',#345,#1294,#1303,.T.);
#1303 = LINE('',#1304,#1305);
#1304 = CARTESIAN_POINT('',(12.,45.,0.));
#1305 = VECTOR('',#1306,1.);
#1306 = DIRECTION('',(0.,0.,1.));
#1307 = CYLINDRICAL_SURFACE('',#1308,2.);
#1308 = AXIS2_PLACEMENT_3D('',#1309,#1310,#1311);
#1309 = CARTESIAN_POINT('',(14.,45.,0.));
#1310 = DIRECTION('',(-0.,-0.,-1.));
#1311 = DIRECTION('',(1.,0.,0.));
#1312 = ADVANCED_FACE('',(#1313),#1324,.F.);
#1313 = FACE_BOUND('',#1314,.F.);
#1314 = EDGE_LOOP('',(#1315,#1316,#1317,#1323));
#1315 = ORIENTED_EDGE('',*,*,#344,.F.);
#1316 = ORIENTED_EDGE('',*,*,#1236,.T.);
#1317 = ORIENTED_EDGE('',*,*,#1318,.F.);
#1318 = EDGE_CURVE('',#1294,#1237,#1319,.T.);
#1319 = LINE('',#1320,#1321);
#1320 = CARTESIAN_POINT('',(12.,10.67190429163,1.5));
#1321 = VECTOR('',#1322,1.);
#1322 = DIRECTION('',(0.,-1.,0.));
#1323 = ORIENTED_EDGE('',*,*,#1302,.F.);
#1324 = PLANE('',#1325);
#1325 = AXIS2_PLACEMENT_3D('',#1326,#1327,#1328);
#1326 = CARTESIAN_POINT('',(12.,21.343808583259,0.));
#1327 = DIRECTION('',(-1.,0.,0.));
#1328 = DIRECTION('',(0.,1.,0.));
#1329 = ADVANCED_FACE('',(#1330,#1350),#1507,.T.);
#1330 = FACE_BOUND('',#1331,.T.);
#1331 = EDGE_LOOP('',(#1332,#1333,#1334,#1335,#1336,#1337,#1338,#1339,
    #1340,#1341,#1342,#1343,#1344,#1345,#1346,#1347,#1348,#1349));
#1332 = ORIENTED_EDGE('',*,*,#556,.T.);
#1333 = ORIENTED_EDGE('',*,*,#612,.F.);
#1334 = ORIENTED_EDGE('',*,*,#654,.T.);
#1335 = ORIENTED_EDGE('',*,*,#704,.F.);
#1336 = ORIENTED_EDGE('',*,*,#760,.F.);
#1337 = ORIENTED_EDGE('',*,*,#803,.T.);
#1338 = ORIENTED_EDGE('',*,*,#785,.F.);
#1339 = ORIENTED_EDGE('',*,*,#728,.T.);
#1340 = ORIENTED_EDGE('',*,*,#686,.F.);
#1341 = ORIENTED_EDGE('',*,*,#637,.T.);
#1342 = ORIENTED_EDGE('',*,*,#587,.F.);
#1343 = ORIENTED_EDGE('',*,*,#532,.T.);
#1344 = ORIENTED_EDGE('',*,*,#482,.T.);
#1345 = ORIENTED_EDGE('',*,*,#440,.F.);
#1346 = ORIENTED_EDGE('',*,*,#384,.T.);
#1347 = ORIENTED_EDGE('',*,*,#415,.T.);
#1348 = ORIENTED_EDGE('',*,*,#458,.T.);
#1349 = ORIENTED_EDGE('',*,*,#514,.T.);
#1350 = FACE_BOUND('',#1351,.T.);
#1351 = EDGE_LOOP('',(#1352,#1362,#1371,#1379,#1388,#1396,#1405,#1414,
    #1422,#1431,#1439,#1448,#1457,#1466,#1474,#1483,#1491,#1500));
#1352 = ORIENTED_EDGE('',*,*,#1353,.F.);
#1353 = EDGE_CURVE('',#1354,#1356,#1358,.T.);
#1354 = VERTEX_POINT('',#1355);
#1355 = CARTESIAN_POINT('',(-34.5,47.,15.));
#1356 = VERTEX_POINT('',#1357);
#1357 = CARTESIAN_POINT('',(-34.5,4.999999999999,15.));
#1358 = LINE('',#1359,#1360);
#1359 = CARTESIAN_POINT('',(-34.5,55.,15.));
#1360 = VECTOR('',#1361,1.);
#1361 = DIRECTION('',(0.,-1.,0.));
#1362 = ORIENTED_EDGE('',*,*,#1363,.F.);
#1363 = EDGE_CURVE('',#1364,#1354,#1366,.T.);
#1364 = VERTEX_POINT('',#1365);
#1365 = CARTESIAN_POINT('',(-28.,53.5,15.));
#1366 = CIRCLE('',#1367,6.5);
#1367 = AXIS2_PLACEMENT_3D('',#1368,#1369,#1370);
#1368 = CARTESIAN_POINT('',(-28.,47.,15.));
#1369 = DIRECTION('',(-0.,0.,1.));
#1370 = DIRECTION('',(1.224646799147E-16,-1.,0.));
#1371 = ORIENTED_EDGE('',*,*,#1372,.F.);
#1372 = EDGE_CURVE('',#1373,#1364,#1375,.T.);
#1373 = VERTEX_POINT('',#1374);
#1374 = CARTESIAN_POINT('',(28.,53.5,15.));
#1375 = LINE('',#1376,#1377);
#1376 = CARTESIAN_POINT('',(36.,53.5,15.));
#1377 = VECTOR('',#1378,1.);
#1378 = DIRECTION('',(-1.,0.,0.));
#1379 = ORIENTED_EDGE('',*,*,#1380,.F.);
#1380 = EDGE_CURVE('',#1381,#1373,#1383,.T.);
#1381 = VERTEX_POINT('',#1382);
#1382 = CARTESIAN_POINT('',(34.5,47.,15.));
#1383 = CIRCLE('',#1384,6.5);
#1384 = AXIS2_PLACEMENT_3D('',#1385,#1386,#1387);
#1385 = CARTESIAN_POINT('',(28.,47.,15.));
#1386 = DIRECTION('',(-0.,0.,1.));
#1387 = DIRECTION('',(1.110223024625E-16,-1.,0.));
#1388 = ORIENTED_EDGE('',*,*,#1389,.F.);
#1389 = EDGE_CURVE('',#1390,#1381,#1392,.T.);
#1390 = VERTEX_POINT('',#1391);
#1391 = CARTESIAN_POINT('',(34.5,4.999999999999,15.));
#1392 = LINE('',#1393,#1394);
#1393 = CARTESIAN_POINT('',(34.5,-55.,15.));
#1394 = VECTOR('',#1395,1.);
#1395 = DIRECTION('',(0.,1.,0.));
#1396 = ORIENTED_EDGE('',*,*,#1397,.T.);
#1397 = EDGE_CURVE('',#1390,#1398,#1400,.T.);
#1398 = VERTEX_POINT('',#1399);
#1399 = CARTESIAN_POINT('',(29.349594728155,-13.13425734054,15.));
#1400 = CIRCLE('',#1401,34.5);
#1401 = AXIS2_PLACEMENT_3D('',#1402,#1403,#1404);
#1402 = CARTESIAN_POINT('',(8.323550640359E-16,5.,15.));
#1403 = DIRECTION('',(0.,0.,-1.));
#1404 = DIRECTION('',(1.,6.432490598707E-16,0.));
#1405 = ORIENTED_EDGE('',*,*,#1406,.F.);
#1406 = EDGE_CURVE('',#1407,#1398,#1409,.T.);
#1407 = VERTEX_POINT('',#1408);
#1408 = CARTESIAN_POINT('',(27.333368354855,-26.862126962,15.));
#1409 = CIRCLE('',#1410,17.5);
#1410 = AXIS2_PLACEMENT_3D('',#1411,#1412,#1413);
#1411 = CARTESIAN_POINT('',(44.237070314913,-22.33279367271,15.));
#1412 = DIRECTION('',(0.,0.,-1.));
#1413 = DIRECTION('',(1.,6.432490598707E-16,0.));
#1414 = ORIENTED_EDGE('',*,*,#1415,.F.);
#1415 = EDGE_CURVE('',#1416,#1407,#1418,.T.);
#1416 = VERTEX_POINT('',#1417);
#1417 = CARTESIAN_POINT('',(32.278517870881,-45.31767620682,15.));
#1418 = LINE('',#1419,#1420);
#1419 = CARTESIAN_POINT('',(23.060108237463,-10.91410308995,15.));
#1420 = VECTOR('',#1421,1.);
#1421 = DIRECTION('',(-0.258819045103,0.965925826289,0.));
#1422 = ORIENTED_EDGE('',*,*,#1423,.T.);
#1423 = EDGE_CURVE('',#1416,#1424,#1426,.T.);
#1424 = VERTEX_POINT('',#1425);
#1425 = CARTESIAN_POINT('',(26.000000000002,-53.5,15.));
#1426 = CIRCLE('',#1427,6.5);
#1427 = AXIS2_PLACEMENT_3D('',#1428,#1429,#1430);
#1428 = CARTESIAN_POINT('',(26.,-46.99999999999,15.));
#1429 = DIRECTION('',(0.,-0.,-1.));
#1430 = DIRECTION('',(1.,-2.266215559059E-15,0.));
#1431 = ORIENTED_EDGE('',*,*,#1432,.F.);
#1432 = EDGE_CURVE('',#1433,#1424,#1435,.T.);
#1433 = VERTEX_POINT('',#1434);
#1434 = CARTESIAN_POINT('',(10.568323198668,-53.5,15.));
#1435 = LINE('',#1436,#1437);
#1436 = CARTESIAN_POINT('',(-36.,-53.5,15.));
#1437 = VECTOR('',#1438,1.);
#1438 = DIRECTION('',(1.,0.,0.));
#1439 = ORIENTED_EDGE('',*,*,#1440,.T.);
#1440 = EDGE_CURVE('',#1433,#1441,#1443,.T.);
#1441 = VERTEX_POINT('',#1442);
#1442 = CARTESIAN_POINT('',(7.12776786728,-44.71005351668,15.));
#1443 = CIRCLE('',#1444,5.068323274845);
#1444 = AXIS2_PLACEMENT_3D('',#1445,#1446,#1447);
#1445 = CARTESIAN_POINT('',(10.568323274845,-48.43167672515,15.));
#1446 = DIRECTION('',(0.,-0.,-1.));
#1447 = DIRECTION('',(1.,-2.449293598295E-16,0.));
#1448 = ORIENTED_EDGE('',*,*,#1449,.F.);
#1449 = EDGE_CURVE('',#1450,#1441,#1452,.T.);
#1450 = VERTEX_POINT('',#1451);
#1451 = CARTESIAN_POINT('',(-7.12776786728,-44.71005351668,15.));
#1452 = CIRCLE('',#1453,10.5);
#1453 = AXIS2_PLACEMENT_3D('',#1454,#1455,#1456);
#1454 = CARTESIAN_POINT('',(0.,-37.,15.));
#1455 = DIRECTION('',(0.,-0.,-1.));
#1456 = DIRECTION('',(1.,-4.898587196589E-16,0.));
#1457 = ORIENTED_EDGE('',*,*,#1458,.T.);
#1458 = EDGE_CURVE('',#1450,#1459,#1461,.T.);
#1459 = VERTEX_POINT('',#1460);
#1460 = CARTESIAN_POINT('',(-10.56832327483,-53.5,15.));
#1461 = CIRCLE('',#1462,5.068323274845);
#1462 = AXIS2_PLACEMENT_3D('',#1463,#1464,#1465);
#1463 = CARTESIAN_POINT('',(-10.56832327484,-48.43167672515,15.));
#1464 = DIRECTION('',(0.,-0.,-1.));
#1465 = DIRECTION('',(1.,-4.898587196589E-16,0.));
#1466 = ORIENTED_EDGE('',*,*,#1467,.F.);
#1467 = EDGE_CURVE('',#1468,#1459,#1470,.T.);
#1468 = VERTEX_POINT('',#1469);
#1469 = CARTESIAN_POINT('',(-26.,-53.5,15.));
#1470 = LINE('',#1471,#1472);
#1471 = CARTESIAN_POINT('',(-36.,-53.5,15.));
#1472 = VECTOR('',#1473,1.);
#1473 = DIRECTION('',(1.,0.,0.));
#1474 = ORIENTED_EDGE('',*,*,#1475,.T.);
#1475 = EDGE_CURVE('',#1468,#1476,#1478,.T.);
#1476 = VERTEX_POINT('',#1477);
#1477 = CARTESIAN_POINT('',(-32.27851787088,-45.31767620682,15.));
#1478 = CIRCLE('',#1479,6.5);
#1479 = AXIS2_PLACEMENT_3D('',#1480,#1481,#1482);
#1480 = CARTESIAN_POINT('',(-26.,-46.99999999999,15.));
#1481 = DIRECTION('',(2.22044604925E-16,-2.465190328816E-32,-1.));
#1482 = DIRECTION('',(-1.,2.22044604925E-16,-2.22044604925E-16));
#1483 = ORIENTED_EDGE('',*,*,#1484,.T.);
#1484 = EDGE_CURVE('',#1476,#1485,#1487,.T.);
#1485 = VERTEX_POINT('',#1486);
#1486 = CARTESIAN_POINT('',(-27.33336835485,-26.862126962,15.));
#1487 = LINE('',#1488,#1489);
#1488 = CARTESIAN_POINT('',(-23.06010823746,-10.91410308995,15.));
#1489 = VECTOR('',#1490,1.);
#1490 = DIRECTION('',(0.258819045103,0.965925826289,0.));
#1491 = ORIENTED_EDGE('',*,*,#1492,.F.);
#1492 = EDGE_CURVE('',#1493,#1485,#1495,.T.);
#1493 = VERTEX_POINT('',#1494);
#1494 = CARTESIAN_POINT('',(-29.34959472815,-13.13425734054,15.));
#1495 = CIRCLE('',#1496,17.5);
#1496 = AXIS2_PLACEMENT_3D('',#1497,#1498,#1499);
#1497 = CARTESIAN_POINT('',(-44.23707031491,-22.33279367271,15.));
#1498 = DIRECTION('',(2.22044604925E-16,-2.465190328816E-32,-1.));
#1499 = DIRECTION('',(-1.,2.22044604925E-16,-2.22044604925E-16));
#1500 = ORIENTED_EDGE('',*,*,#1501,.T.);
#1501 = EDGE_CURVE('',#1493,#1356,#1502,.T.);
#1502 = CIRCLE('',#1503,34.5);
#1503 = AXIS2_PLACEMENT_3D('',#1504,#1505,#1506);
#1504 = CARTESIAN_POINT('',(-3.052801113286E-15,5.,15.));
#1505 = DIRECTION('',(2.22044604925E-16,-2.465190328816E-32,-1.));
#1506 = DIRECTION('',(-1.,2.22044604925E-16,-2.22044604925E-16));
#1507 = PLANE('',#1508);
#1508 = AXIS2_PLACEMENT_3D('',#1509,#1510,#1511);
#1509 = CARTESIAN_POINT('',(0.,0.,15.));
#1510 = DIRECTION('',(0.,0.,1.));
#1511 = DIRECTION('',(1.,0.,0.));
#1512 = ADVANCED_FACE('',(#1513),#1533,.F.);
#1513 = FACE_BOUND('',#1514,.F.);
#1514 = EDGE_LOOP('',(#1515,#1524,#1525,#1526));
#1515 = ORIENTED_EDGE('',*,*,#1516,.F.);
#1516 = EDGE_CURVE('',#819,#1517,#1519,.T.);
#1517 = VERTEX_POINT('',#1518);
#1518 = CARTESIAN_POINT('',(10.5,-5.,8.));
#1519 = CIRCLE('',#1520,2.);
#1520 = AXIS2_PLACEMENT_3D('',#1521,#1522,#1523);
#1521 = CARTESIAN_POINT('',(10.5,-5.,6.));
#1522 = DIRECTION('',(0.,-1.,0.));
#1523 = DIRECTION('',(1.,0.,0.));
#1524 = ORIENTED_EDGE('',*,*,#826,.T.);
#1525 = ORIENTED_EDGE('',*,*,#1516,.T.);
#1526 = ORIENTED_EDGE('',*,*,#1527,.F.);
#1527 = EDGE_CURVE('',#1517,#1517,#1528,.T.);
#1528 = CIRCLE('',#1529,10.5);
#1529 = AXIS2_PLACEMENT_3D('',#1530,#1531,#1532);
#1530 = CARTESIAN_POINT('',(0.,-5.,8.));
#1531 = DIRECTION('',(0.,0.,1.));
#1532 = DIRECTION('',(1.,0.,0.));
#1533 = TOROIDAL_SURFACE('',#1534,10.5,2.);
#1534 = AXIS2_PLACEMENT_3D('',#1535,#1536,#1537);
#1535 = CARTESIAN_POINT('',(0.,-5.,6.));
#1536 = DIRECTION('',(0.,0.,1.));
#1537 = DIRECTION('',(1.,0.,0.));
#1538 = ADVANCED_FACE('',(#1539,#1696,#1707,#1713,#1719,#1725,#1731),
  #1737,.T.);
#1539 = FACE_BOUND('',#1540,.T.);
#1540 = EDGE_LOOP('',(#1541,#1552,#1561,#1570,#1578,#1587,#1595,#1604,
    #1613,#1621,#1630,#1638,#1647,#1655,#1664,#1673,#1681,#1690));
#1541 = ORIENTED_EDGE('',*,*,#1542,.F.);
#1542 = EDGE_CURVE('',#1543,#1545,#1547,.T.);
#1543 = VERTEX_POINT('',#1544);
#1544 = CARTESIAN_POINT('',(-7.12776786728,-44.71005351668,1.5));
#1545 = VERTEX_POINT('',#1546);
#1546 = CARTESIAN_POINT('',(-10.56832327484,-53.5,1.5));
#1547 = CIRCLE('',#1548,5.068323274845);
#1548 = AXIS2_PLACEMENT_3D('',#1549,#1550,#1551);
#1549 = CARTESIAN_POINT('',(-10.56832327484,-48.43167672515,1.5));
#1550 = DIRECTION('',(0.,0.,-1.));
#1551 = DIRECTION('',(1.,0.,0.));
#1552 = ORIENTED_EDGE('',*,*,#1553,.T.);
#1553 = EDGE_CURVE('',#1543,#1554,#1556,.T.);
#1554 = VERTEX_POINT('',#1555);
#1555 = CARTESIAN_POINT('',(7.12776786728,-44.71005351668,1.5));
#1556 = CIRCLE('',#1557,10.5);
#1557 = AXIS2_PLACEMENT_3D('',#1558,#1559,#1560);
#1558 = CARTESIAN_POINT('',(3.222203591928E-31,-37.,1.5));
#1559 = DIRECTION('',(0.,0.,-1.));
#1560 = DIRECTION('',(1.,0.,0.));
#1561 = ORIENTED_EDGE('',*,*,#1562,.F.);
#1562 = EDGE_CURVE('',#1563,#1554,#1565,.T.);
#1563 = VERTEX_POINT('',#1564);
#1564 = CARTESIAN_POINT('',(10.568323210268,-53.5,1.5));
#1565 = CIRCLE('',#1566,5.068323274845);
#1566 = AXIS2_PLACEMENT_3D('',#1567,#1568,#1569);
#1567 = CARTESIAN_POINT('',(10.568323274845,-48.43167672515,1.5));
#1568 = DIRECTION('',(0.,0.,-1.));
#1569 = DIRECTION('',(1.,0.,0.));
#1570 = ORIENTED_EDGE('',*,*,#1571,.F.);
#1571 = EDGE_CURVE('',#1572,#1563,#1574,.T.);
#1572 = VERTEX_POINT('',#1573);
#1573 = CARTESIAN_POINT('',(26.000000000001,-53.49999999999,1.5));
#1574 = LINE('',#1575,#1576);
#1575 = CARTESIAN_POINT('',(-18.,-53.5,1.5));
#1576 = VECTOR('',#1577,1.);
#1577 = DIRECTION('',(-1.,0.,0.));
#1578 = ORIENTED_EDGE('',*,*,#1579,.F.);
#1579 = EDGE_CURVE('',#1580,#1572,#1582,.T.);
#1580 = VERTEX_POINT('',#1581);
#1581 = CARTESIAN_POINT('',(32.278517870879,-45.31767620682,1.5));
#1582 = CIRCLE('',#1583,6.5);
#1583 = AXIS2_PLACEMENT_3D('',#1584,#1585,#1586);
#1584 = CARTESIAN_POINT('',(26.,-46.99999999999,1.5));
#1585 = DIRECTION('',(0.,0.,-1.));
#1586 = DIRECTION('',(1.,0.,0.));
#1587 = ORIENTED_EDGE('',*,*,#1588,.T.);
#1588 = EDGE_CURVE('',#1580,#1589,#1591,.T.);
#1589 = VERTEX_POINT('',#1590);
#1590 = CARTESIAN_POINT('',(27.333368354855,-26.862126962,1.5));
#1591 = LINE('',#1592,#1593);
#1592 = CARTESIAN_POINT('',(23.060108237463,-10.91410308995,1.5));
#1593 = VECTOR('',#1594,1.);
#1594 = DIRECTION('',(-0.258819045103,0.965925826289,0.));
#1595 = ORIENTED_EDGE('',*,*,#1596,.T.);
#1596 = EDGE_CURVE('',#1589,#1597,#1599,.T.);
#1597 = VERTEX_POINT('',#1598);
#1598 = CARTESIAN_POINT('',(29.349594728164,-13.13425734054,1.5));
#1599 = CIRCLE('',#1600,17.5);
#1600 = AXIS2_PLACEMENT_3D('',#1601,#1602,#1603);
#1601 = CARTESIAN_POINT('',(44.237070314913,-22.33279367271,1.5));
#1602 = DIRECTION('',(0.,0.,-1.));
#1603 = DIRECTION('',(1.,0.,0.));
#1604 = ORIENTED_EDGE('',*,*,#1605,.F.);
#1605 = EDGE_CURVE('',#1606,#1597,#1608,.T.);
#1606 = VERTEX_POINT('',#1607);
#1607 = CARTESIAN_POINT('',(34.5,5.,1.5));
#1608 = CIRCLE('',#1609,34.5);
#1609 = AXIS2_PLACEMENT_3D('',#1610,#1611,#1612);
#1610 = CARTESIAN_POINT('',(8.323550640359E-16,5.,1.5));
#1611 = DIRECTION('',(0.,0.,-1.));
#1612 = DIRECTION('',(1.,0.,0.));
#1613 = ORIENTED_EDGE('',*,*,#1614,.F.);
#1614 = EDGE_CURVE('',#1615,#1606,#1617,.T.);
#1615 = VERTEX_POINT('',#1616);
#1616 = CARTESIAN_POINT('',(34.5,47.,1.5));
#1617 = LINE('',#1618,#1619);
#1618 = CARTESIAN_POINT('',(34.5,-27.5,1.5));
#1619 = VECTOR('',#1620,1.);
#1620 = DIRECTION('',(0.,-1.,0.));
#1621 = ORIENTED_EDGE('',*,*,#1622,.T.);
#1622 = EDGE_CURVE('',#1615,#1623,#1625,.T.);
#1623 = VERTEX_POINT('',#1624);
#1624 = CARTESIAN_POINT('',(28.,53.5,1.5));
#1625 = CIRCLE('',#1626,6.5);
#1626 = AXIS2_PLACEMENT_3D('',#1627,#1628,#1629);
#1627 = CARTESIAN_POINT('',(28.,47.,1.5));
#1628 = DIRECTION('',(0.,0.,1.));
#1629 = DIRECTION('',(1.,0.,0.));
#1630 = ORIENTED_EDGE('',*,*,#1631,.F.);
#1631 = EDGE_CURVE('',#1632,#1623,#1634,.T.);
#1632 = VERTEX_POINT('',#1633);
#1633 = CARTESIAN_POINT('',(-28.,53.5,1.5));
#1634 = LINE('',#1635,#1636);
#1635 = CARTESIAN_POINT('',(18.,53.5,1.5));
#1636 = VECTOR('',#1637,1.);
#1637 = DIRECTION('',(1.,0.,0.));
#1638 = ORIENTED_EDGE('',*,*,#1639,.T.);
#1639 = EDGE_CURVE('',#1632,#1640,#1642,.T.);
#1640 = VERTEX_POINT('',#1641);
#1641 = CARTESIAN_POINT('',(-34.5,47.,1.5));
#1642 = CIRCLE('',#1643,6.5);
#1643 = AXIS2_PLACEMENT_3D('',#1644,#1645,#1646);
#1644 = CARTESIAN_POINT('',(-28.,47.,1.5));
#1645 = DIRECTION('',(0.,-0.,1.));
#1646 = DIRECTION('',(0.,1.,0.));
#1647 = ORIENTED_EDGE('',*,*,#1648,.F.);
#1648 = EDGE_CURVE('',#1649,#1640,#1651,.T.);
#1649 = VERTEX_POINT('',#1650);
#1650 = CARTESIAN_POINT('',(-34.5,5.,1.5));
#1651 = LINE('',#1652,#1653);
#1652 = CARTESIAN_POINT('',(-34.5,27.5,1.5));
#1653 = VECTOR('',#1654,1.);
#1654 = DIRECTION('',(0.,1.,0.));
#1655 = ORIENTED_EDGE('',*,*,#1656,.F.);
#1656 = EDGE_CURVE('',#1657,#1649,#1659,.T.);
#1657 = VERTEX_POINT('',#1658);
#1658 = CARTESIAN_POINT('',(-29.34959472816,-13.13425734054,1.5));
#1659 = CIRCLE('',#1660,34.5);
#1660 = AXIS2_PLACEMENT_3D('',#1661,#1662,#1663);
#1661 = CARTESIAN_POINT('',(-5.51989467983E-17,5.,1.5));
#1662 = DIRECTION('',(2.22044604925E-16,-2.465190328816E-32,-1.));
#1663 = DIRECTION('',(-1.,2.22044604925E-16,-2.22044604925E-16));
#1664 = ORIENTED_EDGE('',*,*,#1665,.T.);
#1665 = EDGE_CURVE('',#1657,#1666,#1668,.T.);
#1666 = VERTEX_POINT('',#1667);
#1667 = CARTESIAN_POINT('',(-27.33336835485,-26.862126962,1.5));
#1668 = CIRCLE('',#1669,17.5);
#1669 = AXIS2_PLACEMENT_3D('',#1670,#1671,#1672);
#1670 = CARTESIAN_POINT('',(-44.23707031491,-22.33279367271,1.5));
#1671 = DIRECTION('',(2.22044604925E-16,-2.465190328816E-32,-1.));
#1672 = DIRECTION('',(-1.,2.22044604925E-16,-2.22044604925E-16));
#1673 = ORIENTED_EDGE('',*,*,#1674,.F.);
#1674 = EDGE_CURVE('',#1675,#1666,#1677,.T.);
#1675 = VERTEX_POINT('',#1676);
#1676 = CARTESIAN_POINT('',(-32.27851787088,-45.31767620682,1.5));
#1677 = LINE('',#1678,#1679);
#1678 = CARTESIAN_POINT('',(-23.06010823746,-10.91410308995,1.5));
#1679 = VECTOR('',#1680,1.);
#1680 = DIRECTION('',(0.258819045103,0.965925826289,0.));
#1681 = ORIENTED_EDGE('',*,*,#1682,.F.);
#1682 = EDGE_CURVE('',#1683,#1675,#1685,.T.);
#1683 = VERTEX_POINT('',#1684);
#1684 = CARTESIAN_POINT('',(-26.,-53.49999999999,1.5));
#1685 = CIRCLE('',#1686,6.5);
#1686 = AXIS2_PLACEMENT_3D('',#1687,#1688,#1689);
#1687 = CARTESIAN_POINT('',(-26.,-46.99999999999,1.5));
#1688 = DIRECTION('',(2.22044604925E-16,-2.465190328816E-32,-1.));
#1689 = DIRECTION('',(-1.,2.22044604925E-16,-2.22044604925E-16));
#1690 = ORIENTED_EDGE('',*,*,#1691,.F.);
#1691 = EDGE_CURVE('',#1545,#1683,#1692,.T.);
#1692 = LINE('',#1693,#1694);
#1693 = CARTESIAN_POINT('',(-18.,-53.5,1.5));
#1694 = VECTOR('',#1695,1.);
#1695 = DIRECTION('',(-1.,0.,0.));
#1696 = FACE_BOUND('',#1697,.T.);
#1697 = EDGE_LOOP('',(#1698));
#1698 = ORIENTED_EDGE('',*,*,#1699,.T.);
#1699 = EDGE_CURVE('',#1700,#1700,#1702,.T.);
#1700 = VERTEX_POINT('',#1701);
#1701 = CARTESIAN_POINT('',(14.,-5.,1.5));
#1702 = CIRCLE('',#1703,14.);
#1703 = AXIS2_PLACEMENT_3D('',#1704,#1705,#1706);
#1704 = CARTESIAN_POINT('',(0.,-5.,1.5));
#1705 = DIRECTION('',(0.,0.,-1.));
#1706 = DIRECTION('',(1.,0.,0.));
#1707 = FACE_BOUND('',#1708,.T.);
#1708 = EDGE_LOOP('',(#1709,#1710,#1711,#1712));
#1709 = ORIENTED_EDGE('',*,*,#877,.T.);
#1710 = ORIENTED_EDGE('',*,*,#852,.T.);
#1711 = ORIENTED_EDGE('',*,*,#926,.F.);
#1712 = ORIENTED_EDGE('',*,*,#901,.T.);
#1713 = FACE_BOUND('',#1714,.T.);
#1714 = EDGE_LOOP('',(#1715,#1716,#1717,#1718));
#1715 = ORIENTED_EDGE('',*,*,#975,.T.);
#1716 = ORIENTED_EDGE('',*,*,#950,.T.);
#1717 = ORIENTED_EDGE('',*,*,#1024,.F.);
#1718 = ORIENTED_EDGE('',*,*,#999,.T.);
#1719 = FACE_BOUND('',#1720,.T.);
#1720 = EDGE_LOOP('',(#1721,#1722,#1723,#1724));
#1721 = ORIENTED_EDGE('',*,*,#1171,.T.);
#1722 = ORIENTED_EDGE('',*,*,#1146,.T.);
#1723 = ORIENTED_EDGE('',*,*,#1220,.F.);
#1724 = ORIENTED_EDGE('',*,*,#1195,.T.);
#1725 = FACE_BOUND('',#1726,.T.);
#1726 = EDGE_LOOP('',(#1727,#1728,#1729,#1730));
#1727 = ORIENTED_EDGE('',*,*,#1269,.T.);
#1728 = ORIENTED_EDGE('',*,*,#1244,.T.);
#1729 = ORIENTED_EDGE('',*,*,#1318,.F.);
#1730 = ORIENTED_EDGE('',*,*,#1293,.T.);
#1731 = FACE_BOUND('',#1732,.T.);
#1732 = EDGE_LOOP('',(#1733,#1734,#1735,#1736));
#1733 = ORIENTED_EDGE('',*,*,#1073,.T.);
#1734 = ORIENTED_EDGE('',*,*,#1048,.T.);
#1735 = ORIENTED_EDGE('',*,*,#1122,.F.);
#1736 = ORIENTED_EDGE('',*,*,#1097,.T.);
#1737 = PLANE('',#1738);
#1738 = AXIS2_PLACEMENT_3D('',#1739,#1740,#1741);
#1739 = CARTESIAN_POINT('',(0.,0.,1.5));
#1740 = DIRECTION('',(0.,0.,1.));
#1741 = DIRECTION('',(1.,0.,0.));
#1742 = ADVANCED_FACE('',(#1743),#1759,.T.);
#1743 = FACE_BOUND('',#1744,.T.);
#1744 = EDGE_LOOP('',(#1745,#1751,#1752,#1758));
#1745 = ORIENTED_EDGE('',*,*,#1746,.T.);
#1746 = EDGE_CURVE('',#1640,#1354,#1747,.T.);
#1747 = LINE('',#1748,#1749);
#1748 = CARTESIAN_POINT('',(-34.5,47.,0.));
#1749 = VECTOR('',#1750,1.);
#1750 = DIRECTION('',(0.,0.,1.));
#1751 = ORIENTED_EDGE('',*,*,#1353,.T.);
#1752 = ORIENTED_EDGE('',*,*,#1753,.F.);
#1753 = EDGE_CURVE('',#1649,#1356,#1754,.T.);
#1754 = LINE('',#1755,#1756);
#1755 = CARTESIAN_POINT('',(-34.5,5.,-7.660538869914E-15));
#1756 = VECTOR('',#1757,1.);
#1757 = DIRECTION('',(-2.22044604925E-16,2.465190328816E-32,1.));
#1758 = ORIENTED_EDGE('',*,*,#1648,.T.);
#1759 = PLANE('',#1760);
#1760 = AXIS2_PLACEMENT_3D('',#1761,#1762,#1763);
#1761 = CARTESIAN_POINT('',(-34.5,55.,0.));
#1762 = DIRECTION('',(1.,0.,0.));
#1763 = DIRECTION('',(0.,-1.,0.));
#1764 = ADVANCED_FACE('',(#1765),#1776,.F.);
#1765 = FACE_BOUND('',#1766,.F.);
#1766 = EDGE_LOOP('',(#1767,#1773,#1774,#1775));
#1767 = ORIENTED_EDGE('',*,*,#1768,.F.);
#1768 = EDGE_CURVE('',#1632,#1364,#1769,.T.);
#1769 = LINE('',#1770,#1771);
#1770 = CARTESIAN_POINT('',(-28.,53.5,0.));
#1771 = VECTOR('',#1772,1.);
#1772 = DIRECTION('',(0.,0.,1.));
#1773 = ORIENTED_EDGE('',*,*,#1639,.T.);
#1774 = ORIENTED_EDGE('',*,*,#1746,.T.);
#1775 = ORIENTED_EDGE('',*,*,#1363,.F.);
#1776 = CYLINDRICAL_SURFACE('',#1777,6.5);
#1777 = AXIS2_PLACEMENT_3D('',#1778,#1779,#1780);
#1778 = CARTESIAN_POINT('',(-28.,47.,0.));
#1779 = DIRECTION('',(0.,0.,1.));
#1780 = DIRECTION('',(0.,1.,0.));
#1781 = ADVANCED_FACE('',(#1782),#1793,.T.);
#1782 = FACE_BOUND('',#1783,.T.);
#1783 = EDGE_LOOP('',(#1784,#1790,#1791,#1792));
#1784 = ORIENTED_EDGE('',*,*,#1785,.T.);
#1785 = EDGE_CURVE('',#1623,#1373,#1786,.T.);
#1786 = LINE('',#1787,#1788);
#1787 = CARTESIAN_POINT('',(28.,53.5,0.));
#1788 = VECTOR('',#1789,1.);
#1789 = DIRECTION('',(0.,0.,1.));
#1790 = ORIENTED_EDGE('',*,*,#1372,.T.);
#1791 = ORIENTED_EDGE('',*,*,#1768,.F.);
#1792 = ORIENTED_EDGE('',*,*,#1631,.T.);
#1793 = PLANE('',#1794);
#1794 = AXIS2_PLACEMENT_3D('',#1795,#1796,#1797);
#1795 = CARTESIAN_POINT('',(36.,53.5,0.));
#1796 = DIRECTION('',(0.,-1.,0.));
#1797 = DIRECTION('',(-1.,0.,0.));
#1798 = ADVANCED_FACE('',(#1799),#1810,.F.);
#1799 = FACE_BOUND('',#1800,.F.);
#1800 = EDGE_LOOP('',(#1801,#1807,#1808,#1809));
#1801 = ORIENTED_EDGE('',*,*,#1802,.F.);
#1802 = EDGE_CURVE('',#1615,#1381,#1803,.T.);
#1803 = LINE('',#1804,#1805);
#1804 = CARTESIAN_POINT('',(34.5,47.,0.));
#1805 = VECTOR('',#1806,1.);
#1806 = DIRECTION('',(0.,0.,1.));
#1807 = ORIENTED_EDGE('',*,*,#1622,.T.);
#1808 = ORIENTED_EDGE('',*,*,#1785,.T.);
#1809 = ORIENTED_EDGE('',*,*,#1380,.F.);
#1810 = CYLINDRICAL_SURFACE('',#1811,6.5);
#1811 = AXIS2_PLACEMENT_3D('',#1812,#1813,#1814);
#1812 = CARTESIAN_POINT('',(28.,47.,0.));
#1813 = DIRECTION('',(0.,0.,1.));
#1814 = DIRECTION('',(1.,0.,0.));
#1815 = ADVANCED_FACE('',(#1816),#1827,.T.);
#1816 = FACE_BOUND('',#1817,.T.);
#1817 = EDGE_LOOP('',(#1818,#1824,#1825,#1826));
#1818 = ORIENTED_EDGE('',*,*,#1819,.T.);
#1819 = EDGE_CURVE('',#1606,#1390,#1820,.T.);
#1820 = LINE('',#1821,#1822);
#1821 = CARTESIAN_POINT('',(34.5,5.,0.));
#1822 = VECTOR('',#1823,1.);
#1823 = DIRECTION('',(0.,0.,1.));
#1824 = ORIENTED_EDGE('',*,*,#1389,.T.);
#1825 = ORIENTED_EDGE('',*,*,#1802,.F.);
#1826 = ORIENTED_EDGE('',*,*,#1614,.T.);
#1827 = PLANE('',#1828);
#1828 = AXIS2_PLACEMENT_3D('',#1829,#1830,#1831);
#1829 = CARTESIAN_POINT('',(34.5,-55.,0.));
#1830 = DIRECTION('',(-1.,0.,0.));
#1831 = DIRECTION('',(0.,1.,0.));
#1832 = ADVANCED_FACE('',(#1833),#1844,.F.);
#1833 = FACE_BOUND('',#1834,.T.);
#1834 = EDGE_LOOP('',(#1835,#1836,#1837,#1838));
#1835 = ORIENTED_EDGE('',*,*,#1397,.F.);
#1836 = ORIENTED_EDGE('',*,*,#1819,.F.);
#1837 = ORIENTED_EDGE('',*,*,#1605,.T.);
#1838 = ORIENTED_EDGE('',*,*,#1839,.T.);
#1839 = EDGE_CURVE('',#1597,#1398,#1840,.T.);
#1840 = LINE('',#1841,#1842);
#1841 = CARTESIAN_POINT('',(29.349594728168,-13.13425734055,0.));
#1842 = VECTOR('',#1843,1.);
#1843 = DIRECTION('',(0.,0.,1.));
#1844 = CYLINDRICAL_SURFACE('',#1845,34.5);
#1845 = AXIS2_PLACEMENT_3D('',#1846,#1847,#1848);
#1846 = CARTESIAN_POINT('',(8.323550640359E-16,5.,0.));
#1847 = DIRECTION('',(-0.,-0.,-1.));
#1848 = DIRECTION('',(1.,0.,0.));
#1849 = ADVANCED_FACE('',(#1850),#1861,.T.);
#1850 = FACE_BOUND('',#1851,.F.);
#1851 = EDGE_LOOP('',(#1852,#1858,#1859,#1860));
#1852 = ORIENTED_EDGE('',*,*,#1853,.F.);
#1853 = EDGE_CURVE('',#1589,#1407,#1854,.T.);
#1854 = LINE('',#1855,#1856);
#1855 = CARTESIAN_POINT('',(27.333368354855,-26.862126962,0.));
#1856 = VECTOR('',#1857,1.);
#1857 = DIRECTION('',(0.,0.,1.));
#1858 = ORIENTED_EDGE('',*,*,#1596,.T.);
#1859 = ORIENTED_EDGE('',*,*,#1839,.T.);
#1860 = ORIENTED_EDGE('',*,*,#1406,.F.);
#1861 = CYLINDRICAL_SURFACE('',#1862,17.5);
#1862 = AXIS2_PLACEMENT_3D('',#1863,#1864,#1865);
#1863 = CARTESIAN_POINT('',(44.237070314913,-22.33279367271,0.));
#1864 = DIRECTION('',(-0.,-0.,-1.));
#1865 = DIRECTION('',(1.,0.,0.));
#1866 = ADVANCED_FACE('',(#1867),#1878,.F.);
#1867 = FACE_BOUND('',#1868,.F.);
#1868 = EDGE_LOOP('',(#1869,#1875,#1876,#1877));
#1869 = ORIENTED_EDGE('',*,*,#1870,.F.);
#1870 = EDGE_CURVE('',#1580,#1416,#1871,.T.);
#1871 = LINE('',#1872,#1873);
#1872 = CARTESIAN_POINT('',(32.278517870879,-45.31767620682,0.));
#1873 = VECTOR('',#1874,1.);
#1874 = DIRECTION('',(0.,0.,1.));
#1875 = ORIENTED_EDGE('',*,*,#1588,.T.);
#1876 = ORIENTED_EDGE('',*,*,#1853,.T.);
#1877 = ORIENTED_EDGE('',*,*,#1415,.F.);
#1878 = PLANE('',#1879);
#1879 = AXIS2_PLACEMENT_3D('',#1880,#1881,#1882);
#1880 = CARTESIAN_POINT('',(27.333368354855,-26.862126962,0.));
#1881 = DIRECTION('',(0.965925826289,0.258819045103,0.));
#1882 = DIRECTION('',(0.258819045103,-0.965925826289,0.));
#1883 = ADVANCED_FACE('',(#1884),#1895,.F.);
#1884 = FACE_BOUND('',#1885,.T.);
#1885 = EDGE_LOOP('',(#1886,#1887,#1888,#1889));
#1886 = ORIENTED_EDGE('',*,*,#1423,.F.);
#1887 = ORIENTED_EDGE('',*,*,#1870,.F.);
#1888 = ORIENTED_EDGE('',*,*,#1579,.T.);
#1889 = ORIENTED_EDGE('',*,*,#1890,.T.);
#1890 = EDGE_CURVE('',#1572,#1424,#1891,.T.);
#1891 = LINE('',#1892,#1893);
#1892 = CARTESIAN_POINT('',(26.,-53.49999999999,0.));
#1893 = VECTOR('',#1894,1.);
#1894 = DIRECTION('',(0.,0.,1.));
#1895 = CYLINDRICAL_SURFACE('',#1896,6.5);
#1896 = AXIS2_PLACEMENT_3D('',#1897,#1898,#1899);
#1897 = CARTESIAN_POINT('',(26.,-46.99999999999,0.));
#1898 = DIRECTION('',(-0.,-0.,-1.));
#1899 = DIRECTION('',(1.,0.,0.));
#1900 = ADVANCED_FACE('',(#1901),#1912,.T.);
#1901 = FACE_BOUND('',#1902,.T.);
#1902 = EDGE_LOOP('',(#1903,#1904,#1905,#1906));
#1903 = ORIENTED_EDGE('',*,*,#1432,.T.);
#1904 = ORIENTED_EDGE('',*,*,#1890,.F.);
#1905 = ORIENTED_EDGE('',*,*,#1571,.T.);
#1906 = ORIENTED_EDGE('',*,*,#1907,.T.);
#1907 = EDGE_CURVE('',#1563,#1433,#1908,.T.);
#1908 = LINE('',#1909,#1910);
#1909 = CARTESIAN_POINT('',(10.568323216068,-53.5,0.));
#1910 = VECTOR('',#1911,1.);
#1911 = DIRECTION('',(0.,0.,1.));
#1912 = PLANE('',#1913);
#1913 = AXIS2_PLACEMENT_3D('',#1914,#1915,#1916);
#1914 = CARTESIAN_POINT('',(-36.,-53.5,0.));
#1915 = DIRECTION('',(0.,1.,0.));
#1916 = DIRECTION('',(1.,0.,0.));
#1917 = ADVANCED_FACE('',(#1918),#1929,.F.);
#1918 = FACE_BOUND('',#1919,.T.);
#1919 = EDGE_LOOP('',(#1920,#1921,#1922,#1928));
#1920 = ORIENTED_EDGE('',*,*,#1907,.F.);
#1921 = ORIENTED_EDGE('',*,*,#1562,.T.);
#1922 = ORIENTED_EDGE('',*,*,#1923,.T.);
#1923 = EDGE_CURVE('',#1554,#1441,#1924,.T.);
#1924 = LINE('',#1925,#1926);
#1925 = CARTESIAN_POINT('',(7.12776786728,-44.71005351668,0.));
#1926 = VECTOR('',#1927,1.);
#1927 = DIRECTION('',(0.,0.,1.));
#1928 = ORIENTED_EDGE('',*,*,#1440,.F.);
#1929 = CYLINDRICAL_SURFACE('',#1930,5.068323274845);
#1930 = AXIS2_PLACEMENT_3D('',#1931,#1932,#1933);
#1931 = CARTESIAN_POINT('',(10.568323274845,-48.43167672515,0.));
#1932 = DIRECTION('',(-0.,-0.,-1.));
#1933 = DIRECTION('',(1.,0.,0.));
#1934 = ADVANCED_FACE('',(#1935),#1946,.T.);
#1935 = FACE_BOUND('',#1936,.F.);
#1936 = EDGE_LOOP('',(#1937,#1938,#1944,#1945));
#1937 = ORIENTED_EDGE('',*,*,#1449,.F.);
#1938 = ORIENTED_EDGE('',*,*,#1939,.F.);
#1939 = EDGE_CURVE('',#1543,#1450,#1940,.T.);
#1940 = LINE('',#1941,#1942);
#1941 = CARTESIAN_POINT('',(-7.12776786728,-44.71005351668,0.));
#1942 = VECTOR('',#1943,1.);
#1943 = DIRECTION('',(0.,0.,1.));
#1944 = ORIENTED_EDGE('',*,*,#1553,.T.);
#1945 = ORIENTED_EDGE('',*,*,#1923,.T.);
#1946 = CYLINDRICAL_SURFACE('',#1947,10.5);
#1947 = AXIS2_PLACEMENT_3D('',#1948,#1949,#1950);
#1948 = CARTESIAN_POINT('',(3.222203591928E-31,-37.,0.));
#1949 = DIRECTION('',(-0.,-0.,-1.));
#1950 = DIRECTION('',(1.,0.,0.));
#1951 = ADVANCED_FACE('',(#1952),#1963,.F.);
#1952 = FACE_BOUND('',#1953,.T.);
#1953 = EDGE_LOOP('',(#1954,#1955,#1956,#1962));
#1954 = ORIENTED_EDGE('',*,*,#1939,.F.);
#1955 = ORIENTED_EDGE('',*,*,#1542,.T.);
#1956 = ORIENTED_EDGE('',*,*,#1957,.T.);
#1957 = EDGE_CURVE('',#1545,#1459,#1958,.T.);
#1958 = LINE('',#1959,#1960);
#1959 = CARTESIAN_POINT('',(-10.56832327484,-53.5,0.));
#1960 = VECTOR('',#1961,1.);
#1961 = DIRECTION('',(0.,0.,1.));
#1962 = ORIENTED_EDGE('',*,*,#1458,.F.);
#1963 = CYLINDRICAL_SURFACE('',#1964,5.068323274845);
#1964 = AXIS2_PLACEMENT_3D('',#1965,#1966,#1967);
#1965 = CARTESIAN_POINT('',(-10.56832327484,-48.43167672515,0.));
#1966 = DIRECTION('',(-0.,-0.,-1.));
#1967 = DIRECTION('',(1.,0.,0.));
#1968 = ADVANCED_FACE('',(#1969),#1980,.T.);
#1969 = FACE_BOUND('',#1970,.T.);
#1970 = EDGE_LOOP('',(#1971,#1972,#1973,#1979));
#1971 = ORIENTED_EDGE('',*,*,#1957,.F.);
#1972 = ORIENTED_EDGE('',*,*,#1691,.T.);
#1973 = ORIENTED_EDGE('',*,*,#1974,.T.);
#1974 = EDGE_CURVE('',#1683,#1468,#1975,.T.);
#1975 = LINE('',#1976,#1977);
#1976 = CARTESIAN_POINT('',(-26.,-53.49999999999,-5.773159728051E-15));
#1977 = VECTOR('',#1978,1.);
#1978 = DIRECTION('',(-2.22044604925E-16,2.465190328816E-32,1.));
#1979 = ORIENTED_EDGE('',*,*,#1467,.T.);
#1980 = PLANE('',#1981);
#1981 = AXIS2_PLACEMENT_3D('',#1982,#1983,#1984);
#1982 = CARTESIAN_POINT('',(-36.,-53.5,0.));
#1983 = DIRECTION('',(0.,1.,0.));
#1984 = DIRECTION('',(1.,0.,0.));
#1985 = ADVANCED_FACE('',(#1986),#1997,.F.);
#1986 = FACE_BOUND('',#1987,.F.);
#1987 = EDGE_LOOP('',(#1988,#1989,#1995,#1996));
#1988 = ORIENTED_EDGE('',*,*,#1475,.T.);
#1989 = ORIENTED_EDGE('',*,*,#1990,.F.);
#1990 = EDGE_CURVE('',#1675,#1476,#1991,.T.);
#1991 = LINE('',#1992,#1993);
#1992 = CARTESIAN_POINT('',(-32.27851787087,-45.31767620682,
    -7.167270748205E-15));
#1993 = VECTOR('',#1994,1.);
#1994 = DIRECTION('',(-2.22044604925E-16,2.465190328816E-32,1.));
#1995 = ORIENTED_EDGE('',*,*,#1682,.F.);
#1996 = ORIENTED_EDGE('',*,*,#1974,.T.);
#1997 = CYLINDRICAL_SURFACE('',#1998,6.5);
#1998 = AXIS2_PLACEMENT_3D('',#1999,#2000,#2001);
#1999 = CARTESIAN_POINT('',(-26.,-46.99999999999,-5.773159728051E-15));
#2000 = DIRECTION('',(2.22044604925E-16,-2.465190328816E-32,-1.));
#2001 = DIRECTION('',(-1.,2.22044604925E-16,-2.22044604925E-16));
#2002 = ADVANCED_FACE('',(#2003),#2014,.F.);
#2003 = FACE_BOUND('',#2004,.T.);
#2004 = EDGE_LOOP('',(#2005,#2006,#2007,#2013));
#2005 = ORIENTED_EDGE('',*,*,#1990,.F.);
#2006 = ORIENTED_EDGE('',*,*,#1674,.T.);
#2007 = ORIENTED_EDGE('',*,*,#2008,.T.);
#2008 = EDGE_CURVE('',#1666,#1485,#2009,.T.);
#2009 = LINE('',#2010,#2011);
#2010 = CARTESIAN_POINT('',(-27.33336835485,-26.862126962,
    -6.069226977624E-15));
#2011 = VECTOR('',#2012,1.);
#2012 = DIRECTION('',(-2.22044604925E-16,2.465190328816E-32,1.));
#2013 = ORIENTED_EDGE('',*,*,#1484,.F.);
#2014 = PLANE('',#2015);
#2015 = AXIS2_PLACEMENT_3D('',#2016,#2017,#2018);
#2016 = CARTESIAN_POINT('',(-27.33336835485,-26.862126962,
    -6.069226977624E-15));
#2017 = DIRECTION('',(-0.965925826289,0.258819045103,-2.144786184852E-16
    ));
#2018 = DIRECTION('',(0.258819045103,0.965925826289,5.74693726169E-17));
#2019 = ADVANCED_FACE('',(#2020),#2031,.T.);
#2020 = FACE_BOUND('',#2021,.T.);
#2021 = EDGE_LOOP('',(#2022,#2023,#2024,#2030));
#2022 = ORIENTED_EDGE('',*,*,#2008,.F.);
#2023 = ORIENTED_EDGE('',*,*,#1665,.F.);
#2024 = ORIENTED_EDGE('',*,*,#2025,.T.);
#2025 = EDGE_CURVE('',#1657,#1493,#2026,.T.);
#2026 = LINE('',#2027,#2028);
#2027 = CARTESIAN_POINT('',(-29.34959472816,-13.13425734055,
    -6.516919166126E-15));
#2028 = VECTOR('',#2029,1.);
#2029 = DIRECTION('',(-2.22044604925E-16,2.465190328816E-32,1.));
#2030 = ORIENTED_EDGE('',*,*,#1492,.T.);
#2031 = CYLINDRICAL_SURFACE('',#2032,17.5);
#2032 = AXIS2_PLACEMENT_3D('',#2033,#2034,#2035);
#2033 = CARTESIAN_POINT('',(-44.23707031491,-22.33279367271,
    -9.822602801116E-15));
#2034 = DIRECTION('',(2.22044604925E-16,-2.465190328816E-32,-1.));
#2035 = DIRECTION('',(-1.,2.22044604925E-16,-2.22044604925E-16));
#2036 = ADVANCED_FACE('',(#2037),#2043,.F.);
#2037 = FACE_BOUND('',#2038,.F.);
#2038 = EDGE_LOOP('',(#2039,#2040,#2041,#2042));
#2039 = ORIENTED_EDGE('',*,*,#1501,.T.);
#2040 = ORIENTED_EDGE('',*,*,#1753,.F.);
#2041 = ORIENTED_EDGE('',*,*,#1656,.F.);
#2042 = ORIENTED_EDGE('',*,*,#2025,.T.);
#2043 = CYLINDRICAL_SURFACE('',#2044,34.5);
#2044 = AXIS2_PLACEMENT_3D('',#2045,#2046,#2047);
#2045 = CARTESIAN_POINT('',(2.778679605892E-16,5.,-6.156043491042E-32));
#2046 = DIRECTION('',(2.22044604925E-16,-2.465190328816E-32,-1.));
#2047 = DIRECTION('',(-1.,2.22044604925E-16,-2.22044604925E-16));
#2048 = ADVANCED_FACE('',(#2049),#2052,.F.);
#2049 = FACE_BOUND('',#2050,.F.);
#2050 = EDGE_LOOP('',(#2051));
#2051 = ORIENTED_EDGE('',*,*,#1527,.T.);
#2052 = PLANE('',#2053);
#2053 = AXIS2_PLACEMENT_3D('',#2054,#2055,#2056);
#2054 = CARTESIAN_POINT('',(-4.375808424126E-16,-5.,8.));
#2055 = DIRECTION('',(0.,0.,1.));
#2056 = DIRECTION('',(1.,0.,0.));
#2057 = ADVANCED_FACE('',(#2058),#2077,.T.);
#2058 = FACE_BOUND('',#2059,.F.);
#2059 = EDGE_LOOP('',(#2060,#2068,#2069,#2070));
#2060 = ORIENTED_EDGE('',*,*,#2061,.F.);
#2061 = EDGE_CURVE('',#1700,#2062,#2064,.T.);
#2062 = VERTEX_POINT('',#2063);
#2063 = CARTESIAN_POINT('',(14.,-5.,6.));
#2064 = LINE('',#2065,#2066);
#2065 = CARTESIAN_POINT('',(14.,-5.,0.));
#2066 = VECTOR('',#2067,1.);
#2067 = DIRECTION('',(0.,0.,1.));
#2068 = ORIENTED_EDGE('',*,*,#1699,.T.);
#2069 = ORIENTED_EDGE('',*,*,#2061,.T.);
#2070 = ORIENTED_EDGE('',*,*,#2071,.T.);
#2071 = EDGE_CURVE('',#2062,#2062,#2072,.T.);
#2072 = CIRCLE('',#2073,14.);
#2073 = AXIS2_PLACEMENT_3D('',#2074,#2075,#2076);
#2074 = CARTESIAN_POINT('',(0.,-5.,6.));
#2075 = DIRECTION('',(0.,0.,1.));
#2076 = DIRECTION('',(1.,0.,0.));
#2077 = CYLINDRICAL_SURFACE('',#2078,14.);
#2078 = AXIS2_PLACEMENT_3D('',#2079,#2080,#2081);
#2079 = CARTESIAN_POINT('',(0.,-5.,0.));
#2080 = DIRECTION('',(-0.,-0.,-1.));
#2081 = DIRECTION('',(1.,0.,0.));
#2082 = ADVANCED_FACE('',(#2083),#2103,.T.);
#2083 = FACE_BOUND('',#2084,.T.);
#2084 = EDGE_LOOP('',(#2085,#2094,#2095,#2096));
#2085 = ORIENTED_EDGE('',*,*,#2086,.F.);
#2086 = EDGE_CURVE('',#2062,#2087,#2089,.T.);
#2087 = VERTEX_POINT('',#2088);
#2088 = CARTESIAN_POINT('',(10.5,-5.,9.5));
#2089 = CIRCLE('',#2090,3.5);
#2090 = AXIS2_PLACEMENT_3D('',#2091,#2092,#2093);
#2091 = CARTESIAN_POINT('',(10.5,-5.,6.));
#2092 = DIRECTION('',(0.,-1.,0.));
#2093 = DIRECTION('',(1.,0.,0.));
#2094 = ORIENTED_EDGE('',*,*,#2071,.T.);
#2095 = ORIENTED_EDGE('',*,*,#2086,.T.);
#2096 = ORIENTED_EDGE('',*,*,#2097,.F.);
#2097 = EDGE_CURVE('',#2087,#2087,#2098,.T.);
#2098 = CIRCLE('',#2099,10.5);
#2099 = AXIS2_PLACEMENT_3D('',#2100,#2101,#2102);
#2100 = CARTESIAN_POINT('',(0.,-5.,9.5));
#2101 = DIRECTION('',(0.,0.,1.));
#2102 = DIRECTION('',(1.,0.,0.));
#2103 = TOROIDAL_SURFACE('',#2104,10.5,3.5);
#2104 = AXIS2_PLACEMENT_3D('',#2105,#2106,#2107);
#2105 = CARTESIAN_POINT('',(0.,-5.,6.));
#2106 = DIRECTION('',(0.,0.,1.));
#2107 = DIRECTION('',(1.,0.,0.));
#2108 = ADVANCED_FACE('',(#2109),#2112,.T.);
#2109 = FACE_BOUND('',#2110,.T.);
#2110 = EDGE_LOOP('',(#2111));
#2111 = ORIENTED_EDGE('',*,*,#2097,.T.);
#2112 = PLANE('',#2113);
#2113 = AXIS2_PLACEMENT_3D('',#2114,#2115,#2116);
#2114 = CARTESIAN_POINT('',(-4.375808424126E-16,-5.,9.5));
#2115 = DIRECTION('',(0.,0.,1.));
#2116 = DIRECTION('',(1.,0.,0.));
#2117 = ( GEOMETRIC_REPRESENTATION_CONTEXT(3) 
GLOBAL_UNCERTAINTY_ASSIGNED_CONTEXT((#2121)) 
GLOBAL_UNIT_ASSIGNED_CONTEXT((#2118,#2119,#2120)) REPRESENTATION_CONTEXT
('Context #1','3D Context with UNIT and UNCERTAINTY') );
#2118 = ( LENGTH_UNIT() NAMED_UNIT(*) SI_UNIT(.MILLI.,.METRE.) );
#2119 = ( NAMED_UNIT(*) PLANE_ANGLE_UNIT() SI_UNIT($,.RADIAN.) );
#2120 = ( NAMED_UNIT(*) SI_UNIT($,.STERADIAN.) SOLID_ANGLE_UNIT() );
#2121 = UNCERTAINTY_MEASURE_WITH_UNIT(LENGTH_MEASURE(5.E-05),#2118,
  'distance_accuracy_value','confusion accuracy');
#2122 = PRODUCT_RELATED_PRODUCT_CATEGORY('part',$,(#7));
#2123 = MECHANICAL_DESIGN_GEOMETRIC_PRESENTATION_REPRESENTATION('',(
    #2124),#2117);
#2124 = STYLED_ITEM('color',(#2125),#15);
#2125 = PRESENTATION_STYLE_ASSIGNMENT((#2126,#2132));
#2126 = SURFACE_STYLE_USAGE(.BOTH.,#2127);
#2127 = SURFACE_SIDE_STYLE('',(#2128));
#2128 = SURFACE_STYLE_FILL_AREA(#2129);
#2129 = FILL_AREA_STYLE('',(#2130));
#2130 = FILL_AREA_STYLE_COLOUR('',#2131);
#2131 = COLOUR_RGB('',0.800000010877,0.800000010877,0.800000010877);
#2132 = CURVE_STYLE('',#2133,POSITIVE_LENGTH_MEASURE(0.1),#2134);
#2133 = DRAUGHTING_PRE_DEFINED_CURVE_FONT('continuous');
#2134 = COLOUR_RGB('',9.803921802644E-02,9.803921802644E-02,
  9.803921802644E-02);
ENDSEC;
END-ISO-10303-21;
