ISO-10303-21;
HEADER;
FILE_DESCRIPTION(('FreeCAD Model'),'2;1');
FILE_NAME('Open CASCADE Shape Model','2025-05-12T10:24:08',(''),(''),
  'Open CASCADE STEP processor 7.8','FreeCAD','Unknown');
FILE_SCHEMA(('AUTOMOTIVE_DESIGN { 1 0 10303 214 1 1 1 1 }'));
ENDSEC;
DATA;
#1 = APPLICATION_PROTOCOL_DEFINITION('international standard',
  'automotive_design',2000,#2);
#2 = APPLICATION_CONTEXT(
  'core data for automotive mechanical design processes');
#3 = SHAPE_DEFINITION_REPRESENTATION(#4,#10);
#4 = PRODUCT_DEFINITION_SHAPE('','',#5);
#5 = PRODUCT_DEFINITION('design','',#6,#9);
#6 = PRODUCT_DEFINITION_FORMATION('','',#7);
#7 = PRODUCT('Body','Body','',(#8));
#8 = PRODUCT_CONTEXT('',#2,'mechanical');
#9 = PRODUCT_DEFINITION_CONTEXT('part definition',#2,'design');
#10 = ADVANCED_BREP_SHAPE_REPRESENTATION('',(#11,#15),#871);
#11 = AXIS2_PLACEMENT_3D('',#12,#13,#14);
#12 = CARTESIAN_POINT('',(0.,0.,0.));
#13 = DIRECTION('',(0.,0.,1.));
#14 = DIRECTION('',(1.,0.,-0.));
#15 = MANIFOLD_SOLID_BREP('',#16);
#16 = CLOSED_SHELL('',(#17,#117,#162,#278,#303,#411,#436,#463,#488,#506,
    #526,#545,#573,#600,#786,#798,#807,#832,#859));
#17 = ADVANCED_FACE('',(#18,#54),#112,.T.);
#18 = FACE_BOUND('',#19,.T.);
#19 = EDGE_LOOP('',(#20,#31,#39,#48));
#20 = ORIENTED_EDGE('',*,*,#21,.F.);
#21 = EDGE_CURVE('',#22,#24,#26,.T.);
#22 = VERTEX_POINT('',#23);
#23 = CARTESIAN_POINT('',(8.485281374239,1.884110950421E-15,
    8.485281374239));
#24 = VERTEX_POINT('',#25);
#25 = CARTESIAN_POINT('',(-8.485281374239,1.884110950421E-15,
    8.485281374239));
#26 = CIRCLE('',#27,24.524149651187);
#27 = AXIS2_PLACEMENT_3D('',#28,#29,#30);
#28 = CARTESIAN_POINT('',(0.,-3.22500907117E-15,-14.52414965118));
#29 = DIRECTION('',(0.,-1.,2.22044604925E-16));
#30 = DIRECTION('',(1.,0.,0.));
#31 = ORIENTED_EDGE('',*,*,#32,.T.);
#32 = EDGE_CURVE('',#22,#33,#35,.T.);
#33 = VERTEX_POINT('',#34);
#34 = CARTESIAN_POINT('',(8.485281374239,68.321012126387,8.485281374239)
  );
#35 = LINE('',#36,#37);
#36 = CARTESIAN_POINT('',(8.485281374239,1.884110950421E-15,
    8.485281374239));
#37 = VECTOR('',#38,1.);
#38 = DIRECTION('',(0.,1.,-2.22044604925E-16));
#39 = ORIENTED_EDGE('',*,*,#40,.T.);
#40 = EDGE_CURVE('',#33,#41,#43,.T.);
#41 = VERTEX_POINT('',#42);
#42 = CARTESIAN_POINT('',(-8.485281374239,68.321012126387,8.485281374239
    ));
#43 = ELLIPSE('',#44,41.722975449858,24.524149651187);
#44 = AXIS2_PLACEMENT_3D('',#45,#46,#47);
#45 = CARTESIAN_POINT('',(0.,99.990776990112,-14.52414965118));
#46 = DIRECTION('',(0.,-0.587785252292,-0.809016994375));
#47 = DIRECTION('',(0.,-0.809016994375,0.587785252292));
#48 = ORIENTED_EDGE('',*,*,#49,.F.);
#49 = EDGE_CURVE('',#24,#41,#50,.T.);
#50 = LINE('',#51,#52);
#51 = CARTESIAN_POINT('',(-8.485281374239,1.884110950421E-15,
    8.485281374239));
#52 = VECTOR('',#53,1.);
#53 = DIRECTION('',(0.,1.,-2.22044604925E-16));
#54 = FACE_BOUND('',#55,.T.);
#55 = EDGE_LOOP('',(#56));
#56 = ORIENTED_EDGE('',*,*,#57,.T.);
#57 = EDGE_CURVE('',#58,#58,#60,.T.);
#58 = VERTEX_POINT('',#59);
#59 = CARTESIAN_POINT('',(-2.,50.,9.91831168383));
#60 = B_SPLINE_CURVE_WITH_KNOTS('',8,(#61,#62,#63,#64,#65,#66,#67,#68,
    #69,#70,#71,#72,#73,#74,#75,#76,#77,#78,#79,#80,#81,#82,#83,#84,#85,
    #86,#87,#88,#89,#90,#91,#92,#93,#94,#95,#96,#97,#98,#99,#100,#101,
    #102,#103,#104,#105,#106,#107,#108,#109,#110,#111),.UNSPECIFIED.,.T.
  ,.F.,(9,7,7,7,7,7,7,9),(0.,0.153637598552,0.285746106359,
    0.421729098941,0.589504905051,0.71489984406,0.837266128738,1.),
  .UNSPECIFIED.);
#61 = CARTESIAN_POINT('',(-2.,50.,9.91831168383));
#62 = CARTESIAN_POINT('',(-2.,50.208689224764,9.91831168383));
#63 = CARTESIAN_POINT('',(-1.975113320622,50.417330073694,9.92034789079)
  );
#64 = CARTESIAN_POINT('',(-1.925362093082,50.62413182162,9.924419323101)
  );
#65 = CARTESIAN_POINT('',(-1.850222057036,50.827176231633,9.930423978434
    ));
#66 = CARTESIAN_POINT('',(-1.748787797391,51.024076385466,9.938153320136
    ));
#67 = CARTESIAN_POINT('',(-1.619876218047,51.211741604721,9.947239316161
    ));
#68 = CARTESIAN_POINT('',(-1.462213148529,51.386024537559,9.95708907668)
  );
#69 = CARTESIAN_POINT('',(-1.113738113625,51.674308157807,9.975228509252
    ));
#70 = CARTESIAN_POINT('',(-0.925183329166,51.797871116259,9.983829033842
    ));
#71 = CARTESIAN_POINT('',(-0.711945408765,51.90130871069,9.99177697363)
  );
#72 = CARTESIAN_POINT('',(-0.479160958059,51.976815079062,9.9980306097)
  );
#73 = CARTESIAN_POINT('',(-0.233848164509,52.019200754816,
    10.001630990071));
#74 = CARTESIAN_POINT('',(1.601258727958E-02,52.02599125776,
    10.002142302612));
#75 = CARTESIAN_POINT('',(0.262243394135,51.997539083426,9.999725580608)
  );
#76 = CARTESIAN_POINT('',(0.739412245778,51.875022945797,9.990046021265)
  );
#77 = CARTESIAN_POINT('',(0.961843504796,51.781075268333,9.982802229583)
  );
#78 = CARTESIAN_POINT('',(1.162081006296,51.661695838196,9.974049708656)
  );
#79 = CARTESIAN_POINT('',(1.338830367195,51.522305251569,9.964660874565)
  );
#80 = CARTESIAN_POINT('',(1.491625045481,51.367638316354,9.95538754533)
  );
#81 = CARTESIAN_POINT('',(1.620577545555,51.201888162009,9.94680443503)
  );
#82 = CARTESIAN_POINT('',(1.726264015869,51.028771542958,9.939311278127)
  );
#83 = CARTESIAN_POINT('',(1.912540790601,50.632913246507,9.925528208929)
  );
#84 = CARTESIAN_POINT('',(1.982558566437,50.40575241596,9.919850106686)
  );
#85 = CARTESIAN_POINT('',(2.021316302835,50.173793376242,9.916542900245)
  );
#86 = CARTESIAN_POINT('',(2.029637391053,49.939723215492,9.91581135879)
  );
#87 = CARTESIAN_POINT('',(2.007652440423,49.70600005319,9.917710220276)
  );
#88 = CARTESIAN_POINT('',(1.954884030397,49.475251911011,9.922151673986)
  );
#89 = CARTESIAN_POINT('',(1.870337700356,49.250632431785,9.928860044249)
  );
#90 = CARTESIAN_POINT('',(1.664626678277,48.876445471733,9.943598825803)
  );
#91 = CARTESIAN_POINT('',(1.557279619192,48.720747124291,9.950926421478)
  );
#92 = CARTESIAN_POINT('',(1.429869471096,48.572305299443,9.959048609956)
  );
#93 = CARTESIAN_POINT('',(1.282076302063,48.43432076722,9.967605960589)
  );
#94 = CARTESIAN_POINT('',(1.113997182367,48.31030012408,9.976108408529)
  );
#95 = CARTESIAN_POINT('',(0.926216002081,48.204093743705,9.983946476057)
  );
#96 = CARTESIAN_POINT('',(0.719958206783,48.119982105956,9.990440654159)
  );
#97 = CARTESIAN_POINT('',(0.280177261659,48.007065551127,9.999361784995)
  );
#98 = CARTESIAN_POINT('',(5.267485708345E-02,47.978320696708,
    10.001776246806));
#99 = CARTESIAN_POINT('',(-0.178943661218,47.979691880634,
    10.001714256215));
#100 = CARTESIAN_POINT('',(-0.40788451367,48.011850746373,9.998988886827
    ));
#101 = CARTESIAN_POINT('',(-0.627378951718,48.073144281352,
    9.993895780924));
#102 = CARTESIAN_POINT('',(-0.831361661458,48.159677010603,
    9.987121948277));
#103 = CARTESIAN_POINT('',(-1.015086122315,48.265367282451,
    9.979509888387));
#104 = CARTESIAN_POINT('',(-1.388997306523,48.537029659474,
    9.961565745827));
#105 = CARTESIAN_POINT('',(-1.568616536261,48.71668732071,9.950815335873
    ));
#106 = CARTESIAN_POINT('',(-1.715243171552,48.913126167261,
    9.940697421538));
#107 = CARTESIAN_POINT('',(-1.830372116815,49.12094526199,9.932007353436
    ));
#108 = CARTESIAN_POINT('',(-1.915496994186,49.33619539551,9.925226886017
    ));
#109 = CARTESIAN_POINT('',(-1.971805215592,49.555923441557,
    9.920618451814));
#110 = CARTESIAN_POINT('',(-2.,49.777873862881,9.91831168383));
#111 = CARTESIAN_POINT('',(-2.,50.,9.91831168383));
#112 = CYLINDRICAL_SURFACE('',#113,24.524149651187);
#113 = AXIS2_PLACEMENT_3D('',#114,#115,#116);
#114 = CARTESIAN_POINT('',(0.,-3.22500907117E-15,-14.52414965118));
#115 = DIRECTION('',(0.,-1.,2.22044604925E-16));
#116 = DIRECTION('',(1.,0.,0.));
#117 = ADVANCED_FACE('',(#118,#146),#157,.F.);
#118 = FACE_BOUND('',#119,.F.);
#119 = EDGE_LOOP('',(#120,#121,#130,#139));
#120 = ORIENTED_EDGE('',*,*,#21,.F.);
#121 = ORIENTED_EDGE('',*,*,#122,.F.);
#122 = EDGE_CURVE('',#123,#22,#125,.T.);
#123 = VERTEX_POINT('',#124);
#124 = CARTESIAN_POINT('',(8.485281374239,-1.884110950421E-15,
    -8.485281374239));
#125 = CIRCLE('',#126,24.524149651187);
#126 = AXIS2_PLACEMENT_3D('',#127,#128,#129);
#127 = CARTESIAN_POINT('',(-14.52414965118,0.,0.));
#128 = DIRECTION('',(0.,-1.,2.22044604925E-16));
#129 = DIRECTION('',(1.,0.,0.));
#130 = ORIENTED_EDGE('',*,*,#131,.F.);
#131 = EDGE_CURVE('',#132,#123,#134,.T.);
#132 = VERTEX_POINT('',#133);
#133 = CARTESIAN_POINT('',(-8.485281374239,-1.884110950421E-15,
    -8.485281374239));
#134 = CIRCLE('',#135,24.524149651187);
#135 = AXIS2_PLACEMENT_3D('',#136,#137,#138);
#136 = CARTESIAN_POINT('',(0.,3.22500907117E-15,14.524149651187));
#137 = DIRECTION('',(0.,-1.,2.22044604925E-16));
#138 = DIRECTION('',(1.,0.,0.));
#139 = ORIENTED_EDGE('',*,*,#140,.F.);
#140 = EDGE_CURVE('',#24,#132,#141,.T.);
#141 = CIRCLE('',#142,24.524149651187);
#142 = AXIS2_PLACEMENT_3D('',#143,#144,#145);
#143 = CARTESIAN_POINT('',(14.524149651187,0.,0.));
#144 = DIRECTION('',(0.,-1.,2.22044604925E-16));
#145 = DIRECTION('',(1.,0.,0.));
#146 = FACE_BOUND('',#147,.F.);
#147 = EDGE_LOOP('',(#148));
#148 = ORIENTED_EDGE('',*,*,#149,.T.);
#149 = EDGE_CURVE('',#150,#150,#152,.T.);
#150 = VERTEX_POINT('',#151);
#151 = CARTESIAN_POINT('',(5.,0.,0.));
#152 = CIRCLE('',#153,5.);
#153 = AXIS2_PLACEMENT_3D('',#154,#155,#156);
#154 = CARTESIAN_POINT('',(0.,0.,0.));
#155 = DIRECTION('',(0.,-1.,2.22044604925E-16));
#156 = DIRECTION('',(1.,0.,0.));
#157 = PLANE('',#158);
#158 = AXIS2_PLACEMENT_3D('',#159,#160,#161);
#159 = CARTESIAN_POINT('',(-4.109845653455E-16,1.48292471344E-31,
    6.678499186865E-16));
#160 = DIRECTION('',(0.,1.,-2.465190328816E-31));
#161 = DIRECTION('',(0.,2.465190328816E-31,1.));
#162 = ADVANCED_FACE('',(#163),#273,.T.);
#163 = FACE_BOUND('',#164,.T.);
#164 = EDGE_LOOP('',(#165,#166,#167,#176,#185,#193,#202,#210,#229,#250,
    #258,#267));
#165 = ORIENTED_EDGE('',*,*,#140,.F.);
#166 = ORIENTED_EDGE('',*,*,#49,.T.);
#167 = ORIENTED_EDGE('',*,*,#168,.T.);
#168 = EDGE_CURVE('',#41,#169,#171,.T.);
#169 = VERTEX_POINT('',#170);
#170 = CARTESIAN_POINT('',(-10.,80.,7.706645598764E-13));
#171 = ELLIPSE('',#172,41.722975449858,24.524149651187);
#172 = AXIS2_PLACEMENT_3D('',#173,#174,#175);
#173 = CARTESIAN_POINT('',(14.524149651187,80.,-1.7763568394E-14));
#174 = DIRECTION('',(0.,-0.587785252292,-0.809016994375));
#175 = DIRECTION('',(0.,-0.809016994375,0.587785252292));
#176 = ORIENTED_EDGE('',*,*,#177,.T.);
#177 = EDGE_CURVE('',#169,#178,#180,.T.);
#178 = VERTEX_POINT('',#179);
#179 = CARTESIAN_POINT('',(-8.485281374239,68.321012126387,
    -8.485281374239));
#180 = ELLIPSE('',#181,41.722975449858,24.524149651187);
#181 = AXIS2_PLACEMENT_3D('',#182,#183,#184);
#182 = CARTESIAN_POINT('',(14.524149651187,80.,-1.7763568394E-14));
#183 = DIRECTION('',(0.,-0.587785252292,0.809016994375));
#184 = DIRECTION('',(0.,-0.809016994375,-0.587785252292));
#185 = ORIENTED_EDGE('',*,*,#186,.F.);
#186 = EDGE_CURVE('',#187,#178,#189,.T.);
#187 = VERTEX_POINT('',#188);
#188 = CARTESIAN_POINT('',(-8.485281374239,18.514718625761,
    -8.485281374239));
#189 = LINE('',#190,#191);
#190 = CARTESIAN_POINT('',(-8.485281374239,-1.884110950421E-15,
    -8.485281374239));
#191 = VECTOR('',#192,1.);
#192 = DIRECTION('',(0.,1.,-2.22044604925E-16));
#193 = ORIENTED_EDGE('',*,*,#194,.F.);
#194 = EDGE_CURVE('',#195,#187,#197,.T.);
#195 = VERTEX_POINT('',#196);
#196 = CARTESIAN_POINT('',(-9.815815757864,24.,-3.));
#197 = ELLIPSE('',#198,34.682385042377,24.524149651187);
#198 = AXIS2_PLACEMENT_3D('',#199,#200,#201);
#199 = CARTESIAN_POINT('',(14.524149651187,27.,-5.995204332976E-15));
#200 = DIRECTION('',(0.,-0.707106781187,0.707106781187));
#201 = DIRECTION('',(0.,-0.707106781187,-0.707106781187));
#202 = ORIENTED_EDGE('',*,*,#203,.F.);
#203 = EDGE_CURVE('',#204,#195,#206,.T.);
#204 = VERTEX_POINT('',#205);
#205 = CARTESIAN_POINT('',(-9.815815757864,61.,-3.));
#206 = LINE('',#207,#208);
#207 = CARTESIAN_POINT('',(-9.815815757864,-3.451266460342E-31,-3.));
#208 = VECTOR('',#209,1.);
#209 = DIRECTION('',(0.,-1.,2.22044604925E-16));
#210 = ORIENTED_EDGE('',*,*,#211,.T.);
#211 = EDGE_CURVE('',#204,#212,#214,.T.);
#212 = VERTEX_POINT('',#213);
#213 = CARTESIAN_POINT('',(-10.,64.,-3.149427468184E-15));
#214 = B_SPLINE_CURVE_WITH_KNOTS('',7,(#215,#216,#217,#218,#219,#220,
    #221,#222,#223,#224,#225,#226,#227,#228),.UNSPECIFIED.,.F.,.F.,(8,6,
    8),(0.,0.519704922604,1.),.UNSPECIFIED.);
#215 = CARTESIAN_POINT('',(-9.815815757864,61.,-3.));
#216 = CARTESIAN_POINT('',(-9.815815757864,61.302229193351,-3.));
#217 = CARTESIAN_POINT('',(-9.820193838122,61.60410802449,
    -2.964478907402));
#218 = CARTESIAN_POINT('',(-9.828932884896,61.903332383595,
    -2.893577865512));
#219 = CARTESIAN_POINT('',(-9.841805388759,62.197341924499,-2.7864449512
    ));
#220 = CARTESIAN_POINT('',(-9.858356379599,62.482840143843,
    -2.641468245581));
#221 = CARTESIAN_POINT('',(-9.87772281481,62.755176997742,
    -2.456529721594));
#222 = CARTESIAN_POINT('',(-9.917611890549,63.240480889171,
    -2.019560135037));
#223 = CARTESIAN_POINT('',(-9.938467052316,63.462851189143,
    -1.767857352156));
#224 = CARTESIAN_POINT('',(-9.959477758097,63.661032785697,
    -1.474611049434));
#225 = CARTESIAN_POINT('',(-9.978362140592,63.823109879742,
    -1.143543926392));
#226 = CARTESIAN_POINT('',(-9.992523640953,63.938884394616,
    -0.781215163461));
#227 = CARTESIAN_POINT('',(-10.,64.,-0.396429639036));
#228 = CARTESIAN_POINT('',(-10.,64.,-3.10862446895E-15));
#229 = ORIENTED_EDGE('',*,*,#230,.T.);
#230 = EDGE_CURVE('',#212,#231,#233,.T.);
#231 = VERTEX_POINT('',#232);
#232 = CARTESIAN_POINT('',(-9.815815757864,61.,3.));
#233 = B_SPLINE_CURVE_WITH_KNOTS('',8,(#234,#235,#236,#237,#238,#239,
    #240,#241,#242,#243,#244,#245,#246,#247,#248,#249),.UNSPECIFIED.,.F.
  ,.F.,(9,7,9),(0.,0.318691504674,1.),.UNSPECIFIED.);
#234 = CARTESIAN_POINT('',(-10.,64.,-3.190230467418E-15));
#235 = CARTESIAN_POINT('',(-10.,64.,0.227055729251));
#236 = CARTESIAN_POINT('',(-9.997597961683,63.980360275929,
    0.452318579038));
#237 = CARTESIAN_POINT('',(-9.992858196212,63.941623485948,
    0.673211903198));
#238 = CARTESIAN_POINT('',(-9.986001136395,63.88485491919,0.887258747572
    ));
#239 = CARTESIAN_POINT('',(-9.977378676612,63.811621838179,
    1.092175176387));
#240 = CARTESIAN_POINT('',(-9.967435864268,63.723976670436,
    1.285955004478));
#241 = CARTESIAN_POINT('',(-9.956658942744,63.624444049283,
    1.466945935348));
#242 = CARTESIAN_POINT('',(-9.921674650044,63.284201702511,
    1.990873204348));
#243 = CARTESIAN_POINT('',(-9.89572506545,63.007679799357,2.289972132795
    ));
#244 = CARTESIAN_POINT('',(-9.870934683826,62.701859026404,
    2.532648483527));
#245 = CARTESIAN_POINT('',(-9.849570278462,62.376955554162,
    2.722100240078));
#246 = CARTESIAN_POINT('',(-9.832876241915,62.040109141695,
    2.861574603636));
#247 = CARTESIAN_POINT('',(-9.821521253701,61.69621419369,2.95371113372)
  );
#248 = CARTESIAN_POINT('',(-9.815815757864,61.348578862178,3.));
#249 = CARTESIAN_POINT('',(-9.815815757864,61.,3.));
#250 = ORIENTED_EDGE('',*,*,#251,.T.);
#251 = EDGE_CURVE('',#231,#252,#254,.T.);
#252 = VERTEX_POINT('',#253);
#253 = CARTESIAN_POINT('',(-9.815815757864,21.,3.));
#254 = LINE('',#255,#256);
#255 = CARTESIAN_POINT('',(-9.815815757864,3.451266460342E-31,3.));
#256 = VECTOR('',#257,1.);
#257 = DIRECTION('',(0.,-1.,2.22044604925E-16));
#258 = ORIENTED_EDGE('',*,*,#259,.T.);
#259 = EDGE_CURVE('',#252,#260,#262,.T.);
#260 = VERTEX_POINT('',#261);
#261 = CARTESIAN_POINT('',(-8.485281374239,9.514718625761,
    -8.485281374239));
#262 = ELLIPSE('',#263,34.682385042377,24.524149651187);
#263 = AXIS2_PLACEMENT_3D('',#264,#265,#266);
#264 = CARTESIAN_POINT('',(14.524149651187,18.,-3.996802888651E-15));
#265 = DIRECTION('',(0.,-0.707106781187,0.707106781187));
#266 = DIRECTION('',(0.,-0.707106781187,-0.707106781187));
#267 = ORIENTED_EDGE('',*,*,#268,.F.);
#268 = EDGE_CURVE('',#132,#260,#269,.T.);
#269 = LINE('',#270,#271);
#270 = CARTESIAN_POINT('',(-8.485281374239,-1.884110950421E-15,
    -8.485281374239));
#271 = VECTOR('',#272,1.);
#272 = DIRECTION('',(0.,1.,-2.22044604925E-16));
#273 = CYLINDRICAL_SURFACE('',#274,24.524149651187);
#274 = AXIS2_PLACEMENT_3D('',#275,#276,#277);
#275 = CARTESIAN_POINT('',(14.524149651187,0.,0.));
#276 = DIRECTION('',(0.,-1.,2.22044604925E-16));
#277 = DIRECTION('',(1.,0.,0.));
#278 = ADVANCED_FACE('',(#279),#298,.F.);
#279 = FACE_BOUND('',#280,.F.);
#280 = EDGE_LOOP('',(#281,#289,#296,#297));
#281 = ORIENTED_EDGE('',*,*,#282,.F.);
#282 = EDGE_CURVE('',#283,#169,#285,.T.);
#283 = VERTEX_POINT('',#284);
#284 = CARTESIAN_POINT('',(10.,80.,7.607140915502E-13));
#285 = LINE('',#286,#287);
#286 = CARTESIAN_POINT('',(101.10094594518,80.,-2.30926389122E-14));
#287 = VECTOR('',#288,1.);
#288 = DIRECTION('',(-1.,-0.,0.));
#289 = ORIENTED_EDGE('',*,*,#290,.T.);
#290 = EDGE_CURVE('',#283,#33,#291,.T.);
#291 = ELLIPSE('',#292,41.722975449858,24.524149651187);
#292 = AXIS2_PLACEMENT_3D('',#293,#294,#295);
#293 = CARTESIAN_POINT('',(-14.52414965118,80.,-1.7763568394E-14));
#294 = DIRECTION('',(0.,-0.587785252292,-0.809016994375));
#295 = DIRECTION('',(0.,-0.809016994375,0.587785252292));
#296 = ORIENTED_EDGE('',*,*,#40,.T.);
#297 = ORIENTED_EDGE('',*,*,#168,.T.);
#298 = PLANE('',#299);
#299 = AXIS2_PLACEMENT_3D('',#300,#301,#302);
#300 = CARTESIAN_POINT('',(101.10094594518,64.98367324766,10.91));
#301 = DIRECTION('',(0.,-0.587785252292,-0.809016994375));
#302 = DIRECTION('',(0.,0.809016994375,-0.587785252292));
#303 = ADVANCED_FACE('',(#304),#406,.T.);
#304 = FACE_BOUND('',#305,.T.);
#305 = EDGE_LOOP('',(#306,#307,#315,#324,#332,#353,#372,#380,#389,#397,
    #404,#405));
#306 = ORIENTED_EDGE('',*,*,#122,.F.);
#307 = ORIENTED_EDGE('',*,*,#308,.T.);
#308 = EDGE_CURVE('',#123,#309,#311,.T.);
#309 = VERTEX_POINT('',#310);
#310 = CARTESIAN_POINT('',(8.485281374239,9.514718625761,-8.485281374239
    ));
#311 = LINE('',#312,#313);
#312 = CARTESIAN_POINT('',(8.485281374239,-1.884110950421E-15,
    -8.485281374239));
#313 = VECTOR('',#314,1.);
#314 = DIRECTION('',(0.,1.,-2.22044604925E-16));
#315 = ORIENTED_EDGE('',*,*,#316,.T.);
#316 = EDGE_CURVE('',#309,#317,#319,.T.);
#317 = VERTEX_POINT('',#318);
#318 = CARTESIAN_POINT('',(9.815815757864,21.,3.));
#319 = ELLIPSE('',#320,34.682385042377,24.524149651187);
#320 = AXIS2_PLACEMENT_3D('',#321,#322,#323);
#321 = CARTESIAN_POINT('',(-14.52414965118,18.,-3.996802888651E-15));
#322 = DIRECTION('',(0.,-0.707106781187,0.707106781187));
#323 = DIRECTION('',(0.,-0.707106781187,-0.707106781187));
#324 = ORIENTED_EDGE('',*,*,#325,.F.);
#325 = EDGE_CURVE('',#326,#317,#328,.T.);
#326 = VERTEX_POINT('',#327);
#327 = CARTESIAN_POINT('',(9.815815757864,61.,3.));
#328 = LINE('',#329,#330);
#329 = CARTESIAN_POINT('',(9.815815757864,3.451266460342E-31,3.));
#330 = VECTOR('',#331,1.);
#331 = DIRECTION('',(0.,-1.,2.22044604925E-16));
#332 = ORIENTED_EDGE('',*,*,#333,.F.);
#333 = EDGE_CURVE('',#334,#326,#336,.T.);
#334 = VERTEX_POINT('',#335);
#335 = CARTESIAN_POINT('',(10.,64.,-1.323168754458E-14));
#336 = B_SPLINE_CURVE_WITH_KNOTS('',8,(#337,#338,#339,#340,#341,#342,
    #343,#344,#345,#346,#347,#348,#349,#350,#351,#352),.UNSPECIFIED.,.F.
  ,.F.,(9,7,9),(0.,0.318691504443,1.),.UNSPECIFIED.);
#337 = CARTESIAN_POINT('',(10.,64.,-1.314069879366E-14));
#338 = CARTESIAN_POINT('',(10.,64.,0.227055729449));
#339 = CARTESIAN_POINT('',(9.997597961678,63.980360275895,0.452318579122
    ));
#340 = CARTESIAN_POINT('',(9.992858196212,63.94162348594,0.673211903102)
  );
#341 = CARTESIAN_POINT('',(9.986001136401,63.884854919242,0.887258747394
    ));
#342 = CARTESIAN_POINT('',(9.977378676619,63.811621838248,1.092175176282
    ));
#343 = CARTESIAN_POINT('',(9.967435864266,63.72397667043,1.285955004546)
  );
#344 = CARTESIAN_POINT('',(9.956658942732,63.624444049167,1.466945935525
    ));
#345 = CARTESIAN_POINT('',(9.921674650044,63.284201702511,1.990873204348
    ));
#346 = CARTESIAN_POINT('',(9.89572506545,63.007679799357,2.289972132795)
  );
#347 = CARTESIAN_POINT('',(9.870934683826,62.701859026404,2.532648483528
    ));
#348 = CARTESIAN_POINT('',(9.849570278462,62.376955554162,2.722100240078
    ));
#349 = CARTESIAN_POINT('',(9.832876241915,62.040109141695,2.861574603635
    ));
#350 = CARTESIAN_POINT('',(9.821521253701,61.69621419369,2.95371113372)
  );
#351 = CARTESIAN_POINT('',(9.815815757864,61.348578862178,3.));
#352 = CARTESIAN_POINT('',(9.815815757864,61.,3.));
#353 = ORIENTED_EDGE('',*,*,#354,.F.);
#354 = EDGE_CURVE('',#355,#334,#357,.T.);
#355 = VERTEX_POINT('',#356);
#356 = CARTESIAN_POINT('',(9.815815757864,61.,-3.));
#357 = B_SPLINE_CURVE_WITH_KNOTS('',7,(#358,#359,#360,#361,#362,#363,
    #364,#365,#366,#367,#368,#369,#370,#371),.UNSPECIFIED.,.F.,.F.,(8,6,
    8),(0.,0.519704922604,1.),.UNSPECIFIED.);
#358 = CARTESIAN_POINT('',(9.815815757864,61.,-3.));
#359 = CARTESIAN_POINT('',(9.815815757864,61.302229193352,-3.));
#360 = CARTESIAN_POINT('',(9.820193838122,61.60410802449,-2.964478907402
    ));
#361 = CARTESIAN_POINT('',(9.828932884896,61.903332383595,
    -2.893577865512));
#362 = CARTESIAN_POINT('',(9.841805388759,62.1973419245,-2.7864449512));
#363 = CARTESIAN_POINT('',(9.858356379599,62.482840143843,
    -2.641468245582));
#364 = CARTESIAN_POINT('',(9.87772281481,62.755176997742,-2.456529721594
    ));
#365 = CARTESIAN_POINT('',(9.917611890549,63.240480889171,
    -2.019560135037));
#366 = CARTESIAN_POINT('',(9.938467052316,63.462851189143,
    -1.767857352156));
#367 = CARTESIAN_POINT('',(9.959477758097,63.661032785697,
    -1.474611049433));
#368 = CARTESIAN_POINT('',(9.978362140592,63.823109879742,
    -1.143543926392));
#369 = CARTESIAN_POINT('',(9.992523640953,63.938884394616,
    -0.781215163461));
#370 = CARTESIAN_POINT('',(10.,64.,-0.396429639036));
#371 = CARTESIAN_POINT('',(10.,64.,-1.33226762955E-14));
#372 = ORIENTED_EDGE('',*,*,#373,.T.);
#373 = EDGE_CURVE('',#355,#374,#376,.T.);
#374 = VERTEX_POINT('',#375);
#375 = CARTESIAN_POINT('',(9.815815757864,24.,-3.));
#376 = LINE('',#377,#378);
#377 = CARTESIAN_POINT('',(9.815815757864,-3.451266460342E-31,-3.));
#378 = VECTOR('',#379,1.);
#379 = DIRECTION('',(0.,-1.,2.22044604925E-16));
#380 = ORIENTED_EDGE('',*,*,#381,.F.);
#381 = EDGE_CURVE('',#382,#374,#384,.T.);
#382 = VERTEX_POINT('',#383);
#383 = CARTESIAN_POINT('',(8.485281374239,18.514718625761,
    -8.485281374239));
#384 = ELLIPSE('',#385,34.682385042377,24.524149651187);
#385 = AXIS2_PLACEMENT_3D('',#386,#387,#388);
#386 = CARTESIAN_POINT('',(-14.52414965118,27.,-5.995204332976E-15));
#387 = DIRECTION('',(0.,-0.707106781187,0.707106781187));
#388 = DIRECTION('',(0.,-0.707106781187,-0.707106781187));
#389 = ORIENTED_EDGE('',*,*,#390,.T.);
#390 = EDGE_CURVE('',#382,#391,#393,.T.);
#391 = VERTEX_POINT('',#392);
#392 = CARTESIAN_POINT('',(8.485281374239,68.321012126387,
    -8.485281374239));
#393 = LINE('',#394,#395);
#394 = CARTESIAN_POINT('',(8.485281374239,-1.884110950421E-15,
    -8.485281374239));
#395 = VECTOR('',#396,1.);
#396 = DIRECTION('',(0.,1.,-2.22044604925E-16));
#397 = ORIENTED_EDGE('',*,*,#398,.T.);
#398 = EDGE_CURVE('',#391,#283,#399,.T.);
#399 = ELLIPSE('',#400,41.722975449858,24.524149651187);
#400 = AXIS2_PLACEMENT_3D('',#401,#402,#403);
#401 = CARTESIAN_POINT('',(-14.52414965118,80.,-1.7763568394E-14));
#402 = DIRECTION('',(0.,-0.587785252292,0.809016994375));
#403 = DIRECTION('',(0.,-0.809016994375,-0.587785252292));
#404 = ORIENTED_EDGE('',*,*,#290,.T.);
#405 = ORIENTED_EDGE('',*,*,#32,.F.);
#406 = CYLINDRICAL_SURFACE('',#407,24.524149651187);
#407 = AXIS2_PLACEMENT_3D('',#408,#409,#410);
#408 = CARTESIAN_POINT('',(-14.52414965118,0.,0.));
#409 = DIRECTION('',(0.,-1.,2.22044604925E-16));
#410 = DIRECTION('',(1.,0.,0.));
#411 = ADVANCED_FACE('',(#412),#431,.F.);
#412 = FACE_BOUND('',#413,.T.);
#413 = EDGE_LOOP('',(#414,#423,#429,#430));
#414 = ORIENTED_EDGE('',*,*,#415,.F.);
#415 = EDGE_CURVE('',#416,#416,#418,.T.);
#416 = VERTEX_POINT('',#417);
#417 = CARTESIAN_POINT('',(-2.,50.,3.));
#418 = CIRCLE('',#419,2.);
#419 = AXIS2_PLACEMENT_3D('',#420,#421,#422);
#420 = CARTESIAN_POINT('',(0.,50.,3.));
#421 = DIRECTION('',(0.,1.479114197289E-31,1.));
#422 = DIRECTION('',(-1.,0.,0.));
#423 = ORIENTED_EDGE('',*,*,#424,.T.);
#424 = EDGE_CURVE('',#416,#58,#425,.T.);
#425 = LINE('',#426,#427);
#426 = CARTESIAN_POINT('',(-2.,50.,-6.));
#427 = VECTOR('',#428,1.);
#428 = DIRECTION('',(6.063468149177E-17,1.479114197289E-31,1.));
#429 = ORIENTED_EDGE('',*,*,#57,.F.);
#430 = ORIENTED_EDGE('',*,*,#424,.F.);
#431 = CYLINDRICAL_SURFACE('',#432,2.);
#432 = AXIS2_PLACEMENT_3D('',#433,#434,#435);
#433 = CARTESIAN_POINT('',(0.,50.,-6.));
#434 = DIRECTION('',(0.,1.479114197289E-31,1.));
#435 = DIRECTION('',(-1.,0.,0.));
#436 = ADVANCED_FACE('',(#437),#458,.T.);
#437 = FACE_BOUND('',#438,.T.);
#438 = EDGE_LOOP('',(#439,#440,#441,#450,#457));
#439 = ORIENTED_EDGE('',*,*,#131,.F.);
#440 = ORIENTED_EDGE('',*,*,#268,.T.);
#441 = ORIENTED_EDGE('',*,*,#442,.T.);
#442 = EDGE_CURVE('',#260,#443,#445,.T.);
#443 = VERTEX_POINT('',#444);
#444 = CARTESIAN_POINT('',(0.,8.,-10.));
#445 = ELLIPSE('',#446,34.682385042377,24.524149651187);
#446 = AXIS2_PLACEMENT_3D('',#447,#448,#449);
#447 = CARTESIAN_POINT('',(0.,32.524149651187,14.524149651187));
#448 = DIRECTION('',(0.,-0.707106781187,0.707106781187));
#449 = DIRECTION('',(0.,-0.707106781187,-0.707106781187));
#450 = ORIENTED_EDGE('',*,*,#451,.T.);
#451 = EDGE_CURVE('',#443,#309,#452,.T.);
#452 = ELLIPSE('',#453,34.682385042377,24.524149651187);
#453 = AXIS2_PLACEMENT_3D('',#454,#455,#456);
#454 = CARTESIAN_POINT('',(0.,32.524149651187,14.524149651187));
#455 = DIRECTION('',(0.,-0.707106781187,0.707106781187));
#456 = DIRECTION('',(0.,-0.707106781187,-0.707106781187));
#457 = ORIENTED_EDGE('',*,*,#308,.F.);
#458 = CYLINDRICAL_SURFACE('',#459,24.524149651187);
#459 = AXIS2_PLACEMENT_3D('',#460,#461,#462);
#460 = CARTESIAN_POINT('',(0.,3.22500907117E-15,14.524149651187));
#461 = DIRECTION('',(0.,-1.,2.22044604925E-16));
#462 = DIRECTION('',(1.,0.,0.));
#463 = ADVANCED_FACE('',(#464),#483,.T.);
#464 = FACE_BOUND('',#465,.F.);
#465 = EDGE_LOOP('',(#466,#474,#481,#482));
#466 = ORIENTED_EDGE('',*,*,#467,.T.);
#467 = EDGE_CURVE('',#150,#468,#470,.T.);
#468 = VERTEX_POINT('',#469);
#469 = CARTESIAN_POINT('',(5.,-12.,2.6645352591E-15));
#470 = LINE('',#471,#472);
#471 = CARTESIAN_POINT('',(5.,0.,0.));
#472 = VECTOR('',#473,1.);
#473 = DIRECTION('',(0.,-1.,2.22044604925E-16));
#474 = ORIENTED_EDGE('',*,*,#475,.T.);
#475 = EDGE_CURVE('',#468,#468,#476,.T.);
#476 = CIRCLE('',#477,5.);
#477 = AXIS2_PLACEMENT_3D('',#478,#479,#480);
#478 = CARTESIAN_POINT('',(0.,-12.,1.7763568394E-15));
#479 = DIRECTION('',(0.,-1.,2.22044604925E-16));
#480 = DIRECTION('',(1.,0.,0.));
#481 = ORIENTED_EDGE('',*,*,#467,.F.);
#482 = ORIENTED_EDGE('',*,*,#149,.F.);
#483 = CYLINDRICAL_SURFACE('',#484,5.);
#484 = AXIS2_PLACEMENT_3D('',#485,#486,#487);
#485 = CARTESIAN_POINT('',(0.,0.,0.));
#486 = DIRECTION('',(0.,1.,-2.22044604925E-16));
#487 = DIRECTION('',(1.,0.,0.));
#488 = ADVANCED_FACE('',(#489),#501,.F.);
#489 = FACE_BOUND('',#490,.F.);
#490 = EDGE_LOOP('',(#491,#492,#498,#499,#500));
#491 = ORIENTED_EDGE('',*,*,#316,.T.);
#492 = ORIENTED_EDGE('',*,*,#493,.T.);
#493 = EDGE_CURVE('',#317,#252,#494,.T.);
#494 = LINE('',#495,#496);
#495 = CARTESIAN_POINT('',(97.212172077369,21.,3.));
#496 = VECTOR('',#497,1.);
#497 = DIRECTION('',(-1.,0.,0.));
#498 = ORIENTED_EDGE('',*,*,#259,.T.);
#499 = ORIENTED_EDGE('',*,*,#442,.T.);
#500 = ORIENTED_EDGE('',*,*,#451,.T.);
#501 = PLANE('',#502);
#502 = AXIS2_PLACEMENT_3D('',#503,#504,#505);
#503 = CARTESIAN_POINT('',(97.212172077369,21.,3.));
#504 = DIRECTION('',(0.,-0.707106781187,0.707106781187));
#505 = DIRECTION('',(0.,-0.707106781187,-0.707106781187));
#506 = ADVANCED_FACE('',(#507,#518),#521,.T.);
#507 = FACE_BOUND('',#508,.T.);
#508 = EDGE_LOOP('',(#509,#510,#511,#512));
#509 = ORIENTED_EDGE('',*,*,#325,.T.);
#510 = ORIENTED_EDGE('',*,*,#493,.T.);
#511 = ORIENTED_EDGE('',*,*,#251,.F.);
#512 = ORIENTED_EDGE('',*,*,#513,.F.);
#513 = EDGE_CURVE('',#326,#231,#514,.T.);
#514 = LINE('',#515,#516);
#515 = CARTESIAN_POINT('',(97.212172077369,61.,3.));
#516 = VECTOR('',#517,1.);
#517 = DIRECTION('',(-1.,0.,0.));
#518 = FACE_BOUND('',#519,.T.);
#519 = EDGE_LOOP('',(#520));
#520 = ORIENTED_EDGE('',*,*,#415,.T.);
#521 = PLANE('',#522);
#522 = AXIS2_PLACEMENT_3D('',#523,#524,#525);
#523 = CARTESIAN_POINT('',(97.212172077369,21.,3.));
#524 = DIRECTION('',(0.,-9.860761315263E-32,-1.));
#525 = DIRECTION('',(0.,1.,-9.860761315263E-32));
#526 = ADVANCED_FACE('',(#527),#540,.F.);
#527 = FACE_BOUND('',#528,.F.);
#528 = EDGE_LOOP('',(#529,#530,#536,#537,#538,#539));
#529 = ORIENTED_EDGE('',*,*,#354,.F.);
#530 = ORIENTED_EDGE('',*,*,#531,.T.);
#531 = EDGE_CURVE('',#355,#204,#532,.T.);
#532 = LINE('',#533,#534);
#533 = CARTESIAN_POINT('',(97.212172077369,61.,-3.));
#534 = VECTOR('',#535,1.);
#535 = DIRECTION('',(-1.,0.,0.));
#536 = ORIENTED_EDGE('',*,*,#211,.T.);
#537 = ORIENTED_EDGE('',*,*,#230,.T.);
#538 = ORIENTED_EDGE('',*,*,#513,.F.);
#539 = ORIENTED_EDGE('',*,*,#333,.F.);
#540 = CYLINDRICAL_SURFACE('',#541,3.);
#541 = AXIS2_PLACEMENT_3D('',#542,#543,#544);
#542 = CARTESIAN_POINT('',(97.212172077369,61.,-6.162975822039E-30));
#543 = DIRECTION('',(1.,0.,0.));
#544 = DIRECTION('',(0.,1.,-9.860761315263E-32));
#545 = ADVANCED_FACE('',(#546,#557),#568,.F.);
#546 = FACE_BOUND('',#547,.F.);
#547 = EDGE_LOOP('',(#548,#549,#555,#556));
#548 = ORIENTED_EDGE('',*,*,#373,.T.);
#549 = ORIENTED_EDGE('',*,*,#550,.T.);
#550 = EDGE_CURVE('',#374,#195,#551,.T.);
#551 = LINE('',#552,#553);
#552 = CARTESIAN_POINT('',(97.212172077369,24.,-3.));
#553 = VECTOR('',#554,1.);
#554 = DIRECTION('',(-1.,0.,0.));
#555 = ORIENTED_EDGE('',*,*,#203,.F.);
#556 = ORIENTED_EDGE('',*,*,#531,.F.);
#557 = FACE_BOUND('',#558,.F.);
#558 = EDGE_LOOP('',(#559));
#559 = ORIENTED_EDGE('',*,*,#560,.T.);
#560 = EDGE_CURVE('',#561,#561,#563,.T.);
#561 = VERTEX_POINT('',#562);
#562 = CARTESIAN_POINT('',(-2.,50.,-3.));
#563 = CIRCLE('',#564,2.);
#564 = AXIS2_PLACEMENT_3D('',#565,#566,#567);
#565 = CARTESIAN_POINT('',(0.,50.,-3.));
#566 = DIRECTION('',(0.,1.479114197289E-31,1.));
#567 = DIRECTION('',(-1.,0.,0.));
#568 = PLANE('',#569);
#569 = AXIS2_PLACEMENT_3D('',#570,#571,#572);
#570 = CARTESIAN_POINT('',(97.212172077369,24.,-3.));
#571 = DIRECTION('',(0.,-9.860761315263E-32,-1.));
#572 = DIRECTION('',(0.,1.,-9.860761315263E-32));
#573 = ADVANCED_FACE('',(#574),#595,.T.);
#574 = FACE_BOUND('',#575,.T.);
#575 = EDGE_LOOP('',(#576,#577,#578,#579,#588));
#576 = ORIENTED_EDGE('',*,*,#381,.T.);
#577 = ORIENTED_EDGE('',*,*,#550,.T.);
#578 = ORIENTED_EDGE('',*,*,#194,.T.);
#579 = ORIENTED_EDGE('',*,*,#580,.T.);
#580 = EDGE_CURVE('',#187,#581,#583,.T.);
#581 = VERTEX_POINT('',#582);
#582 = CARTESIAN_POINT('',(0.,17.,-10.));
#583 = ELLIPSE('',#584,34.682385042377,24.524149651187);
#584 = AXIS2_PLACEMENT_3D('',#585,#586,#587);
#585 = CARTESIAN_POINT('',(0.,41.524149651187,14.524149651187));
#586 = DIRECTION('',(0.,-0.707106781187,0.707106781187));
#587 = DIRECTION('',(0.,-0.707106781187,-0.707106781187));
#588 = ORIENTED_EDGE('',*,*,#589,.T.);
#589 = EDGE_CURVE('',#581,#382,#590,.T.);
#590 = ELLIPSE('',#591,34.682385042377,24.524149651187);
#591 = AXIS2_PLACEMENT_3D('',#592,#593,#594);
#592 = CARTESIAN_POINT('',(0.,41.524149651187,14.524149651187));
#593 = DIRECTION('',(0.,-0.707106781187,0.707106781187));
#594 = DIRECTION('',(0.,-0.707106781187,-0.707106781187));
#595 = PLANE('',#596);
#596 = AXIS2_PLACEMENT_3D('',#597,#598,#599);
#597 = CARTESIAN_POINT('',(97.212172077369,24.,-3.));
#598 = DIRECTION('',(0.,-0.707106781187,0.707106781187));
#599 = DIRECTION('',(0.,-0.707106781187,-0.707106781187));
#600 = ADVANCED_FACE('',(#601,#614),#781,.T.);
#601 = FACE_BOUND('',#602,.T.);
#602 = EDGE_LOOP('',(#603,#604,#605,#612,#613));
#603 = ORIENTED_EDGE('',*,*,#580,.F.);
#604 = ORIENTED_EDGE('',*,*,#186,.T.);
#605 = ORIENTED_EDGE('',*,*,#606,.T.);
#606 = EDGE_CURVE('',#178,#391,#607,.T.);
#607 = ELLIPSE('',#608,41.722975449858,24.524149651187);
#608 = AXIS2_PLACEMENT_3D('',#609,#610,#611);
#609 = CARTESIAN_POINT('',(0.,99.990776990112,14.524149651187));
#610 = DIRECTION('',(0.,-0.587785252292,0.809016994375));
#611 = DIRECTION('',(0.,-0.809016994375,-0.587785252292));
#612 = ORIENTED_EDGE('',*,*,#390,.F.);
#613 = ORIENTED_EDGE('',*,*,#589,.F.);
#614 = FACE_BOUND('',#615,.T.);
#615 = EDGE_LOOP('',(#616,#673,#728));
#616 = ORIENTED_EDGE('',*,*,#617,.F.);
#617 = EDGE_CURVE('',#618,#620,#622,.T.);
#618 = VERTEX_POINT('',#619);
#619 = CARTESIAN_POINT('',(-8.582398139676E-07,55.,-10.));
#620 = VERTEX_POINT('',#621);
#621 = CARTESIAN_POINT('',(7.922540455089E-07,45.,-10.));
#622 = B_SPLINE_CURVE_WITH_KNOTS('',7,(#623,#624,#625,#626,#627,#628,
    #629,#630,#631,#632,#633,#634,#635,#636,#637,#638,#639,#640,#641,
    #642,#643,#644,#645,#646,#647,#648,#649,#650,#651,#652,#653,#654,
    #655,#656,#657,#658,#659,#660,#661,#662,#663,#664,#665,#666,#667,
    #668,#669,#670,#671,#672),.UNSPECIFIED.,.T.,.F.,(8,6,6,6,6,6,6,6,8),
  (0.,0.138872963829,0.249999999504,0.361127035179,0.500000000841,
    0.63887296471,0.750000000417,0.861127036132,1.),.UNSPECIFIED.);
#623 = CARTESIAN_POINT('',(-5.,50.,-9.484888565989));
#624 = CARTESIAN_POINT('',(-5.,50.537116321322,-9.484888565989));
#625 = CARTESIAN_POINT('',(-4.932684376707,51.073194202546,
    -9.498907088331));
#626 = CARTESIAN_POINT('',(-4.798524737136,51.60369608879,
    -9.526847890614));
#627 = CARTESIAN_POINT('',(-4.5956776186,52.123714626521,-9.567848025348
    ));
#628 = CARTESIAN_POINT('',(-4.320706540222,52.626427903277,
    -9.620201537658));
#629 = CARTESIAN_POINT('',(-3.968879104772,53.102188707094,
    -9.680678143893));
#630 = CARTESIAN_POINT('',(-3.188768300569,53.882299511297,
    -9.794330388254));
#631 = CARTESIAN_POINT('',(-2.780342067327,54.211367777969,
    -9.847928836894));
#632 = CARTESIAN_POINT('',(-2.311573722296,54.503304613672,
    -9.900691201049));
#633 = CARTESIAN_POINT('',(-1.788209975411,54.741195731383,
    -9.947237608793));
#634 = CARTESIAN_POINT('',(-1.219809860739,54.910673196551,
    -9.981787356835));
#635 = CARTESIAN_POINT('',(-0.618731517772,55.,-10.));
#636 = CARTESIAN_POINT('',(0.618731517772,55.,-10.));
#637 = CARTESIAN_POINT('',(1.21980986074,54.910673196551,-9.981787356835
    ));
#638 = CARTESIAN_POINT('',(1.78820997541,54.741195731383,-9.947237608793
    ));
#639 = CARTESIAN_POINT('',(2.311573722298,54.503304613671,
    -9.900691201049));
#640 = CARTESIAN_POINT('',(2.780342067326,54.211367777969,
    -9.847928836895));
#641 = CARTESIAN_POINT('',(3.188768300569,53.882299511297,
    -9.794330388254));
#642 = CARTESIAN_POINT('',(3.968879110491,53.102188701375,-9.68067814306
    ));
#643 = CARTESIAN_POINT('',(4.320706522845,52.626427927214,
    -9.620201540271));
#644 = CARTESIAN_POINT('',(4.595677642552,52.123714581412,
    -9.567848021656));
#645 = CARTESIAN_POINT('',(4.798524720201,51.603696135351,
    -9.526847893274));
#646 = CARTESIAN_POINT('',(4.932684381918,51.073194176069,
    -9.498907087502));
#647 = CARTESIAN_POINT('',(5.,50.537116328257,-9.484888565989));
#648 = CARTESIAN_POINT('',(5.,49.462883678677,-9.484888565989));
#649 = CARTESIAN_POINT('',(4.932684376707,48.926805797456,
    -9.498907088332));
#650 = CARTESIAN_POINT('',(4.798524737138,48.396303911211,
    -9.526847890614));
#651 = CARTESIAN_POINT('',(4.595677618598,47.876285373477,
    -9.567848025348));
#652 = CARTESIAN_POINT('',(4.320706540224,47.373572096725,
    -9.620201537658));
#653 = CARTESIAN_POINT('',(3.968879104771,46.897811292906,
    -9.680678143893));
#654 = CARTESIAN_POINT('',(3.188768300568,46.117700488702,
    -9.794330388254));
#655 = CARTESIAN_POINT('',(2.780342067329,45.788632222034,
    -9.847928836894));
#656 = CARTESIAN_POINT('',(2.311573722296,45.496695386325,
    -9.900691201049));
#657 = CARTESIAN_POINT('',(1.788209975409,45.258804268619,
    -9.947237608793));
#658 = CARTESIAN_POINT('',(1.219809860742,45.089326803448,
    -9.981787356835));
#659 = CARTESIAN_POINT('',(0.618731517771,45.,-10.));
#660 = CARTESIAN_POINT('',(-0.618731517813,45.,-10.));
#661 = CARTESIAN_POINT('',(-1.2198098607,45.089326803461,-9.981787356832
    ));
#662 = CARTESIAN_POINT('',(-1.788209975377,45.258804268589,-9.9472376088
    ));
#663 = CARTESIAN_POINT('',(-2.311573722333,45.49669538633,
    -9.900691201046));
#664 = CARTESIAN_POINT('',(-2.780342067353,45.788632222071,
    -9.84792883689));
#665 = CARTESIAN_POINT('',(-3.18876830054,46.117700488675,
    -9.794330388258));
#666 = CARTESIAN_POINT('',(-3.968879104771,46.897811292906,
    -9.680678143893));
#667 = CARTESIAN_POINT('',(-4.320706540223,47.373572096723,
    -9.620201537658));
#668 = CARTESIAN_POINT('',(-4.595677618599,47.876285373481,
    -9.567848025348));
#669 = CARTESIAN_POINT('',(-4.798524737137,48.396303911207,
    -9.526847890614));
#670 = CARTESIAN_POINT('',(-4.932684376707,48.926805797458,
    -9.498907088331));
#671 = CARTESIAN_POINT('',(-5.,49.462883678676,-9.484888565989));
#672 = CARTESIAN_POINT('',(-5.,50.,-9.484888565989));
#673 = ORIENTED_EDGE('',*,*,#674,.F.);
#674 = EDGE_CURVE('',#675,#618,#677,.T.);
#675 = VERTEX_POINT('',#676);
#676 = CARTESIAN_POINT('',(-5.,50.,-9.484888565989));
#677 = B_SPLINE_CURVE_WITH_KNOTS('',7,(#678,#679,#680,#681,#682,#683,
    #684,#685,#686,#687,#688,#689,#690,#691,#692,#693,#694,#695,#696,
    #697,#698,#699,#700,#701,#702,#703,#704,#705,#706,#707,#708,#709,
    #710,#711,#712,#713,#714,#715,#716,#717,#718,#719,#720,#721,#722,
    #723,#724,#725,#726,#727),.UNSPECIFIED.,.T.,.F.,(8,6,6,6,6,6,6,6,8),
  (0.,0.138872963829,0.249999999504,0.361127035179,0.500000000841,
    0.63887296471,0.750000000417,0.861127036132,1.),.UNSPECIFIED.);
#678 = CARTESIAN_POINT('',(-5.,50.,-9.484888565989));
#679 = CARTESIAN_POINT('',(-5.,50.537116321322,-9.484888565989));
#680 = CARTESIAN_POINT('',(-4.932684376707,51.073194202546,
    -9.498907088331));
#681 = CARTESIAN_POINT('',(-4.798524737136,51.60369608879,
    -9.526847890614));
#682 = CARTESIAN_POINT('',(-4.5956776186,52.123714626521,-9.567848025348
    ));
#683 = CARTESIAN_POINT('',(-4.320706540222,52.626427903277,
    -9.620201537658));
#684 = CARTESIAN_POINT('',(-3.968879104772,53.102188707094,
    -9.680678143893));
#685 = CARTESIAN_POINT('',(-3.188768300569,53.882299511297,
    -9.794330388254));
#686 = CARTESIAN_POINT('',(-2.780342067327,54.211367777969,
    -9.847928836894));
#687 = CARTESIAN_POINT('',(-2.311573722296,54.503304613672,
    -9.900691201049));
#688 = CARTESIAN_POINT('',(-1.788209975411,54.741195731383,
    -9.947237608793));
#689 = CARTESIAN_POINT('',(-1.219809860739,54.910673196551,
    -9.981787356835));
#690 = CARTESIAN_POINT('',(-0.618731517772,55.,-10.));
#691 = CARTESIAN_POINT('',(0.618731517772,55.,-10.));
#692 = CARTESIAN_POINT('',(1.21980986074,54.910673196551,-9.981787356835
    ));
#693 = CARTESIAN_POINT('',(1.78820997541,54.741195731383,-9.947237608793
    ));
#694 = CARTESIAN_POINT('',(2.311573722298,54.503304613671,
    -9.900691201049));
#695 = CARTESIAN_POINT('',(2.780342067326,54.211367777969,
    -9.847928836895));
#696 = CARTESIAN_POINT('',(3.188768300569,53.882299511297,
    -9.794330388254));
#697 = CARTESIAN_POINT('',(3.968879110491,53.102188701375,-9.68067814306
    ));
#698 = CARTESIAN_POINT('',(4.320706522845,52.626427927214,
    -9.620201540271));
#699 = CARTESIAN_POINT('',(4.595677642552,52.123714581412,
    -9.567848021656));
#700 = CARTESIAN_POINT('',(4.798524720201,51.603696135351,
    -9.526847893274));
#701 = CARTESIAN_POINT('',(4.932684381918,51.073194176069,
    -9.498907087502));
#702 = CARTESIAN_POINT('',(5.,50.537116328257,-9.484888565989));
#703 = CARTESIAN_POINT('',(5.,49.462883678677,-9.484888565989));
#704 = CARTESIAN_POINT('',(4.932684376707,48.926805797456,
    -9.498907088332));
#705 = CARTESIAN_POINT('',(4.798524737138,48.396303911211,
    -9.526847890614));
#706 = CARTESIAN_POINT('',(4.595677618598,47.876285373477,
    -9.567848025348));
#707 = CARTESIAN_POINT('',(4.320706540224,47.373572096725,
    -9.620201537658));
#708 = CARTESIAN_POINT('',(3.968879104771,46.897811292906,
    -9.680678143893));
#709 = CARTESIAN_POINT('',(3.188768300568,46.117700488702,
    -9.794330388254));
#710 = CARTESIAN_POINT('',(2.780342067329,45.788632222034,
    -9.847928836894));
#711 = CARTESIAN_POINT('',(2.311573722296,45.496695386325,
    -9.900691201049));
#712 = CARTESIAN_POINT('',(1.788209975409,45.258804268619,
    -9.947237608793));
#713 = CARTESIAN_POINT('',(1.219809860742,45.089326803448,
    -9.981787356835));
#714 = CARTESIAN_POINT('',(0.618731517771,45.,-10.));
#715 = CARTESIAN_POINT('',(-0.618731517813,45.,-10.));
#716 = CARTESIAN_POINT('',(-1.2198098607,45.089326803461,-9.981787356832
    ));
#717 = CARTESIAN_POINT('',(-1.788209975377,45.258804268589,-9.9472376088
    ));
#718 = CARTESIAN_POINT('',(-2.311573722333,45.49669538633,
    -9.900691201046));
#719 = CARTESIAN_POINT('',(-2.780342067353,45.788632222071,
    -9.84792883689));
#720 = CARTESIAN_POINT('',(-3.18876830054,46.117700488675,
    -9.794330388258));
#721 = CARTESIAN_POINT('',(-3.968879104771,46.897811292906,
    -9.680678143893));
#722 = CARTESIAN_POINT('',(-4.320706540223,47.373572096723,
    -9.620201537658));
#723 = CARTESIAN_POINT('',(-4.595677618599,47.876285373481,
    -9.567848025348));
#724 = CARTESIAN_POINT('',(-4.798524737137,48.396303911207,
    -9.526847890614));
#725 = CARTESIAN_POINT('',(-4.932684376707,48.926805797458,
    -9.498907088331));
#726 = CARTESIAN_POINT('',(-5.,49.462883678676,-9.484888565989));
#727 = CARTESIAN_POINT('',(-5.,50.,-9.484888565989));
#728 = ORIENTED_EDGE('',*,*,#729,.F.);
#729 = EDGE_CURVE('',#620,#675,#730,.T.);
#730 = B_SPLINE_CURVE_WITH_KNOTS('',7,(#731,#732,#733,#734,#735,#736,
    #737,#738,#739,#740,#741,#742,#743,#744,#745,#746,#747,#748,#749,
    #750,#751,#752,#753,#754,#755,#756,#757,#758,#759,#760,#761,#762,
    #763,#764,#765,#766,#767,#768,#769,#770,#771,#772,#773,#774,#775,
    #776,#777,#778,#779,#780),.UNSPECIFIED.,.T.,.F.,(8,6,6,6,6,6,6,6,8),
  (0.,0.138872963829,0.249999999504,0.361127035179,0.500000000841,
    0.63887296471,0.750000000417,0.861127036132,1.),.UNSPECIFIED.);
#731 = CARTESIAN_POINT('',(-5.,50.,-9.484888565989));
#732 = CARTESIAN_POINT('',(-5.,50.537116321322,-9.484888565989));
#733 = CARTESIAN_POINT('',(-4.932684376707,51.073194202546,
    -9.498907088331));
#734 = CARTESIAN_POINT('',(-4.798524737136,51.60369608879,
    -9.526847890614));
#735 = CARTESIAN_POINT('',(-4.5956776186,52.123714626521,-9.567848025348
    ));
#736 = CARTESIAN_POINT('',(-4.320706540222,52.626427903277,
    -9.620201537658));
#737 = CARTESIAN_POINT('',(-3.968879104772,53.102188707094,
    -9.680678143893));
#738 = CARTESIAN_POINT('',(-3.188768300569,53.882299511297,
    -9.794330388254));
#739 = CARTESIAN_POINT('',(-2.780342067327,54.211367777969,
    -9.847928836894));
#740 = CARTESIAN_POINT('',(-2.311573722296,54.503304613672,
    -9.900691201049));
#741 = CARTESIAN_POINT('',(-1.788209975411,54.741195731383,
    -9.947237608793));
#742 = CARTESIAN_POINT('',(-1.219809860739,54.910673196551,
    -9.981787356835));
#743 = CARTESIAN_POINT('',(-0.618731517772,55.,-10.));
#744 = CARTESIAN_POINT('',(0.618731517772,55.,-10.));
#745 = CARTESIAN_POINT('',(1.21980986074,54.910673196551,-9.981787356835
    ));
#746 = CARTESIAN_POINT('',(1.78820997541,54.741195731383,-9.947237608793
    ));
#747 = CARTESIAN_POINT('',(2.311573722298,54.503304613671,
    -9.900691201049));
#748 = CARTESIAN_POINT('',(2.780342067326,54.211367777969,
    -9.847928836895));
#749 = CARTESIAN_POINT('',(3.188768300569,53.882299511297,
    -9.794330388254));
#750 = CARTESIAN_POINT('',(3.968879110491,53.102188701375,-9.68067814306
    ));
#751 = CARTESIAN_POINT('',(4.320706522845,52.626427927214,
    -9.620201540271));
#752 = CARTESIAN_POINT('',(4.595677642552,52.123714581412,
    -9.567848021656));
#753 = CARTESIAN_POINT('',(4.798524720201,51.603696135351,
    -9.526847893274));
#754 = CARTESIAN_POINT('',(4.932684381918,51.073194176069,
    -9.498907087502));
#755 = CARTESIAN_POINT('',(5.,50.537116328257,-9.484888565989));
#756 = CARTESIAN_POINT('',(5.,49.462883678677,-9.484888565989));
#757 = CARTESIAN_POINT('',(4.932684376707,48.926805797456,
    -9.498907088332));
#758 = CARTESIAN_POINT('',(4.798524737138,48.396303911211,
    -9.526847890614));
#759 = CARTESIAN_POINT('',(4.595677618598,47.876285373477,
    -9.567848025348));
#760 = CARTESIAN_POINT('',(4.320706540224,47.373572096725,
    -9.620201537658));
#761 = CARTESIAN_POINT('',(3.968879104771,46.897811292906,
    -9.680678143893));
#762 = CARTESIAN_POINT('',(3.188768300568,46.117700488702,
    -9.794330388254));
#763 = CARTESIAN_POINT('',(2.780342067329,45.788632222034,
    -9.847928836894));
#764 = CARTESIAN_POINT('',(2.311573722296,45.496695386325,
    -9.900691201049));
#765 = CARTESIAN_POINT('',(1.788209975409,45.258804268619,
    -9.947237608793));
#766 = CARTESIAN_POINT('',(1.219809860742,45.089326803448,
    -9.981787356835));
#767 = CARTESIAN_POINT('',(0.618731517771,45.,-10.));
#768 = CARTESIAN_POINT('',(-0.618731517813,45.,-10.));
#769 = CARTESIAN_POINT('',(-1.2198098607,45.089326803461,-9.981787356832
    ));
#770 = CARTESIAN_POINT('',(-1.788209975377,45.258804268589,-9.9472376088
    ));
#771 = CARTESIAN_POINT('',(-2.311573722333,45.49669538633,
    -9.900691201046));
#772 = CARTESIAN_POINT('',(-2.780342067353,45.788632222071,
    -9.84792883689));
#773 = CARTESIAN_POINT('',(-3.18876830054,46.117700488675,
    -9.794330388258));
#774 = CARTESIAN_POINT('',(-3.968879104771,46.897811292906,
    -9.680678143893));
#775 = CARTESIAN_POINT('',(-4.320706540223,47.373572096723,
    -9.620201537658));
#776 = CARTESIAN_POINT('',(-4.595677618599,47.876285373481,
    -9.567848025348));
#777 = CARTESIAN_POINT('',(-4.798524737137,48.396303911207,
    -9.526847890614));
#778 = CARTESIAN_POINT('',(-4.932684376707,48.926805797458,
    -9.498907088331));
#779 = CARTESIAN_POINT('',(-5.,49.462883678676,-9.484888565989));
#780 = CARTESIAN_POINT('',(-5.,50.,-9.484888565989));
#781 = CYLINDRICAL_SURFACE('',#782,24.524149651187);
#782 = AXIS2_PLACEMENT_3D('',#783,#784,#785);
#783 = CARTESIAN_POINT('',(0.,3.22500907117E-15,14.524149651187));
#784 = DIRECTION('',(0.,-1.,2.22044604925E-16));
#785 = DIRECTION('',(1.,0.,0.));
#786 = ADVANCED_FACE('',(#787),#793,.F.);
#787 = FACE_BOUND('',#788,.F.);
#788 = EDGE_LOOP('',(#789,#790,#791,#792));
#789 = ORIENTED_EDGE('',*,*,#398,.T.);
#790 = ORIENTED_EDGE('',*,*,#282,.T.);
#791 = ORIENTED_EDGE('',*,*,#177,.T.);
#792 = ORIENTED_EDGE('',*,*,#606,.T.);
#793 = PLANE('',#794);
#794 = AXIS2_PLACEMENT_3D('',#795,#796,#797);
#795 = CARTESIAN_POINT('',(101.10094594518,80.,-2.30926389122E-14));
#796 = DIRECTION('',(0.,-0.587785252292,0.809016994375));
#797 = DIRECTION('',(0.,-0.809016994375,-0.587785252292));
#798 = ADVANCED_FACE('',(#799),#802,.F.);
#799 = FACE_BOUND('',#800,.T.);
#800 = EDGE_LOOP('',(#801));
#801 = ORIENTED_EDGE('',*,*,#475,.T.);
#802 = PLANE('',#803);
#803 = AXIS2_PLACEMENT_3D('',#804,#805,#806);
#804 = CARTESIAN_POINT('',(-2.734880265079E-16,-12.,3.552713678801E-15)
  );
#805 = DIRECTION('',(0.,1.,-1.972152263053E-31));
#806 = DIRECTION('',(0.,1.972152263053E-31,1.));
#807 = ADVANCED_FACE('',(#808),#827,.F.);
#808 = FACE_BOUND('',#809,.T.);
#809 = EDGE_LOOP('',(#810,#819,#825,#826));
#810 = ORIENTED_EDGE('',*,*,#811,.T.);
#811 = EDGE_CURVE('',#812,#812,#814,.T.);
#812 = VERTEX_POINT('',#813);
#813 = CARTESIAN_POINT('',(-2.,50.,-6.));
#814 = CIRCLE('',#815,2.);
#815 = AXIS2_PLACEMENT_3D('',#816,#817,#818);
#816 = CARTESIAN_POINT('',(0.,50.,-6.));
#817 = DIRECTION('',(-0.,-1.479114197289E-31,-1.));
#818 = DIRECTION('',(-1.,0.,0.));
#819 = ORIENTED_EDGE('',*,*,#820,.T.);
#820 = EDGE_CURVE('',#812,#561,#821,.T.);
#821 = LINE('',#822,#823);
#822 = CARTESIAN_POINT('',(-2.,50.,-6.));
#823 = VECTOR('',#824,1.);
#824 = DIRECTION('',(6.063468149177E-17,1.479114197289E-31,1.));
#825 = ORIENTED_EDGE('',*,*,#560,.T.);
#826 = ORIENTED_EDGE('',*,*,#820,.F.);
#827 = CYLINDRICAL_SURFACE('',#828,2.);
#828 = AXIS2_PLACEMENT_3D('',#829,#830,#831);
#829 = CARTESIAN_POINT('',(0.,50.,-6.));
#830 = DIRECTION('',(0.,1.479114197289E-31,1.));
#831 = DIRECTION('',(-1.,0.,0.));
#832 = ADVANCED_FACE('',(#833),#854,.F.);
#833 = FACE_BOUND('',#834,.T.);
#834 = EDGE_LOOP('',(#835,#836,#837,#838,#846,#853));
#835 = ORIENTED_EDGE('',*,*,#674,.T.);
#836 = ORIENTED_EDGE('',*,*,#617,.T.);
#837 = ORIENTED_EDGE('',*,*,#729,.T.);
#838 = ORIENTED_EDGE('',*,*,#839,.T.);
#839 = EDGE_CURVE('',#675,#840,#842,.T.);
#840 = VERTEX_POINT('',#841);
#841 = CARTESIAN_POINT('',(-5.,50.,-6.));
#842 = LINE('',#843,#844);
#843 = CARTESIAN_POINT('',(-5.,50.,-10.));
#844 = VECTOR('',#845,1.);
#845 = DIRECTION('',(0.,1.479114197289E-31,1.));
#846 = ORIENTED_EDGE('',*,*,#847,.F.);
#847 = EDGE_CURVE('',#840,#840,#848,.T.);
#848 = CIRCLE('',#849,5.);
#849 = AXIS2_PLACEMENT_3D('',#850,#851,#852);
#850 = CARTESIAN_POINT('',(0.,50.,-6.));
#851 = DIRECTION('',(-0.,-1.479114197289E-31,-1.));
#852 = DIRECTION('',(-1.,0.,0.));
#853 = ORIENTED_EDGE('',*,*,#839,.F.);
#854 = CYLINDRICAL_SURFACE('',#855,5.);
#855 = AXIS2_PLACEMENT_3D('',#856,#857,#858);
#856 = CARTESIAN_POINT('',(0.,50.,-10.));
#857 = DIRECTION('',(0.,1.479114197289E-31,1.));
#858 = DIRECTION('',(-1.,0.,0.));
#859 = ADVANCED_FACE('',(#860,#863),#866,.T.);
#860 = FACE_BOUND('',#861,.T.);
#861 = EDGE_LOOP('',(#862));
#862 = ORIENTED_EDGE('',*,*,#847,.T.);
#863 = FACE_BOUND('',#864,.T.);
#864 = EDGE_LOOP('',(#865));
#865 = ORIENTED_EDGE('',*,*,#811,.F.);
#866 = PLANE('',#867);
#867 = AXIS2_PLACEMENT_3D('',#868,#869,#870);
#868 = CARTESIAN_POINT('',(0.,50.,-6.));
#869 = DIRECTION('',(0.,-1.479114197289E-31,-1.));
#870 = DIRECTION('',(-1.,0.,0.));
#871 = ( GEOMETRIC_REPRESENTATION_CONTEXT(3) 
GLOBAL_UNCERTAINTY_ASSIGNED_CONTEXT((#875)) GLOBAL_UNIT_ASSIGNED_CONTEXT
((#872,#873,#874)) REPRESENTATION_CONTEXT('Context #1',
  '3D Context with UNIT and UNCERTAINTY') );
#872 = ( LENGTH_UNIT() NAMED_UNIT(*) SI_UNIT(.MILLI.,.METRE.) );
#873 = ( NAMED_UNIT(*) PLANE_ANGLE_UNIT() SI_UNIT($,.RADIAN.) );
#874 = ( NAMED_UNIT(*) SI_UNIT($,.STERADIAN.) SOLID_ANGLE_UNIT() );
#875 = UNCERTAINTY_MEASURE_WITH_UNIT(LENGTH_MEASURE(1.E-07),#872,
  'distance_accuracy_value','confusion accuracy');
#876 = PRODUCT_RELATED_PRODUCT_CATEGORY('part',$,(#7));
#877 = MECHANICAL_DESIGN_GEOMETRIC_PRESENTATION_REPRESENTATION('',(#878)
  ,#871);
#878 = STYLED_ITEM('color',(#879),#15);
#879 = PRESENTATION_STYLE_ASSIGNMENT((#880,#886));
#880 = SURFACE_STYLE_USAGE(.BOTH.,#881);
#881 = SURFACE_SIDE_STYLE('',(#882));
#882 = SURFACE_STYLE_FILL_AREA(#883);
#883 = FILL_AREA_STYLE('',(#884));
#884 = FILL_AREA_STYLE_COLOUR('',#885);
#885 = COLOUR_RGB('',0.800000010877,0.800000010877,0.800000010877);
#886 = CURVE_STYLE('',#887,POSITIVE_LENGTH_MEASURE(0.1),#888);
#887 = DRAUGHTING_PRE_DEFINED_CURVE_FONT('continuous');
#888 = COLOUR_RGB('',9.803921802644E-02,9.803921802644E-02,
  9.803921802644E-02);
ENDSEC;
END-ISO-10303-21;
